<svg width="18" height="18" viewBox="0 0 18 18" fill="none" xmlns="http://www.w3.org/2000/svg">
<path d="M15.8688 15.0943L13.625 11.3362C14.6808 10.2084 15.3288 8.68794 15.3288 7.01619C15.3288 3.52138 12.4955 0.6875 9.00013 0.6875C5.50475 0.6875 2.67144 3.52082 2.67144 7.01619C2.67144 8.67275 3.30819 10.1808 4.34994 11.3086L4.346 11.3041L2.08306 15.0948C2.04594 15.1567 2.02344 15.2309 2.02344 15.3108C2.02344 15.3997 2.051 15.4818 2.09769 15.5499L2.09656 15.5482C2.17475 15.6601 2.303 15.7321 2.44813 15.7321C2.47119 15.7321 2.49369 15.7304 2.51563 15.7271L2.51338 15.7276L4.20088 15.452L4.81682 17.0287C4.87588 17.1772 5.01313 17.2829 5.17625 17.2953H5.17794L5.21 17.2964C5.36525 17.2964 5.50082 17.2126 5.57394 17.0878L5.57507 17.0855L7.79469 13.2408C8.15525 13.3162 8.56982 13.3589 8.9945 13.3589C9.40682 13.3589 9.80957 13.3184 10.1994 13.2408L10.16 13.2476L12.3757 17.0844C12.4505 17.2109 12.5861 17.2948 12.7413 17.2953L12.7734 17.2942C12.9382 17.2813 13.0754 17.1755 13.1339 17.0298L13.1351 17.027L13.7504 15.4503L15.4379 15.7259C15.4588 15.7293 15.4824 15.7316 15.5066 15.7316C15.7394 15.7316 15.9284 15.5426 15.9284 15.3097C15.9284 15.2298 15.9059 15.155 15.8677 15.0914L15.8688 15.0931V15.0943ZM5.28425 15.9037L4.8635 14.8271C4.79938 14.669 4.6475 14.5593 4.46919 14.5593C4.44557 14.5593 4.4225 14.561 4.4 14.5649L4.40225 14.5644L3.27332 14.7489L4.96982 11.906C5.53232 12.3729 6.191 12.7486 6.90819 12.9995L6.95263 13.013L5.28425 15.9037ZM3.51575 7.03138C3.51575 4.00232 5.97107 1.547 9.00013 1.547C12.0292 1.547 14.4845 4.00232 14.4845 7.03138C14.4845 10.0604 12.0292 12.5158 9.00013 12.5158C5.97275 12.5124 3.51913 10.0588 3.51575 7.03194V7.03138ZM13.5496 14.5638C13.5288 14.5604 13.5046 14.5582 13.4804 14.5582C13.3027 14.5582 13.1508 14.6679 13.0895 14.8237L13.0884 14.8265L12.6688 15.9031L11.0083 13.0276C11.7721 12.7678 12.4325 12.3954 13.0085 11.9229L12.9973 11.9319L14.6791 14.7483L13.5496 14.5638ZM9.00013 2.95325C6.74788 2.95325 4.922 4.77913 4.922 7.03138C4.922 9.28363 6.74788 11.1095 9.00013 11.1095C11.2524 11.1095 13.0783 9.28363 13.0783 7.03138C13.076 4.78025 11.2513 2.9555 9.00013 2.95325ZM9.00013 10.2658C7.21363 10.2658 5.76575 8.81788 5.76575 7.03138C5.76575 5.24488 7.21363 3.797 9.00013 3.797C10.7866 3.797 12.2345 5.24488 12.2345 7.03138C12.2328 8.81675 10.7855 10.2641 9.00013 10.2658ZM10.4998 6.27257H9.6605L9.40119 5.4755C9.33144 5.32025 9.17844 5.2145 9.00013 5.2145C8.82182 5.2145 8.66882 5.32082 8.60019 5.47269L8.59907 5.4755L8.33975 6.27257H7.50107C7.26819 6.27257 7.07919 6.46157 7.07919 6.69444C7.07919 6.83394 7.14669 6.95769 7.25132 7.03475L7.25244 7.03532L7.93138 7.52863L7.67207 8.32569C7.65857 8.3645 7.65125 8.41007 7.65125 8.45675C7.65125 8.68963 7.84025 8.87807 8.07257 8.87807C8.16594 8.87807 8.252 8.84769 8.32175 8.7965L8.32063 8.79707L8.99957 8.30432L9.6785 8.79707C9.74713 8.84713 9.83319 8.8775 9.926 8.8775C10.1589 8.8775 10.3479 8.6885 10.3479 8.45563C10.3479 8.40894 10.3406 8.3645 10.3265 8.32232L10.3276 8.32513L10.0678 7.52807L10.7473 7.03475C10.853 6.95713 10.9205 6.83338 10.9205 6.69388C10.9205 6.461 10.7321 6.272 10.4986 6.272L10.4998 6.27257ZM9.15144 7.39025C9.10644 7.37225 9.05469 7.36213 9.00013 7.36213C8.94557 7.36213 8.89382 7.37225 8.846 7.39138L8.84882 7.39025C8.84938 7.3835 8.84938 7.37563 8.84938 7.36775C8.84938 7.2665 8.81394 7.17369 8.75432 7.10169L8.75488 7.10225C8.85782 7.07413 8.94332 7.01113 8.999 6.92619L9.00013 6.9245C9.05694 7.01057 9.14188 7.07413 9.242 7.10113L9.24482 7.10169C9.18575 7.17369 9.15032 7.26594 9.15032 7.36719C9.15032 7.37507 9.15088 7.38294 9.15144 7.39025Z" fill="#865F37"/>
</svg>
