<svg width="18" height="18" viewBox="0 0 18 18" fill="none" xmlns="http://www.w3.org/2000/svg">
<path fill-rule="evenodd" clip-rule="evenodd" d="M13.5 9.57031C13.3508 9.57031 13.2077 9.62955 13.1023 9.73506C12.9968 9.84054 12.9375 9.98362 12.9375 10.1328C12.9375 10.282 12.9968 10.4251 13.1023 10.5305C13.2077 10.636 13.3508 10.6953 13.5 10.6953C13.6492 10.6953 13.7923 10.636 13.8977 10.5305C14.0032 10.4251 14.0625 10.282 14.0625 10.1328C14.0625 9.98362 14.0032 9.84054 13.8977 9.73506C13.7923 9.62955 13.6492 9.57031 13.5 9.57031Z" fill="#865F37"/>
<path fill-rule="evenodd" clip-rule="evenodd" d="M11.8125 9.57031C11.6633 9.57031 11.5202 9.62955 11.4148 9.73506C11.3093 9.84054 11.25 9.98362 11.25 10.1328C11.25 10.282 11.3093 10.4251 11.4148 10.5305C11.5202 10.636 11.6633 10.6953 11.8125 10.6953C11.9617 10.6953 12.1048 10.636 12.2102 10.5305C12.3157 10.4251 12.375 10.282 12.375 10.1328C12.375 9.98362 12.3157 9.84054 12.2102 9.73506C12.1048 9.62955 11.9617 9.57031 11.8125 9.57031Z" fill="#865F37"/>
<path fill-rule="evenodd" clip-rule="evenodd" d="M10.125 9.57031C9.97583 9.57031 9.83275 9.62955 9.72727 9.73506C9.62176 9.84054 9.5625 9.98362 9.5625 10.1328C9.5625 10.282 9.62176 10.4251 9.72727 10.5305C9.83275 10.636 9.97583 10.6953 10.125 10.6953C10.2742 10.6953 10.4173 10.636 10.5227 10.5305C10.6282 10.4251 10.6875 10.282 10.6875 10.1328C10.6875 9.98362 10.6282 9.84054 10.5227 9.73506C10.4173 9.62955 10.2742 9.57031 10.125 9.57031Z" fill="#865F37"/>
<path fill-rule="evenodd" clip-rule="evenodd" d="M7.875 4.50781C7.72583 4.50781 7.58275 4.56706 7.47727 4.67256C7.37176 4.77804 7.3125 4.92112 7.3125 5.07031C7.3125 5.21949 7.37176 5.36257 7.47727 5.46805C7.58275 5.57355 7.72583 5.63281 7.875 5.63281C8.02418 5.63281 8.16725 5.57355 8.27273 5.46805C8.37824 5.36257 8.4375 5.21949 8.4375 5.07031C8.4375 4.92112 8.37824 4.77804 8.27273 4.67256C8.16725 4.56706 8.02418 4.50781 7.875 4.50781Z" fill="#865F37"/>
<path fill-rule="evenodd" clip-rule="evenodd" d="M6.1875 4.50781C6.03833 4.50781 5.89525 4.56706 5.78977 4.67256C5.68426 4.77804 5.625 4.92112 5.625 5.07031C5.625 5.21949 5.68426 5.36257 5.78977 5.46805C5.89525 5.57355 6.03833 5.63281 6.1875 5.63281C6.33668 5.63281 6.47975 5.57355 6.58523 5.46805C6.69074 5.36257 6.75 5.21949 6.75 5.07031C6.75 4.92112 6.69074 4.77804 6.58523 4.67256C6.47975 4.56706 6.33668 4.50781 6.1875 4.50781Z" fill="#865F37"/>
<path fill-rule="evenodd" clip-rule="evenodd" d="M4.5 4.50781C4.35083 4.50781 4.20775 4.56706 4.10227 4.67256C3.99676 4.77804 3.9375 4.92112 3.9375 5.07031C3.9375 5.21949 3.99676 5.36257 4.10227 5.46805C4.20775 5.57355 4.35083 5.63281 4.5 5.63281C4.64918 5.63281 4.79225 5.57355 4.89773 5.46805C5.00324 5.36257 5.0625 5.21949 5.0625 5.07031C5.0625 4.92112 5.00324 4.77804 4.89773 4.67256C4.79225 4.56706 4.64918 4.50781 4.5 4.50781Z" fill="#865F37"/>
<path fill-rule="evenodd" clip-rule="evenodd" d="M2.28296 1.13281C1.66788 1.13281 1.125 1.62654 1.125 2.25782V7.88282C1.125 8.5141 1.66788 9.00782 2.28296 9.00782H3.375V10.6953C3.37505 10.8065 3.40805 10.9153 3.46988 11.0077C3.53169 11.1002 3.61953 11.1723 3.72229 11.2148C3.82505 11.2574 3.93811 11.2686 4.04721 11.2469C4.15631 11.2252 4.25653 11.1716 4.33521 11.093L6.42042 9.00782H6.75V12.9453C6.75 13.5764 7.29288 14.0703 7.90796 14.0703H10.6534L12.7386 16.1555C12.8173 16.2341 12.9175 16.2877 13.0266 16.3094C13.1357 16.331 13.2488 16.3199 13.3516 16.2773C13.4543 16.2348 13.5422 16.1627 13.604 16.0702C13.6658 15.9778 13.6988 15.869 13.6989 15.7578V14.0703H15.717C16.3321 14.0703 16.875 13.5764 16.875 12.9453V7.32032C16.875 6.68919 16.3321 6.19532 15.717 6.19532H11.25V2.25782C11.25 1.62654 10.7071 1.13281 10.092 1.13281H2.28296ZM2.28296 2.25782H10.092C10.1145 2.25782 10.1224 2.26007 10.125 2.26119V7.8796C10.1222 7.88072 10.1145 7.88297 10.092 7.88297H6.1875C6.03833 7.883 5.89527 7.94226 5.78979 8.04776L4.5 9.3374V8.44532C4.49998 8.29614 4.44074 8.15306 4.33523 8.04756C4.22975 7.94208 4.08668 7.88282 3.9375 7.88282H2.28296C2.26051 7.88282 2.25263 7.88055 2.25 7.87942V2.26101C2.25281 2.25989 2.26051 2.25782 2.28296 2.25782ZM11.25 7.32032H15.717C15.7395 7.32032 15.7474 7.32257 15.75 7.32369V12.9421C15.7472 12.9432 15.7395 12.9455 15.717 12.9455H13.1364C12.9872 12.9455 12.8441 13.0048 12.7386 13.1102C12.6331 13.2157 12.5739 13.3588 12.5739 13.508V14.4001L11.2841 13.1103C11.1786 13.0048 11.0355 12.9455 10.8864 12.9455H7.90796C7.88551 12.9455 7.87763 12.9432 7.875 12.9421V9.00791H10.092C10.7071 9.00791 11.25 8.51417 11.25 7.88291V7.32032Z" fill="#865F37"/>
</svg>
