<svg width="600" height="600" viewBox="0 0 600 600" fill="none" xmlns="http://www.w3.org/2000/svg">
<g clip-path="url(#clip0_169_2)">
<path d="M559.987 80.0115C549.375 80.0154 539.2 84.232 531.699 91.7338L270.086 353.347L206.037 227.296C190.415 211.676 165.081 211.668 149.451 227.28C133.821 242.891 133.814 268.21 149.434 283.831L241.785 438.182C257.413 453.807 282.758 453.807 298.387 438.182L588.301 148.268C603.923 132.647 603.915 107.327 588.284 91.7152C580.778 84.218 570.599 80.008 559.987 80.0115ZM296.961 -0.030681C220.338 0.787563 144.723 30.8358 87.7939 87.7824C-8.08713 183.692 -27.674 332.542 40.118 449.997C107.91 567.452 246.632 624.939 377.628 589.828C508.624 554.717 600 435.578 600 299.965C600 277.88 582.086 259.977 559.989 259.977C537.89 259.976 519.975 277.88 519.975 299.965C519.975 399.799 453.257 486.755 356.898 512.582C260.538 538.409 159.332 496.486 109.436 410.037C59.5405 323.589 73.8502 214.886 144.405 144.309C214.96 73.7331 323.556 59.435 409.957 109.334C429.091 120.384 453.564 113.839 464.62 94.7173C475.676 75.5962 469.129 51.1388 449.997 40.0889C402.287 12.5351 349.387 -0.590532 296.961 -0.030681Z" fill="#15D611"/>
</g>
<defs>
<clipPath id="clip0_169_2">
<rect width="600" height="600" fill="white"/>
</clipPath>
</defs>
</svg>
