<svg width="35" height="35" viewBox="0 0 35 35" fill="none" xmlns="http://www.w3.org/2000/svg">
<path d="M26.95 27.0328H30.625M6.825 17.5L4.375 17.5642M6.825 17.5C6.825 19.433 8.39199 21 10.325 21C12.258 21 13.825 19.433 13.825 17.5C13.825 15.567 12.258 14 10.325 14C8.39199 14 6.825 15.567 6.825 17.5ZM14.8298 17.5643H30.625M18.6681 8.09556H4.375M30.625 8.09556H26.95M4.375 27.0328H18.6681M26.075 27.125C26.075 29.058 24.508 30.625 22.575 30.625C20.642 30.625 19.075 29.058 19.075 27.125C19.075 25.192 20.642 23.625 22.575 23.625C24.508 23.625 26.075 25.192 26.075 27.125ZM26.075 7.875C26.075 9.80799 24.508 11.375 22.575 11.375C20.642 11.375 19.075 9.80799 19.075 7.875C19.075 5.94201 20.642 4.375 22.575 4.375C24.508 4.375 26.075 5.94201 26.075 7.875Z" stroke="#865F37" stroke-width="2.1875" stroke-linecap="round"/>
</svg>
