<svg width="18" height="18" viewBox="0 0 18 18" fill="none" xmlns="http://www.w3.org/2000/svg">
<g clip-path="url(#clip0_214_58)">
<mask id="mask0_214_58" style="mask-type:luminance" maskUnits="userSpaceOnUse" x="0" y="0" width="18" height="18">
<path d="M18 0H0V18H18V0Z" fill="white"/>
</mask>
<g mask="url(#mask0_214_58)">
<path d="M7.19841 8.94484L8.40117 7.74235C7.00169 7.09923 5.28829 7.35285 4.13706 8.50436C2.66004 9.98112 2.66004 12.3846 4.13706 13.8619C5.6138 15.339 8.01761 15.339 9.49437 13.8619C10.6456 12.7107 10.8995 10.997 10.2564 9.59754L9.05367 10.8003C9.17253 11.5026 8.96391 12.2496 8.42299 12.7902C7.53672 13.6768 6.09478 13.6768 5.20853 12.7902C4.32223 11.904 4.32223 10.4621 5.20853 9.57603C5.74941 9.03484 6.49641 8.82593 7.19841 8.94484Z" fill="#865F37"/>
<path d="M11.3775 8.4782C12.5842 10.5129 12.3141 13.187 10.5662 14.9346C8.49814 17.0027 5.13365 17.0027 3.06583 14.9346C0.997725 12.8669 0.997725 9.50205 3.06583 7.43398C4.8132 5.68634 7.48759 5.41627 9.52227 6.62272L10.6197 5.52497C7.96939 3.74279 4.33539 4.02134 1.99412 6.36228C-0.664708 9.02084 -0.664708 13.3475 1.99412 16.006C4.653 18.6652 8.97908 18.6652 11.6379 16.006C13.9794 13.6648 14.2577 10.0308 12.4749 7.38016L11.3775 8.4782Z" fill="#865F37"/>
<path d="M17.9749 2.98258C17.9183 2.83511 17.7751 2.74424 17.6129 2.75162L15.1321 2.86799L15.2487 0.387497C15.2558 0.225004 15.1649 0.0823399 15.0175 0.0251759C14.8709 -0.0314257 14.6968 0.00932039 14.5773 0.128219L11.9301 2.77569L11.7962 5.63468L6.98351 10.447C6.73866 10.3916 6.47145 10.4572 6.28065 10.648C5.98457 10.9441 5.98457 11.4236 6.28065 11.7197C6.57646 12.0158 7.05627 12.0158 7.35235 11.7197C7.54283 11.5289 7.60883 11.2617 7.55332 11.0166L12.3657 6.20388L15.2244 6.0703L17.8719 3.42245C17.9911 3.30332 18.0316 3.12975 17.9749 2.98258Z" fill="#865F37"/>
</g>
</g>
<defs>
<clipPath id="clip0_214_58">
<rect width="18" height="18" fill="white"/>
</clipPath>
</defs>
</svg>
