<svg width="18" height="18" viewBox="0 0 18 18" fill="none" xmlns="http://www.w3.org/2000/svg">
<path d="M17.2406 10.2945L12.8812 14.6539C12.375 15.1812 11.6156 15.5539 10.8141 15.5539H7.5375C7.12264 15.5539 6.75 15.7156 6.47577 15.9898L5.38594 17.0164H0.421875L5.1961 12.1789L5.18906 12.1719C5.69531 11.6656 6.40546 11.3492 7.18594 11.3422H11.8969C12.3961 11.3422 12.7969 11.743 12.7969 12.2422C12.7969 12.7414 12.3961 13.1422 11.8969 13.1422H8.1C7.93827 13.1281 7.80469 13.2617 7.80469 13.4375C7.80469 13.6133 7.93829 13.7398 8.10704 13.7398H11.8828C12.2836 13.7539 12.6633 13.5852 12.9445 13.3039C13.2258 13.0227 13.3805 12.6359 13.3805 12.2422C13.3945 12.0594 13.3453 11.8625 13.282 11.6937L15.9609 9.01484C16.3195 8.65624 16.882 8.65626 17.2336 9.00078C17.5992 9.35939 17.5922 9.94297 17.2406 10.2945ZM4.85156 5.76641C4.85156 3.15078 6.94687 1.02734 9.5625 1.02734C12.1781 1.02734 14.2875 3.13672 14.2875 5.75234C14.2875 8.36797 12.1711 10.4773 9.56954 10.4773C6.96798 10.4773 4.85156 8.36797 4.85156 5.76641ZM10.1883 6.85626C10.1883 7.1797 9.92108 7.41876 9.37969 7.41876C8.87344 7.41876 8.40233 7.24297 8.1 7.09532L7.86094 8.05157C8.13517 8.20626 8.70469 8.35391 9.26719 8.35391V9.07109H9.9211V8.33282C10.8774 8.12189 11.3274 7.55234 11.3274 6.81407C11.3274 6.07578 10.9125 5.61876 10.0195 5.29532C9.37267 5.02814 9.07031 4.90157 9.07031 4.57109C9.07031 4.33203 9.33046 4.09297 9.8086 4.09297C10.2867 4.09297 10.6383 4.24064 10.8562 4.33203L11.1234 3.39689C10.8351 3.2422 10.4414 3.12968 9.9 3.12968V2.39843H9.2461V3.17891C8.37423 3.3547 7.8961 3.9172 7.8961 4.64141C7.8961 5.42189 8.4375 5.8578 9.30235 6.16016C9.92812 6.39922 10.1883 6.53282 10.1883 6.85626Z" fill="#865F37"/>
</svg>
