<svg width="18" height="18" viewBox="0 0 18 18" fill="none" xmlns="http://www.w3.org/2000/svg">
<g clip-path="url(#clip0_214_72)">
<mask id="mask0_214_72" style="mask-type:luminance" maskUnits="userSpaceOnUse" x="0" y="0" width="18" height="18">
<path d="M18 0H0V18H18V0Z" fill="white"/>
</mask>
<g mask="url(#mask0_214_72)">
<path d="M6.3 0C2.83434 0 0 2.83529 0 6.29998C0 9.76468 2.83434 12.6 6.3 12.6C9.76566 12.6 12.6 9.76468 12.6 6.29998C12.6 2.83529 9.76566 0 6.3 0ZM6.3 2.39926C8.46723 2.39926 10.1993 4.13098 10.1993 6.29998C10.1993 8.46898 8.46723 10.2007 6.3 10.2007C4.13277 10.2007 2.40071 8.46898 2.40071 6.29998C2.40071 4.13098 4.13277 2.39926 6.3 2.39926Z" fill="#865F37"/>
<path d="M9.89997 8.70117C9.74232 8.70114 9.58623 8.7321 9.44055 8.79234C9.2949 8.85258 9.16254 8.94093 9.05103 9.05229C8.82588 9.2772 8.69931 9.5823 8.69922 9.90045C8.69913 10.2186 8.82549 10.5238 9.05055 10.7488L15.9498 17.6482C16.1749 17.8732 16.4801 17.9997 16.7985 17.9998C17.1168 17.9999 17.4222 17.8736 17.6473 17.6487C17.8725 17.4238 17.9991 17.1187 17.9992 16.8005C17.9993 16.4823 17.8729 16.1772 17.6479 15.9521L10.7486 9.05286C10.5236 8.8278 10.2183 8.70129 9.89997 8.70117Z" fill="#865F37"/>
<path d="M8.99608 6.75053C8.95666 6.75053 8.91763 6.74279 8.88121 6.72773C8.84482 6.71264 8.81173 6.69056 8.78386 6.66272C8.75599 6.63488 8.73388 6.60182 8.71879 6.56543C8.7037 6.52904 8.69593 6.49004 8.69593 6.45065C8.69593 5.65676 8.32669 4.9088 7.69651 4.42613C7.06633 3.94346 6.24817 3.78182 5.48185 3.98858C5.40499 4.00931 5.32306 3.99869 5.25406 3.95906C5.18506 3.91943 5.13466 3.85403 5.1139 3.77723C5.10361 3.73922 5.10094 3.69953 5.10601 3.66047C5.11108 3.62141 5.1238 3.58373 5.14345 3.54959C5.1631 3.51545 5.18926 3.48551 5.22049 3.46148C5.25172 3.43745 5.28736 3.41978 5.3254 3.40952C6.27166 3.15419 7.28356 3.35414 8.06161 3.95006C8.83963 4.54601 9.29614 5.4707 9.29614 6.45065C9.29614 6.53018 9.26452 6.60647 9.20824 6.66269C9.15196 6.71894 9.07564 6.75053 8.99608 6.75053Z" fill="#865F37"/>
</g>
</g>
<defs>
<clipPath id="clip0_214_72">
<rect width="18" height="18" fill="white"/>
</clipPath>
</defs>
</svg>
