<svg width="18" height="18" viewBox="0 0 18 18" fill="none" xmlns="http://www.w3.org/2000/svg">
<g clip-path="url(#clip0_214_83)">
<path d="M17.9458 11.0888C17.8738 10.2608 17.6938 9.62476 17.4058 9.18077C17.1178 8.70075 16.6978 8.42477 16.1458 8.35277C15.7978 7.40475 15.2668 6.56177 14.5528 5.82377C13.8388 5.08577 13.0018 4.51877 12.0418 4.12277C11.9938 4.09876 11.9698 4.05977 11.9698 4.00577C11.9698 3.95177 11.9938 3.91275 12.0418 3.88877C12.5818 3.67277 13.0138 3.36677 13.3378 2.97077C13.6618 2.57477 13.8238 2.13676 13.8238 1.65676C13.8238 1.08076 13.5838 0.564762 13.1038 0.108761C13.0678 0.0607608 13.0228 0.0517608 12.9688 0.0817609C12.9148 0.111761 12.8998 0.150761 12.9238 0.198761C13.0678 0.474762 13.1398 0.774761 13.1398 1.09876C13.1398 1.49476 13.0138 1.84876 12.7618 2.16076C12.5338 2.43675 12.1918 2.70077 11.7358 2.95277C11.1118 3.28876 10.4458 3.42077 9.7378 3.34877C9.49779 3.32476 9.2518 3.31277 8.9998 3.31277C7.93179 3.31277 6.90579 3.54076 5.9218 3.99677C4.97381 4.42877 4.14581 5.02576 3.4378 5.78777C2.72979 6.54975 2.2018 7.40475 1.8538 8.35277C1.3018 8.42477 0.881796 8.70075 0.593796 9.18077C0.305796 9.62476 0.125797 10.2608 0.0537968 11.0888C-0.0302031 12.0248 0.101797 12.7208 0.449796 13.1768C0.761797 13.5848 1.2538 13.8068 1.9258 13.8428C2.38181 14.6828 3.0508 15.3758 3.9328 15.9218C4.8148 16.4678 5.80779 16.7888 6.9118 16.8848C7.00781 16.8968 7.0738 16.9388 7.1098 17.0108C7.1818 17.1548 7.28681 17.2658 7.4248 17.3438C7.56279 17.4218 7.70981 17.4608 7.8658 17.4608H9.6838C9.91179 17.4608 10.1128 17.3738 10.2868 17.1998C10.4608 17.0258 10.5478 16.8188 10.5478 16.5788C10.5478 16.3388 10.4638 16.1318 10.2958 15.9578C10.1278 15.7838 9.92381 15.6968 9.6838 15.6968H7.8658C7.70981 15.6968 7.56581 15.7358 7.4338 15.8138C7.30179 15.8918 7.1998 15.9968 7.1278 16.1288C7.07981 16.2128 7.0018 16.2488 6.8938 16.2368C6.0298 16.1168 5.2468 15.8438 4.5448 15.4178C3.8428 14.9918 3.2938 14.4428 2.8978 13.7708C2.94579 13.7588 2.9878 13.7408 3.0238 13.7168C3.14379 13.6928 3.2488 13.4288 3.3388 12.9248C3.4288 12.4208 3.4738 11.8148 3.4738 11.1068C3.4738 10.4348 3.43481 9.85275 3.3568 9.36077C3.27879 8.86876 3.17979 8.58677 3.0598 8.51477C3.3118 7.61477 3.7618 6.86475 4.4098 6.26477C5.0578 5.66476 5.89779 5.23276 6.9298 4.96877C7.42181 4.84875 7.87779 4.81876 8.2978 4.87877C8.78981 4.93875 9.16781 5.13077 9.4318 5.45477C9.59981 5.65875 9.6838 5.96475 9.6838 6.37277C9.6838 6.64875 9.62379 6.90676 9.5038 7.14677C9.45581 7.25477 9.47381 7.35075 9.5578 7.43477C9.64179 7.51876 9.7378 7.53676 9.8458 7.48877C10.2178 7.28476 10.5148 7.01775 10.7368 6.68777C10.9588 6.35776 11.0698 6.01277 11.0698 5.65277C11.0698 5.50877 11.0488 5.36477 11.0068 5.22077C10.9648 5.07677 11.0008 4.95376 11.1148 4.85177C11.2288 4.74975 11.3518 4.72876 11.4838 4.78877C12.3238 5.13675 13.0408 5.63175 13.6348 6.27377C14.2288 6.91576 14.6578 7.66276 14.9218 8.51477C14.8378 8.63476 14.7718 8.93475 14.7238 9.41477C14.6758 9.89476 14.6518 10.4468 14.6518 11.0708C14.6518 11.5988 14.6698 12.0758 14.7058 12.5018C14.7418 12.9278 14.7898 13.2488 14.8498 13.4648C14.8498 13.5368 14.8738 13.5968 14.9218 13.6448L14.9398 13.6628C14.9878 13.7228 15.0478 13.7588 15.1198 13.7708C15.2638 13.8188 15.5158 13.8428 15.8758 13.8428C16.6078 13.8428 17.1478 13.6388 17.4958 13.2308C17.8798 12.7868 18.0298 12.0728 17.9458 11.0888ZM10.5118 13.6448H7.5238C7.43981 13.6448 7.37681 13.6778 7.3348 13.7438C7.29279 13.8098 7.2898 13.8788 7.3258 13.9508C7.44579 14.2148 7.6588 14.4338 7.9648 14.6078C8.2708 14.7818 8.61881 14.8688 9.0088 14.8688C9.39879 14.8688 9.74979 14.7818 10.0618 14.6078C10.3738 14.4338 10.5898 14.2148 10.7098 13.9508C10.7458 13.8788 10.7398 13.8098 10.6918 13.7438C10.6438 13.6778 10.5838 13.6448 10.5118 13.6448ZM5.5618 11.0528C5.5618 11.3408 5.66379 11.5868 5.8678 11.7908C6.07181 11.9948 6.3178 12.0968 6.6058 12.0968C6.8938 12.0968 7.1368 11.9948 7.3348 11.7908C7.5328 11.5868 7.6318 11.3408 7.6318 11.0528C7.6318 10.7648 7.5328 10.5218 7.3348 10.3238C7.1368 10.1258 6.8938 10.0268 6.6058 10.0268C6.3178 10.0268 6.07181 10.1258 5.8678 10.3238C5.66379 10.5218 5.5618 10.7648 5.5618 11.0528ZM10.3858 11.0528C10.3858 11.3408 10.4878 11.5868 10.6918 11.7908C10.8958 11.9948 11.1388 12.0968 11.4208 12.0968C11.7028 12.0968 11.9458 11.9948 12.1498 11.7908C12.3538 11.5868 12.4558 11.3408 12.4558 11.0528C12.4558 10.7648 12.3538 10.5218 12.1498 10.3238C11.9458 10.1258 11.7028 10.0268 11.4208 10.0268C11.1388 10.0268 10.8958 10.1258 10.6918 10.3238C10.4878 10.5218 10.3858 10.7648 10.3858 11.0528Z" fill="#865F37"/>
</g>
<defs>
<clipPath id="clip0_214_83">
<rect width="18" height="18" fill="white"/>
</clipPath>
</defs>
</svg>
