<svg width="18" height="18" viewBox="0 0 18 18" fill="none" xmlns="http://www.w3.org/2000/svg">
<g clip-path="url(#clip0_214_85)">
<mask id="mask0_214_85" style="mask-type:luminance" maskUnits="userSpaceOnUse" x="0" y="0" width="18" height="18">
<path d="M18 0H0V18H18V0Z" fill="white"/>
</mask>
<g mask="url(#mask0_214_85)">
<path d="M18 10.3869C18 9.36842 17.4199 8.47712 16.5484 8.04688V3.48388C16.5484 1.56281 14.9856 0 13.0645 0C11.1435 0 9.58064 1.56281 9.58064 3.48388V3.82703C9.21339 3.76432 8.83161 3.75763 8.44781 3.81717C8.4272 3.82036 8.40688 3.82588 8.38627 3.82937C8.40629 3.71554 8.41937 3.60059 8.41937 3.48388V2.32259C8.41937 1.86329 8.06227 1.48587 7.61081 1.45394C7.02378 0.552773 6.01373 0 4.93549 0C3.17468 0 1.74194 1.43274 1.74194 3.19354V3.48388C1.74194 4.14727 2.07319 4.76681 2.6129 5.14481V5.16137C2.6129 5.89298 2.95373 6.54561 3.48388 6.97151V7.5931L2.18352 7.80968C0.91829 8.02017 0 9.10422 0 10.3869V12.7742H5.13522C4.14668 13.1624 3.48388 14.1114 3.48388 15.2025V18H14.5161V15.2025C14.5161 14.1114 13.8533 13.1624 12.8648 12.7742H18V10.3869ZM10.1613 3.48388C10.1613 1.88303 11.4637 0.580646 13.0645 0.580646C14.6654 0.580646 15.9677 1.88303 15.9677 3.48388V7.84161C15.9175 7.83029 15.8679 7.8181 15.8165 7.80939L14.5161 7.59281V6.97122C15.0463 6.54503 15.3871 5.89268 15.3871 5.16107L15.3851 3.32159L14.9734 3.51117C14.9676 3.51407 14.3875 3.7742 13.0645 3.7742C11.7415 3.7742 11.1615 3.51407 11.158 3.51261L10.7419 3.31317V4.24422C10.5576 4.13768 10.3625 4.05029 10.1613 3.97888V3.48388ZM12.0246 5.53412C11.8359 5.20288 11.5969 4.91283 11.3226 4.66693V4.17193C11.6678 4.25873 12.2371 4.35483 13.0645 4.35483C13.8919 4.35483 14.4613 4.25873 14.8065 4.17193V5.16107C14.8065 6.12173 14.0252 6.903 13.0645 6.903C12.9673 6.903 12.8706 6.89227 12.7742 6.87571V6.44807C12.7742 5.99661 12.4516 5.61949 12.0246 5.53412ZM12.5216 8.77588C12.683 8.39003 12.7742 7.97429 12.7742 7.54839V7.46273C12.8706 7.47493 12.9675 7.48393 13.0645 7.48393C13.3725 7.48393 13.6664 7.42239 13.9355 7.31293V7.79198L13.0645 10.4049L12.5216 8.77588ZM12.5454 10.6836L11.7502 9.88839C11.8934 9.75542 12.0202 9.60881 12.1355 9.45349L12.5454 10.6836ZM14.4229 8.16561L14.8816 8.24198L15.0718 9.19481L13.5836 10.6833L14.4229 8.16561ZM8.53607 4.39083C9.78764 4.1969 11.0108 4.82022 11.5833 5.93854L11.6646 6.09678H11.842C12.0359 6.09678 12.1935 6.25442 12.1935 6.44807V7.54839C12.1935 8.14761 11.9822 8.72593 11.6126 9.18639L11.6112 7.40527L11.2099 7.57103C11.2035 7.57393 10.5442 7.83871 9 7.83871C7.45578 7.83871 6.79646 7.57393 6.79181 7.5719L6.3871 7.39859V8.51254C6.15222 8.02451 6.05381 7.47551 6.11564 6.92273C6.2579 5.64998 7.27578 4.58537 8.53607 4.39083ZM5.75681 8.5111C5.82242 8.68064 5.89849 8.84612 5.99022 9.00407L5.4781 8.69661L5.75681 8.5111ZM4.94564 8.35403L4.06451 7.69354V7.31264C4.33364 7.4221 4.62746 7.48364 4.93549 7.48364C5.13639 7.48364 5.33322 7.4549 5.52512 7.40381C5.53298 7.58032 5.55183 7.75539 5.58581 7.92727L4.94564 8.35403ZM6.12959 9.76442L6.4141 9.93512C6.49973 10.5628 6.80837 11.1188 7.25807 11.5226V12.1935H6.06281L5.81749 10.2324L6.12959 9.76442ZM7.47668 12.7986L8.49251 13.6112L7.63637 14.1251L6.84871 12.9435L7.47668 12.7986ZM7.83871 12.3442V11.9177C8.18912 12.0925 8.58251 12.1935 9 12.1935C9.41749 12.1935 9.81088 12.0928 10.1613 11.9177V12.3442L9 13.2733L7.83871 12.3442ZM10.5233 12.7983L11.1513 12.9432L10.3636 14.1248L9.50749 13.6109L10.5233 12.7983ZM9 11.6129C7.87964 11.6129 6.96773 10.701 6.96773 9.58064V8.226C7.3472 8.31454 8.00622 8.41937 9 8.41937C9.99378 8.41937 10.6528 8.31454 11.0323 8.226V9.58064C11.0323 10.701 10.1204 11.6129 9 11.6129ZM2.6129 3.31317V4.35049C2.42827 4.10342 2.32259 3.80032 2.32259 3.48388V3.19354C2.32259 1.75268 3.49461 0.580646 4.93549 0.580646C5.86278 0.580646 6.7291 1.08145 7.19593 1.88739L7.27983 2.03226H7.54839C7.70864 2.03226 7.83871 2.16232 7.83871 2.32259V3.48388C7.83871 3.6659 7.80212 3.84329 7.7342 4.014C7.569 4.07932 7.4099 4.15742 7.25749 4.24683L7.25632 3.32188L6.84464 3.51146C6.83854 3.51407 6.25849 3.7742 4.93549 3.7742C3.61249 3.7742 3.03242 3.51407 3.02893 3.51261L2.6129 3.31317ZM3.19354 5.16107V4.17193C3.53873 4.25873 4.10807 4.35483 4.93549 4.35483C5.7629 4.35483 6.33222 4.25873 6.67741 4.17193V4.66983C6.075 5.21361 5.65983 5.96237 5.54951 6.78803C5.3521 6.86322 5.14654 6.90329 4.93549 6.90329C3.97481 6.903 3.19354 6.12173 3.19354 5.16107ZM3.69929 8.14529L4.41581 8.68268L3.58346 9.18232L3.02836 8.25737L3.69929 8.14529ZM3.80817 12.1935H2.32259V11.3226H1.74194V12.1935H0.580646V10.3869C0.580646 9.38903 1.29484 8.54593 2.27873 8.3822L2.41288 8.35983L3.38429 9.97898L3.74139 9.76471L4.0532 10.2324L3.80817 12.1935ZM4.39317 12.1935L4.6559 10.0902L4.23959 9.46568L4.93549 9.0482L5.6311 9.46539L5.21478 10.0899L5.47751 12.1935H4.39317ZM7.8692 17.4194H5.80646V15.9677H5.22581V17.4194H4.06451V15.2025C4.06451 14.2505 4.71222 13.4361 5.63981 13.2225L6.24398 13.0831L7.46042 14.9075L7.8059 14.7002L8.11917 15.1699L7.8692 17.4194ZM9.54668 17.4194H8.45361L8.71983 15.0236L8.30468 14.4009L9 13.9837L9.69561 14.4009L9.28046 15.0236L9.54668 17.4194ZM13.9355 15.2025V17.4194H12.7742V15.9677H12.1935V17.4194H10.1308L9.88083 15.1699L10.1941 14.7002L10.5396 14.9075L11.756 13.0831L12.3602 13.2225C13.2878 13.4361 13.9355 14.2505 13.9355 15.2025ZM17.4194 12.1935H16.2581V11.3226H15.6774V12.1935H10.7419V11.5226C11.0697 11.2282 11.3226 10.8531 11.4692 10.4278L13.0645 12.0234L15.7024 9.38583L15.4939 8.34417L15.7213 8.3822C16.7052 8.54622 17.4194 9.38932 17.4194 10.3869V12.1935Z" fill="#865F37"/>
</g>
</g>
<defs>
<clipPath id="clip0_214_85">
<rect width="18" height="18" fill="white"/>
</clipPath>
</defs>
</svg>
