<svg width="18" height="18" viewBox="0 0 18 18" fill="none" xmlns="http://www.w3.org/2000/svg">
<g clip-path="url(#clip0_214_91)">
<mask id="mask0_214_91" style="mask-type:luminance" maskUnits="userSpaceOnUse" x="0" y="0" width="18" height="18">
<path d="M18 0H0V18H18V0Z" fill="white"/>
</mask>
<g mask="url(#mask0_214_91)">
<path d="M11.75 6.25H6.25V11.75H11.75V6.25Z" fill="#865F37"/>
<path d="M18 6.25001V4.75H16.25V4.00001C16.25 2.75934 15.2407 1.75001 14 1.75001H13.25V0H11.75V1.75001H9.74999V0H8.24998V1.75001H6.24997V0H4.74996V1.75001H3.99997C2.75931 1.75001 1.74997 2.75934 1.74997 4.00001V4.75H0V6.25001H1.75001V8.25001H0V9.75002H1.75001V11.75H0V13.25H1.75001V14C1.75001 15.2407 2.75934 16.25 4.00001 16.25H4.75V18H6.25001V16.25H8.25001V18H9.75002V16.25H11.75V18H13.25V16.25H14C15.2407 16.25 16.25 15.2407 16.25 14V13.25H18V11.75H16.25V9.74999H18V8.24998H16.25V6.24997H18V6.25001ZM13.25 13.25H4.75V4.75H13.25V13.25Z" fill="#865F37"/>
</g>
</g>
<defs>
<clipPath id="clip0_214_91">
<rect width="18" height="18" fill="white"/>
</clipPath>
</defs>
</svg>
