<svg width="18" height="18" viewBox="0 0 18 18" fill="none" xmlns="http://www.w3.org/2000/svg">
<path d="M15.8336 3.28906H2.29667C1.75 3.28906 1.45117 3.56152 1.45117 4.13457V14.0047C1.45117 14.5777 1.75 14.8502 2.29667 14.8502H15.8336C16.4066 14.8502 16.6791 14.5514 16.6791 14.0047V4.13632C16.6791 3.58789 16.4066 3.28906 15.8336 3.28906ZM3.42521 14.0064H2.86095C2.40566 14.0064 2.29667 13.7305 2.29667 13.4422V12.3137H3.42521V14.0064ZM3.42521 11.4682H2.29667V9.49414H3.42521V11.4682ZM3.42521 8.64863H2.29667V6.67462H3.42521V8.64863ZM3.42521 5.82733H2.29667V4.69882C2.29667 4.24356 2.57266 4.13457 2.86095 4.13457H3.42521V5.82733ZM13.8596 14.0064H4.27071V4.13632H13.8596V14.0064ZM15.8336 13.4422C15.8336 13.7305 15.7246 14.0064 15.2693 14.0064H14.7051V12.3137H15.8336V13.4422ZM15.8336 11.4682H14.7051V9.49414H15.8336V11.4682ZM15.8336 8.64863H14.7051V6.67462H15.8336V8.64863ZM15.8336 5.82733H14.7051V4.13457H15.2693C15.5576 4.13457 15.8336 4.24356 15.8336 4.69882V5.82733ZM6.96718 11.9393C7.03927 11.9973 7.12891 12.0307 7.22734 12.0324H7.23437C7.30997 12.0324 7.38554 12.0148 7.45585 11.9762L11.8697 9.47305C12.0772 9.35702 12.1475 9.09688 12.0279 8.89471V8.89296C11.9928 8.81738 11.9348 8.75058 11.8557 8.70488L7.45761 6.16659C7.3873 6.12618 7.31172 6.10858 7.23614 6.11034H7.23261C6.99884 6.11034 6.80898 6.30019 6.80898 6.53399V11.5561C6.79667 11.6457 6.81427 11.7389 6.86347 11.8215C6.88984 11.8672 6.92677 11.9076 6.96718 11.9393ZM7.65449 7.2582L10.8221 9.08632L7.65449 10.8846V7.2582Z" fill="#865F37"/>
</svg>
