<svg width="18" height="18" viewBox="0 0 18 18" fill="none" xmlns="http://www.w3.org/2000/svg">
<g clip-path="url(#clip0_214_105)">
<mask id="mask0_214_105" style="mask-type:luminance" maskUnits="userSpaceOnUse" x="0" y="0" width="18" height="18">
<path d="M18 0H0V18H18V0Z" fill="white"/>
</mask>
<g mask="url(#mask0_214_105)">
<path d="M4.48633 16.7419C4.54346 16.7419 4.60058 16.7995 4.60058 16.7995C4.60058 16.7995 4.54321 16.7419 4.48633 16.7419C4.48633 16.685 4.48633 16.685 4.48633 16.7419Z" fill="#865F37"/>
<path d="M17.7988 7.20117C17.8565 7.37258 17.8565 7.54398 17.8565 7.71539C17.856 7.48661 17.856 7.37258 17.7988 7.20117Z" fill="#865F37"/>
<path d="M17.1135 5.77136C17.2276 5.94276 17.3989 6.05704 17.4566 6.22844C17.514 6.22844 17.4566 6.17105 17.514 6.17105C17.4566 6.05704 17.4566 5.94251 17.4002 5.82824C17.2849 5.65735 16.9421 5.42882 17.1135 5.77136Z" fill="#865F37"/>
<path d="M17.5137 6.22852C17.5137 6.28616 17.5137 6.34255 17.5708 6.39992C17.5703 6.34304 17.5703 6.28616 17.5137 6.22852Z" fill="#865F37"/>
<path d="M16.7131 4.34423C16.9985 4.80156 17.2276 5.25838 17.3987 5.77284C16.8274 4.28759 15.9132 2.97326 14.6562 2.00195C14.8277 2.17361 14.9422 2.28764 15.1136 2.40189C15.6849 2.97299 16.2563 3.65836 16.7131 4.34423Z" fill="#865F37"/>
<path d="M0.429688 6.34308C0.543956 6.05767 0.60109 5.77199 0.715361 5.48633C0.600836 5.77149 0.486822 6.05742 0.429688 6.34308Z" fill="#865F37"/>
<path d="M0.373047 6.45827C0.373047 6.40063 0.373047 6.40063 0.430181 6.34375C0.430181 6.34375 0.430181 6.40063 0.373047 6.45827Z" fill="#865F37"/>
<path d="M9.51461 10.2863V9.88634C9.51461 9.71496 9.51461 9.48692 9.57275 9.31552C9.57275 9.31552 9.57275 9.31552 9.51461 9.25787C9.3432 9.02934 9.28632 8.80078 9.11541 8.57225C9.00116 8.45824 8.88688 8.34372 8.82975 8.22919C8.82975 8.05779 8.71548 7.94378 8.82975 7.77211C8.88688 7.6581 8.94376 7.48669 8.94376 7.31504C8.94376 7.08649 8.82975 6.80083 8.88663 6.57254C8.94376 6.40087 9.00089 6.28713 9.11517 6.11545C9.22917 5.9438 9.28632 5.65839 9.51461 5.60099C9.62913 5.54386 9.80054 5.42934 9.80054 5.31531C9.85742 5.2013 9.80054 5.02965 9.9143 4.91562C10.0288 4.74421 10.2002 4.57256 10.3142 4.40116C10.4856 4.22975 10.657 4.40116 10.943 4.28715C11.1715 4.17287 11.3998 4.05862 11.6286 4.05862C11.8 4.05862 11.914 4.05862 12.0854 4.05862C12.1428 4.05862 12.2568 3.88721 12.3139 4.00122C12.3711 4.05862 12.3711 4.05862 12.4272 4.00122C12.4272 4.11523 12.3703 4.22975 12.3703 4.40091C12.3703 4.68657 12.6557 4.57231 12.7703 4.62944C12.9417 4.68657 13.5125 5.31506 13.4559 4.80085C13.4559 4.40091 14.0267 4.7432 14.1981 4.80085C14.4267 4.85797 14.5981 4.91485 14.7695 4.80085C14.9409 4.7432 15.0554 4.85797 15.2268 4.80085C15.3403 5.02938 15.3403 5.08626 15.2842 5.37219C15.1697 5.37219 15.1123 5.14366 14.9983 5.02888C14.9983 5.31454 15.2842 5.60023 15.3982 5.82903C15.4556 6.00043 15.5122 6.17184 15.5696 6.28637C15.627 6.34322 15.627 6.45775 15.627 6.5149C16.1983 6.91459 16.7128 7.48645 16.998 8.17155C16.998 8.17155 16.998 8.17155 17.0556 8.17155C17.227 8.11467 17.3987 8.05754 17.5701 8.00014C17.6846 8.28607 17.513 8.74289 17.2847 9.14258C17.3421 9.31423 17.3421 9.54252 17.3421 9.71392V10.1139C17.5135 10.1139 17.6849 10.171 17.7994 10.2276C17.8568 9.77056 17.9129 9.25609 17.9129 8.74213C17.9129 8.28531 17.856 7.88537 17.7994 7.42828C17.3994 7.54256 17.1135 7.88537 16.8852 7.42828C16.7707 7.19975 16.7133 7.02859 16.5419 6.79979C16.4279 6.62839 16.2565 6.51413 16.1991 6.28558C16.1415 5.94227 15.5135 5.71423 15.5135 5.31378C15.5135 5.2564 15.3416 4.97097 15.3997 4.97097C15.4571 4.91359 15.3997 4.79956 15.3997 4.74244C15.3997 4.57103 15.4571 4.45727 15.3997 4.34275C15.0567 4.45727 14.8284 4.28537 14.4853 4.28537C14.3716 4.22822 14.3139 4.11397 14.1996 4.05682C14.3139 3.94256 14.1996 3.99944 14.1996 3.88541C14.1996 3.77116 14.4853 3.82777 14.543 3.82777L14.4853 3.77064C14.3716 3.77064 14.3716 3.88492 14.2568 3.77064C14.1428 3.71351 14.1428 3.71351 14.0282 3.77064C14.0282 3.82777 14.0282 3.82777 14.0282 3.82777C14.0282 3.82777 13.8568 3.71376 13.8568 3.82777C13.9708 3.94204 14.0282 3.99944 14.1428 4.11345C14.0849 4.17085 14.0282 4.11345 13.9708 4.05632L14.0282 4.22773C13.9142 4.22773 13.7997 4.17033 13.8568 4.05632C13.7428 4.05632 13.5135 3.82777 13.5135 3.71351C13.4567 3.54211 13.2286 3.48496 13.2286 3.37043C13.1707 3.37043 12.6573 3.02762 12.6573 3.08502C12.6573 3.25642 12.9427 3.48471 13.1141 3.48471C13.1141 3.59899 13.4 3.59899 13.4 3.71324C13.1715 3.65587 13.2286 3.59899 13.2855 3.82727C13.2855 3.82727 13.1715 3.99892 13.1141 3.88492C13.4 3.88492 12.5432 3.25642 12.5994 3.31355C12.428 3.14215 12.3711 3.02789 12.1425 3.1993C12.0285 3.25667 11.6283 3.02789 11.7431 3.31355C11.7431 3.31355 11.1718 3.54211 11.4572 3.65636C11.4003 3.77064 11.2858 3.82777 11.1718 3.88492C11.0577 3.82727 10.8289 3.99892 10.7721 3.88492C10.6581 3.77064 10.6004 3.77064 10.4867 3.77064C10.3152 3.77064 10.4867 3.25642 10.4867 3.1993C10.4867 3.08527 10.429 2.97074 10.6004 2.97074C10.7721 2.97074 10.944 3.02789 11.0577 3.02789C11.2294 3.02789 11.2863 3.08527 11.2863 2.79934C11.4003 2.62795 10.8863 2.5708 10.8863 2.45628C10.8863 2.39915 11.1718 2.45628 11.2294 2.45628C11.2294 2.39915 11.2294 2.39915 11.2294 2.34227C11.458 2.34227 11.5146 2.28487 11.6862 2.228C11.8581 2.17087 11.8581 1.99946 12.0295 2.0566C12.0872 2.0566 12.3155 2.0566 12.2581 1.99921C12.1443 1.77067 12.1443 1.77067 12.3721 1.71379C12.3721 1.77092 12.4298 1.77092 12.4298 1.8278C12.4298 1.8278 12.4298 1.88519 12.3721 1.88519C12.4298 1.88519 12.4298 1.88519 12.4298 1.94233C12.4298 1.88519 12.3721 1.94233 12.3721 1.88519C12.3721 1.94233 12.3721 1.99921 12.3721 1.94233C12.4866 1.94233 12.6006 1.94233 12.7154 1.94233C12.7154 2.0566 13.1149 1.94233 13.2299 1.94233C13.2875 1.94233 13.2875 1.94233 13.3439 1.94233C13.2863 1.71379 13.6872 1.65665 13.7436 1.71379C13.7436 1.6564 13.5722 1.59952 13.6296 1.54213C13.8012 1.48499 13.9726 1.59952 14.1441 1.54213C14.0864 1.48499 13.2875 1.48499 13.4013 1.37072C13.3439 1.37072 13.3439 1.31359 13.2875 1.25671L13.6304 1.14244C13.573 0.971035 13.2875 1.14244 13.2875 1.14244C13.2875 1.19957 12.9445 1.19957 12.9445 1.31384C12.9445 1.42811 13.1161 1.37098 13.1161 1.48525C13.1161 1.48525 12.7731 1.65665 13.0016 1.71379C13.0016 1.8278 12.7162 1.88519 12.6588 1.88519C12.6012 1.88519 12.4871 1.65665 12.4871 1.65665C12.4298 1.54238 12.3734 1.48525 12.2586 1.54238C12.2017 1.54238 11.8592 1.65665 11.8592 1.54238C11.8592 1.48525 11.9166 1.54238 11.9166 1.48525C11.8592 1.48525 11.8592 1.48525 11.8592 1.48525C11.8592 1.48525 11.8592 1.42811 11.9166 1.42811C11.688 1.25671 12.1451 1.19957 12.2594 1.19957C12.202 1.19957 12.202 1.19957 12.202 1.19957C12.2594 1.19957 12.7733 0.971035 12.8307 0.9139C12.7733 0.9139 12.7169 0.9139 12.6593 0.9139C12.6593 0.9139 12.7733 0.9139 12.8879 0.9139C12.9452 0.9139 12.9452 0.9139 13.0016 0.9139C13.1161 0.856766 13.2301 0.9139 13.3447 0.9139C13.2875 0.9139 13.5732 0.856766 13.5166 0.9139C13.6304 0.9139 13.7451 0.971291 13.8597 1.02817C12.4298 0.514213 10.7726 0 9.00217 0C5.28789 0 2.14575 2.22826 0.774512 5.48494C1.06019 4.91384 1.3456 4.3425 1.7458 3.77089C2.14575 3.25667 2.54568 2.74246 3.0599 2.34252C3.2313 2.17112 3.40271 2.05685 3.63099 2.11399C3.68839 2.11399 3.80265 2.11399 3.85953 2.05685C4.03093 2.05685 4.37374 2.11399 4.48802 2.05685C4.54542 1.99946 4.71655 1.99946 4.71655 1.94258H4.65915C4.65915 1.94258 4.71655 1.94258 4.71655 1.88545L4.60227 1.82806C4.65942 1.77092 5.00223 1.77092 4.88796 1.82806C4.83056 1.82806 4.83056 1.82806 4.77368 1.88545C4.77368 1.88545 4.83083 1.88545 4.88796 1.88545C4.77368 1.88545 4.88796 1.88545 4.83056 1.94258C4.83056 1.94258 5.05911 1.88545 5.00223 1.94258C4.94484 1.94258 4.88796 1.94258 4.94484 1.99972C5.00223 2.05711 5.23052 1.8857 5.28765 1.8857C5.28765 1.8857 4.83056 1.8857 4.88796 1.82831C4.94508 1.82831 5.00223 1.82831 5.05936 1.82831H4.88796C4.83056 1.77118 5.05936 1.77118 5.05936 1.7143C5.00223 1.7143 4.88796 1.7143 4.83083 1.77143C4.83083 1.77143 4.83083 1.77143 4.8882 1.77143C4.83083 1.77143 4.77395 1.82857 4.7168 1.82857C4.8882 1.71455 4.94535 1.71455 5.17389 1.71455C5.11649 1.71455 5.11649 1.71455 5.05961 1.77169C5.17389 1.77169 5.23101 1.77169 5.34529 1.77169C5.28789 1.77169 5.11676 1.82882 5.17389 1.82882C5.05961 1.88621 5.5167 1.71481 5.57358 1.77169C5.57358 1.77169 5.57358 1.82882 5.51645 1.82882C5.74498 1.82882 5.91639 1.88621 6.08779 1.88621C6.08779 1.88621 6.31632 1.94335 6.31632 2.00023C6.31632 2.1145 6.14492 2.05762 6.03066 2.05762C6.03066 2.05762 6.03066 2.05762 5.97351 2.11475C6.03066 2.11475 6.03066 2.17214 6.08779 2.17214C6.03039 2.34355 6.03039 2.22928 5.85926 2.28616C5.85926 2.28616 6.08779 2.40043 5.97351 2.40043C5.85926 2.45756 5.68785 2.34328 5.57358 2.28616C5.51645 2.28616 5.17389 2.28616 5.17389 2.28616C5.23101 2.17214 5.45957 2.22902 5.57358 2.17214C5.45957 2.17214 5.80211 2.11475 5.68785 2.00048C5.68785 2.05787 5.51645 2.00048 5.51645 2.00048C5.57358 1.94335 5.6307 1.94335 5.68785 1.94335H5.51645C5.4593 1.88621 5.23077 1.94335 5.28789 1.94335C5.23077 1.94335 5.23077 1.94335 5.11649 1.94335C5.17389 1.94335 5.23077 1.94335 5.23077 1.94335C5.17364 2.00048 5.00223 2.11475 4.83083 2.17189C4.77368 2.17189 4.77368 2.17189 4.83083 2.17189C4.77368 2.17189 4.77368 2.17189 4.7168 2.17189C4.7168 2.17189 4.8882 2.17189 4.8882 2.22902C4.8882 2.22902 4.94535 2.22902 5.00248 2.22902C4.8882 2.28616 4.65942 2.28616 4.54542 2.28616C4.48802 2.28616 4.54542 2.28616 4.54542 2.22902C4.48802 2.22902 4.43114 2.22902 4.43114 2.22902C4.48827 2.17189 4.60254 2.11475 4.65967 2.11475C4.54566 2.11475 4.48827 2.11475 4.37401 2.11475C4.37401 2.17214 4.43139 2.17214 4.54566 2.17214C4.43139 2.28616 4.20261 2.28616 4.0312 2.28616C4.0312 2.28616 4.0312 2.28616 4.08833 2.28616C3.97432 2.40043 3.63124 2.51469 3.45984 2.62921C3.57411 2.62921 3.57411 2.68636 3.51723 2.74322C3.86004 2.74322 3.80292 2.91463 4.08833 2.91463C4.14573 2.97202 4.0312 3.02891 4.0312 3.0863C4.08833 3.0863 4.14546 3.0863 4.08833 3.14343H4.0312C4.0312 3.14343 4.08833 3.20056 4.20261 3.14343C4.31686 3.02915 4.20261 2.97202 4.43114 2.85775C4.7168 2.74349 4.48827 2.74349 4.48827 2.57209C4.83108 2.51496 4.65967 2.22928 5.11676 2.40068C5.23101 2.45781 5.63122 2.57209 5.6881 2.40068C5.63097 2.51496 5.6881 2.51496 5.74523 2.51496C5.74523 2.51496 5.6881 2.51496 5.6881 2.45756C5.80238 2.28616 6.03091 2.62921 5.85951 2.68609C5.9169 2.68609 5.9169 2.74322 5.97378 2.74322C5.91663 2.8575 6.20232 2.80062 6.20232 2.8575C6.14519 2.91463 5.97378 2.91463 5.85951 2.97178C5.85951 3.0289 6.25944 2.91438 6.25944 2.91438C6.37372 3.31432 5.23101 3.25744 5.00248 3.42884C5.00248 3.42884 5.57358 3.31459 5.57358 3.37147C5.51645 3.42884 5.40217 3.42884 5.34504 3.48572C5.40217 3.48572 5.40217 3.48572 5.4593 3.48572C5.23077 3.71428 5.68785 3.71428 5.68785 3.7714C5.6307 3.82853 5.28789 3.88568 5.17364 3.94281C5.00223 4.00021 5.17364 3.7714 5.40217 3.7714C5.34504 3.7714 5.34504 3.7714 5.34504 3.71428C5.17364 3.71428 4.94508 3.88568 4.83056 3.88568C4.71655 3.88568 4.31637 4.17109 4.54515 4.17109C4.43089 4.22849 4.25949 4.22849 4.08781 4.2851H4.20209C4.14496 4.2851 3.8024 4.39938 3.8024 4.45702C3.745 4.5139 3.745 4.68556 3.57387 4.68556L3.63099 4.5139L3.51699 4.74244C3.51699 4.80008 3.45959 4.80008 3.40271 4.80008C3.40271 4.80008 3.40271 4.85721 3.45984 4.85721C3.40271 4.91461 3.34583 4.91461 3.40271 4.97149C3.34558 5.02861 3.2313 5.02861 3.11703 5.08549C2.77424 5.2569 2.48856 5.37142 2.43143 5.77111C2.43143 5.88539 2.31715 6.34221 2.14575 6.34221C2.03148 6.34221 2.25975 5.65659 2.25975 5.59971C2.25975 5.59971 1.86007 5.54258 1.91695 5.48545C1.85982 5.48545 1.80268 5.48545 1.74555 5.48545C1.74555 5.48545 1.74555 5.48545 1.80268 5.48545C1.74555 5.5431 1.68867 5.59971 1.74555 5.59971C1.63128 5.65686 1.51701 5.42806 1.40274 5.48545C1.1742 5.59971 1.0028 5.71399 0.888272 5.94252C0.831137 5.99992 0.202654 7.14235 0.488584 7.2C0.888272 7.31376 0.945662 6.68527 1.40274 6.80006C1.34535 6.91407 1.23134 7.02859 1.1742 7.14287C1.11681 7.20052 1.11681 7.25713 1.05968 7.31428C1.00229 7.42853 0.545207 7.77134 0.945406 7.82874C1.45962 7.88614 1.05968 8.3432 1.00254 8.57149C0.945406 8.80002 0.716867 9.54304 1.17395 9.37163C1.40248 9.25735 1.40248 9.60016 1.40248 9.71444L1.23108 9.88585C1.23108 9.82845 1.28821 9.60016 1.23108 9.54304C1.05968 9.48564 1.00254 9.94297 0.945406 9.88585C0.774001 9.82845 0.831137 9.1431 0.716867 9.08595V9.1431C0.716867 9.1431 0.716867 9.1431 0.659732 9.1431C0.602598 9.02934 0.774001 8.85766 0.716867 8.74341C0.716867 8.62938 0.659732 8.51485 0.716867 8.34372C0.602852 8.28657 0.488327 8.22944 0.431193 8.05804C0.431193 8.00066 0.431193 7.71523 0.374059 7.71523C0.316925 7.54382 0.259788 7.77238 0.202654 7.71523C0.0883847 7.71523 0.0883847 7.42957 0.03125 7.42957C0.0883847 7.88663 0.03125 8.40109 0.03125 8.97219C0.03125 12.2294 1.80217 15.0859 4.37325 16.6854C4.3161 16.628 4.37325 16.514 4.3161 16.4569C4.25897 16.3428 4.14469 16.3428 4.14469 16.1714C4.14469 15.8281 4.14469 15.6567 3.97329 15.3147C3.80188 15.1427 3.85903 14.6859 3.80188 14.4576C3.74451 14.2291 3.68763 14.0006 3.57335 13.772C3.45907 13.5435 3.17341 13.3723 2.94486 13.3147C2.60207 13.2576 2.54492 12.9719 2.37351 12.7439C2.20212 12.5722 2.03071 12.3444 1.91644 12.1725C1.85931 12.0585 1.6879 12.0585 1.6879 11.944C1.63051 11.7726 1.80192 11.7154 1.80192 11.6012C1.63051 11.4866 1.6879 11.4866 1.6879 11.2579C1.6879 11.0864 1.91644 10.8584 1.91644 10.687C1.85931 10.687 1.85931 10.6294 1.85931 10.6294C1.80192 10.458 1.57363 10.1723 1.80192 10.058C1.74478 9.82948 2.03046 9.65833 2.25899 9.5438C2.31639 9.5438 2.31639 9.37215 2.37327 9.48616C2.43066 9.48616 2.37327 9.5438 2.37327 9.5438C2.37327 9.60093 2.31614 9.88661 2.48754 9.88661C2.54467 9.88661 2.31614 9.60093 2.6018 9.5438C2.6018 9.48616 2.48754 9.48616 2.48754 9.48616C2.6018 9.48616 2.71608 9.60016 2.7732 9.65756C2.83033 9.71521 3.00174 9.71521 3.05889 9.71521C3.17289 9.77285 3.34455 9.65756 3.45858 9.65756H3.40219C3.45934 9.88609 3.91641 9.88609 4.03068 10.1149C4.14496 10.2863 4.5449 10.2863 4.7163 10.2863C4.88771 10.2863 5.23052 10.7431 5.11599 10.8576C5.00196 11.029 5.17337 11.2571 5.34453 11.2005C5.51593 11.2005 5.34453 10.8576 5.68734 11.029C5.80161 11.0864 5.85874 11.0864 5.91587 11.2005C6.08727 11.2005 6.25868 11.1431 6.43008 11.2005C6.60149 11.2579 6.71577 11.3721 6.88717 11.429C7.28711 11.4864 6.88717 12.2291 6.83002 12.4005C6.77265 12.5151 6.94405 12.9719 6.94405 13.2009C6.83002 13.5437 6.83002 13.658 6.48696 13.8294C6.42984 13.8868 6.25843 14.058 6.25843 14.1727C6.25843 14.2865 6.31556 14.3441 6.37269 14.4579C6.31531 14.5155 6.31531 14.5722 6.31531 14.6864C6.25816 14.915 6.20103 15.0864 6.14391 15.3149C6.14391 15.4866 5.62969 15.5434 5.62969 15.4866C5.7437 15.7151 6.02938 15.6008 5.91537 15.9437C5.85798 16.0574 5.68682 16.1151 5.57229 16.1151C5.45829 16.1727 5.57229 16.2865 5.57229 16.3436C5.62969 16.5153 5.40089 16.401 5.34376 16.4576C5.17236 16.5153 5.57229 16.6862 5.57229 16.629C5.62969 16.743 5.45829 16.6867 5.45829 16.6867C5.51541 16.7438 5.62969 16.9721 5.45829 17.0295C5.22975 17.2009 5.62969 17.258 5.68682 17.3725C6.48672 17.7154 7.34374 17.887 8.25789 18.0013C8.14362 17.7727 8.08649 17.5439 8.08649 17.2585V11.9432C8.02936 11.0859 8.71523 10.4003 9.51461 10.2863ZM15.3995 4.68684C15.3995 4.74421 15.2281 4.85824 15.171 4.74421C15.2855 4.74397 15.3424 4.68684 15.3995 4.68684ZM14.5427 4.68684C14.4853 4.74421 14.3713 4.68684 14.3144 4.62969C14.3713 4.62996 14.4282 4.62996 14.5427 4.68684ZM13.2286 4.17262C13.2286 4.23002 13.2286 4.34403 13.2286 4.34403C13.171 4.34403 12.9432 4.23002 12.9432 4.17262C12.9432 4.17262 13.1712 4.17262 13.2286 4.17262ZM12.4859 3.5444C12.543 3.60128 12.543 3.60128 12.4859 3.5444C12.4859 3.60153 12.4859 3.71581 12.4859 3.71581C12.4282 3.71581 12.4282 3.60153 12.4282 3.60153C12.4859 3.60128 12.4859 3.60128 12.4859 3.5444ZM12.4859 3.88721L12.4282 3.82957C12.7144 3.77269 12.4859 4.17262 12.4859 3.88721ZM11.9143 3.88721C11.9143 3.94434 11.8574 3.88721 11.8574 3.88721C11.8576 3.82957 11.8576 3.82957 11.9143 3.88721ZM13.5712 2.05864C13.5712 2.11577 13.5712 2.11577 13.5138 2.11577C13.4569 2.11577 13.4569 2.11577 13.4569 2.05864C13.514 2.11577 13.514 2.05864 13.5712 2.05864ZM13.2286 2.11577L13.1712 2.17316C13.1143 2.17291 13.1712 2.11577 13.2286 2.11577ZM12.6575 2.28692C12.5999 2.28692 12.5999 2.4012 12.4859 2.34432H12.5435C12.4285 2.28692 12.5999 2.11577 12.6575 2.28692ZM11.8002 1.20161C11.8002 1.20161 11.8579 1.20161 11.8579 1.25901C11.8002 1.20161 11.7431 1.20161 11.8002 1.20161ZM11.9143 1.14448C11.9143 1.14448 12.0288 1.14448 12.0288 1.20161C11.9143 1.14448 12.1428 1.20161 12.1428 1.20161C12.2002 1.20161 12.2568 1.20161 12.3142 1.20161C12.3716 1.20161 12.3716 1.20161 12.4282 1.20161H12.3142H12.2002H12.2571C12.2571 1.20161 12.2571 1.20161 12.3152 1.20161C12.4866 1.20161 12.7144 1.14448 12.8297 1.25901C12.772 1.25901 12.5443 1.31614 12.4298 1.31614H12.4871C12.5445 1.31614 12.6585 1.31614 12.7157 1.37327C12.6583 1.37327 12.6012 1.37327 12.5443 1.37327C12.4866 1.37327 12.4866 1.37327 12.4298 1.37327C12.3157 1.37327 12.0301 1.48754 12.0301 1.37327C12.0872 1.37327 12.1441 1.37327 12.1441 1.37327H11.9727C11.9727 1.37327 12.0301 1.37327 12.0864 1.37327C12.029 1.37327 11.915 1.37327 11.915 1.37327C11.8576 1.20161 11.8576 1.20161 11.9143 1.14448C11.8574 1.20161 11.8002 1.20161 11.8002 1.14448H11.7429C11.8002 1.14448 11.8576 1.14448 11.9143 1.14448ZM11.1149 1.94437L11.0572 2.0015C11.1149 2.05889 11.1713 2.05889 11.2858 2.05889C11.2858 2.11603 11.1713 2.17316 11.1713 2.17316C11.2858 2.2303 11.5141 2.34457 11.5141 2.51597C11.5141 2.51597 11.5141 2.51597 11.5722 2.51597C11.6299 2.45857 11.6299 2.5731 11.5722 2.68738H11.6299C11.6299 2.68738 11.0011 2.7445 10.9442 2.7445C11.0014 2.68738 11.1728 2.6305 11.1728 2.5731H10.9442C10.9442 2.51597 11.0011 2.51597 11.0011 2.40169C11.0588 2.40169 11.1725 2.40169 11.1725 2.34457C11.1156 2.34457 11.0588 2.34457 11.1156 2.28717H10.9442C10.9442 2.23004 11.0583 2.23004 10.9442 2.17316C10.9442 2.17316 10.9442 2.17316 10.9442 2.2303C10.9442 2.17316 10.9442 2.17316 10.9442 2.11603C10.8869 2.11603 10.8869 2.11603 10.8869 2.05889H11.0009C10.8289 1.94437 11.1149 1.82984 11.1149 1.94437ZM10.8289 1.88749L10.7716 1.94462C10.6575 1.94437 10.8289 1.88749 10.8289 1.88749ZM10.4288 2.28692C10.4288 2.22979 10.5433 2.22979 10.6002 2.22979C10.5433 2.17265 10.7147 2.17265 10.7718 2.17265C11.0004 2.17265 10.83 2.28667 10.83 2.28667C10.83 2.45808 10.716 2.51521 10.5441 2.51521C10.3724 2.51521 10.5441 2.40093 10.5441 2.3438C10.4861 2.28692 10.4861 2.28692 10.4288 2.28692ZM4.65839 2.40145C4.71579 2.34432 4.77267 2.34432 4.82979 2.34432C4.77267 2.34457 4.65839 2.40145 4.65839 2.40145ZM3.05862 7.08649C3.05862 7.14388 3.00124 7.14388 2.94436 7.14388C2.88721 7.14337 3.05862 7.08649 3.05862 7.08649ZM2.88721 6.11521C2.88721 6.17233 2.82984 6.17233 2.82984 6.17233C2.83008 6.11521 2.83008 6.11521 2.88721 6.11521ZM2.71583 6.40062C2.71583 6.40062 2.7732 6.45826 2.71583 6.45826C2.71583 6.57227 2.71583 6.40062 2.71583 6.40062ZM1.91593 7.02936C1.91593 6.97196 1.97332 6.97196 1.97332 6.97196C1.97332 6.91459 1.97332 6.91459 2.03046 6.91459C1.91593 7.08649 1.91593 6.97223 1.91593 7.02936ZM2.25874 7.77186C2.31614 7.77186 2.37302 7.82926 2.37302 7.82926V7.88663C2.08734 7.88638 2.20161 7.77186 2.25874 7.77186ZM2.37302 7.4293C2.43039 7.25764 2.37302 6.97223 2.14447 6.91483C2.08708 6.6863 2.0302 6.97223 1.80141 6.97223C2.02995 6.68655 2.20135 6.62942 2.43015 6.85795C2.48727 6.91535 2.65868 7.20128 2.65868 7.25764C2.77296 7.31504 2.71583 7.37217 2.77296 7.4293C2.60155 7.60045 2.48754 7.4293 2.37302 7.4293ZM3.11577 7.94351C3.11577 7.82926 3.00149 8.05754 2.94436 8.05754C2.94436 8.05754 2.77296 7.71473 2.65868 7.94351C2.43015 7.82926 2.88721 7.77186 2.88721 7.77186C2.88721 7.71473 2.88721 7.31477 3.00124 7.48645C3.05862 7.54382 3.1155 7.48645 3.17265 7.48645C3.2869 7.48645 3.2869 7.65785 3.3443 7.71498C3.3443 7.65758 3.3443 7.65758 3.3443 7.71498C3.3443 7.77211 3.40143 7.88638 3.40143 7.88638C3.40143 7.94351 3.11577 7.94351 3.11577 7.94351ZM3.5157 8.05754C3.57283 7.94351 3.68711 8.11519 3.68711 8.11519C3.68711 8.17204 3.5157 8.11519 3.5157 8.05754ZM8.88636 2.00125C8.94351 1.94411 8.94351 1.94411 8.94351 1.94411C8.88636 1.94411 8.88636 1.94411 8.82948 1.94411C8.88663 1.94411 8.94351 1.94411 8.94351 1.94411L8.82948 1.88698C8.88663 1.88698 8.94351 1.88698 8.94351 1.88698C8.88636 1.94437 9.00089 1.94437 9.00089 1.94437C9.00089 2.0015 9.05804 1.94437 9.11517 1.94437C9.11517 1.88723 9.40085 1.94437 9.40085 1.94437C9.34345 1.94437 9.45822 2.0015 9.40085 2.05864C9.28657 2.11577 9.11492 2.00125 8.88636 2.00125ZM5.22975 1.37277H5.28688C5.28713 1.37277 5.28713 1.37277 5.22975 1.37277C5.28713 1.37277 5.1726 1.43041 5.22975 1.37277ZM5.22975 1.48729C5.1726 1.43015 5.40116 1.43015 5.34401 1.48729C5.28713 1.48729 5.11548 1.48729 5.22975 1.48729ZM5.40116 1.48729H5.34401H5.22975C5.28713 1.48729 5.34401 1.48729 5.40116 1.48729ZM4.77267 1.43041C4.82979 1.43041 5.0012 1.37302 5.05835 1.43041C5.05835 1.43041 5.05835 1.43041 5.00095 1.43041C5.00095 1.43041 4.94382 1.43041 4.88694 1.48754C4.82979 1.48729 4.77267 1.48729 4.77267 1.43041ZM4.65839 1.48729C4.71579 1.48729 4.71579 1.48729 4.71579 1.48729C4.71554 1.54417 4.65839 1.54417 4.65839 1.48729C4.65839 1.54417 4.60126 1.54417 4.65839 1.48729ZM4.25845 1.48729C4.3156 1.48729 4.37248 1.48729 4.48701 1.48729C4.48701 1.48729 4.48698 1.48729 4.42986 1.48729C4.3156 1.48729 4.3156 1.48729 4.37248 1.48729C4.37273 1.54417 4.25845 1.54417 4.25845 1.48729C4.20108 1.54442 4.25845 1.48729 4.3156 1.48729H4.25845ZM4.02992 1.60156H4.08705C4.08705 1.60156 4.08705 1.60156 4.02992 1.60156ZM4.02992 1.54417C3.97279 1.60156 3.97279 1.60156 3.91564 1.60156C3.91564 1.54417 3.97279 1.54417 4.02992 1.54417ZM3.85851 1.65869H3.91564C3.91564 1.60156 3.91564 1.60156 3.85851 1.65869C3.91564 1.65869 3.97279 1.60156 3.97279 1.60156C4.0868 1.60156 4.20132 1.65869 4.3156 1.60156C4.20132 1.60156 4.42986 1.54417 4.42986 1.54417C4.3156 1.60156 4.54386 1.60156 4.54386 1.60156C4.37248 1.71583 4.1442 1.60156 3.97279 1.65869C3.97279 1.71583 3.91564 1.71583 3.85851 1.65869C3.91564 1.71608 3.91564 1.71608 3.97279 1.65869H3.91539C3.85827 1.65869 3.85827 1.65869 3.80139 1.65869H3.85851ZM4.54386 1.60156C4.54386 1.60156 4.54386 1.65869 4.48674 1.65869C4.48674 1.65869 4.48674 1.65869 4.42961 1.65869C4.48701 1.60156 4.54386 1.60156 4.54386 1.60156ZM3.68711 2.05864C3.68711 2.05864 3.74424 2.05864 3.85851 2.05864C3.80139 2.00125 3.68711 2.05864 3.68711 2.05864ZM4.3156 1.88749C4.25845 1.88749 4.20132 1.88749 4.1442 1.94462C4.02992 2.00176 3.40143 2.00176 3.40143 2.00176H3.3443C3.45831 1.94462 3.45831 1.94462 3.57283 1.94462C3.5157 1.94462 3.45858 1.94462 3.40143 1.94462C3.40143 1.94462 3.5157 1.83035 3.62998 1.77322C3.62998 1.77322 3.68736 1.77322 3.68736 1.71608C3.68736 1.71608 3.68736 1.71608 3.68736 1.77322C3.80163 1.77322 3.97304 1.83035 3.97304 1.83035C4.08705 1.83035 4.20157 1.65895 4.31585 1.71634C4.31585 1.71634 4.20157 1.77347 4.20157 1.83035C4.20132 1.94437 4.25845 1.82984 4.3156 1.88749ZM4.37273 1.94437C4.3156 1.94437 4.60126 1.8301 4.54413 1.94437C4.54386 2.00125 4.25845 2.00125 4.37273 1.94437ZM4.71554 1.71583C4.77267 1.71583 4.77267 1.71583 4.82955 1.71583C4.77242 1.77296 4.54386 1.82984 4.48674 1.71583C4.54386 1.65844 4.60101 1.71583 4.65814 1.65844C4.48674 1.65844 4.88667 1.65844 4.88667 1.6013C4.77267 1.71583 4.77267 1.71583 4.71554 1.71583ZM4.77267 1.60156C4.82979 1.60156 4.88694 1.60156 4.88694 1.54417C4.82979 1.60156 4.77267 1.60156 4.77267 1.60156C4.71554 1.54417 4.71554 1.54417 4.65839 1.60156H4.60126C4.65839 1.54417 4.71554 1.60156 4.77267 1.60156C4.82979 1.54417 4.82979 1.54417 4.88694 1.54417C4.82955 1.54417 4.82955 1.54417 4.82955 1.54417H5.05808C5.00095 1.65869 4.77267 1.60156 4.77267 1.60156ZM5.00095 1.60156C5.11523 1.54417 5.11523 1.54417 5.1726 1.60156C5.22975 1.60156 5.00095 1.60156 5.00095 1.60156ZM5.45804 1.60156C5.40089 1.60156 5.1726 1.60156 5.28663 1.54417C5.28663 1.48703 5.22948 1.48703 5.22948 1.48703C5.17236 1.48703 5.17236 1.48703 5.11523 1.48703C5.1726 1.48703 5.51517 1.48703 5.51517 1.48703C5.45777 1.48703 5.45777 1.48703 5.40089 1.48703C5.40116 1.60156 5.45804 1.54417 5.45804 1.60156C5.45804 1.60156 6.08678 1.54417 6.14366 1.54417C5.9151 1.65869 5.62969 1.54417 5.45804 1.60156ZM5.97275 1.71583C5.97275 1.71583 5.85849 1.71583 5.91537 1.65844C5.97275 1.6013 6.14391 1.65844 6.20103 1.65844C6.14391 1.71583 6.02963 1.71583 5.97275 1.71583ZM6.37219 1.43041C6.25816 1.54442 5.9151 1.43041 5.68657 1.48754C5.7437 1.48754 5.7437 1.48754 5.80085 1.48754C5.68657 1.43041 5.97225 1.48754 5.97225 1.48754C5.91486 1.43041 5.80085 1.43041 5.7437 1.48754C5.68657 1.48754 5.51517 1.48754 5.51517 1.48754C5.51517 1.48754 5.51517 1.48754 5.57229 1.48754C5.57229 1.48754 5.57229 1.48754 5.51517 1.48754C5.51517 1.48754 5.51517 1.48754 5.45777 1.48754C5.51517 1.48754 5.57205 1.48754 5.62944 1.48754C5.62944 1.48754 5.51517 1.48754 5.45777 1.48754C5.40064 1.48754 5.34376 1.48754 5.40064 1.48754C5.45752 1.48754 5.45777 1.48754 5.51492 1.48754H5.45777C5.45777 1.48754 5.51541 1.48754 5.57229 1.48754C5.62969 1.48754 5.62969 1.48754 5.68657 1.48754H5.62944C5.68657 1.48754 5.85798 1.54468 5.91486 1.54468C5.97225 1.54468 5.97225 1.54468 5.91486 1.60207C5.97225 1.54468 6.02913 1.6592 6.14339 1.54468C6.14339 1.54468 6.08626 1.54468 6.08626 1.48754C6.14339 1.48754 6.14339 1.48754 6.14339 1.48754C6.08626 1.48754 6.02913 1.48754 6.02913 1.48754H6.08651C6.02913 1.48754 6.02913 1.48754 5.97225 1.48754C6.02938 1.48754 6.02913 1.48754 6.02913 1.48754C5.97198 1.48754 5.9151 1.48754 5.85798 1.48754C6.14366 1.37327 6.82926 1.31614 7.11494 1.43041C7.00093 1.48754 7.34347 1.43041 7.34347 1.43041C7.34347 1.43041 7.11494 1.43041 7.11494 1.48754C7.11494 1.48754 7.17234 1.48754 7.22922 1.48754C7.05781 1.54468 6.82926 1.54468 6.65785 1.60181H6.71525C6.60097 1.60181 6.60097 1.65895 6.48672 1.65895C6.48672 1.71634 6.37244 1.65895 6.37244 1.71634C6.31531 1.43041 6.37219 1.43041 6.37219 1.43041ZM6.08678 3.25872C6.14391 3.25872 6.02963 3.3156 6.08678 3.25872ZM6.08678 3.37248C6.02938 3.42988 5.9151 3.37248 5.85822 3.31535C5.97275 3.3156 6.02963 3.3156 6.08678 3.37248ZM5.68682 3.60128C5.74397 3.65841 5.8011 3.65841 5.85822 3.60128C5.85822 3.77269 5.68682 3.65816 5.68682 3.60128ZM5.97275 3.71581C6.0299 3.65841 6.0299 3.65841 6.08703 3.60153C6.08703 3.60153 6.08703 3.60153 6.08703 3.65866C6.08703 3.71605 6.02963 3.71605 6.08703 3.71605C6.08678 3.71581 5.97275 3.77269 5.97275 3.71581ZM6.42984 3.60128C6.42984 3.60128 6.25843 3.71554 6.25843 3.65841L6.31556 3.60128C6.25843 3.60128 5.85849 3.54413 5.85849 3.54413C5.85849 3.48676 5.91562 3.48676 5.97275 3.48676C6.14415 3.42961 6.25843 3.20107 6.42984 3.20107C6.48696 3.20107 6.25843 3.37248 6.25843 3.37248C6.31556 3.37248 6.31556 3.31535 6.37244 3.37248C6.37244 3.37248 6.31531 3.37248 6.31531 3.42988H6.37244H6.42984C6.48696 3.42988 6.54409 3.42988 6.54409 3.42988C6.54409 3.42988 6.54409 3.487 6.48672 3.54413H6.54409C6.48672 3.60128 6.54409 3.60128 6.48672 3.65816C6.54409 3.65816 6.54409 3.65816 6.54409 3.65816C6.54384 3.77269 6.54384 3.65816 6.42984 3.60128ZM7.74343 2.11577C7.74343 2.05864 7.74343 2.05864 7.74343 2.11577C7.6294 2.11577 7.458 2.40145 7.34374 2.40145C7.28634 2.40145 6.94378 2.23004 7.05806 2.17291C7.05806 2.11552 6.94378 2.11552 7.00093 2.05864C7.00093 2.05864 7.00093 2.05864 6.94353 2.05864C6.94353 2.00125 7.05781 1.94437 7.11494 1.94437C7.05781 1.94437 6.94353 1.94437 7.00093 1.88723C7.05806 1.88723 7.11494 1.94437 7.11494 1.88723C7.11494 1.88723 7.00093 1.82984 6.94353 1.82984C7.00093 1.82984 7.00093 1.77271 6.94353 1.77271C7.00093 1.6013 6.65785 1.6013 6.60072 1.65844H6.5436H6.4862C6.5436 1.6013 6.6576 1.65844 6.6576 1.6013H6.42907C6.4862 1.54391 6.6576 1.6013 6.71473 1.48703H6.65736C6.71473 1.37277 7.17182 1.37277 7.2287 1.37277C7.2287 1.31563 7.28583 1.37277 7.34298 1.37277C7.34298 1.31563 7.57151 1.37277 7.57151 1.37277C8.02857 1.25875 8.54306 1.31563 9.00012 1.31563C8.94275 1.37277 8.94275 1.37277 8.82872 1.37277C8.88587 1.37277 8.94275 1.37277 8.88587 1.37277L8.71446 1.43015C8.77159 1.43015 9.62837 1.31589 9.62837 1.31589C9.62837 1.37302 9.39981 1.37302 9.34244 1.37302C9.34244 1.43041 8.94248 1.48729 8.88535 1.54442C8.94248 1.54442 8.99963 1.54442 9.05676 1.54442H8.99963C9.05676 1.54442 9.05676 1.54442 9.11388 1.60181C9.11388 1.65895 8.88535 1.60181 8.88535 1.65895C8.88535 1.65895 8.99963 1.65895 8.99963 1.71634C8.99963 1.77347 8.94223 1.71634 8.88535 1.77347C8.88535 1.77347 8.94248 1.77347 8.99963 1.77347C8.99963 1.77347 8.94223 1.83061 8.88535 1.83061C8.82822 1.888 8.71395 1.83061 8.65682 1.83061C8.71395 1.83061 8.71395 1.83061 8.77083 1.888C8.7137 2.00201 8.59942 1.83061 8.59942 1.888C8.65682 1.888 8.82795 1.94513 8.77083 2.00201C8.77083 2.0594 8.54229 1.94488 8.48514 1.94488C8.48514 2.00201 8.48514 2.00201 8.42802 2.00201C8.42802 2.0594 8.59942 2.0594 8.65655 2.0594C8.4849 2.11654 8.25661 2.17367 8.02781 2.17367C7.97221 2.00125 7.85796 2.11577 7.74343 2.11577Z" fill="#865F37"/>
<path d="M0.144531 7.37314C0.201921 7.08721 0.258801 6.7444 0.373069 6.45898C0.316192 6.7444 0.202176 7.03008 0.144531 7.37314Z" fill="#865F37"/>
<path d="M17.2284 11.143H16.5428V9.94345C16.5428 8.22864 15.1713 6.85742 13.4575 6.85742C11.743 6.85742 10.3715 8.22864 10.3715 9.94345V11.143H9.68611C9.28693 11.143 8.94336 11.4858 8.94336 11.8855V17.1988C8.94336 17.5987 9.28642 17.9416 9.68611 17.9416H17.2279C17.6278 17.9416 17.9707 17.5987 17.9707 17.1988V11.8855C17.9714 11.4856 17.6286 11.143 17.2284 11.143ZM11.6863 9.94321C11.6863 8.97114 12.4865 8.17203 13.4575 8.17203C14.4285 8.17203 15.2284 8.9719 15.2284 9.94321V11.1428H11.6863V9.94321ZM16.5433 16.2278H10.3727V12.7999H16.543L16.5433 16.2278Z" fill="#865F37"/>
</g>
</g>
<defs>
<clipPath id="clip0_214_105">
<rect width="18" height="18" fill="white"/>
</clipPath>
</defs>
</svg>
