<svg width="18" height="18" viewBox="0 0 18 18" fill="none" xmlns="http://www.w3.org/2000/svg">
<g clip-path="url(#clip0_199_1045)">
<path d="M16.7996 2.40033C16.4813 2.40045 16.176 2.52695 15.951 2.752L8.10261 10.6004L6.18112 6.81888C5.71249 6.35026 4.95247 6.35003 4.48357 6.81837C4.01466 7.28672 4.01444 8.04629 4.48306 8.51491L7.25357 13.1454C7.72243 13.6142 8.48278 13.6142 8.95163 13.1454L17.6491 4.44803C18.1177 3.9794 18.1175 3.2198 17.6486 2.75144C17.4234 2.52653 17.118 2.40023 16.7996 2.40033ZM8.90886 -0.000934467C6.61017 0.0236129 4.34173 0.92506 2.63385 2.63346C-0.242584 5.51076 -0.83019 9.97625 1.20357 13.4999C3.23733 17.0235 7.39898 18.7482 11.3289 17.6948C15.2588 16.6415 18 13.0673 18 8.99893C18 8.3364 17.4626 7.79931 16.7997 7.7993C16.1367 7.79928 15.5993 8.33638 15.5993 8.99893C15.5993 11.994 13.5978 14.6026 10.707 15.3774C7.81618 16.1523 4.78 14.8946 3.28312 12.3011C1.78624 9.70765 2.21554 6.44656 4.33218 4.32927C6.44883 2.21198 9.7067 1.78304 12.2987 3.28C12.8727 3.61149 13.607 3.41517 13.9386 2.8415C14.2703 2.26787 14.0739 1.53415 13.4999 1.20265C12.0686 0.376038 10.4817 -0.01773 8.90886 -0.000934467Z" fill="#865F37"/>
</g>
<defs>
<clipPath id="clip0_199_1045">
<rect width="18" height="18" fill="white"/>
</clipPath>
</defs>
</svg>
