<svg width="21" height="15" viewBox="0 0 21 15" fill="none" xmlns="http://www.w3.org/2000/svg">
<g clip-path="url(#clip0_202_9)">
<path d="M6.1828 0.912928L0.3729 6.67359L0.324301 6.71867C0.129901 6.91144 0.0168 7.16566 0 7.46604L0.000999451 7.56701C0.0150995 7.80495 0.106 8.03226 0.2852 8.23595L0.353001 8.30593L6.1828 14.0874C6.6139 14.515 7.311 14.515 7.7421 14.0874C8.1759 13.6574 8.1759 12.9581 7.7422 12.5281L3.7169 8.53576L19.895 8.53616C20.5043 8.53616 21 8.04456 21 7.43582C21 6.82707 20.5042 6.33547 19.895 6.33547L3.8468 6.33507L7.7421 2.47233C8.1759 2.04225 8.1759 1.34301 7.7421 0.912928C7.311 0.485404 6.6139 0.485404 6.1828 0.912928Z" fill="black"/>
</g>
<defs>
<clipPath id="clip0_202_9">
<rect width="21" height="15" fill="white" transform="matrix(-1 0 0 1 21 0)"/>
</clipPath>
</defs>
</svg>
