<svg width="255" height="255" viewBox="0 0 255 255" fill="none" xmlns="http://www.w3.org/2000/svg">
<path d="M0 127.333V254.667H127.333H254.667V127.333V7.06315e-06H127.333H0V127.333ZM62 65.3333V123.333L34.4 123.733L6.66667 124V65.3333V6.66667L34.4 6.93334L62 7.33334V65.3333ZM124 65.3333V124L96.4 123.733L68.6667 123.333L68.2667 66.6667C68.1333 35.4667 68.2667 9.20001 68.6667 8.26667C69.0667 7.06667 76 6.66667 96.6667 6.66667H124V65.3333ZM247.733 34.2667L247.333 62L190.133 62.4C158.4 62.5333 132.267 62.1333 131.6 61.4667C130.8 60.6667 130.133 30.2667 130.667 8.93334C130.667 6.80001 134.4 6.66667 189.333 6.66667H248L247.733 34.2667ZM247.733 96.2667L248 124H189.333C143.333 124 130.667 123.6 130.667 122.267C130.133 105.067 130.667 70.5333 131.333 69.4667C131.867 68.4 149.6 68.1333 189.733 68.2667L247.333 68.6667L247.733 96.2667ZM98.9333 130.667H124L123.733 158.267L123.333 186H65.3333H7.33333L6.93333 158.4L6.66667 130.667L34.2667 130.267C49.6 130 64.6667 130 67.8667 130.267C71.0667 130.533 85.0667 130.667 98.9333 130.667ZM248 189.467V248L220.4 247.733L192.667 247.333L192.267 190C192 142.933 192.267 132.4 193.733 131.333C194.933 130.533 205.733 130.133 221.733 130.4L248 130.8V189.467ZM186 189.333V247.333L158.4 247.733C134.267 248 130.667 247.733 130.667 246C130.533 244.933 130.533 219.467 130.533 189.333C130.533 159.2 130.533 133.733 130.667 132.667C130.667 130.933 134.267 130.667 158.4 130.933L186 131.333V189.333ZM123.733 220.267L124 248H65.3333H6.66667V220.933C6.66667 206 7.06667 193.333 7.6 192.933C8 192.4 34.2667 192.133 65.8667 192.267L123.333 192.667L123.733 220.267Z" fill="#C0956A"/>
<path d="M18.2662 18.2667C16.6662 19.7334 17.1996 21.3334 19.3329 21.3334C20.3996 21.3334 21.3329 20.4 21.3329 19.3334C21.3329 17.2 19.7329 16.6667 18.2662 18.2667Z" fill="#C0956A"/>
<path d="M46.9329 19.4667C47.4663 22.2667 49.8663 22.5334 50.3996 19.6C50.6663 18.2667 49.9996 17.3334 48.6663 17.3334C47.3329 17.3334 46.6663 18.1334 46.9329 19.4667Z" fill="#C0956A"/>
<path d="M80.2661 19.2C80.3994 20.5333 81.3328 21.4667 81.9994 21.4667C83.9994 21.3333 83.5994 18.2667 81.5994 17.6C80.3994 17.2 79.8661 17.8667 80.2661 19.2Z" fill="#C0956A"/>
<path d="M108.534 18.8C107.468 20.6667 110.934 22.9334 112.534 21.3334C113.734 20.1334 112.534 17.3334 110.668 17.3334C110.001 17.3334 109.068 18 108.534 18.8Z" fill="#C0956A"/>
<path d="M108.933 51.4667C108.4 52 108 64 108 78.1334C108 99.8667 108.267 103.867 110 104.533C111.2 104.933 112.4 104.533 112.8 103.6C113.067 102.667 113.2 90.5334 113.067 76.8C112.667 53.0667 112 48.5334 108.933 51.4667Z" fill="#C0956A"/>
<path d="M141.868 18.8C140.001 21.8667 144.268 22.8 160.801 22.4C175.868 22 178.001 21.7334 178.401 19.6C178.801 17.6 177.334 17.3334 160.801 17.3334C149.334 17.3334 142.534 17.8667 141.868 18.8Z" fill="#C0956A"/>
<path d="M232.666 18.6667C232.266 19.4667 232.8 20.4 234 20.8C236.533 21.8667 238 20.8 236.666 18.8C235.6 16.9333 233.733 16.9333 232.666 18.6667Z" fill="#C0956A"/>
<path d="M232.666 48C232.266 48.8 232.8 49.7334 234 50.1334C236.533 51.2 238 50.1334 236.666 48.1334C235.6 46.2667 233.733 46.2667 232.666 48Z" fill="#C0956A"/>
<path d="M232.666 81.2C232.266 81.8667 232.533 82.8 233.333 83.3333C234.933 84.2667 237.333 83.0667 237.333 81.2C237.333 79.6 233.733 79.6 232.666 81.2Z" fill="#C0956A"/>
<path d="M232.533 109.467C231.2 111.733 234.266 114.267 236.133 112.4C237.733 110.8 236.666 108 234.666 108C234 108 233.066 108.667 232.533 109.467Z" fill="#C0956A"/>
<path d="M18.0001 142.667C16.5334 144.933 18.6668 146.933 20.8001 145.2C21.7334 144.4 22.2668 143.2 21.8668 142.533C20.9334 140.933 19.0668 141.067 18.0001 142.667Z" fill="#C0956A"/>
<path d="M18.0007 172.133C16.6673 174.133 18.134 175.2 20.6673 174.133C21.8673 173.733 22.4007 172.8 22.0007 172C20.934 170.267 19.0673 170.267 18.0007 172.133Z" fill="#C0956A"/>
<path d="M204 234.667C204 236.4 204.667 237.333 205.733 236.933C206.533 236.667 207.333 235.6 207.333 234.667C207.333 233.733 206.533 232.667 205.733 232.267C204.667 232 204 232.933 204 234.667Z" fill="#C0956A"/>
<path d="M232.533 233.467C231.2 235.733 234.266 238.267 236.133 236.4C237.733 234.8 236.666 232 234.666 232C234 232 233.066 232.667 232.533 233.467Z" fill="#C0956A"/>
<path d="M142.001 150.933C141.601 151.867 141.467 164.133 141.601 178C142.001 199.467 142.267 203.333 144.001 203.333C145.734 203.333 146.001 199.467 146.001 176.8C146.001 156.667 145.601 150.133 144.401 149.733C143.467 149.333 142.401 149.867 142.001 150.933Z" fill="#C0956A"/>
<path d="M141.866 233.467C140.8 235.333 143.333 237.867 145.2 236.8C146.666 235.867 145.733 232 144 232C143.333 232 142.4 232.667 141.866 233.467Z" fill="#C0956A"/>
<path d="M171.334 233.333C170.8 234.133 170.934 235.467 171.734 236.267C172.534 237.067 173.334 237.067 174 236C174.534 235.2 174.4 233.867 173.6 233.067C172.8 232.267 172 232.267 171.334 233.333Z" fill="#C0956A"/>
<path d="M17.5997 205.6C18.2663 207.6 21.333 208 21.4663 206C21.4663 205.2 20.533 204.4 19.1997 204.267C17.8663 203.867 17.1997 204.4 17.5997 205.6Z" fill="#C0956A"/>
<path d="M17.9994 233.333C17.0661 234.933 18.2661 237.333 20.1328 237.333C21.7328 237.333 21.7328 233.733 20.1328 232.667C19.4661 232.267 18.5328 232.533 17.9994 233.333Z" fill="#C0956A"/>
<path d="M76.9333 232.8C76.4 233.333 76 234.533 76 235.6C76 237.067 79.6 237.333 94.4 237.067C109.6 236.667 112.667 236.267 112.667 234.667C112.667 233.067 109.733 232.667 95.2 232.267C85.7333 232.133 77.4667 232.4 76.9333 232.8Z" fill="#C0956A"/>
</svg>
