<svg width="18" height="18" viewBox="0 0 18 18" fill="none" xmlns="http://www.w3.org/2000/svg">
<g clip-path="url(#clip0_206_60)">
<path d="M12.6594 8.43792L13.0165 8.07701C13.0165 8.07701 13.5652 7.6057 14.1909 7.81938C15.2802 8.19127 16.5387 7.78862 17.4115 6.91467C17.6599 6.66636 17.9614 6.16816 17.9614 6.16816C17.996 6.12091 18.0081 6.06104 17.9938 6.00391L17.9263 5.72597C17.9136 5.6738 17.8801 5.62929 17.834 5.60183C17.7878 5.5749 17.7323 5.56777 17.6813 5.5826L15.5373 6.17917C15.4576 6.20114 15.3725 6.17147 15.3241 6.10502L14.3392 4.7482C14.309 4.707 14.2964 4.65536 14.3035 4.60536L14.5018 3.16396C14.5123 3.08542 14.5683 3.02168 14.6447 3.00027L16.909 2.3702C17.0111 2.34162 17.0732 2.23615 17.0479 2.13233L16.9584 1.76815C16.9463 1.7165 16.9133 1.67256 16.8683 1.6451C16.8683 1.6451 16.6908 1.52754 16.5618 1.46109C15.2758 0.796958 13.6564 1.00297 12.5781 2.08181C11.7816 2.87831 11.4696 3.96928 11.6157 5.00527C11.7283 5.80177 11.6756 6.22529 11.3317 6.58895C11.3004 6.62136 11.2015 6.72022 11.0488 6.8702L12.6594 8.43792Z" fill="#865F37"/>
<path d="M7.43059 10.3858C5.02735 12.7143 2.40599 15.2478 2.40599 15.2478C2.31645 15.3335 2.26536 15.4516 2.26371 15.5752C2.26206 15.6982 2.31096 15.8175 2.39776 15.9048L3.52058 17.0276C3.60847 17.1149 3.72713 17.1633 3.85074 17.1617C3.97435 17.1606 4.09187 17.1089 4.17702 17.0199L9.07527 12.0646L7.43059 10.3858Z" fill="#865F37"/>
<path d="M17.6278 15.8685C17.7151 15.7812 17.7634 15.6625 17.7618 15.5389C17.7607 15.4153 17.7091 15.2978 17.6201 15.2121L7.99444 5.84457L6.44922 7.39036L15.848 16.9836C15.9337 17.0732 16.0512 17.1242 16.1748 17.1259C16.2985 17.1276 16.4171 17.0786 16.505 16.9913L17.6278 15.8685Z" fill="#865F37"/>
<path d="M8.93669 1.14683C7.77763 0.694753 5.90338 0.629363 4.81793 1.71428C3.96317 2.56904 2.71295 3.81983 2.71295 3.81983C2.26745 4.26476 2.68109 4.70643 2.35203 5.03493C2.023 5.36396 1.49728 5.03493 1.20123 5.33102L0.115778 6.41696C-0.0385928 6.57077 -0.0385928 6.82126 0.115778 6.97563L1.62806 8.48791C1.78243 8.64228 2.03292 8.64228 2.18725 8.48791L3.2727 7.40246C3.56935 7.10637 3.23973 6.58068 3.56935 6.25218C4.01264 5.80833 4.4966 5.8836 4.7762 6.16264L5.33486 6.72131L5.94022 6.8806L7.48544 5.33538L7.30745 4.74869C6.8147 4.25541 6.74438 3.68465 7.05313 3.37594C7.53104 2.89803 8.3204 2.20756 9.05977 1.91148C9.53104 1.72307 9.38877 1.25395 8.93669 1.14683ZM6.8405 3.63796C6.83829 3.63962 7.04648 3.38199 7.05035 3.37869L6.8405 3.63796Z" fill="#865F37"/>
</g>
<defs>
<clipPath id="clip0_206_60">
<rect width="18" height="18" fill="white"/>
</clipPath>
</defs>
</svg>
