<svg width="18" height="18" viewBox="0 0 18 18" fill="none" xmlns="http://www.w3.org/2000/svg">
<g clip-path="url(#clip0_207_127)">
<path d="M8.83177 7.98212C8.24389 7.98212 7.76562 8.46038 7.76562 9.04823C7.76562 9.63618 8.24389 10.1145 8.83177 10.1145C9.41966 10.1145 9.89792 9.63622 9.89792 9.04823C9.89789 8.46035 9.41962 7.98212 8.83177 7.98212ZM8.83177 9.54281C8.55914 9.54281 8.3373 9.32097 8.3373 9.04823C8.3373 8.77563 8.5591 8.55379 8.83177 8.55379C9.10438 8.55379 9.32625 8.77556 9.32625 9.04823C9.32621 9.32094 9.10438 9.54281 8.83177 9.54281Z" fill="#865F37"/>
<path d="M16.3136 2.77738H14.6733C14.1921 2.77738 13.7929 3.13446 13.7263 3.59747H12.5111H9.88682V3.14395H10.8172C11.3449 3.14395 11.7741 2.7147 11.7741 2.18707V1.87959C11.7741 1.35193 11.3448 0.922711 10.8172 0.922711H10.0061C9.87737 0.393855 9.39998 0 8.83207 0C8.26419 0 7.78684 0.393856 7.65806 0.922676H6.8469C6.31927 0.922676 5.89005 1.35193 5.89005 1.87956V2.18704C5.89005 2.7147 6.31931 3.14392 6.8469 3.14392H7.77734V3.59736H6.44949C6.29161 3.59736 6.16364 3.7253 6.16364 3.88322C6.16364 4.04111 6.29157 4.16907 6.44949 4.16907H8.06316H9.60097H12.2252V6.87804H12.1441H10.3374C9.97014 6.62245 9.55105 6.46745 9.10875 6.42175C9.10207 6.42104 9.09532 6.42048 9.08867 6.41985C9.05471 6.41661 9.02064 6.41401 8.98644 6.41204C8.97617 6.41145 8.96598 6.41078 8.95568 6.41032C8.91461 6.40846 8.87345 6.40719 8.83203 6.40719C8.79062 6.40719 8.74948 6.40846 8.70839 6.41032C8.69809 6.41081 8.68789 6.41148 8.67766 6.41204C8.64349 6.41398 8.60939 6.41658 8.57543 6.41985C8.56871 6.42048 8.562 6.42104 8.55532 6.42175C8.11302 6.46745 7.69402 6.62245 7.32671 6.87804H5.48969H4.04853C3.83615 6.87804 3.66332 6.70525 3.66332 6.49283V6.381V4.66608V4.55425C3.66332 4.34183 3.83612 4.16904 4.04853 4.16904H5.4776C5.63548 4.16904 5.76345 4.04111 5.76345 3.88318C5.76345 3.7253 5.63552 3.59733 5.4776 3.59733H4.04853C3.58036 3.59733 3.18991 3.93539 3.10779 4.38019H1.68536C1.15774 4.38019 0.728516 4.80945 0.728516 5.33707V5.70983C0.728516 6.23749 1.15777 6.66671 1.68536 6.66671H3.10789C3.18998 7.11151 3.58046 7.44957 4.04864 7.44957H5.20394V7.96521C5.20394 8.49287 5.6332 8.92209 6.16079 8.92209H6.19429C6.19232 8.96382 6.19109 9.00577 6.19109 9.04799C6.19109 9.89705 6.5943 10.6533 7.21878 11.1368L3.50108 17.5711C3.42212 17.7078 3.46887 17.8826 3.6056 17.9616C3.65063 17.9877 3.69982 18 3.74833 18C3.84709 18 3.94313 17.9488 3.99611 17.8572L7.70598 11.4365C7.96575 11.5595 8.24861 11.6414 8.54621 11.6735V17.7142C8.54621 17.8721 8.67414 18 8.83207 18C8.98999 18 9.11792 17.8721 9.11792 17.7142V11.6735C9.41555 11.6414 9.69839 11.5595 9.95819 11.4365L13.668 17.8571C13.721 17.9488 13.817 18 13.9158 18C13.9643 18 14.0135 17.9877 14.0585 17.9616C14.1953 17.8826 14.242 17.7078 14.1631 17.5711L10.4454 11.137C11.0699 10.6535 11.473 9.89729 11.473 9.0482C11.473 9.00598 11.4718 8.96403 11.4698 8.9223H11.4731C12.0007 8.9223 12.43 8.49305 12.43 7.96542V7.44979H12.511H13.7263C13.7929 7.9129 14.1921 8.26998 14.6733 8.26998H16.3136C16.8412 8.26998 17.2704 7.84072 17.2704 7.3131V3.73423C17.2705 3.20664 16.8413 2.77738 16.3136 2.77738ZM8.83207 0.571676C9.08052 0.571676 9.29616 0.714691 9.40107 0.922641H8.2631C8.368 0.714691 8.58365 0.571676 8.83207 0.571676ZM9.31511 3.59743H8.34898V3.14399H9.31511V3.59743ZM9.60093 2.57228H8.06313H6.84686C6.63448 2.57228 6.46169 2.39948 6.46169 2.18707V1.87959C6.46169 1.66718 6.63448 1.49439 6.84686 1.49439H7.90939H9.75471H10.8172C11.0295 1.49439 11.2023 1.66718 11.2023 1.87959V2.18707C11.2023 2.39948 11.0295 2.57228 10.8172 2.57228H9.60093ZM3.09168 6.09525H1.68536C1.47298 6.09525 1.30019 5.92246 1.30019 5.71001V5.33725C1.30019 5.12483 1.47298 4.95204 1.68536 4.95204H3.09172L3.09168 6.09525ZM6.40059 8.0177C6.39813 8.0235 6.39591 8.02941 6.39345 8.03524C6.38052 8.06643 6.36796 8.09775 6.35622 8.12946C6.34982 8.14662 6.34402 8.16402 6.33798 8.18132C6.3308 8.20202 6.32353 8.22263 6.31685 8.24354C6.30834 8.26998 6.30064 8.29673 6.29294 8.32359C6.29034 8.33266 6.28735 8.34156 6.28486 8.3507H6.16072C5.94834 8.3507 5.77555 8.17791 5.77555 7.96549V7.44986H6.72916C6.5962 7.62451 6.48616 7.8153 6.40059 8.0177ZM8.83207 11.1175C7.69107 11.1175 6.76273 10.1893 6.76273 9.0482C6.76273 8.92304 6.77451 8.80066 6.79592 8.68155C6.80102 8.6529 6.80679 8.62443 6.81308 8.59609C6.81431 8.59064 6.81561 8.58519 6.81684 8.57978C6.82264 8.55457 6.82893 8.52957 6.83561 8.50472C6.83832 8.49477 6.8412 8.48493 6.84405 8.47508C6.84982 8.45504 6.85576 8.43507 6.86209 8.41525C6.86736 8.3989 6.87295 8.38273 6.87857 8.36659C6.88311 8.35348 6.88761 8.34036 6.89243 8.32743C6.90167 8.30254 6.91145 8.27793 6.92161 8.25349C6.92336 8.24931 6.92498 8.24505 6.92674 8.24087C7.21442 7.56464 7.85205 7.07193 8.611 6.99096C8.61796 6.99022 8.625 6.98952 8.63199 6.98885C8.65745 6.98643 8.68307 6.98449 8.70874 6.98298C8.71707 6.98249 8.72544 6.98189 8.7338 6.9815C8.76636 6.97999 8.79905 6.97904 8.83196 6.97904C8.8649 6.97904 8.8976 6.97999 8.93015 6.9815C8.93848 6.98189 8.94685 6.98249 8.95515 6.98298C8.98088 6.98449 9.00651 6.98636 9.032 6.98885C9.03896 6.98948 9.04592 6.99022 9.05288 6.99096C9.81187 7.07189 10.4496 7.56464 10.7372 8.24094C10.739 8.24505 10.7406 8.2492 10.7423 8.25332C10.7525 8.27779 10.7623 8.30246 10.7716 8.32746C10.7764 8.34043 10.7808 8.35348 10.7853 8.36652C10.791 8.38273 10.7966 8.39897 10.8019 8.41535C10.8082 8.43511 10.8141 8.45504 10.8199 8.47501C10.8228 8.48496 10.8257 8.49488 10.8284 8.50489C10.8351 8.52972 10.8414 8.55468 10.8472 8.57981C10.8484 8.5853 10.8497 8.59075 10.8509 8.59623C10.8572 8.62453 10.863 8.65301 10.8681 8.6817C10.8895 8.80077 10.9013 8.92315 10.9013 9.0483C10.9014 10.1893 9.97306 11.1175 8.83207 11.1175ZM11.8583 7.96542C11.8583 8.17784 11.6855 8.35063 11.4731 8.35063H11.3792C11.3768 8.34159 11.3738 8.3328 11.3712 8.32384C11.3635 8.29691 11.3558 8.27002 11.3473 8.24347C11.3406 8.22266 11.3334 8.20209 11.3263 8.18149C11.3202 8.16409 11.3143 8.14662 11.3079 8.12936C11.2962 8.09771 11.2837 8.06646 11.2708 8.03538C11.2684 8.02948 11.2661 8.0235 11.2636 8.01763C11.178 7.81523 11.068 7.62451 10.935 7.44982H11.8583V7.96542ZM13.7164 6.87811H12.7969V4.16918H13.7164V6.87811ZM16.6988 7.31306C16.6988 7.52548 16.526 7.69827 16.3136 7.69827H14.6733C14.4609 7.69827 14.2881 7.52548 14.2881 7.31306V7.16396V3.88332V3.73423C14.2881 3.52185 14.4609 3.34909 14.6733 3.34909H16.3136C16.526 3.34909 16.6988 3.52185 16.6988 3.73423V7.31306Z" fill="#865F37"/>
</g>
<defs>
<clipPath id="clip0_207_127">
<rect width="18" height="18" fill="white"/>
</clipPath>
</defs>
</svg>
