<svg width="18" height="18" viewBox="0 0 18 18" fill="none" xmlns="http://www.w3.org/2000/svg">
<g clip-path="url(#clip0_201_2)">
<path d="M14.43 1.215L13.32 2.4H8.235H3.15V2.055C3.15 1.275 1.83 0.659998 0.93 1.035C0 1.425 0 1.41 0 8.61V15.15H2.325C3.6 15.15 4.65 15.18 4.65 15.225C4.65 15.27 4.5 15.51 4.32 15.765L3.975 16.23L4.5 16.665C5.715 17.7 5.67 17.7 6.33 16.95C6.66 16.575 7.095 16.02 7.305 15.72L7.695 15.15H10.29C11.73 15.15 12.9 15.195 12.9 15.255C12.9 15.315 12.48 15.795 11.97 16.305C11.325 16.95 11.085 17.295 11.19 17.4C11.295 17.505 12.45 17.535 14.415 17.52L17.475 17.475L17.52 14.265C17.55 12.045 17.505 10.995 17.385 10.89C17.265 10.77 17.04 10.92 16.59 11.43C16.245 11.835 15.915 12.15 15.855 12.15C15.795 12.15 15.75 10.41 15.75 8.295V4.44L16.455 3.72C17.115 3.045 17.145 3 16.905 2.73C16.575 2.37 16.59 2.265 16.995 1.83L17.325 1.47L16.515 0.734998C16.065 0.329998 15.66 -1.91703e-06 15.615 0.0149981C15.57 0.0149981 15.03 0.554998 14.43 1.215ZM16.5 1.515C16.5 1.56 16.41 1.695 16.305 1.785C16.02 2.01 15.21 1.2 15.465 0.944998C15.6 0.809998 15.75 0.854998 16.065 1.095C16.305 1.26 16.5 1.455 16.5 1.515ZM2.46 1.83C2.67 2.115 2.7 2.955 2.7 7.845C2.7 13.395 2.7 13.515 2.415 13.35C2.04 13.155 1.26 13.155 0.885 13.35C0.6 13.515 0.6 13.395 0.6 7.785C0.6 1.335 0.57 1.5 1.665 1.5C2.085 1.5 2.295 1.59 2.46 1.83ZM15.36 2.01L15.81 2.355L14.625 3.615C13.98 4.305 13.29 5.04 13.11 5.235L12.765 5.61L12.375 5.25C12.165 5.055 12 4.845 12 4.77C12 4.635 14.73 1.65 14.85 1.65C14.895 1.65 15.12 1.815 15.36 2.01ZM12.75 2.955C12.75 3.015 12.42 3.405 12.015 3.825C11.385 4.455 11.235 4.725 11.04 5.55C10.905 6.135 10.875 6.585 10.95 6.66C11.04 6.75 11.46 6.69 12.015 6.525C12.84 6.27 13.05 6.12 14.01 5.07C14.595 4.425 15.12 3.9 15.195 3.9C15.255 3.9 15.3 5.91 15.3 8.355V12.81L14.37 13.755L13.44 14.7H10.53C7.65 14.7 7.62 14.7 7.17 14.325C6.6 13.845 6 13.845 5.55 14.325C5.22 14.67 5.085 14.715 4.2 14.67L3.225 14.625L3.18 8.925C3.165 5.79 3.18 3.135 3.225 3.045C3.27 2.895 4.365 2.85 8.025 2.85C10.62 2.85 12.75 2.895 12.75 2.955ZM16.35 2.97C16.35 3.045 16.215 3.225 16.05 3.375C15.81 3.585 15.75 3.6 15.75 3.435C15.75 3.195 16.035 2.85 16.23 2.85C16.29 2.85 16.35 2.91 16.35 2.97ZM11.97 5.58C12.24 5.85 12.195 6 11.85 6C11.655 6 11.55 5.895 11.55 5.7C11.55 5.355 11.7 5.31 11.97 5.58ZM16.905 16.905C16.875 16.935 15.795 16.935 14.505 16.92L12.18 16.875L14.535 14.415L16.875 11.955L16.92 14.4C16.935 15.75 16.935 16.875 16.905 16.905ZM2.46 14.13C2.595 14.31 2.7 14.52 2.7 14.58C2.7 14.655 2.235 14.7 1.65 14.7C0.54 14.7 0.39 14.58 0.855 14.07C1.215 13.665 2.16 13.71 2.46 14.13ZM6.675 14.64C7.065 14.895 7.155 15.21 6.9 15.375C6.81 15.42 6.54 15.33 6.3 15.15C5.925 14.88 5.88 14.775 6.015 14.61C6.225 14.355 6.225 14.355 6.675 14.64ZM6.015 15.615L6.45 15.915L6.12 16.365C5.715 16.89 5.55 16.905 5.1 16.425L4.755 16.05L5.1 15.675C5.52 15.225 5.475 15.225 6.015 15.615Z" fill="#865F37"/>
<path d="M8.55078 4.965C8.55078 5.16 8.65578 5.25 8.86578 5.25C9.07578 5.25 9.15078 5.175 9.12078 4.995C9.06078 4.635 8.55078 4.605 8.55078 4.965Z" fill="#865F37"/>
<path d="M7.72589 6.85499L6.75089 7.84499V9.47999V11.1H5.74589C4.65089 11.1 4.17089 11.28 4.44089 11.55C4.54589 11.655 6.01589 11.685 8.8659 11.67C12.5409 11.625 13.1259 11.595 13.1259 11.4C13.1259 11.22 12.8709 11.16 11.9709 11.13L10.8009 11.085V9.38999V7.69499L9.8409 6.77999C9.3159 6.26999 8.8359 5.84999 8.7909 5.84999C8.7459 5.84999 8.26589 6.29999 7.72589 6.85499ZM9.2709 7.01999C9.5409 7.25999 9.7509 7.49999 9.7509 7.54499C9.7509 7.60499 9.3009 7.64999 8.7459 7.64999H7.74089L8.2509 7.12499C8.5359 6.83999 8.7609 6.59999 8.7759 6.59999C8.7909 6.59999 9.0159 6.79499 9.2709 7.01999ZM10.3509 9.67499V11.1H8.8509H7.35089V9.67499V8.24999H8.8509H10.3509V9.67499Z" fill="#865F37"/>
<path d="M8.55078 12.6C8.55078 12.825 8.62578 12.9 8.82078 12.87C8.95578 12.84 9.07578 12.72 9.07578 12.6C9.07578 12.48 8.95578 12.36 8.82078 12.33C8.62578 12.3 8.55078 12.375 8.55078 12.6Z" fill="#865F37"/>
<path d="M14.8808 14.895C14.2958 15.495 13.8008 16.065 13.8008 16.17C13.8008 16.29 14.1758 16.35 15.0758 16.35H16.3508V15.075C16.3508 14.145 16.3058 13.8 16.1558 13.8C16.0508 13.8 15.4808 14.295 14.8808 14.895ZM15.8708 15.33C15.8258 15.765 15.7658 15.825 15.3458 15.87C14.7458 15.93 14.7308 15.825 15.2558 15.27C15.7808 14.73 15.9308 14.745 15.8708 15.33Z" fill="#865F37"/>
</g>
<defs>
<clipPath id="clip0_201_2">
<rect width="18" height="18" fill="white"/>
</clipPath>
</defs>
</svg>
