<svg width="18" height="18" viewBox="0 0 18 18" fill="none" xmlns="http://www.w3.org/2000/svg">
<path d="M16.125 15.75H15V11.25C15.4553 11.1571 15.8598 10.8984 16.1352 10.5242C16.4106 10.1499 16.5372 9.68673 16.4905 9.22443C16.4438 8.76213 16.2271 8.33364 15.8824 8.02203C15.5378 7.71042 15.0897 7.53789 14.625 7.53789C14.1603 7.53789 13.7122 7.71042 13.3676 8.02203C13.0229 8.33364 12.8062 8.76213 12.7595 9.22443C12.7128 9.68673 12.8394 10.1499 13.1148 10.5242C13.3902 10.8984 13.7947 11.1571 14.25 11.25V15.75H11.25V1.875C11.2538 1.79229 11.2301 1.71064 11.1826 1.64281C11.1351 1.57497 11.0665 1.52476 10.9875 1.5C10.9114 1.47717 10.83 1.47863 10.7547 1.50417C10.6795 1.52971 10.614 1.57806 10.5675 1.6425C10.0023 2.46754 9.29051 3.18187 8.4675 3.75C7.48957 4.03763 6.48399 4.22115 5.4675 4.2975C4.98527 4.36838 4.54523 4.61207 4.22928 4.98321C3.91333 5.35435 3.743 5.82765 3.75 6.315V6.75H2.625C2.32663 6.75 2.04048 6.86853 1.8295 7.07951C1.61853 7.29049 1.5 7.57664 1.5 7.87501V16.125C1.5 16.2245 1.53951 16.3198 1.60984 16.3902C1.68016 16.4605 1.77554 16.5 1.875 16.5H16.125C16.2245 16.5 16.3198 16.4605 16.3902 16.3902C16.4605 16.3198 16.5 16.2245 16.5 16.125C16.5 16.0255 16.4605 15.9302 16.3902 15.8598C16.3198 15.7895 16.2245 15.75 16.125 15.75ZM13.5 9.37501C13.5 9.1525 13.566 8.93499 13.6896 8.74999C13.8132 8.56498 13.9889 8.42079 14.1945 8.33564C14.4 8.25049 14.6262 8.22821 14.8445 8.27162C15.0627 8.31503 15.2632 8.42218 15.4205 8.57951C15.5778 8.73684 15.685 8.9373 15.7284 9.15553C15.7718 9.37376 15.7495 9.59996 15.6644 9.80552C15.5792 10.0111 15.435 10.1868 15.25 10.3104C15.065 10.434 14.8475 10.5 14.625 10.5C14.3266 10.5 14.0405 10.3815 13.8295 10.1705C13.6185 9.95952 13.5 9.67337 13.5 9.37501ZM4.5 15.75V13.5H6V15.75H4.5ZM6.75 15.75V13.125C6.75 13.0255 6.71049 12.9302 6.64016 12.8598C6.56984 12.7895 6.47446 12.75 6.375 12.75H4.125C4.02554 12.75 3.93016 12.7895 3.85983 12.8598C3.78951 12.9302 3.75 13.0255 3.75 13.125V15.75H2.25V7.87501C2.25 7.77555 2.28951 7.68017 2.35983 7.60984C2.43016 7.53951 2.52554 7.50001 2.625 7.50001H7.875C7.97446 7.50001 8.06984 7.53951 8.14016 7.60984C8.21049 7.68017 8.25 7.77555 8.25 7.87501V15.75H6.75ZM9 15.75V7.87501C9 7.57664 8.88147 7.29049 8.67049 7.07951C8.45952 6.86853 8.17337 6.75 7.875 6.75H4.5V6.315C4.49776 6.01121 4.60735 5.7172 4.8079 5.48899C5.00845 5.26078 5.28593 5.11432 5.5875 5.0775C6.66972 5.01691 7.74031 4.82294 8.775 4.5C9.43974 4.11367 10.0251 3.60466 10.5 3V15.75H9Z" fill="#865F37"/>
<path d="M6.375 9.75H4.125C4.02554 9.75 3.93016 9.78951 3.85984 9.85983C3.78951 9.93016 3.75 10.0255 3.75 10.125C3.75 10.2245 3.78951 10.3198 3.85984 10.3902C3.93016 10.4605 4.02554 10.5 4.125 10.5H6.375C6.47446 10.5 6.56984 10.4605 6.64017 10.3902C6.71049 10.3198 6.75 10.2245 6.75 10.125C6.75 10.0255 6.71049 9.93016 6.64017 9.85983C6.56984 9.78951 6.47446 9.75 6.375 9.75Z" fill="#865F37"/>
</svg>
