<svg width="18" height="18" viewBox="0 0 18 18" fill="none" xmlns="http://www.w3.org/2000/svg">
<g clip-path="url(#clip0_206_72)">
<path d="M16.708 8.79622C16.678 8.76624 16.645 8.74525 16.609 8.73026C16.5551 8.70628 16.4951 8.69998 16.4352 8.71228C16.4172 8.71857 16.3992 8.72427 16.3812 8.73056C16.3632 8.73656 16.3452 8.74855 16.3272 8.75755C16.3122 8.76954 16.2972 8.78153 16.2823 8.79652C16.2283 8.84988 16.1953 8.92813 16.1953 9.00608C16.1953 9.04805 16.2043 9.08702 16.2193 9.123C16.2343 9.15897 16.2553 9.19195 16.2823 9.21893C16.3392 9.2756 16.4142 9.30887 16.4951 9.30887C16.5341 9.30887 16.5731 9.29988 16.609 9.28489C16.645 9.2699 16.678 9.24891 16.708 9.21893C16.7349 9.19195 16.7559 9.15897 16.7709 9.123C16.7859 9.08702 16.7949 9.04805 16.7949 9.00608C16.7949 8.92813 16.7619 8.84988 16.708 8.79622Z" fill="#865F37"/>
<path d="M17.9072 8.79621C17.8232 8.71227 17.6913 8.68529 17.5804 8.73026C17.5444 8.74525 17.5115 8.76623 17.4815 8.79621C17.4275 8.84987 17.3945 8.92812 17.3945 9.00607C17.3945 9.04804 17.4035 9.08701 17.4185 9.12299C17.4335 9.15897 17.4545 9.19194 17.4815 9.21893C17.5115 9.24891 17.5444 9.26989 17.5804 9.28488C17.6164 9.29987 17.6554 9.30886 17.6943 9.30886C17.7333 9.30886 17.7723 9.29987 17.8083 9.28488C17.8442 9.26989 17.8772 9.24891 17.9072 9.21893C17.9342 9.19194 17.9552 9.15897 17.9701 9.12299C17.9881 9.08701 17.9941 9.04804 17.9941 9.00607C17.9941 8.92812 17.9611 8.84987 17.9072 8.79621Z" fill="#865F37"/>
<path d="M17.6939 11.7043H13.7966C13.6311 11.7043 13.4968 11.8395 13.4968 12.0053V12.3038H11.9978C11.8569 12.3038 11.7441 12.4034 11.7121 12.5344L9.25432 11.9603C9.07234 11.918 8.88347 11.9333 8.70928 12.0038L6.36187 12.9631C6.05847 13.0872 5.83662 13.3382 5.74638 13.6412L1.16548 12.2571C0.890862 12.1737 0.600058 12.2247 0.368914 12.3962C0.13807 12.5674 0.00585938 12.8306 0.00585938 13.1181V13.7878C0.00585938 14.0891 0.155758 14.3692 0.406389 14.5361L3.73684 16.7564C3.76652 16.7762 3.7995 16.7906 3.83457 16.799L8.79413 17.9661C8.86038 17.9817 8.92814 17.9895 8.99709 17.9895C9.06874 17.9895 9.14159 17.9811 9.21444 17.9637L11.7669 17.2853C11.8221 17.3542 11.903 17.4004 11.9978 17.4004H13.4968V17.7014C13.4968 17.8672 13.6311 18 13.7966 18H17.6939C17.8594 18 17.9937 17.8672 17.9937 17.7014V12.0053C17.9937 11.8395 17.8594 11.7043 17.6939 11.7043ZM11.698 16.6836L9.06844 17.3818C9.02347 17.3929 8.9755 17.3926 8.93083 17.3821L4.02465 16.2276L0.738865 14.0373C0.655521 13.9818 0.605455 13.8883 0.605455 13.7878V13.1181C0.605455 13.0225 0.649525 12.9346 0.726573 12.8774C0.803321 12.8201 0.900156 12.8024 0.992194 12.8309L5.75238 14.2687C5.88969 14.6941 6.29112 15.002 6.7633 15.002H8.99979C9.16528 15.002 9.29959 14.868 9.29959 14.7022C9.29959 14.5364 9.16528 14.4024 8.99979 14.4024H6.7633C6.50877 14.4024 6.30161 14.198 6.30161 13.9452C6.30161 13.757 6.41433 13.5891 6.58882 13.518L8.93653 12.5587C8.99439 12.535 9.05735 12.5302 9.11791 12.544L11.698 13.1472V16.6836ZM13.4968 16.8008H12.2976V12.9097V12.9034H13.4968V16.8008ZM17.3941 17.4004H14.0963V17.1018V12.6048V12.3038H17.3941V17.4004Z" fill="#865F37"/>
<path d="M16.1953 16.2012H15.2959C15.1304 16.2012 14.9961 16.3352 14.9961 16.501C14.9961 16.6668 15.1304 16.8008 15.2959 16.8008H16.1953C16.3608 16.8008 16.4951 16.6668 16.4951 16.501C16.4951 16.3352 16.3608 16.2012 16.1953 16.2012Z" fill="#865F37"/>
<path d="M8.82759 0.0121436C8.82639 0.0121436 8.82519 0.0121436 8.82399 0.0121436C8.8135 0.0121436 8.56946 -0.0277294 8.2112 0.0370268C7.72553 0.133562 7.30522 0.231895 6.96614 0.412074C6.55242 0.623431 6.15699 0.897146 5.89647 1.14898C5.79603 1.23322 5.72079 1.31596 5.66023 1.38222C5.63594 1.4089 5.61436 1.43288 5.58977 1.45717C5.50193 1.54591 5.45966 1.60377 5.45966 1.60377C5.36343 1.73658 5.39101 1.92245 5.52262 2.02079C5.57658 2.06126 5.63954 2.08045 5.7019 2.08045C5.79184 2.08045 5.88058 2.03998 5.93934 1.96323C5.94443 1.95663 5.96992 1.92485 6.01159 1.88258C6.03947 1.8553 6.06975 1.82262 6.10303 1.78605C6.15129 1.73298 6.20826 1.66943 6.2967 1.59418C6.52844 1.37113 6.8804 1.12859 7.24286 0.943315C7.53456 0.78772 7.89971 0.666002 8.32243 0.581759C8.62223 0.527496 8.82879 0.523898 8.83089 0.523898C8.99607 0.5212 9.12858 0.429162 9.12619 0.263674C9.12469 0.0999843 8.99128 0.0121436 8.82759 0.0121436Z" fill="#865F37"/>
<path d="M10.5429 0.171638C10.5429 0.171638 10.4554 0.136862 10.3526 0.105982L10.1943 0.0661093C10.033 0.0241377 9.8705 0.122471 9.82973 0.282563C9.78866 0.442955 9.88579 0.606045 10.0462 0.647117L10.1913 0.683693C10.256 0.703179 10.3193 0.728063 10.3226 0.729262C10.3589 0.743652 10.396 0.750248 10.4326 0.750248C10.5519 0.750248 10.665 0.678596 10.7114 0.560775C10.7723 0.406679 10.697 0.232497 10.5429 0.171638Z" fill="#865F37"/>
<path d="M13.4073 4.46983C13.5068 4.40867 13.5791 4.28306 13.5839 4.16613C13.5845 4.15174 13.5866 4.04592 13.5668 3.9218L13.55 3.80098C13.5371 3.71524 13.5218 3.60611 13.4975 3.48439C13.4034 3.06858 13.2328 2.61678 13.0292 2.25133C12.787 1.81302 12.4584 1.44157 12.2114 1.19544L12.0882 1.08391C12.0108 1.01406 11.9446 0.954102 11.8861 0.909433L11.762 0.817395C11.6289 0.718462 11.4412 0.746642 11.3426 0.880052C11.244 1.01286 11.2721 1.20084 11.4049 1.29917L11.5264 1.38911C11.571 1.42269 11.6235 1.47095 11.6853 1.52732L11.8016 1.63105C12.0072 1.83701 12.2962 2.16139 12.5049 2.53883C12.6818 2.85722 12.8305 3.24755 12.9108 3.60222C12.9312 3.70565 12.9453 3.79828 12.9567 3.87623L12.975 3.99255C12.9834 4.04562 12.9846 4.13526 12.9846 4.14575C12.9807 4.28096 13.0676 4.43865 13.1899 4.49022C13.1009 4.53698 13.0331 4.62363 13.0256 4.73095C12.9699 5.52392 12.6428 6.31898 12.1035 6.97074C11.8426 7.28763 11.536 7.55715 11.2029 7.7658L10.937 7.9175L10.6773 8.03922C10.6674 8.04402 10.6578 8.04911 10.6486 8.05481C10.6108 8.07759 10.4909 8.16484 10.4984 8.34351C10.4984 8.34531 10.4984 8.34741 10.4984 8.34921V8.70627H9.59896H8.09997H7.80017H7.20628C7.36907 8.70297 7.50038 8.57136 7.50038 8.40767V8.32013C7.50038 8.23169 7.4614 8.14775 7.39365 8.09079C7.34118 8.04671 7.28392 8.02093 7.22336 7.99365C7.20178 7.98406 7.17809 7.97356 7.14422 7.95648C7.04618 7.91151 6.84022 7.80538 6.56111 7.60361C6.15099 7.30741 5.60925 6.72431 5.31605 5.97241C5.01146 5.22262 4.98328 4.42396 5.05942 3.9188C5.08851 3.68376 5.14487 3.48709 5.19014 3.3288L5.20543 3.27004C5.26808 3.10665 5.30436 3.01611 5.30466 3.01521C5.36612 2.86142 5.29117 2.68693 5.13737 2.62547C4.98268 2.56342 4.80879 2.63927 4.74764 2.79276C4.74764 2.79276 4.71046 2.886 4.63641 3.08267L4.61333 3.16391C4.56506 3.3324 4.4991 3.56354 4.46523 3.83696C4.3525 4.58285 4.46283 5.46576 4.75873 6.19397C5.04653 6.93237 5.58917 7.64079 6.20975 8.08929C6.44689 8.26047 6.68942 8.40677 6.88339 8.49611C6.89599 8.50241 6.90828 8.5081 6.92027 8.5141C6.96284 8.62592 7.07077 8.70507 7.19728 8.70657C7.03329 8.70867 6.90078 8.84268 6.90078 9.00727V10.2065C6.90078 10.3722 7.03509 10.5051 7.20058 10.5051H7.80017V10.8061C7.80017 10.9718 7.93448 11.1059 8.09997 11.1059C8.26546 11.1059 8.39977 10.9718 8.39977 10.8061V10.5051H9.59896V10.8061C9.59896 10.9718 9.73327 11.1059 9.89876 11.1059C10.0642 11.1059 10.1986 10.9718 10.1986 10.8061V10.5051H10.7982C10.9636 10.5051 11.0979 10.3722 11.0979 10.2065V9.00727V8.50391L11.5099 8.28086C11.9092 8.03113 12.2648 7.71844 12.5661 7.35238C13.1839 6.60559 13.5593 5.68941 13.6237 4.77293C13.6336 4.62992 13.5392 4.5088 13.4073 4.46983ZM10.4984 9.90546H7.50038V9.30587H7.80017H8.09997H9.59896H10.4984V9.90546Z" fill="#865F37"/>
<path d="M10.7925 3.30241C10.4936 3.30241 10.2166 3.39265 9.98243 3.54405C9.74829 3.39265 9.47127 3.30241 9.17238 3.30241C8.86868 3.30241 8.58627 3.39475 8.35003 3.55065C8.11349 3.39475 7.83138 3.30241 7.52769 3.30241C6.70144 3.30241 6.0293 3.97456 6.0293 4.8008C6.0293 4.96659 6.16361 5.1006 6.32909 5.1006C6.49458 5.1006 6.62889 4.96659 6.62889 4.8008C6.62889 4.30524 7.03212 3.90201 7.52769 3.90201C7.66679 3.90201 7.7969 3.93649 7.91442 3.99285C7.76393 4.22639 7.67399 4.5028 7.67399 4.8008C7.67399 4.96659 7.8083 5.1006 7.97378 5.1006C8.13927 5.1006 8.27358 4.96659 8.27358 4.8008C8.27358 4.67279 8.30146 4.55137 8.35003 4.44075C8.3986 4.55107 8.42648 4.67249 8.42648 4.8008C8.42648 4.96659 8.56079 5.1006 8.72628 5.1006C8.89176 5.1006 9.02607 4.96659 9.02607 4.8008C9.02607 4.5028 8.93613 4.22639 8.78564 3.99285C8.90316 3.93619 9.03327 3.90201 9.17238 3.90201C9.30369 3.90201 9.4275 3.93169 9.53993 3.98265C9.38553 4.2183 9.29409 4.49861 9.29409 4.8008C9.29409 4.96659 9.4284 5.1006 9.59389 5.1006C9.75938 5.1006 9.89369 4.96659 9.89369 4.8008C9.89369 4.6635 9.92727 4.53458 9.98243 4.41796C10.0379 4.53458 10.0712 4.6632 10.0712 4.8008C10.0712 4.96659 10.2055 5.1006 10.371 5.1006C10.5365 5.1006 10.6708 4.96659 10.6708 4.8008C10.6708 4.49861 10.5793 4.2183 10.4249 3.98265C10.5374 3.93199 10.6612 3.90201 10.7925 3.90201C11.288 3.90201 11.6913 4.30494 11.6913 4.8008C11.6913 4.96659 11.8256 5.1006 11.9911 5.1006C12.1566 5.1006 12.2909 4.96659 12.2909 4.8008C12.2909 3.97456 11.6187 3.30241 10.7925 3.30241Z" fill="#865F37"/>
<path d="M14.3095 8.79621C14.2256 8.71227 14.0937 8.68529 13.9828 8.73026C13.9468 8.74525 13.9138 8.76623 13.8838 8.79621C13.8299 8.84987 13.7969 8.92812 13.7969 9.00607C13.7969 9.04804 13.8059 9.08701 13.8209 9.12299C13.8358 9.15897 13.8568 9.19194 13.8838 9.21893C13.9138 9.24891 13.9468 9.26989 13.9828 9.28488C14.0187 9.29987 14.0577 9.30886 14.0967 9.30886C14.1746 9.30886 14.2526 9.27589 14.3095 9.21893C14.3365 9.19194 14.3575 9.15897 14.3725 9.12299C14.3905 9.08701 14.3965 9.04804 14.3965 9.00607C14.3965 8.92812 14.3635 8.84987 14.3095 8.79621Z" fill="#865F37"/>
<path d="M15.5087 8.79621C15.4938 8.78122 15.4788 8.76922 15.4638 8.75723C15.4458 8.74824 15.4278 8.73625 15.4098 8.73025C15.3918 8.72396 15.3738 8.71826 15.3559 8.71196C15.2959 8.69997 15.2359 8.70597 15.182 8.73025C15.146 8.74524 15.113 8.76623 15.083 8.79621C15.0291 8.84987 14.9961 8.92812 14.9961 9.00606C14.9961 9.04804 15.0051 9.08701 15.0201 9.12299C15.0351 9.15896 15.0561 9.19194 15.083 9.21892C15.14 9.27558 15.2149 9.30886 15.2959 9.30886C15.3768 9.30886 15.4518 9.27588 15.5087 9.21892C15.5357 9.19194 15.5567 9.15896 15.5717 9.12299C15.5867 9.08701 15.5957 9.04804 15.5957 9.00606C15.5957 8.92812 15.5627 8.84987 15.5087 8.79621Z" fill="#865F37"/>
<path d="M0.518513 8.79621C0.43457 8.71227 0.302659 8.68529 0.191734 8.73026C0.155758 8.74525 0.12278 8.76623 0.0928007 8.79621C0.0388371 8.84987 0.00585938 8.92812 0.00585938 9.00607C0.00585938 9.04804 0.0148533 9.08701 0.0298432 9.12299C0.0448331 9.15897 0.0658189 9.19194 0.0928007 9.21893C0.12278 9.24891 0.155758 9.26989 0.191734 9.28488C0.22771 9.29987 0.266683 9.30886 0.305657 9.30886C0.386602 9.30886 0.461552 9.27589 0.518513 9.21893C0.545495 9.19194 0.566481 9.15897 0.581471 9.12299C0.596461 9.08701 0.605455 9.04804 0.605455 9.00607C0.605455 8.92812 0.572477 8.84987 0.518513 8.79621Z" fill="#865F37"/>
<path d="M1.71773 8.79621C1.68775 8.76623 1.65477 8.74525 1.6188 8.73026C1.50787 8.68529 1.37596 8.71197 1.29202 8.79621C1.23806 8.84988 1.20508 8.92812 1.20508 9.00607C1.20508 9.04804 1.21407 9.08702 1.22906 9.12299C1.24405 9.15897 1.26504 9.19195 1.29202 9.21893C1.34898 9.27559 1.42393 9.30887 1.50488 9.30887C1.54385 9.30887 1.58282 9.29987 1.6188 9.28488C1.65477 9.26989 1.68775 9.24891 1.71773 9.21893C1.74471 9.19195 1.7657 9.15897 1.78069 9.12299C1.79568 9.08702 1.80467 9.04804 1.80467 9.00607C1.80467 8.92812 1.7717 8.84988 1.71773 8.79621Z" fill="#865F37"/>
<path d="M2.91695 8.79621C2.90196 8.78122 2.88697 8.76923 2.86898 8.75724C2.85399 8.74825 2.83601 8.73625 2.81802 8.73026C2.80003 8.72396 2.78204 8.71827 2.76106 8.71197C2.72508 8.70597 2.68311 8.70597 2.64413 8.71197C2.62615 8.71827 2.60816 8.72396 2.59017 8.73026C2.57218 8.73625 2.5542 8.74825 2.53621 8.75724C2.52122 8.76923 2.50623 8.78122 2.49124 8.79621C2.43727 8.84988 2.4043 8.92813 2.4043 9.00607C2.4043 9.04804 2.41029 9.08702 2.42828 9.12299C2.44327 9.15897 2.46426 9.19195 2.49124 9.21893C2.52122 9.24891 2.5542 9.26989 2.59017 9.28488C2.62615 9.29987 2.66512 9.30887 2.70409 9.30887C2.74307 9.30887 2.78204 9.29987 2.81802 9.28488C2.85399 9.26989 2.88697 9.24891 2.91695 9.21893C2.94393 9.19195 2.96492 9.15897 2.97991 9.12299C2.9949 9.08702 3.00389 9.04804 3.00389 9.00607C3.00389 8.92813 2.97091 8.84988 2.91695 8.79621Z" fill="#865F37"/>
<path d="M4.17913 8.89215C4.16414 8.85617 4.14315 8.82319 4.11617 8.79621C4.03223 8.71227 3.90032 8.68529 3.78939 8.73026C3.75341 8.74525 3.72044 8.76623 3.69046 8.79621C3.63649 8.84987 3.60352 8.92812 3.60352 9.00607C3.60352 9.04804 3.61251 9.08701 3.6275 9.12299C3.64249 9.15897 3.66348 9.19194 3.69046 9.21893C3.72044 9.24891 3.75341 9.26989 3.78939 9.28488C3.82537 9.29987 3.86434 9.30886 3.90331 9.30886C3.98426 9.30886 4.05921 9.27589 4.11617 9.21893C4.14315 9.19194 4.16414 9.15897 4.17913 9.12299C4.19412 9.08701 4.20311 9.04804 4.20311 9.00607C4.20311 8.9671 4.19412 8.92812 4.17913 8.89215Z" fill="#865F37"/>
</g>
<defs>
<clipPath id="clip0_206_72">
<rect width="18" height="18" fill="white"/>
</clipPath>
</defs>
</svg>
