<svg width="21" height="19" viewBox="0 0 21 19" fill="none" xmlns="http://www.w3.org/2000/svg">
<path d="M18.4444 15.8744C18.0421 15.8744 17.7148 16.2016 17.7148 16.6039C17.7148 17.0062 18.0421 17.3335 18.4444 17.3335C18.8466 17.3335 19.1739 17.0062 19.1739 16.6039C19.1739 16.2016 18.8466 15.8744 18.4444 15.8744ZM18.4444 16.8413C18.3135 16.8413 18.207 16.7348 18.207 16.6039C18.207 16.473 18.3135 16.3666 18.4444 16.3666C18.5752 16.3666 18.6817 16.473 18.6817 16.6039C18.6817 16.7348 18.5753 16.8413 18.4444 16.8413Z" fill="#865F37"/>
<path d="M9.09287 15.8744C8.69054 15.8744 8.36328 16.2016 8.36328 16.6039C8.36328 17.0062 8.69054 17.3335 9.09287 17.3335C9.49515 17.3335 9.82241 17.0062 9.82241 16.6039C9.82241 16.2016 9.49515 15.8744 9.09287 15.8744ZM9.09287 16.8413C8.96199 16.8413 8.85547 16.7348 8.85547 16.6039C8.85547 16.473 8.96199 16.3666 9.09287 16.3666C9.22375 16.3666 9.33022 16.473 9.33022 16.6039C9.33022 16.7348 9.22379 16.8413 9.09287 16.8413Z" fill="#865F37"/>
<path d="M18.4456 14.9747H15.98V14.4542H17.4532H17.9454H18.6917V10.2425L17.9454 9.6696V4.02544H17.5676V2.44765H16.0702V4.02544H12.6974L10.7796 7.23495L4.73078 1.40967C4.67553 1.27534 4.5919 1.15291 4.48238 1.04968C4.27509 0.854318 3.9936 0.752148 3.70973 0.768595C3.67946 0.7704 3.64862 0.774994 3.61507 0.782787L1.62659 1.24737C1.3661 1.30824 1.18424 1.53752 1.18424 1.80502V4.15854H1.67642V2.37427L1.91727 2.43055V5.0907H1.15114V7.85876H1.65444V8.14013C1.2346 8.24948 0.923828 8.63182 0.923828 9.08542C0.923828 9.62399 1.36204 10.0621 1.90053 10.0621C2.43903 10.0621 2.87724 9.62395 2.87724 9.08546H2.38505C2.38505 9.35263 2.16771 9.56997 1.90053 9.56997C1.63332 9.56997 1.41602 9.35263 1.41602 9.08546C1.41602 8.81824 1.63336 8.60094 1.90053 8.60094H2.14663V7.85872H2.64993V5.09066H2.40941V2.54552L3.61536 2.82725C3.64862 2.83496 3.67946 2.8396 3.70957 2.84136C3.72967 2.84255 3.7498 2.84317 3.7699 2.84317C3.77441 2.84317 3.77897 2.84288 3.78352 2.84284L9.62218 9.33422V12.2573H8.58001V14.4542H9.62218H10.1144H11.5876V14.9747H9.0925C8.19413 14.9747 7.46328 15.7056 7.46328 16.6039C7.46328 17.5023 8.19409 18.2332 9.0925 18.2332H18.4456C19.3439 18.2332 20.0748 17.5023 20.0748 16.6039C20.0748 15.7056 19.344 14.9747 18.4456 14.9747ZM17.9454 10.2901L18.1995 10.4852V13.9621H17.9454V10.2901ZM9.62218 13.962H9.0722V12.7495H9.62218V13.962ZM16.5623 2.93984H17.0755V3.28929H16.5623V2.93984ZM16.5623 3.78144H17.0755V4.0254H16.5623V3.78144ZM2.15778 7.36657H1.64332V5.58289H2.15778V7.36657ZM3.73848 2.35003C3.73836 2.35003 3.735 2.34979 3.72712 2.34794L1.73856 1.88336C1.70189 1.87483 1.67638 1.84259 1.67638 1.80502C1.67638 1.76745 1.70189 1.73521 1.73856 1.72668L3.72684 1.2621C3.735 1.26021 3.73836 1.25996 3.73865 1.25992C3.74972 1.25927 3.76076 1.25898 3.77175 1.25898C3.91087 1.25898 4.04229 1.31111 4.14483 1.40778C4.25532 1.51196 4.31623 1.65302 4.31623 1.80502C4.31623 1.95702 4.25536 2.09803 4.14483 2.20221C4.03412 2.30644 3.89004 2.35926 3.73848 2.35003ZM9.82561 8.82439L4.30946 2.69157C4.37115 2.65417 4.42927 2.6104 4.48238 2.56036C4.61314 2.43707 4.70736 2.28662 4.7599 2.121L10.5071 7.65577L9.82561 8.82439ZM10.1144 13.962V13.6448H11.4328V13.1526H10.1144V12.2573V9.30776L12.9767 4.51759H16.0702H17.4532V9.29168V13.1526H12.0517V13.6448H17.4532V13.962H15.98H11.5876H10.1144V13.962ZM15.4879 14.4542V14.9747H12.0798V14.4542H15.4879ZM9.0925 17.7409C8.46554 17.7409 7.95546 17.2309 7.95546 16.6039C7.95546 15.9769 8.46554 15.4669 9.0925 15.4669C9.71947 15.4669 10.2295 15.9769 10.2295 16.6039C10.2295 17.2309 9.71947 17.7409 9.0925 17.7409ZM10.2578 17.7409C10.3332 17.6636 10.4009 17.5788 10.46 17.4878H17.0781C17.1371 17.5788 17.2049 17.6636 17.2803 17.7409H10.2578ZM10.9996 16.9956H10.6738C10.7049 16.8701 10.7217 16.7389 10.7217 16.6039C10.7217 16.4613 10.7031 16.3229 10.6685 16.191H10.9996C10.9383 16.312 10.9036 16.4486 10.9036 16.5933C10.9036 16.738 10.9383 16.8746 10.9996 16.9956ZM11.3958 16.5933C11.3958 16.3714 11.5762 16.1909 11.7981 16.1909C12.0199 16.1909 12.2005 16.3714 12.2005 16.5933C12.2005 16.8152 12.02 16.9956 11.7981 16.9956C11.5763 16.9956 11.3958 16.8152 11.3958 16.5933ZM12.5967 16.191H12.9705C12.9092 16.312 12.8746 16.4486 12.8746 16.5933C12.8746 16.738 12.9092 16.8746 12.9705 16.9957H12.5967C12.6579 16.8747 12.6926 16.738 12.6926 16.5933C12.6926 16.4486 12.6579 16.312 12.5967 16.191ZM13.3667 16.5933C13.3667 16.3714 13.5472 16.1909 13.7691 16.1909C13.9909 16.1909 14.1714 16.3714 14.1714 16.5933C14.1714 16.8152 13.991 16.9956 13.7691 16.9956C13.5472 16.9956 13.3667 16.8152 13.3667 16.5933ZM14.5676 16.191H14.9158C14.8546 16.312 14.8198 16.4486 14.8198 16.5933C14.8198 16.738 14.8546 16.8746 14.9158 16.9957H14.5676C14.6289 16.8747 14.6636 16.738 14.6636 16.5933C14.6636 16.4486 14.6289 16.312 14.5676 16.191ZM15.312 16.5933C15.312 16.3714 15.4925 16.1909 15.7144 16.1909C15.9363 16.1909 16.1168 16.3714 16.1168 16.5933C16.1168 16.8152 15.9363 16.9956 15.7144 16.9956C15.4925 16.9956 15.312 16.8152 15.312 16.5933ZM16.5129 16.191H16.8696C16.8349 16.3229 16.8164 16.4613 16.8164 16.6039C16.8164 16.7389 16.8332 16.8701 16.8643 16.9956H16.5129C16.5741 16.8746 16.6089 16.738 16.6089 16.5933C16.6089 16.4486 16.5741 16.312 16.5129 16.191ZM17.0917 15.6988H10.4464C10.3907 15.6157 10.3274 15.5382 10.2578 15.4669H11.5876H15.98H17.2803C17.2107 15.5382 17.1475 15.6157 17.0917 15.6988ZM18.4456 17.7409C17.8187 17.7409 17.3085 17.2309 17.3085 16.6039C17.3085 15.9769 17.8187 15.4669 18.4456 15.4669C19.0725 15.4669 19.5826 15.9769 19.5826 16.6039C19.5826 17.2309 19.0725 17.7409 18.4456 17.7409Z" fill="#865F37"/>
<path d="M14.7207 11.1703H16.7115V9.78922H14.7207V11.1703ZM15.2129 10.2814H16.2193V10.6781H15.2129V10.2814Z" fill="#865F37"/>
<path d="M16.713 4.91422H13.3194L10.6211 9.48692H16.713V4.91422ZM14.2748 8.99478H11.483L13.6006 5.40644H14.2748V8.99478ZM16.2208 8.99478H14.767V5.40644H16.2208V8.99478Z" fill="#865F37"/>
</svg>
