<svg width="266" height="266" viewBox="0 0 266 266" fill="none" xmlns="http://www.w3.org/2000/svg">
<path d="M120.133 1.7333C119.733 2.39997 115.066 3.59997 109.733 4.5333C83.3328 9.06664 60.1328 21.0666 40.5328 40.6666C21.1995 60 9.06615 83.2 4.53281 109.733C3.59948 115.067 2.39948 119.733 1.73281 120.133C0.266146 121.067 0.266146 144.267 1.73281 145.2C2.39948 145.6 3.59948 150.267 4.53281 155.6C7.06615 170.133 13.7328 188.267 21.0661 200C27.0661 209.733 40.7995 225.733 48.3995 231.867C62.1328 242.933 83.8662 255.333 89.4662 255.333C90.3995 255.333 93.1995 256.133 95.5995 257.2C97.9995 258.267 107.333 260.4 116.399 262.133L132.666 265.067L148.399 262.133C164.399 259.067 173.866 256.533 181.999 253.067C210.533 241.067 234.933 218.4 248.666 191.333C250.266 188 252.266 184.267 252.933 182.933C255.199 178.267 259.066 164 262.133 148.4L265.066 132.667L262.133 117.067C258.266 97.0666 255.066 86.4 249.866 76.1333C230.266 37.6 195.866 11.3333 155.599 4.5333C150.266 3.59997 145.599 2.39997 145.199 1.7333C144.799 1.19997 139.199 0.666637 132.666 0.666637C126.133 0.666637 120.533 1.19997 120.133 1.7333ZM157.999 9.86664C186.266 16.8 203.866 26.6666 222.133 45.4666C236.799 60.8 244.666 73.6 251.066 92C259.333 116.4 260.133 137.067 253.599 164C249.866 179.2 243.866 191.867 233.466 206.4C226.666 215.867 223.066 217.467 222.266 211.333C221.733 206.8 218.266 194.533 215.599 188C209.733 173.333 191.999 152.8 180.133 146.533C177.333 145.2 172.933 142.8 170.266 141.467C167.466 140 163.599 138.533 161.333 138.133C154.933 136.667 155.733 132.8 163.599 126.667C175.599 117.2 181.333 106.8 182.933 91.0666C185.999 60.6666 160.399 33.7333 130.266 35.6C106.533 37.0666 88.1328 52.9333 82.7995 76.4C80.7995 85.2 80.7995 86.8 82.7995 96.1333C85.3328 108.8 89.0662 115.067 100.266 125.467C109.333 133.867 110.666 138 104.666 138C100.933 138 84.2662 146.4 77.4661 151.733C63.0661 162.8 51.7328 179.467 45.4661 198.667C44.2661 202.267 43.3328 206.8 43.3328 208.667C43.3328 213.067 41.3328 215.867 38.9328 214.933C36.5328 214 25.7328 198.8 21.3328 190C16.9328 181.467 13.1995 171.2 10.2661 160.667C7.33281 149.733 7.06615 116.8 9.86615 106.667C17.5995 78 26.5328 61.8666 44.1328 44.1333C49.5995 38.6666 57.4661 32 61.4661 29.3333C70.1328 23.6 85.8662 15.3333 88.1328 15.3333C88.9328 15.3333 91.4662 14.4 93.4662 13.3333C95.5995 12.2666 98.5328 11.3333 99.9995 11.3333C101.466 11.2 105.733 10.4 109.333 9.3333C119.466 6.5333 145.733 6.79997 157.999 9.86664ZM151.733 44.8C164.933 51.3333 171.866 59.2 176.799 73.7333C179.866 82.8 179.999 88.9333 177.066 98.1333C166.666 131.2 129.999 143.067 103.333 122C93.4662 114.267 85.9995 98.5333 85.9995 85.8666C85.9995 70.2666 97.9995 52.1333 113.066 44.8C120.133 41.3333 122.933 40.8 132.399 40.8C142.133 40.6666 144.533 41.2 151.733 44.8ZM140.399 141.067C140.933 143.867 137.599 151.6 134.799 153.867C131.999 156.267 129.599 154.533 126.266 147.733C122.399 139.733 123.866 137.733 133.199 138.267C138.533 138.533 140.133 139.2 140.399 141.067ZM116.933 141.6C121.066 146.4 133.066 171.067 132.266 173.2C131.733 174.533 129.866 175.333 127.333 175.333C123.066 175.333 116.399 178.133 112.533 181.467C111.333 182.533 109.466 183.067 108.266 182.533C107.066 182.133 102.399 174.8 97.9995 166.267C88.7995 148.4 88.5328 149.333 102.666 143.333C113.599 138.667 114.266 138.667 116.933 141.6ZM162.133 143.333C167.599 145.467 172.666 148.267 173.599 149.467C174.799 151.067 173.599 154.4 167.333 166.267C159.066 182.133 156.533 184.8 152.933 181.6C151.733 180.533 148.266 178.4 145.199 176.933C139.999 174.267 136.666 169.6 136.666 164.8C136.666 161.867 146.799 141.867 149.066 140.4C151.333 138.933 151.333 138.933 162.133 143.333ZM95.1995 171.6L103.866 188.267L100.666 194.8C91.8662 213.2 99.3328 234 117.733 242.8C135.733 251.333 156.399 243.733 165.199 225.333C169.866 215.467 169.866 206.267 165.199 195.867L161.733 188L170.133 171.733C180.666 151.6 181.333 151.333 193.333 163.733C202.266 172.8 209.733 184.933 213.866 197.333C216.933 206.533 218.666 219.2 217.466 223.067C215.733 228.533 190.399 244.933 175.333 250.267C160.399 255.733 150.799 257.333 132.666 257.333C109.866 257.333 99.1995 254.933 77.9995 244.933C66.2661 239.467 49.1995 227.067 47.9995 223.2C45.4661 215.467 50.9328 194.267 58.9328 180.533C66.2661 167.733 81.1995 153.067 85.3328 154.4C85.9995 154.667 90.3995 162.4 95.1995 171.6ZM148.666 184.4C162.399 192.8 167.199 209.467 160.133 223.867C157.466 229.333 154.799 232.267 149.333 235.867C142.933 240.133 141.333 240.667 133.333 240.667C109.333 240.667 94.9328 217.733 105.733 196.533C113.733 180.667 133.333 175.067 148.666 184.4Z" fill="#C0956A"/>
<path d="M128.666 194C126.8 198.4 123.733 200.667 119.733 200.667C118.266 200.667 116.133 201.467 114.8 202.4C112.533 204.133 112.533 204.533 116.666 209.2C120.4 213.467 120.933 214.8 120.266 219.467C119.333 226.133 121.6 227.333 128.133 224.133C132.266 222.267 133.2 222.133 136.666 224C138.8 225.067 141.733 226 143.2 226C145.733 226 145.866 225.467 145.066 219.867C144.4 214.267 144.666 213.467 148.8 209.2C153.733 204.133 153.333 203.067 145.333 200.4C142 199.333 139.066 197.2 137.333 194.4C134 188.933 130.8 188.8 128.666 194ZM138.533 204.533C142.133 208.267 142.133 208.533 140.133 212.533C138.266 216 137.2 216.667 132.933 216.667C128.8 216.667 127.6 216 125.6 212.4L123.066 208L127.2 204.4C132.4 199.733 134 199.733 138.533 204.533Z" fill="#C0956A"/>
</svg>
