<svg width="208" height="264" viewBox="0 0 208 264" fill="none" xmlns="http://www.w3.org/2000/svg">
<path d="M80.3324 5.80001C74.9991 9.40001 72.4658 10.3333 67.2658 10.3333C61.2658 10.3333 52.9991 13.5333 52.9991 15.8C52.9991 18.4667 43.6658 26.3333 40.5991 26.3333C35.7991 26.3333 28.1991 34.0667 27.1324 40.0667C26.3324 44.3333 20.0658 51.6667 17.1324 51.6667C14.8658 51.6667 11.5324 60.2 11.2658 66.6C10.9991 72.0667 9.93242 75.1333 6.59909 79.9333C1.93242 86.7333 1.39909 90.7333 4.33242 96.4667C6.99909 101.667 6.86576 105.267 3.53242 111.667L0.732422 117.133L5.79909 125.4C9.79909 131.8 10.9991 135.267 11.3991 141.533C11.9324 149.133 12.3324 149.8 19.1324 156.2C23.9324 160.733 26.5991 164.333 27.1324 167.267C27.6658 169.8 30.1991 173.933 33.1324 177C36.0658 180.067 38.1991 182.867 37.9324 183.4C37.6658 183.933 33.9324 191.533 29.6658 200.333C25.3991 209.133 19.6658 221.133 16.8658 226.867C13.9324 232.733 11.6658 238.333 11.6658 239.4C11.6658 241.133 13.6658 241.267 24.7324 240.733C31.7991 240.333 38.4658 240.333 39.3991 240.6C40.1991 241 44.7324 246.333 49.2658 252.467C55.9324 261.8 57.6658 263.533 59.1324 262.067C60.0658 261.133 64.8658 252.2 69.6658 242.333C88.3324 204.333 86.3324 207.4 93.6658 204.733C100.999 202.067 107.266 201.667 111.932 203.533C113.666 204.2 116.599 205.133 118.466 205.533C121.266 206.2 122.999 208.6 127.799 218.467C141.532 246.867 149.799 262.867 150.999 263.267C151.799 263.4 155.799 258.6 160.199 252.333C164.466 246.067 168.999 240.867 170.199 240.867C171.399 240.733 177.799 240.733 184.466 241C191.932 241.133 196.999 240.733 197.532 239.933C198.066 239.133 196.599 235 194.466 230.733C181.666 205.8 171.666 184.333 171.666 182.333C171.666 180.867 172.999 178.867 174.466 177.8C178.466 175 182.332 168.867 182.332 165.4C182.332 163.533 184.599 160.6 188.466 157.533C195.932 151.4 198.332 146.867 198.332 139C198.332 134.6 199.399 131.4 202.066 127.267C204.066 124.2 206.066 121.4 206.732 121.267C208.199 120.6 207.932 113 206.332 113C205.666 113 204.332 110.6 203.532 107.8C202.332 103.667 202.332 101.533 203.666 98.4667C204.599 96.2 205.799 94.3333 206.466 94.3333C207.932 94.3333 208.066 85.4 206.732 84.7333C206.066 84.4667 204.066 82.0667 202.066 79.4C199.266 75.6667 198.332 73 198.332 68.3333C198.332 60.6 195.532 55 188.332 48.7333C184.866 45.6667 182.332 42.2 181.799 39.5333C180.866 34.3333 172.599 26.3333 168.332 26.3333C166.466 26.3333 163.399 24.2 160.199 20.6C152.866 12.4667 150.599 11.1333 141.532 10.2C134.199 9.40001 125.399 5.40001 123.932 1.93334C123.132 0.200011 113.799 1.00001 111.132 3.00001C109.666 4.06668 106.599 5.00001 104.332 5.00001C102.066 5.00001 98.9991 4.06668 97.5324 3.00001C93.3991 -0.199989 87.5324 0.733344 80.3324 5.80001ZM105.399 7.93334C108.866 7.93334 114.199 7.66668 117.399 7.40001C121.932 7.13334 123.932 7.80001 128.199 11C132.066 13.9333 134.999 15 139.532 15.1333C142.866 15.2667 146.599 15.5333 147.799 15.5333C148.866 15.6667 151.532 18.0667 153.799 20.8667C155.932 23.8 160.332 27.4 163.666 29C166.999 30.6 170.599 32.3333 171.666 32.8667C172.732 33.4 175.132 37 176.999 40.7333C178.866 44.4667 183.132 50.3333 186.732 53.6667C192.599 59.4 192.999 60.2 192.999 66.8667C192.999 72.4667 193.799 75.1333 197.132 80.2C200.866 85.8 201.266 87.1333 200.332 92.7333C199.132 100.067 199.266 105.933 200.332 114.467C201.132 119.8 200.732 121.267 197.132 126.6C193.799 131.533 192.999 134.067 192.999 139.8C192.999 146.6 192.732 147.133 186.332 153C181.799 157.133 178.732 161.533 177.132 165.8C174.999 171.667 173.932 172.733 166.599 176.333C161.799 178.733 156.466 182.733 153.666 185.933C149.132 191.267 148.332 191.667 142.199 191.667C135.132 191.667 131.532 193 126.732 197.267C124.332 199.533 122.732 199.8 116.066 199.133C106.199 198.067 102.066 198.067 93.5324 199.133C87.5324 199.8 86.1991 199.4 80.7324 195.8C75.6658 192.467 73.2658 191.667 67.2658 191.667C60.0658 191.667 59.7991 191.533 54.5991 185.267C50.7324 180.733 47.3991 178.333 42.5991 176.6C34.8658 173.8 33.9324 172.867 31.6658 165.667C30.5991 162.333 27.2658 157.8 22.7324 153.533C15.9324 147 15.6658 146.467 15.6658 139.667C15.6658 134.067 14.8658 131.267 11.5324 126.067C8.06576 120.6 7.53242 118.867 8.33242 114.6C9.53242 108.067 9.53242 99 8.33242 91.5333C7.66576 87.1333 7.93242 85 9.26576 83.5333C13.7991 78.8667 15.6658 74.0667 15.6658 67.5333C15.6658 61 15.9324 60.3333 22.7324 53.8C27.2658 49.5333 30.5991 45 31.6658 41.6667C33.5324 35.5333 36.5991 31.6667 39.2658 31.6667C42.9991 31.6667 49.7991 27.2667 54.9991 21.4C59.9324 15.8 60.8658 15.4 67.6658 15.1333C73.3991 14.8667 76.4658 13.8 81.6658 10.4667C87.5324 6.73334 88.9991 6.33334 93.6658 7.13334C96.5991 7.80001 101.799 8.06668 105.399 7.93334ZM52.5991 189.933C55.7991 193.267 58.3324 197 58.3324 197.933C58.3324 199 56.8658 202.733 54.9991 206.333C51.2658 213.667 50.7324 217 53.3991 217C54.3324 217 56.8658 213.267 58.9991 208.6C63.3991 199 65.3991 197 70.7324 197C75.1324 197 82.3324 201.533 82.3324 204.333C82.3324 205.267 79.3991 212.067 75.7991 219.267C72.3324 226.467 67.1324 237 64.4658 242.6C58.4658 255.133 56.3324 255.8 50.3324 246.467C44.1991 236.867 43.2658 236.333 31.1324 236.333C22.0658 236.333 20.3324 235.933 19.9324 234.067C19.2658 230.6 42.5991 183.667 44.8658 183.667C46.0658 183.667 49.3991 186.467 52.5991 189.933ZM176.999 205.8C182.999 217.933 188.332 229.267 188.999 231C190.866 236.067 187.799 237.533 177.799 236.333C172.732 235.8 168.199 236.067 166.732 236.733C165.399 237.533 161.932 241.4 159.132 245.533C156.332 249.667 152.999 253 151.799 253C149.399 253 126.732 207.4 127.399 203.933C128.332 199.933 133.399 197 138.999 197.4C144.199 197.667 144.466 197.933 149.399 207.267C152.199 212.6 155.399 217 156.332 217C158.999 217 158.866 216.467 154.199 206.2L150.066 197.133L155.799 190.467C158.999 186.733 162.732 183.667 163.932 183.667C165.399 183.667 169.399 190.333 176.999 205.8Z" fill="#C0956A"/>
<path d="M118.599 48.7333C116.599 50.8667 112.865 55.6667 110.332 59.4C104.732 67.5333 94.5987 75.6667 90.0654 75.6667C88.332 75.6667 85.6654 74.7333 84.1987 73.6667C82.4654 72.3333 78.332 71.8 71.3987 71.6667C61.7987 71.6667 60.732 71.9333 56.732 75.5333L52.332 79.4V111.667V143.933L56.732 147.8C60.732 151.4 61.7987 151.667 71.3987 151.667C78.332 151.533 82.4654 151 84.1987 149.667C86.332 148.067 92.332 147.667 115.399 147.667H143.932L148.599 143C152.599 139 152.999 137.933 152.332 133.8C151.532 130.2 152.065 128.333 154.199 125.533C156.332 122.733 156.865 120.867 156.199 117.533C155.532 114.2 156.065 112.2 158.199 109.4C160.465 106.6 160.999 104.733 160.332 101C159.665 97.4 160.199 95.4 162.199 92.7334C165.532 88.4667 165.665 85.2667 162.599 81.5334C158.732 76.7333 154.999 75.6667 141.132 75.6667C125.799 75.6667 125.265 75.1333 130.465 65C134.332 57.5333 134.332 50.7333 130.465 47.5333C126.199 44.0667 122.732 44.3333 118.599 48.7333ZM128.732 53.9333C128.999 55.5333 126.999 61.5333 124.332 67.1333C121.799 72.8667 119.932 78.3333 120.199 79.2667C120.732 80.6 125.132 81 137.665 81C155.932 81 159.665 82.0667 159.665 87C159.665 91.2667 156.199 93 147.665 93C141.799 93 140.865 93.4 141.265 95.2667C141.532 97.1334 143.399 97.8 148.332 98.3334C154.065 98.8667 154.999 99.4 155.399 102.067C156.199 107 153.399 109 145.665 109C141.399 109 138.065 109.667 137.132 110.733C134.999 113.4 136.599 114.333 142.999 114.333C149.532 114.333 152.332 116.733 151.132 121.533C150.465 124.067 149.132 125.133 145.665 125.8C143.132 126.2 140.199 126.333 139.399 125.933C138.465 125.667 136.199 125.933 134.332 126.6C131.132 127.8 131.132 127.933 133.532 129.8C134.999 130.867 138.465 131.667 141.132 131.667C146.865 131.667 148.865 134.867 146.332 139.667C144.865 142.333 143.932 142.333 117.932 142.067L90.9987 141.667L90.332 122.333C89.7987 106.333 89.2654 103 87.6654 103C85.932 103 85.6654 106.2 85.2654 122.867C85.132 134.867 84.332 143.533 83.3987 144.6C82.4654 145.8 78.4654 146.333 70.8654 146.333C61.2654 146.333 59.532 145.933 58.332 143.8C57.532 142.2 56.9987 129.267 56.9987 111.133C56.9987 85.6667 57.2654 80.8667 59.132 79.1333C60.5987 77.5333 63.932 77 71.532 77C82.5987 77 84.332 77.8 85.2654 83.6667C85.7987 88.0667 89.7987 88.7334 90.732 84.7334C91.2654 83 93.532 80.4667 95.932 79.1333C104.732 73.9333 110.332 68.7333 116.332 59.5333C121.265 52.0667 123.132 50.2 125.399 50.6C127.265 50.8667 128.465 52.0667 128.732 53.9333Z" fill="#C0956A"/>
<path d="M70.332 133.133C70.332 133.8 70.9987 134.067 71.6654 133.667C72.4654 133.267 72.9987 132.6 72.9987 132.2C72.9987 131.933 72.4654 131.667 71.6654 131.667C70.9987 131.667 70.332 132.333 70.332 133.133Z" fill="#C0956A"/>
</svg>
