<svg width="50" height="50" viewBox="0 0 50 50" fill="none" xmlns="http://www.w3.org/2000/svg">
<path d="M36.2251 24.4388V31.2972H10.7695V24.4388L23.4972 11.9323L36.2251 24.4388Z" fill="#AD313C"/>
<path d="M36.2251 26.0157V31.2972H10.7695V26.963L24.7378 13.4647L36.2251 26.0157Z" fill="#D03C47"/>
<path d="M19.78 15.4971L9.14062 25.9571" stroke="#3B2F22" stroke-width="0.643365" stroke-miterlimit="10" stroke-linecap="round"/>
<path d="M37.6403 25.3681C37.1596 25.849 36.378 25.8427 35.9048 25.3541L24.293 13.3646L25.6371 12.0205L37.6266 23.6325C38.1151 24.1055 38.1214 24.8873 37.6403 25.3681Z" fill="#CFB596"/>
<path d="M25.6371 12.0205L37.6266 23.6325C38.1151 24.1055 38.1214 24.8873 37.6403 25.3681C37.1596 25.849 36.378 25.8427 35.9048 25.3541L24.293 13.3646L25.6371 12.0205Z" fill="#CFB596"/>
<path d="M37.6282 23.6326L30.1172 16.3581L36.8442 23.7997C37.3327 24.2728 37.339 25.0544 36.8581 25.5353L36.935 25.477C36.8358 25.5761 36.722 25.6492 36.6025 25.7071C36.9705 25.7614 37.3582 25.6518 37.6419 25.3681C38.1229 24.8874 38.1166 24.1057 37.6282 23.6326Z" fill="white"/>
<path d="M27.9061 14.2181L25.6371 12.0206L24.293 13.3647L26.4904 15.6338L27.9061 14.2181Z" fill="#9A8A73"/>
<path d="M25.6329 10.694L24.9748 11.352L23.6306 12.6961L22.9727 13.3541L23.6201 14.0226L35.232 26.012C35.643 26.4364 36.1949 26.6703 36.7858 26.6703C37.3636 26.6703 37.9068 26.4453 38.3153 26.0366C38.7285 25.6234 38.9534 25.0741 38.9488 24.4898C38.9441 23.9055 38.7104 23.3599 38.2907 22.9533L26.3012 11.3413L25.6329 10.694ZM25.6435 12.0206L37.633 23.6325C38.1215 24.1055 38.1277 24.8873 37.6467 25.3681C37.4088 25.606 37.0972 25.7246 36.7858 25.7246C36.4678 25.7246 36.1503 25.6009 35.9111 25.3541L24.2993 13.3647L25.6435 12.0206Z" fill="#3B2F22"/>
<path d="M31.1678 6.91479C28.2406 5.18025 24.9829 5.29033 23.0854 7.18792L23.0469 7.22624L19.483 10.7902L19.4589 10.8144C19.8466 11.4081 19.7942 11.895 19.2827 12.4066C18.7712 12.9179 18.2844 12.9703 17.6905 12.5827L17.6665 12.6067L16.5787 13.6945C16.0547 14.2186 16.0635 15.0772 16.5984 15.6122L18.2667 17.2803C18.8015 17.8153 19.6602 17.8242 20.1843 17.3L21.272 16.2122L21.2961 16.1882C20.9085 15.5944 20.8036 14.9503 21.3149 14.4388C21.8265 13.9273 22.4707 14.0323 23.0644 14.4199L23.0885 14.3958L26.6524 10.8319C25.1942 8.03853 28.2196 6.53198 30.9657 7.5877L31.7546 7.82738L32.1094 7.47274L31.1678 6.91479Z" fill="#B1B3B1"/>
<path d="M18.0479 15.7464C17.4402 15.0664 17.352 14.4016 17.876 13.8775C17.876 13.8775 18.8898 14.4535 20.1315 13.2116C21.2586 12.0846 20.9049 10.9346 20.9049 10.9346L23.8908 7.99158C25.6741 6.20818 29.2613 6.01516 31.5245 7.5167L31.8359 7.20539L30.8943 6.64744C27.9672 4.9129 24.7096 5.02298 22.812 6.92043L22.7736 6.95888L19.2096 10.5228L19.1855 10.547C19.5731 11.1407 19.5208 11.6277 19.0094 12.1391C18.4979 12.6506 18.0109 12.7029 17.4172 12.3152L17.393 12.3394L16.3053 13.4272C15.7813 13.9513 15.79 14.8098 16.3251 15.3448L17.9932 17.013C18.5282 17.5479 19.1278 17.9941 19.6519 17.4699L18.0479 15.7464Z" fill="white"/>
<path d="M31.1678 6.91479C28.2406 5.18025 24.9829 5.29033 23.0854 7.18792L23.0469 7.22624L19.483 10.7902L19.4589 10.8144C19.8466 11.4081 19.7942 11.895 19.2827 12.4066C18.7712 12.9179 18.2844 12.9703 17.6905 12.5827L17.6665 12.6067L16.5787 13.6945C16.0547 14.2186 16.0635 15.0772 16.5984 15.6122L18.2667 17.2803C18.8015 17.8153 19.6602 17.8242 20.1843 17.3L21.272 16.2122L21.2961 16.1882C20.9085 15.5944 20.8036 14.9503 21.3149 14.4388C21.8265 13.9273 22.4707 14.0323 23.0644 14.4199L23.0885 14.3958L26.6524 10.8319C25.1942 8.03853 28.2196 6.53198 30.9657 7.5877L31.7546 7.82738L32.1094 7.47274L31.1678 6.91479Z" stroke="#3B2F22" stroke-width="0.643365" stroke-miterlimit="10" stroke-linecap="round"/>
<path d="M24.0253 11.5093C23.678 11.8566 23.023 12.0984 22.6892 11.7645C22.2296 11.305 22.228 10.5608 22.5753 10.2135C22.9226 9.8662 23.4357 9.90669 23.8085 10.1888C24.1829 10.4724 24.3727 11.162 24.0253 11.5093Z" fill="white"/>
<path d="M23.9327 11.7443C23.5934 12.0837 23.0753 12.1159 22.7756 11.8161C22.4759 11.5165 22.5081 10.9985 22.8476 10.6591C23.1869 10.3196 23.705 10.2875 24.0047 10.5872C24.3044 10.8868 24.2722 11.4049 23.9327 11.7443Z" fill="#3B2F22"/>
<path d="M20.5123 22.8704H22.4838C22.7451 22.8704 22.957 22.6586 22.957 22.3972V20.4257C22.957 20.1644 22.7451 19.9526 22.4838 19.9526H20.5123C20.2509 19.9526 20.0391 20.1644 20.0391 20.4257V22.3972C20.0391 22.6586 20.2509 22.8704 20.5123 22.8704Z" fill="white"/>
<path d="M26.3393 19.9526H24.3678C24.1065 19.9526 23.8945 20.1644 23.8945 20.4257V22.3972C23.8945 22.6586 24.1065 22.8704 24.3678 22.8704H26.3393C26.6006 22.8704 26.8125 22.6586 26.8125 22.3972V20.4257C26.8125 20.1644 26.6006 19.9526 26.3393 19.9526Z" fill="white"/>
<path d="M20.5123 26.6911H22.4838C22.7451 26.6911 22.957 26.4792 22.957 26.2179V24.2464C22.957 23.985 22.7451 23.7732 22.4838 23.7732H20.5123C20.2509 23.7732 20.0391 23.985 20.0391 24.2464V26.2179C20.0391 26.4792 20.2509 26.6911 20.5123 26.6911Z" fill="white"/>
<path d="M26.3393 23.7732H24.3678C24.1065 23.7732 23.8945 23.985 23.8945 24.2464V26.2179C23.8945 26.4792 24.1065 26.6911 24.3678 26.6911H26.3393C26.6006 26.6911 26.8125 26.4792 26.8125 26.2179V24.2464C26.8125 23.985 26.6006 23.7732 26.3393 23.7732Z" fill="white"/>
<path d="M12.2461 17.4916H15.1547V19.9893L12.2461 22.701V17.4916Z" fill="#3B2F22"/>
<path d="M9.17188 33.2881H10.1267V34.3906H10.9444V33.2881H11.8993V36.295H10.9444V34.9973H10.1267V36.295H9.17188V33.2881ZM13.8993 36.3636C13.3753 36.3636 12.9814 36.2406 12.7177 35.9944C12.4574 35.7446 12.3273 35.3455 12.3273 34.7969C12.3273 34.2588 12.4715 33.8666 12.7599 33.6204C13.0483 33.3742 13.4299 33.2511 13.9047 33.2511C14.9034 33.2511 15.4028 33.7488 15.4028 34.7441C15.4028 35.247 15.2797 35.6426 15.0336 35.931C14.7909 36.2194 14.4128 36.3636 13.8993 36.3636ZM13.8783 35.7411C13.9767 35.7411 14.0594 35.7253 14.1262 35.6936C14.193 35.6585 14.2458 35.5987 14.2845 35.5143C14.3583 35.3701 14.3953 35.1344 14.3953 34.8074C14.3953 34.4873 14.3583 34.2552 14.2845 34.111C14.2106 33.9633 14.0752 33.8859 13.8783 33.8789C13.8044 33.8789 13.727 33.8877 13.6462 33.9052C13.5688 33.9193 13.5195 33.9405 13.4984 33.9686C13.4563 34.0178 13.4228 34.1234 13.3982 34.2851C13.3771 34.4433 13.3666 34.6174 13.3666 34.8074C13.3666 35.1028 13.3947 35.3191 13.451 35.4563C13.4897 35.5582 13.5441 35.6321 13.6145 35.6778C13.6849 35.72 13.7728 35.7411 13.8783 35.7411ZM19.7001 36.295H18.8138L18.7453 34.6385C18.7347 34.3115 18.7223 34.0636 18.7083 33.8947H18.6925C18.6503 34.0283 18.601 34.2358 18.5448 34.5172L18.5184 34.6491L18.1544 36.295H17.2681L16.9621 34.8126L16.9094 34.5489C16.8356 34.2218 16.7846 34.0037 16.7564 33.8947H16.7406C16.7266 34.0706 16.7142 34.3572 16.7036 34.7546C16.7002 34.7792 16.6984 34.8179 16.6984 34.8707L16.6509 36.295H15.7594L15.8859 33.2881H17.3947L17.6532 34.5858L17.7166 34.9339C17.7446 34.8249 17.771 34.7036 17.7957 34.57L18.0383 33.2881H19.5787L19.7001 36.295ZM20.1392 33.2881H22.3285V33.9211H21.0888V34.4697H22.1333V35.0395H21.0888V35.6515H22.3232V36.295H20.1392V33.2881Z" fill="#D03C47"/>
<path d="M27.155 34.7072C27.3942 34.7354 27.5648 34.8163 27.6667 34.9499C27.7687 35.0801 27.8197 35.2383 27.8197 35.4247C27.8197 35.5408 27.8021 35.6515 27.7669 35.757C27.7318 35.859 27.6895 35.947 27.6403 36.0208C27.5911 36.0912 27.5489 36.1369 27.5137 36.1579C27.373 36.2494 26.944 36.2951 26.2265 36.2951H25.2031V33.2881H26.4428C26.7241 33.2881 26.951 33.304 27.1234 33.3356C27.2992 33.3638 27.4417 33.4306 27.5507 33.5361C27.6597 33.6381 27.7142 33.7946 27.7142 34.0056C27.7142 34.1885 27.6685 34.3362 27.5771 34.4487C27.4891 34.5613 27.3484 34.6387 27.155 34.6808V34.7072ZM26.733 33.9265C26.6978 33.8913 26.6556 33.8703 26.6064 33.8632C26.5607 33.8526 26.4868 33.8473 26.3848 33.8473C26.2828 33.8473 26.2054 33.8491 26.1527 33.8526V34.4962H26.2054C26.223 34.4962 26.2968 34.4962 26.427 34.4962C26.5571 34.4962 26.6433 34.4874 26.6855 34.4699C26.7171 34.4558 26.7453 34.4189 26.7699 34.3591C26.798 34.2992 26.8121 34.2342 26.8121 34.1639C26.8121 34.0584 26.7857 33.9793 26.733 33.9265ZM26.8226 35.6885C26.8472 35.6674 26.8666 35.6287 26.8807 35.5724C26.8983 35.5126 26.907 35.4528 26.907 35.393C26.907 35.3192 26.8965 35.2506 26.8754 35.1873C26.8578 35.1205 26.8332 35.073 26.8015 35.0448C26.7699 35.0132 26.7241 34.9921 26.6644 34.9816C26.6081 34.9711 26.5114 34.9657 26.3742 34.9657C26.2863 34.9657 26.2124 34.9675 26.1527 34.9711V35.7359C26.318 35.7395 26.4657 35.7377 26.5958 35.7306C26.7259 35.7201 26.8015 35.706 26.8226 35.6885ZM31.0287 33.2881V34.9711C31.0287 35.3192 30.99 35.5918 30.9126 35.7887C30.8387 35.9821 30.6981 36.1245 30.4906 36.216C30.2831 36.3074 29.9806 36.3532 29.5832 36.3532C29.2913 36.3532 29.0451 36.3233 28.8446 36.2635C28.6442 36.2002 28.4842 36.0824 28.3646 35.9101C28.2485 35.7377 28.1905 35.4951 28.1905 35.182V33.2881H29.1401V34.9816C29.1401 35.1679 29.1488 35.3104 29.1665 35.4089C29.1875 35.5038 29.2332 35.5777 29.3036 35.6305C29.374 35.6797 29.4812 35.7043 29.6254 35.7043C29.7133 35.7043 29.7959 35.6955 29.8733 35.6779C29.9507 35.6603 30.0034 35.6339 30.0316 35.5988C30.0633 35.5566 30.0791 35.4036 30.0791 35.1398V33.2881H31.0287ZM31.5347 33.2881H32.4843V36.2951H31.5347V33.2881ZM33.0078 33.2881H33.9573V35.5988H35.1865V36.2951H33.0078V33.2881ZM36.5823 33.2881C36.9938 33.2881 37.3296 33.3268 37.5899 33.4042C37.8536 33.4816 38.0577 33.6275 38.2019 33.8421C38.3496 34.0566 38.4234 34.3643 38.4234 34.7652C38.4234 35.1943 38.346 35.5215 38.1913 35.7465C38.0365 35.9681 37.829 36.1158 37.5688 36.1896C37.3086 36.26 36.9797 36.2951 36.5823 36.2951H35.5273V33.2881H36.5823ZM37.2892 35.5777C37.3314 35.5354 37.3613 35.4264 37.3789 35.2506C37.3965 35.0748 37.4053 34.913 37.4053 34.7652C37.4053 34.5789 37.3912 34.4312 37.3631 34.3222C37.3385 34.2096 37.2927 34.1199 37.2259 34.0531C37.1204 33.937 36.9393 33.879 36.6825 33.879C36.6368 33.879 36.5683 33.8826 36.4768 33.8896V35.641C36.5366 35.648 36.6297 35.6515 36.7564 35.6515C36.8865 35.6515 37.0008 35.6462 37.0993 35.6357C37.2013 35.6216 37.2646 35.6023 37.2892 35.5777Z" fill="#3B2F22"/>
<path d="M9.92393 41.4088V40.9615L9.9818 41.1147L9.5 40.3138H9.76906L10.1382 40.9286H9.98337L10.3541 40.3138H10.6028L10.121 41.1147L10.1773 40.9615V41.4088H9.92393ZM11.1934 41.4276C11.1068 41.4276 11.0265 41.4136 10.9525 41.3854C10.8795 41.3572 10.8159 41.3176 10.7616 41.2665C10.7084 41.2153 10.6667 41.1554 10.6365 41.0866C10.6073 41.0178 10.5927 40.9427 10.5927 40.8613C10.5927 40.7799 10.6073 40.7049 10.6365 40.6361C10.6667 40.5672 10.709 40.5073 10.7632 40.4562C10.8174 40.4051 10.881 40.3654 10.954 40.3373C11.027 40.3091 11.1063 40.295 11.1918 40.295C11.2784 40.295 11.3576 40.3091 11.4296 40.3373C11.5026 40.3654 11.5657 40.4051 11.6189 40.4562C11.6731 40.5073 11.7153 40.5672 11.7456 40.6361C11.7758 40.7039 11.791 40.7789 11.791 40.8613C11.791 40.9427 11.7758 41.0183 11.7456 41.0881C11.7153 41.157 11.6731 41.2169 11.6189 41.268C11.5657 41.3181 11.5026 41.3572 11.4296 41.3854C11.3576 41.4136 11.2789 41.4276 11.1934 41.4276ZM11.1918 41.2117C11.2408 41.2117 11.2857 41.2034 11.3263 41.1867C11.3681 41.17 11.4046 41.146 11.4358 41.1147C11.4671 41.0835 11.4912 41.0464 11.5078 41.0037C11.5256 40.9609 11.5344 40.9135 11.5344 40.8613C11.5344 40.8092 11.5256 40.7617 11.5078 40.719C11.4912 40.6762 11.4671 40.6392 11.4358 40.6079C11.4056 40.5767 11.3696 40.5526 11.3279 40.5359C11.2862 40.5192 11.2408 40.5109 11.1918 40.5109C11.1428 40.5109 11.0974 40.5192 11.0557 40.5359C11.015 40.5526 10.9791 40.5767 10.9478 40.6079C10.9165 40.6392 10.892 40.6762 10.8743 40.719C10.8576 40.7617 10.8492 40.8092 10.8492 40.8613C10.8492 40.9124 10.8576 40.9599 10.8743 41.0037C10.892 41.0464 10.916 41.0835 10.9462 41.1147C10.9775 41.146 11.014 41.17 11.0557 41.1867C11.0974 41.2034 11.1428 41.2117 11.1918 41.2117ZM12.4679 41.4276C12.3125 41.4276 12.191 41.3843 12.1034 41.2978C12.0158 41.2112 11.972 41.0876 11.972 40.927V40.3138H12.2254V40.9176C12.2254 41.0219 12.2468 41.097 12.2895 41.1429C12.3324 41.1888 12.3923 41.2117 12.4694 41.2117C12.5466 41.2117 12.6066 41.1888 12.6494 41.1429C12.6921 41.097 12.7134 41.0219 12.7134 40.9176V40.3138H12.9638V40.927C12.9638 41.0876 12.92 41.2112 12.8324 41.2978C12.7448 41.3843 12.6233 41.4276 12.4679 41.4276ZM13.2142 41.4088V40.3138H13.6882C13.7863 40.3138 13.8707 40.3299 13.9416 40.3623C14.0126 40.3936 14.0673 40.439 14.1059 40.4984C14.1444 40.5578 14.1637 40.6288 14.1637 40.7111C14.1637 40.7925 14.1444 40.8629 14.1059 40.9223C14.0673 40.9807 14.0126 41.0255 13.9416 41.0568C13.8707 41.0881 13.7863 41.1038 13.6882 41.1038H13.355L13.4676 40.9927V41.4088H13.2142ZM13.9103 41.4088L13.6366 41.0115H13.9072L14.184 41.4088H13.9103ZM13.4676 41.0209L13.355 40.902H13.6741C13.7524 40.902 13.8107 40.8853 13.8493 40.8519C13.8879 40.8175 13.9072 40.7706 13.9072 40.7111C13.9072 40.6507 13.8879 40.6037 13.8493 40.5703C13.8107 40.5369 13.7524 40.5203 13.6741 40.5203H13.355L13.4676 40.3998V41.0209ZM14.8075 41.4088V40.3138H15.3425C15.4802 40.3138 15.5834 40.3399 15.6523 40.392C15.7221 40.4442 15.7571 40.513 15.7571 40.5985C15.7571 40.6559 15.743 40.7059 15.7148 40.7487C15.6867 40.7904 15.6481 40.8228 15.5991 40.8457C15.55 40.8686 15.4938 40.8801 15.4301 40.8801L15.4599 40.8159C15.5287 40.8159 15.5896 40.8274 15.6428 40.8503C15.696 40.8723 15.7373 40.9051 15.7664 40.9489C15.7967 40.9927 15.8118 41.0464 15.8118 41.11C15.8118 41.2039 15.7748 41.2774 15.7008 41.3306C15.6267 41.3828 15.5177 41.4088 15.3738 41.4088H14.8075ZM15.0594 41.2179H15.355C15.4208 41.2179 15.4703 41.2076 15.5036 41.1867C15.538 41.1648 15.5552 41.1303 15.5552 41.0835C15.5552 41.0376 15.538 41.0037 15.5036 40.9818C15.4703 40.9588 15.4208 40.9474 15.355 40.9474H15.0406V40.7627H15.3112C15.3728 40.7627 15.4197 40.7524 15.452 40.7315C15.4854 40.7096 15.5021 40.6767 15.5021 40.6329C15.5021 40.5901 15.4854 40.5584 15.452 40.5375C15.4197 40.5156 15.3728 40.5046 15.3112 40.5046H15.0594V41.2179ZM16.2368 40.755H16.764V40.952H16.2368V40.755ZM16.2556 41.2055H16.8516V41.4088H16.0037V40.3138H16.8312V40.5171H16.2556V41.2055ZM17.4129 41.4276C17.3253 41.4276 17.2414 41.4161 17.1611 41.3931C17.0808 41.3692 17.0161 41.3384 16.9672 41.3009L17.0532 41.11C17.1001 41.1434 17.1553 41.1711 17.219 41.193C17.2837 41.2138 17.3488 41.2243 17.4145 41.2243C17.4646 41.2243 17.5047 41.2195 17.535 41.2102C17.5663 41.1997 17.5892 41.1857 17.6038 41.1679C17.6184 41.1502 17.6257 41.1298 17.6257 41.1069C17.6257 41.0777 17.6143 41.0548 17.5913 41.0381C17.5683 41.0203 17.5381 41.0063 17.5005 40.9959C17.463 40.9844 17.4213 40.9739 17.3754 40.9646C17.3306 40.9541 17.2852 40.9416 17.2393 40.927C17.1945 40.9124 17.1532 40.8937 17.1157 40.8707C17.0782 40.8477 17.0474 40.8175 17.0235 40.7799C17.0005 40.7424 16.989 40.6944 16.989 40.6361C16.989 40.5734 17.0057 40.5166 17.0391 40.4655C17.0735 40.4134 17.1246 40.3722 17.1924 40.3419C17.2612 40.3106 17.3472 40.295 17.4505 40.295C17.5193 40.295 17.5871 40.3034 17.6539 40.3201C17.7206 40.3357 17.7795 40.3597 17.8306 40.392L17.7524 40.5844C17.7013 40.5552 17.6502 40.5338 17.5991 40.5203C17.548 40.5057 17.4979 40.4984 17.4489 40.4984C17.3999 40.4984 17.3598 40.5041 17.3284 40.5156C17.2972 40.5271 17.2747 40.5422 17.2612 40.561C17.2477 40.5787 17.2408 40.5996 17.2408 40.6235C17.2408 40.6517 17.2524 40.6746 17.2753 40.6923C17.2983 40.709 17.3284 40.7226 17.366 40.7331C17.4036 40.7435 17.4448 40.7539 17.4896 40.7643C17.5355 40.7748 17.5809 40.7868 17.6257 40.8003C17.6716 40.8138 17.7133 40.8321 17.7509 40.8551C17.7884 40.878 17.8186 40.9083 17.8416 40.9458C17.8655 40.9833 17.8776 41.0308 17.8776 41.0881C17.8776 41.1496 17.8604 41.206 17.8259 41.2571C17.7915 41.3082 17.7399 41.3494 17.6711 41.3807C17.6033 41.4119 17.5172 41.4276 17.4129 41.4276ZM18.2623 41.4088V40.5203H17.9119V40.3138H18.8661V40.5203H18.5157V41.4088H18.2623ZM19.4455 41.4088V40.3138H19.9194C20.0175 40.3138 20.1019 40.3299 20.1729 40.3623C20.2438 40.3936 20.2986 40.439 20.3371 40.4984C20.3757 40.5578 20.395 40.6288 20.395 40.7111C20.395 40.7925 20.3757 40.8629 20.3371 40.9223C20.2986 40.9818 20.2438 41.0276 20.1729 41.06C20.1019 41.0913 20.0175 41.1069 19.9194 41.1069H19.5863L19.6988 40.9927V41.4088H19.4455ZM19.6988 41.0209L19.5863 40.9004H19.9053C19.9836 40.9004 20.042 40.8837 20.0805 40.8503C20.1191 40.817 20.1385 40.7706 20.1385 40.7111C20.1385 40.6507 20.1191 40.6037 20.0805 40.5703C20.042 40.5369 19.9836 40.5203 19.9053 40.5203H19.5863L19.6988 40.3998V41.0209ZM20.377 41.4088L20.8651 40.3138H21.1153L21.605 41.4088H21.3391L20.9386 40.4421H21.0387L20.6367 41.4088H20.377ZM20.6211 41.1742L20.6883 40.9818H21.2515L21.3203 41.1742H20.6211ZM21.7186 41.4088V40.3138H22.1926C22.2906 40.3138 22.375 40.3299 22.446 40.3623C22.5169 40.3936 22.5717 40.439 22.6103 40.4984C22.6488 40.5578 22.6681 40.6288 22.6681 40.7111C22.6681 40.7925 22.6488 40.8629 22.6103 40.9223C22.5717 40.9807 22.5169 41.0255 22.446 41.0568C22.375 41.0881 22.2906 41.1038 22.1926 41.1038H21.8594L21.972 40.9927V41.4088H21.7186ZM22.4147 41.4088L22.141 41.0115H22.4116L22.6884 41.4088H22.4147ZM21.972 41.0209L21.8594 40.902H22.1785C22.2567 40.902 22.3151 40.8853 22.3537 40.8519C22.3922 40.8175 22.4116 40.7706 22.4116 40.7111C22.4116 40.6507 22.3922 40.6037 22.3537 40.5703C22.3151 40.5369 22.2567 40.5203 22.1785 40.5203H21.8594L21.972 40.3998V41.0209ZM23.0804 41.4088V40.5203H22.73V40.3138H23.6843V40.5203H23.3339V41.4088H23.0804ZM23.8206 41.4088V40.3138H24.0302L24.6763 41.1022H24.5746V40.3138H24.8249V41.4088H24.6169L23.9692 40.6204H24.0709V41.4088H23.8206ZM25.3171 40.755H25.8442V40.952H25.3171V40.755ZM25.3358 41.2055H25.9318V41.4088H25.084V40.3138H25.9115V40.5171H25.3358V41.2055ZM26.1335 41.4088V40.3138H26.6074C26.7055 40.3138 26.79 40.3299 26.8609 40.3623C26.9318 40.3936 26.9866 40.439 27.0251 40.4984C27.0637 40.5578 27.083 40.6288 27.083 40.7111C27.083 40.7925 27.0637 40.8629 27.0251 40.9223C26.9866 40.9807 26.9318 41.0255 26.8609 41.0568C26.79 41.0881 26.7055 41.1038 26.6074 41.1038H26.2743L26.3869 40.9927V41.4088H26.1335ZM26.8296 41.4088L26.5558 41.0115H26.8265L27.1034 41.4088H26.8296ZM26.3869 41.0209L26.2743 40.902H26.5933C26.6716 40.902 26.73 40.8853 26.7685 40.8519C26.8072 40.8175 26.8265 40.7706 26.8265 40.7111C26.8265 40.6507 26.8072 40.6037 26.7685 40.5703C26.73 40.5369 26.6716 40.5203 26.5933 40.5203H26.2743L26.3869 40.3998V41.0209Z" fill="#3B2F22"/>
</svg>
