<svg width="50" height="50" viewBox="0 0 50 50" fill="none" xmlns="http://www.w3.org/2000/svg">
<path d="M16.058 23.4425C16.058 18.5979 19.9852 14.6706 24.8298 14.6706C25.8464 14.6706 26.8214 14.8455 27.7294 15.1635C26.7572 14.7841 25.7003 14.5736 24.5937 14.5736C19.826 14.5736 15.9609 18.4386 15.9609 23.2064C15.9609 24.313 16.1715 25.3698 16.5509 26.3421C16.2328 25.4342 16.058 24.4589 16.058 23.4425Z" fill="#2A272D"/>
<path d="M31.8032 27.5236L25.7805 22.8708L19.7578 27.5236H20.5838L25.7805 23.5089L30.9773 27.5236H31.8032Z" fill="#2A272D"/>
<path d="M25 25.7817H25.7097V25.0722C25.3342 25.1068 25.0346 25.4063 25 25.7817Z" fill="#2A272D"/>
<path d="M25.7097 26.6365V25.9269H25C25.0346 26.3024 25.3342 26.6021 25.7097 26.6365Z" fill="#2A272D"/>
<path d="M25.8555 26.6365C26.231 26.6021 26.5306 26.3024 26.5652 25.9269H25.8555V26.6365Z" fill="#2A272D"/>
<path d="M25.8555 25.0722V25.7817H26.5652C26.5306 25.4063 26.231 25.1068 25.8555 25.0722Z" fill="#2A272D"/>
<path d="M27.3532 17.9078C27.3001 17.9707 27.2715 18.0459 27.2658 18.1223C27.2463 18.1174 27.2263 18.114 27.2052 18.114H26.9727L27.009 17.7516L27.3518 17.3458C27.4728 17.3889 27.6078 17.3319 27.659 17.2123C27.6845 17.1529 27.6839 17.0894 27.6637 17.033L27.9787 17.1677L27.3532 17.9078ZM27.0271 17.2087L27.214 17.2885L27.0187 17.5197L27.0271 17.2087ZM26.575 18.114H26.3065L26.3314 17.8608L26.4974 17.4218H26.6219L26.6338 17.7957L26.575 18.114ZM26.4363 18.8614H26.1093L26.1139 18.6044H26.4614L26.4363 18.8614ZM32.6449 21.5426C32.1747 19.2644 30.7588 17.3283 28.8274 16.1631L28.3097 16.7759L27.9599 16.6263L28.5069 15.9788C28.4642 15.9557 28.4202 15.9347 28.3769 15.9121L27.8228 16.5677L27.2039 16.303L27.5059 16.01C27.5059 16.01 27.577 16.0694 27.6659 16.01C27.755 15.9508 27.7906 15.9092 27.7906 15.9092L27.9881 15.7228C27.9064 15.6855 27.8247 15.6485 27.7415 15.614L27.5968 15.7491C27.5968 15.7491 27.5177 15.6937 27.411 15.7372C27.411 15.7372 27.5325 15.7342 27.5621 15.8588L27.1319 16.2722L27.0826 16.2511C27.0826 16.2499 27.0775 16.1841 27.0307 16.1387L27.3713 15.8424L27.3556 15.797C27.3555 15.7966 27.3468 15.7625 27.3842 15.7253C27.4521 15.6573 27.4787 15.6333 27.4791 15.6331L27.5323 15.5856L27.5055 15.5557C27.5126 15.5495 27.5232 15.5399 27.5326 15.5315C27.483 15.5123 27.4336 15.4926 27.3836 15.4745C27.3826 15.4754 27.3787 15.4789 27.3784 15.4793C27.3546 15.5031 27.3465 15.5322 27.349 15.5601C27.3332 15.5751 27.3118 15.5962 27.2835 15.6246C27.2271 15.6811 27.2117 15.7441 27.2126 15.7917L26.8522 16.1054C26.7226 16.1459 26.7584 16.3106 26.7584 16.3106L26.7626 16.3099C26.7491 16.3268 26.7368 16.345 26.7278 16.366C26.7024 16.4253 26.7028 16.4889 26.7232 16.5452L26.2525 16.344C26.1348 16.2936 25.9929 16.3346 25.9316 16.4471C25.8613 16.5761 25.9182 16.7343 26.0501 16.7907L26.1592 16.8373V17.0244L25.9209 18.114H25.814C25.6901 18.114 25.5789 18.2022 25.5624 18.3251C25.5435 18.4652 25.6431 18.5847 25.7747 18.6012L25.8093 18.8614H24.9708C23.9901 19.4309 24.3697 20.8546 24.6387 21.1393C24.9076 21.424 26.0149 22.6422 26.0149 22.6422H26.3809L26.2658 22.3352H26.6078L26.7538 22.6422H26.8573H27.1496L27.0272 22.3352H27.3499L27.4929 22.6422H27.7115H27.7906L27.6466 22.3352H27.9435L28.1546 22.6422H28.3402H28.625L28.295 21.8559L28.4351 19.1303L28.1347 18.8614H27.7945L27.877 18.4445C27.8795 18.4425 27.8822 18.4407 27.8847 18.4385L29.4453 17.1159L31.5727 19.3226C31.7894 19.5475 31.9708 19.8026 32.1131 20.0788V21.606H31.9549V24.1133L31.5633 24.8133L31.9864 26.7981C32.2185 26.3224 32.4058 25.821 32.5433 25.2997H32.4453V24.0858L32.7458 23.5754V24.2493C32.7803 23.9784 32.8015 23.7036 32.8088 23.4251H32.4453V21.6377H32.3504V20.666L32.6449 21.5426Z" fill="#2A272D"/>
<path d="M10.8962 24.6847L12.8039 24.846C13.1584 24.8757 13.4482 25.1292 13.525 25.4767L13.5644 25.6547C13.8483 26.9405 14.3529 28.1578 15.0645 29.2732L15.1626 29.4274C15.3538 29.727 15.3283 30.1111 15.0988 30.3832L14.7889 30.7502C16.3197 30.6195 17.9054 30.5179 19.5352 30.448C17.2521 28.8482 15.7552 26.1994 15.7552 23.2064C15.7552 18.3324 19.7205 14.3672 24.5945 14.3672C29.4684 14.3672 33.4336 18.3324 33.4336 23.2064C33.4336 26.1882 31.948 28.8279 29.6796 30.4295C31.2864 30.4925 32.8513 30.5863 34.3648 30.7083L34.0903 30.3832C33.8608 30.1111 33.8349 29.727 34.0265 29.4272L34.1246 29.2734C34.8363 28.1578 35.3408 26.9403 35.6245 25.6548L35.6641 25.4765C35.7407 25.1292 36.0305 24.8757 36.3851 24.846L38.2927 24.6847C38.712 24.6493 39.0404 24.292 39.0404 23.8711V22.5412C39.0404 22.1134 38.719 21.7636 38.2927 21.7276L36.3851 21.5665C36.0305 21.5365 35.7407 21.2831 35.6641 20.9358L35.6245 20.7576C35.3408 19.4719 34.8363 18.2545 34.1246 17.139L34.0265 16.9853C33.8351 16.6853 33.8608 16.3011 34.0903 16.0293L35.326 14.5656C35.5975 14.244 35.5771 13.7591 35.2795 13.4615L34.3391 12.5212C34.0365 12.219 33.562 12.1988 33.2348 12.4746L31.7711 13.7106C31.4989 13.9404 31.1146 13.9659 30.815 13.7743L30.6613 13.6763C29.5478 12.9655 28.3304 12.4607 27.043 12.1761L26.8649 12.1367C26.5178 12.0597 26.2644 11.7699 26.2344 11.4157L26.0732 9.50801C26.0371 9.08165 25.6872 8.76023 25.2593 8.76023H23.9295C23.5089 8.76023 23.1514 9.08872 23.116 9.5079L22.9547 11.4157C22.9248 11.7699 22.6713 12.0597 22.3241 12.1367L22.1461 12.1761C20.8585 12.4606 19.6412 12.9655 18.5277 13.6762L18.374 13.7744C18.0743 13.9661 17.69 13.9402 17.4179 13.7106L15.9539 12.4746C15.6268 12.1987 15.1523 12.2191 14.8499 12.5212L13.9097 13.4615C13.6119 13.7591 13.5915 14.244 13.8631 14.5656L15.0988 16.0293C15.3283 16.3011 15.3538 16.6853 15.1626 16.9852L15.0645 17.139C14.3529 18.2545 13.8483 19.4718 13.5645 20.7574L13.5249 20.9359C13.4482 21.2831 13.1584 21.5365 12.804 21.5665L10.8962 21.7276C10.4769 21.763 10.1484 22.1204 10.1484 22.5412V23.8711C10.1484 24.292 10.4769 24.6493 10.8962 24.6847Z" fill="#F68814"/>
<path d="M25.7816 24.9234C26.2949 24.9234 26.7125 25.341 26.7125 25.8543C26.7125 26.3677 26.2949 26.7853 25.7816 26.7853C25.2683 26.7853 24.8507 26.3677 24.8507 25.8543C24.8507 25.341 25.2683 24.9234 25.7816 24.9234ZM22.0263 30.3671V28.833H23.6781V30.3411C24.011 30.3381 24.345 30.3361 24.6804 30.3356V28.2996H26.8828V30.3525C27.2184 30.358 27.5527 30.3645 27.8851 30.3725V28.833H29.537V29.7691C29.8386 29.5414 30.1243 29.2939 30.3914 29.0277V27.3164L25.7816 23.7551L21.1719 27.3164V30.3891C21.4555 30.3808 21.7403 30.3733 22.0263 30.3671Z" fill="#2A272D"/>
<path d="M17.2725 25.1706H17.6183V25.7511H17.2725V25.1706ZM17.2725 22.6207H17.6183V23.2011H17.2725V22.6207ZM17.2725 21.3458H17.6183V21.9263H17.2725V21.3458ZM17.8776 26.4455H18.2235V27.0259H17.8776V26.4455ZM17.8776 23.8957H18.2235V24.4761H17.8776V23.8957ZM17.8776 21.3458H18.2235V21.9263H17.8776V21.3458ZM18.4828 26.4455H18.8286V27.0259H18.4828V26.4455ZM18.4828 25.1706H18.8286V25.7511H18.4828V25.1706ZM18.4828 22.6207H18.8286V23.2011H18.4828V22.6207ZM19.0879 23.8957H19.4337V24.4761H19.0879V23.8957ZM19.0879 22.6207H19.4337V23.2011H19.0879V22.6207ZM19.0879 21.3458H19.4337V21.9263H19.0879V21.3458ZM20.0608 23.8542H20.5393V24.4346H20.0608V23.8542ZM20.0608 22.5274H20.5393V23.1079H20.0608V22.5274ZM20.0608 19.8739H20.5393V20.4544H20.0608V19.8739ZM20.0608 18.5472H20.5393V19.1277H20.0608V18.5472ZM20.0608 17.2205H20.5393V17.8009H20.0608V17.2205ZM20.898 25.1809H21.3766V25.7615H20.898V25.1809ZM20.898 23.8542H21.3766V24.4346H20.898V23.8542ZM20.898 21.2007H21.3766V21.7812H20.898V21.2007ZM20.898 19.8739H21.3766V20.4544H20.898V19.8739ZM21.7354 22.5274H22.2139V23.1079H21.7354V22.5274ZM21.7354 19.8739H22.2139V20.4544H21.7354V19.8739ZM21.7354 18.5472H22.2139V19.1277H21.7354V18.5472ZM21.7354 17.2205H22.2139V17.8009H21.7354V17.2205ZM22.5727 23.8542H23.0511V24.4346H22.5727V23.8542ZM22.5727 22.5274H23.0511V23.1079H22.5727V22.5274ZM22.5727 21.2007H23.0511V21.7812H22.5727V21.2007ZM22.5727 17.2205H23.0511V17.8009H22.5727V17.2205ZM20.0608 29.1613H20.5393V29.7417H20.0608V29.1613ZM20.0608 27.8345H20.5393V28.415H20.0608V27.8345ZM17.2725 26.4455H17.6183V27.0259H17.3172C18.0686 28.4512 19.2268 29.6284 20.6359 30.4058C20.7106 30.4033 20.785 30.4005 20.86 30.3981V27.7009L20.6885 27.8334H19.3046C19.1564 27.8334 19.0923 27.6458 19.2096 27.5552L21.7354 25.6038V25.1809H22.2139V25.2342L24.3489 23.5848H23.3829V16.7022H19.6514V20.5996H16.832V25.9116C16.9559 26.2658 17.1034 26.6086 17.2725 26.9389V26.4455Z" fill="#2A272D"/>
<path d="M46.6593 33.1915C41.0908 31.8033 33.3673 30.9431 24.8297 30.9431C16.2921 30.9431 8.5685 31.8033 3 33.1915C8.5685 32.64 16.2921 32.2981 24.8297 32.2981C33.3673 32.2981 41.0908 32.64 46.6593 33.1915Z" fill="#2A272D"/>
<path d="M7.15248 37.5512C6.84408 37.5512 6.5795 37.5009 6.35875 37.4003C6.14124 37.2996 5.97081 37.1519 5.84745 36.9571C5.72733 36.7624 5.66078 36.5205 5.6478 36.2316C5.64455 36.0985 5.64293 35.9556 5.64293 35.8031C5.64293 35.6505 5.64455 35.5044 5.6478 35.3648C5.66078 35.0824 5.72896 34.8438 5.85232 34.649C5.97568 34.451 6.14774 34.3016 6.36849 34.201C6.58924 34.0971 6.85057 34.0452 7.15248 34.0452C7.36674 34.0452 7.56477 34.0728 7.74656 34.128C7.92836 34.1799 8.08743 34.2578 8.22377 34.3617C8.36012 34.4623 8.46563 34.5857 8.54029 34.7318C8.61821 34.8746 8.65878 35.0369 8.66203 35.2187C8.66528 35.2479 8.65554 35.2723 8.63281 35.2918C8.61334 35.3112 8.58899 35.321 8.55977 35.321H7.90239C7.86018 35.321 7.82772 35.3129 7.805 35.2966C7.78227 35.2772 7.76279 35.2431 7.74656 35.1944C7.70111 35.0223 7.62645 34.9055 7.52256 34.8438C7.42193 34.7788 7.29694 34.7464 7.14761 34.7464C6.96906 34.7464 6.82785 34.7967 6.72396 34.8973C6.62008 34.9947 6.56327 35.1587 6.55353 35.3892C6.54379 35.6554 6.54379 35.9281 6.55353 36.2072C6.56327 36.4377 6.62008 36.6033 6.72396 36.7039C6.82785 36.8013 6.96906 36.85 7.14761 36.85C7.29694 36.85 7.42355 36.8176 7.52743 36.7526C7.63132 36.6877 7.70436 36.5708 7.74656 36.402C7.75955 36.3533 7.7774 36.3209 7.80013 36.3046C7.8261 36.2852 7.86018 36.2754 7.90239 36.2754H8.55977C8.58899 36.2754 8.61334 36.2852 8.63281 36.3046C8.65554 36.3241 8.66528 36.3485 8.66203 36.3777C8.65878 36.5595 8.61821 36.7234 8.54029 36.8695C8.46563 37.0123 8.36012 37.1357 8.22377 37.2396C8.08743 37.3402 7.92836 37.4181 7.74656 37.4733C7.56477 37.5253 7.36674 37.5512 7.15248 37.5512ZM10.5667 37.5512C10.2681 37.5512 10.0084 37.5025 9.78761 37.4051C9.56686 37.3078 9.3948 37.1617 9.27144 36.9669C9.14808 36.7689 9.07991 36.5221 9.06692 36.2267C9.06368 36.0871 9.06205 35.9475 9.06205 35.8079C9.06205 35.6683 9.06368 35.5271 9.06692 35.3843C9.07991 35.0921 9.14808 34.847 9.27144 34.649C9.39805 34.4477 9.57173 34.2968 9.79248 34.1961C10.0132 34.0955 10.2713 34.0452 10.5667 34.0452C10.8589 34.0452 11.1154 34.0955 11.3361 34.1961C11.5601 34.2968 11.7354 34.4477 11.862 34.649C11.9886 34.847 12.0568 35.0921 12.0665 35.3843C12.073 35.5271 12.0763 35.6683 12.0763 35.8079C12.0763 35.9475 12.073 36.0871 12.0665 36.2267C12.0536 36.5221 11.9854 36.7689 11.862 36.9669C11.7387 37.1617 11.5666 37.3078 11.3459 37.4051C11.1251 37.5025 10.8654 37.5512 10.5667 37.5512ZM10.5667 36.85C10.7388 36.85 10.8784 36.7981 10.9855 36.6942C11.0959 36.5903 11.1543 36.4247 11.1608 36.1975C11.1673 36.0547 11.1706 35.9199 11.1706 35.7933C11.1706 35.6667 11.1673 35.5352 11.1608 35.3989C11.1543 35.2463 11.1251 35.123 11.0732 35.0288C11.0245 34.9314 10.9563 34.86 10.8686 34.8146C10.781 34.7691 10.6804 34.7464 10.5667 34.7464C10.4564 34.7464 10.3573 34.7691 10.2697 34.8146C10.182 34.86 10.1122 34.9314 10.0603 35.0288C10.0084 35.123 9.97915 35.2463 9.97265 35.3989C9.96941 35.5352 9.96778 35.6667 9.96778 35.7933C9.96778 35.9199 9.96941 36.0547 9.97265 36.1975C9.98239 36.4247 10.0408 36.5903 10.148 36.6942C10.2551 36.7981 10.3947 36.85 10.5667 36.85ZM12.7625 37.5025C12.7268 37.5025 12.6975 37.4912 12.6748 37.4684C12.6521 37.4457 12.6407 37.4165 12.6407 37.3808V34.2156C12.6407 34.1799 12.6521 34.1507 12.6748 34.128C12.6975 34.1052 12.7268 34.0939 12.7625 34.0939H13.2786C13.3338 34.0939 13.3728 34.1069 13.3955 34.1328C13.4215 34.1556 13.4377 34.1734 13.4442 34.1864L14.6324 36.0612V34.2156C14.6324 34.1799 14.6437 34.1507 14.6665 34.128C14.6892 34.1052 14.7184 34.0939 14.7541 34.0939H15.3384C15.3742 34.0939 15.4034 34.1052 15.4261 34.128C15.4488 34.1507 15.4602 34.1799 15.4602 34.2156V37.3808C15.4602 37.4133 15.4488 37.4425 15.4261 37.4684C15.4034 37.4912 15.3742 37.5025 15.3384 37.5025H14.8174C14.7655 37.5025 14.7265 37.4895 14.7005 37.4636C14.6778 37.4376 14.6632 37.4198 14.6567 37.41L13.4686 35.6083V37.3808C13.4686 37.4165 13.4572 37.4457 13.4345 37.4684C13.4117 37.4912 13.3825 37.5025 13.3468 37.5025H12.7625ZM17.4116 37.5512C17.087 37.5512 16.8176 37.5058 16.6033 37.4149C16.389 37.3207 16.2267 37.199 16.1164 37.0497C16.006 36.9003 15.9475 36.7413 15.941 36.5725C15.941 36.5465 15.9508 36.5238 15.9703 36.5043C15.993 36.4816 16.019 36.4702 16.0482 36.4702H16.6617C16.7072 36.4702 16.7413 36.4783 16.764 36.4945C16.79 36.5108 16.8127 36.5319 16.8322 36.5578C16.8581 36.6065 16.8938 36.6536 16.9393 36.6991C16.988 36.7445 17.0497 36.7818 17.1243 36.8111C17.2023 36.837 17.298 36.85 17.4116 36.85C17.5999 36.85 17.7411 36.8208 17.8353 36.7624C17.9327 36.7039 17.9814 36.6244 17.9814 36.5238C17.9814 36.4523 17.9554 36.3939 17.9035 36.3485C17.8515 36.2998 17.7671 36.2576 17.6502 36.2218C17.5366 36.1829 17.384 36.1439 17.1925 36.105C16.9458 36.053 16.7348 35.9865 16.5595 35.9053C16.3874 35.8209 16.2559 35.7122 16.165 35.5791C16.0741 35.4427 16.0287 35.2739 16.0287 35.0726C16.0287 34.8746 16.0839 34.6977 16.1943 34.5419C16.3079 34.386 16.4653 34.2643 16.6666 34.1767C16.8679 34.089 17.1065 34.0452 17.3824 34.0452C17.6064 34.0452 17.8028 34.0744 17.9716 34.1328C18.1437 34.1913 18.2882 34.2692 18.405 34.3666C18.5219 34.464 18.6095 34.5678 18.668 34.6782C18.7297 34.7853 18.7621 34.8908 18.7654 34.9947C18.7654 35.0207 18.7556 35.045 18.7362 35.0678C18.7167 35.0873 18.6923 35.097 18.6631 35.097H18.0203C17.9846 35.097 17.9538 35.0905 17.9278 35.0775C17.9018 35.0645 17.8791 35.0434 17.8596 35.0142C17.8402 34.9428 17.7882 34.8811 17.7038 34.8292C17.6227 34.774 17.5155 34.7464 17.3824 34.7464C17.2396 34.7464 17.1276 34.7724 17.0464 34.8243C16.9685 34.873 16.9296 34.9493 16.9296 35.0532C16.9296 35.1181 16.9507 35.1749 16.9929 35.2236C17.0383 35.2723 17.1114 35.3145 17.212 35.3502C17.3159 35.3859 17.4571 35.4232 17.6356 35.4622C17.9311 35.5174 18.1697 35.5872 18.3515 35.6716C18.5333 35.7528 18.6664 35.8599 18.7508 35.993C18.8352 36.1228 18.8774 36.2868 18.8774 36.4848C18.8774 36.7056 18.8141 36.8971 18.6875 37.0594C18.5641 37.2185 18.392 37.3402 18.1713 37.4246C17.9505 37.509 17.6973 37.5512 17.4116 37.5512ZM20.2032 37.5025C20.1675 37.5025 20.1383 37.4912 20.1156 37.4684C20.0928 37.4457 20.0815 37.4165 20.0815 37.3808V34.8584H19.2147C19.179 34.8584 19.1498 34.847 19.127 34.8243C19.1043 34.7983 19.093 34.7691 19.093 34.7366V34.2156C19.093 34.1799 19.1043 34.1507 19.127 34.128C19.1498 34.1052 19.179 34.0939 19.2147 34.0939H21.8345C21.8702 34.0939 21.8994 34.1052 21.9221 34.128C21.9449 34.1507 21.9562 34.1799 21.9562 34.2156V34.7366C21.9562 34.7691 21.9449 34.7983 21.9221 34.8243C21.8994 34.847 21.8702 34.8584 21.8345 34.8584H20.9677V37.3808C20.9677 37.4165 20.9564 37.4457 20.9336 37.4684C20.9109 37.4912 20.8817 37.5025 20.846 37.5025H20.2032ZM22.5205 37.5025C22.4848 37.5025 22.4556 37.4912 22.4329 37.4684C22.4102 37.4457 22.3988 37.4165 22.3988 37.3808V34.2156C22.3988 34.1799 22.4102 34.1507 22.4329 34.128C22.4556 34.1052 22.4848 34.0939 22.5205 34.0939H23.845C24.2638 34.0939 24.5933 34.1913 24.8335 34.386C25.077 34.5776 25.1988 34.8503 25.1988 35.2041C25.1988 35.4346 25.142 35.6294 25.0283 35.7885C24.918 35.9475 24.7719 36.0676 24.5901 36.1488L25.2621 37.3467C25.2718 37.3662 25.2767 37.384 25.2767 37.4003C25.2767 37.4262 25.2653 37.4506 25.2426 37.4733C25.2231 37.4928 25.1988 37.5025 25.1695 37.5025H24.5268C24.4651 37.5025 24.4196 37.4879 24.3904 37.4587C24.3612 37.4262 24.3401 37.397 24.3271 37.3711L23.772 36.2998H23.2704V37.3808C23.2704 37.4165 23.2591 37.4457 23.2363 37.4684C23.2136 37.4912 23.1844 37.5025 23.1487 37.5025H22.5205ZM23.2704 35.6132H23.8353C23.9879 35.6132 24.1015 35.5758 24.1762 35.5012C24.2541 35.4265 24.293 35.3242 24.293 35.1944C24.293 35.0678 24.2557 34.9655 24.181 34.8876C24.1096 34.8097 23.9944 34.7707 23.8353 34.7707H23.2704V35.6132ZM27.1924 37.5512C26.9002 37.5512 26.6437 37.5042 26.423 37.41C26.2055 37.3126 26.0367 37.1649 25.9166 36.9669C25.7964 36.7656 25.7364 36.5108 25.7364 36.2024V34.2156C25.7364 34.1799 25.7478 34.1507 25.7705 34.128C25.7932 34.1052 25.8224 34.0939 25.8581 34.0939H26.4863C26.522 34.0939 26.5512 34.1052 26.5739 34.128C26.5967 34.1507 26.608 34.1799 26.608 34.2156V36.1975C26.608 36.4085 26.6584 36.5676 26.759 36.6747C26.8629 36.7786 27.0073 36.8305 27.1924 36.8305C27.3742 36.8305 27.5154 36.7786 27.616 36.6747C27.7199 36.5676 27.7718 36.4085 27.7718 36.1975V34.2156C27.7718 34.1799 27.7832 34.1507 27.8059 34.128C27.8319 34.1052 27.8611 34.0939 27.8936 34.0939H28.5266C28.5591 34.0939 28.5867 34.1052 28.6094 34.128C28.6354 34.1507 28.6484 34.1799 28.6484 34.2156V36.2024C28.6484 36.5108 28.5883 36.7656 28.4682 36.9669C28.3481 37.1649 28.1793 37.3126 27.9618 37.41C27.7443 37.5042 27.4878 37.5512 27.1924 37.5512ZM30.6917 37.5512C30.3833 37.5512 30.1187 37.5009 29.8979 37.4003C29.6804 37.2996 29.51 37.1519 29.3866 36.9571C29.2665 36.7624 29.2 36.5205 29.187 36.2316C29.1837 36.0985 29.1821 35.9556 29.1821 35.8031C29.1821 35.6505 29.1837 35.5044 29.187 35.3648C29.2 35.0824 29.2681 34.8438 29.3915 34.649C29.5149 34.451 29.6869 34.3016 29.9077 34.201C30.1284 34.0971 30.3897 34.0452 30.6917 34.0452C30.9059 34.0452 31.1039 34.0728 31.2857 34.128C31.4675 34.1799 31.6266 34.2578 31.7629 34.3617C31.8993 34.4623 32.0048 34.5857 32.0795 34.7318C32.1574 34.8746 32.198 35.0369 32.2012 35.2187C32.2045 35.2479 32.1947 35.2723 32.172 35.2918C32.1525 35.3112 32.1282 35.321 32.0989 35.321H31.4416C31.3994 35.321 31.3669 35.3129 31.3442 35.2966C31.3214 35.2772 31.302 35.2431 31.2857 35.1944C31.2403 35.0223 31.1656 34.9055 31.0617 34.8438C30.9611 34.7788 30.8361 34.7464 30.6868 34.7464C30.5082 34.7464 30.367 34.7967 30.2631 34.8973C30.1593 34.9947 30.1024 35.1587 30.0927 35.3892C30.083 35.6554 30.083 35.9281 30.0927 36.2072C30.1024 36.4377 30.1593 36.6033 30.2631 36.7039C30.367 36.8013 30.5082 36.85 30.6868 36.85C30.8361 36.85 30.9627 36.8176 31.0666 36.7526C31.1705 36.6877 31.2435 36.5708 31.2857 36.402C31.2987 36.3533 31.3166 36.3209 31.3393 36.3046C31.3653 36.2852 31.3994 36.2754 31.4416 36.2754H32.0989C32.1282 36.2754 32.1525 36.2852 32.172 36.3046C32.1947 36.3241 32.2045 36.3485 32.2012 36.3777C32.198 36.5595 32.1574 36.7234 32.0795 36.8695C32.0048 37.0123 31.8993 37.1357 31.7629 37.2396C31.6266 37.3402 31.4675 37.4181 31.2857 37.4733C31.1039 37.5253 30.9059 37.5512 30.6917 37.5512ZM33.5849 37.5025C33.5492 37.5025 33.5199 37.4912 33.4972 37.4684C33.4745 37.4457 33.4631 37.4165 33.4631 37.3808V34.8584H32.5964C32.5607 34.8584 32.5314 34.847 32.5087 34.8243C32.486 34.7983 32.4746 34.7691 32.4746 34.7366V34.2156C32.4746 34.1799 32.486 34.1507 32.5087 34.128C32.5314 34.1052 32.5607 34.0939 32.5964 34.0939H35.2162C35.2519 34.0939 35.2811 34.1052 35.3038 34.128C35.3265 34.1507 35.3379 34.1799 35.3379 34.2156V34.7366C35.3379 34.7691 35.3265 34.7983 35.3038 34.8243C35.2811 34.847 35.2519 34.8584 35.2162 34.8584H34.3494V37.3808C34.3494 37.4165 34.338 37.4457 34.3153 37.4684C34.2926 37.4912 34.2634 37.5025 34.2276 37.5025H33.5849ZM35.9022 37.5025C35.8665 37.5025 35.8373 37.4912 35.8145 37.4684C35.7918 37.4457 35.7805 37.4165 35.7805 37.3808V34.2156C35.7805 34.1799 35.7918 34.1507 35.8145 34.128C35.8373 34.1052 35.8665 34.0939 35.9022 34.0939H36.5547C36.5904 34.0939 36.6196 34.1052 36.6424 34.128C36.6651 34.1507 36.6764 34.1799 36.6764 34.2156V37.3808C36.6764 37.4165 36.6651 37.4457 36.6424 37.4684C36.6196 37.4912 36.5904 37.5025 36.5547 37.5025H35.9022ZM38.7519 37.5512C38.4533 37.5512 38.1936 37.5025 37.9728 37.4051C37.7521 37.3078 37.58 37.1617 37.4566 36.9669C37.3333 36.7689 37.2651 36.5221 37.2521 36.2267C37.2489 36.0871 37.2472 35.9475 37.2472 35.8079C37.2472 35.6683 37.2489 35.5271 37.2521 35.3843C37.2651 35.0921 37.3333 34.847 37.4566 34.649C37.5832 34.4477 37.7569 34.2968 37.9777 34.1961C38.1984 34.0955 38.4565 34.0452 38.7519 34.0452C39.0441 34.0452 39.3006 34.0955 39.5213 34.1961C39.7453 34.2968 39.9206 34.4477 40.0472 34.649C40.1738 34.847 40.242 35.0921 40.2517 35.3843C40.2582 35.5271 40.2615 35.6683 40.2615 35.8079C40.2615 35.9475 40.2582 36.0871 40.2517 36.2267C40.2388 36.5221 40.1706 36.7689 40.0472 36.9669C39.9239 37.1617 39.7518 37.3078 39.531 37.4051C39.3103 37.5025 39.0506 37.5512 38.7519 37.5512ZM38.7519 36.85C38.924 36.85 39.0636 36.7981 39.1707 36.6942C39.2811 36.5903 39.3395 36.4247 39.346 36.1975C39.3525 36.0547 39.3557 35.9199 39.3557 35.7933C39.3557 35.6667 39.3525 35.5352 39.346 35.3989C39.3395 35.2463 39.3103 35.123 39.2584 35.0288C39.2097 34.9314 39.1415 34.86 39.0538 34.8146C38.9662 34.7691 38.8655 34.7464 38.7519 34.7464C38.6416 34.7464 38.5425 34.7691 38.4549 34.8146C38.3672 34.86 38.2974 34.9314 38.2455 35.0288C38.1936 35.123 38.1643 35.2463 38.1578 35.3989C38.1546 35.5352 38.153 35.6667 38.153 35.7933C38.153 35.9199 38.1546 36.0547 38.1578 36.1975C38.1676 36.4247 38.226 36.5903 38.3331 36.6942C38.4403 36.7981 38.5799 36.85 38.7519 36.85ZM40.9477 37.5025C40.912 37.5025 40.8827 37.4912 40.86 37.4684C40.8373 37.4457 40.8259 37.4165 40.8259 37.3808V34.2156C40.8259 34.1799 40.8373 34.1507 40.86 34.128C40.8827 34.1052 40.912 34.0939 40.9477 34.0939H41.4638C41.519 34.0939 41.558 34.1069 41.5807 34.1328C41.6067 34.1556 41.6229 34.1734 41.6294 34.1864L42.8176 36.0612V34.2156C42.8176 34.1799 42.8289 34.1507 42.8516 34.128C42.8744 34.1052 42.9036 34.0939 42.9393 34.0939H43.5236C43.5593 34.0939 43.5886 34.1052 43.6113 34.128C43.634 34.1507 43.6454 34.1799 43.6454 34.2156V37.3808C43.6454 37.4133 43.634 37.4425 43.6113 37.4684C43.5886 37.4912 43.5593 37.5025 43.5236 37.5025H43.0026C42.9507 37.5025 42.9117 37.4895 42.8857 37.4636C42.863 37.4376 42.8484 37.4198 42.8419 37.41L41.6537 35.6083V37.3808C41.6537 37.4165 41.6424 37.4457 41.6197 37.4684C41.5969 37.4912 41.5677 37.5025 41.532 37.5025H40.9477Z" fill="#2A272D"/>
<path d="M13.841 38.8564H14.1118L14.3726 39.3489H14.3837L14.6445 38.8564H14.9153L14.4982 39.5957V40H14.2581V39.5957L13.841 38.8564ZM16.0291 39.4282C16.0291 39.5529 16.0055 39.659 15.9582 39.7465C15.9113 39.834 15.8473 39.9008 15.7661 39.947C15.6854 39.9927 15.5945 40.0156 15.4937 40.0156C15.392 40.0156 15.3008 39.9926 15.22 39.9464C15.1393 39.9002 15.0754 39.8334 15.0285 39.7459C14.9816 39.6585 14.9582 39.5525 14.9582 39.4282C14.9582 39.3035 14.9816 39.1974 15.0285 39.1099C15.0754 39.0225 15.1393 38.9558 15.22 38.91C15.3008 38.8639 15.392 38.8408 15.4937 38.8408C15.5945 38.8408 15.6854 38.8639 15.7661 38.91C15.8473 38.9558 15.9113 39.0225 15.9582 39.1099C16.0055 39.1974 16.0291 39.3035 16.0291 39.4282ZM15.784 39.4282C15.784 39.3474 15.7719 39.2793 15.7477 39.2238C15.7239 39.1684 15.6902 39.1263 15.6467 39.0977C15.6031 39.069 15.5521 39.0547 15.4937 39.0547C15.4352 39.0547 15.3842 39.069 15.3407 39.0977C15.2971 39.1263 15.2632 39.1684 15.239 39.2238C15.2152 39.2793 15.2033 39.3474 15.2033 39.4282C15.2033 39.509 15.2152 39.5771 15.239 39.6326C15.2632 39.688 15.2971 39.7301 15.3407 39.7588C15.3842 39.7874 15.4352 39.8018 15.4937 39.8018C15.5521 39.8018 15.6031 39.7874 15.6467 39.7588C15.6902 39.7301 15.7239 39.688 15.7477 39.6326C15.7719 39.5771 15.784 39.509 15.784 39.4282ZM16.9146 38.8564H17.1564V39.5991C17.1564 39.6825 17.1365 39.7554 17.0966 39.818C17.0572 39.8805 17.0019 39.9293 16.9308 39.9643C16.8597 39.9989 16.7769 40.0162 16.6823 40.0162C16.5874 40.0162 16.5044 39.9989 16.4333 39.9643C16.3622 39.9293 16.3069 39.8805 16.2674 39.818C16.228 39.7554 16.2082 39.6825 16.2082 39.5991V38.8564H16.45V39.5784C16.45 39.622 16.4595 39.6607 16.4785 39.6946C16.4979 39.7284 16.525 39.7551 16.56 39.7744C16.595 39.7938 16.6358 39.8034 16.6823 39.8034C16.7292 39.8034 16.77 39.7938 16.8046 39.7744C16.8396 39.7551 16.8666 39.7284 16.8856 39.6946C16.9049 39.6607 16.9146 39.622 16.9146 39.5784V38.8564ZM17.3553 40V38.8564H17.8065C17.8928 38.8564 17.9666 38.8719 18.0276 38.9028C18.089 38.9333 18.1357 38.9767 18.1678 39.0329C18.2001 39.0887 18.2163 39.1544 18.2163 39.23C18.2163 39.3059 18.2 39.3713 18.1672 39.426C18.1344 39.4803 18.087 39.522 18.0248 39.5511C17.963 39.5801 17.8882 39.5946 17.8003 39.5946H17.4983V39.4003H17.7613C17.8074 39.4003 17.8458 39.394 17.8763 39.3813C17.9068 39.3687 17.9295 39.3497 17.9444 39.3244C17.9597 39.299 17.9673 39.2676 17.9673 39.23C17.9673 39.192 17.9597 39.16 17.9444 39.1339C17.9295 39.1079 17.9066 39.0882 17.8757 39.0748C17.8452 39.061 17.8067 39.0541 17.7601 39.0541H17.5971V40H17.3553ZM17.9729 39.4796L18.2571 40H17.9902L17.7121 39.4796H17.9729ZM18.7076 39.0558V38.8564H19.6468V39.0558H19.2967V40H19.0577V39.0558H18.7076ZM19.8588 40H19.5997L19.9945 38.8564H20.3061L20.7003 40H20.4412L20.1548 39.1178H20.1458L19.8588 40ZM19.8426 39.5505H20.4546V39.7392H19.8426V39.5505ZM21.5425 39.2261C21.5347 39.1989 21.5237 39.1749 21.5095 39.154C21.4954 39.1328 21.4781 39.115 21.4576 39.1004C21.4375 39.0856 21.4144 39.0742 21.3884 39.0664C21.3627 39.0586 21.3342 39.0547 21.3029 39.0547C21.2445 39.0547 21.1931 39.0692 21.1488 39.0982C21.1049 39.1272 21.0707 39.1695 21.0461 39.225C21.0215 39.2801 21.0092 39.3474 21.0092 39.4271C21.0092 39.5068 21.0213 39.5745 21.0455 39.6303C21.0697 39.6862 21.104 39.7288 21.1483 39.7582C21.1926 39.7873 21.2449 39.8018 21.3052 39.8018C21.3599 39.8018 21.4066 39.7921 21.4453 39.7727C21.4844 39.753 21.5142 39.7253 21.5347 39.6895C21.5555 39.6538 21.5659 39.6116 21.5659 39.5628L21.6151 39.57H21.3203V39.388H21.7988V39.5321C21.7988 39.6326 21.7776 39.7189 21.7351 39.7912C21.6927 39.863 21.6343 39.9185 21.5598 39.9576C21.4854 39.9963 21.4001 40.0156 21.3041 40.0156C21.1969 40.0156 21.1027 39.992 21.0215 39.9447C20.9404 39.8971 20.8771 39.8295 20.8317 39.742C20.7866 39.6542 20.7641 39.5499 20.7641 39.4293C20.7641 39.3366 20.7775 39.254 20.8043 39.1814C20.8315 39.1084 20.8695 39.0467 20.9182 38.996C20.967 38.9454 21.0238 38.9069 21.0885 38.8804C21.1533 38.854 21.2235 38.8408 21.299 38.8408C21.3638 38.8408 21.4241 38.8503 21.48 38.8693C21.5358 38.8879 21.5853 38.9143 21.6285 38.9486C21.672 38.9828 21.7076 39.0236 21.7351 39.0708C21.7627 39.1178 21.7804 39.1695 21.7882 39.2261H21.5425ZM21.9804 40V38.8564H22.2222V39.8007H22.7124V40H21.9804ZM23.1143 38.8564V40H22.8726V38.8564H23.1143ZM24.2698 38.8564V40H24.0609L23.5634 39.2802H23.555V40H23.3133V38.8564H23.5255L24.0191 39.5756H24.0291V38.8564H24.2698ZM24.4695 40V38.8564H25.2401V39.0558H24.7113V39.3283H25.2005V39.5276H24.7113V39.8007H25.2423V40H24.4695ZM25.7963 40V38.8564H26.038V39.3283H26.5289V38.8564H26.7701V40H26.5289V39.5276H26.038V40H25.7963ZM26.9694 40V38.8564H27.74V39.0558H27.2112V39.3283H27.7004V39.5276H27.2112V39.8007H27.7422V40H26.9694ZM27.9322 40V38.8564H28.3834C28.4698 38.8564 28.5435 38.8719 28.6045 38.9028C28.6659 38.9333 28.7127 38.9767 28.7447 39.0329C28.7771 39.0887 28.7933 39.1544 28.7933 39.23C28.7933 39.3059 28.7769 39.3713 28.7441 39.426C28.7114 39.4803 28.6639 39.522 28.6017 39.5511C28.5399 39.5801 28.4651 39.5946 28.3773 39.5946H28.0752V39.4003H28.3382C28.3843 39.4003 28.4227 39.394 28.4532 39.3813C28.4837 39.3687 28.5064 39.3497 28.5213 39.3244C28.5366 39.299 28.5442 39.2676 28.5442 39.23C28.5442 39.192 28.5366 39.16 28.5213 39.1339C28.5064 39.1079 28.4835 39.0882 28.4526 39.0748C28.4221 39.061 28.3836 39.0541 28.3371 39.0541H28.174V40H27.9322ZM28.5498 39.4796L28.834 40H28.5671L28.289 39.4796H28.5498ZM28.9641 40V38.8564H29.7347V39.0558H29.2059V39.3283H29.695V39.5276H29.2059V39.8007H29.7369V40H28.9641Z" fill="#F68814"/>
</svg>
