<svg width="51" height="50" viewBox="0 0 51 50" fill="none" xmlns="http://www.w3.org/2000/svg">
<path d="M39.4063 24.2414V32.3757H9.21484V24.2414L24.3105 9.40809L39.4063 24.2414Z" fill="#AD313C"/>
<path d="M39.4063 26.1117V32.3757H9.21484V27.2352L25.7818 11.2256L39.4063 26.1117Z" fill="#D03C47"/>
<path d="M19.9039 13.6361L7.28516 26.0422" stroke="#3B2F22" stroke-width="0.763061" stroke-miterlimit="10" stroke-linecap="round"/>
<path d="M41.0845 25.3435C40.5143 25.9139 39.5873 25.9064 39.0261 25.327L25.2539 11.1069L26.8481 9.51273L41.0682 23.285C41.6476 23.8461 41.6551 24.7733 41.0845 25.3435Z" fill="#CFB596"/>
<path d="M26.8481 9.51273L41.0682 23.285C41.6476 23.8461 41.6551 24.7733 41.0845 25.3435C40.5143 25.9139 39.5873 25.9064 39.0261 25.327L25.2539 11.1069L26.8481 9.51273Z" fill="#CFB596"/>
<path d="M41.0725 23.2852L32.1641 14.6573L40.1426 23.4834C40.722 24.0445 40.7295 24.9715 40.1591 25.5419L40.2503 25.4727C40.1327 25.5903 39.9977 25.677 39.856 25.7457C40.2925 25.81 40.7523 25.6801 41.0888 25.3436C41.6592 24.7734 41.6518 23.8463 41.0725 23.2852Z" fill="white"/>
<path d="M29.5392 12.1192L26.8481 9.51278L25.2539 11.107L27.8602 13.7982L29.5392 12.1192Z" fill="#9A8A73"/>
<path d="M26.8427 7.93942L26.0621 8.71983L24.4679 10.314L23.6875 11.0944L24.4554 11.8872L38.2276 26.1073C38.7151 26.6106 39.3697 26.888 40.0705 26.888C40.7558 26.888 41.4001 26.6211 41.8846 26.1364C42.3747 25.6464 42.6414 24.9949 42.6359 24.3019C42.6304 23.6088 42.3532 22.9617 41.8554 22.4795L27.6353 8.70717L26.8427 7.93942ZM26.8552 9.51274L41.0753 23.2851C41.6547 23.8461 41.6621 24.7733 41.0916 25.3435C40.8094 25.6257 40.4399 25.7664 40.0705 25.7664C39.6934 25.7664 39.3168 25.6197 39.0331 25.327L25.261 11.1069L26.8552 9.51274Z" fill="#3B2F22"/>
<path d="M33.4073 3.45709C29.9355 1.39985 26.0717 1.5304 23.8211 3.78103L23.7755 3.82648L19.5485 8.0535L19.52 8.08218C19.9798 8.78633 19.9176 9.36389 19.311 9.97058C18.7043 10.5771 18.1269 10.6392 17.4226 10.1795L17.3941 10.208L16.1039 11.4981C15.4824 12.1198 15.4929 13.1381 16.1273 13.7726L18.1059 15.7511C18.7403 16.3856 19.7587 16.3961 20.3803 15.7744L21.6704 14.4843L21.6989 14.4558C21.2392 13.7515 21.1148 12.9876 21.7213 12.3809C22.328 11.7743 23.0921 11.8988 23.7963 12.3585L23.8248 12.3299L28.0518 8.10292V8.10276C26.3223 4.78974 29.9105 3.00306 33.1675 4.25519L34.1032 4.53947L34.524 4.11884L33.4073 3.45709Z" fill="#B1B3B1"/>
<path d="M17.8465 13.9318C17.1258 13.1253 17.0211 12.3368 17.6426 11.7152C17.6426 11.7152 18.845 12.3983 20.3178 10.9254C21.6546 9.58867 21.235 8.22476 21.235 8.22476L24.7765 4.73421C26.8916 2.61902 31.1461 2.39009 33.8304 4.17098L34.1997 3.80175L33.083 3.14C29.6113 1.08276 25.7476 1.21331 23.497 3.46378L23.4514 3.50938L19.2243 7.73641L19.1958 7.76509C19.6555 8.46924 19.5934 9.0468 18.9869 9.65334C18.3802 10.26 17.8026 10.3221 17.0985 9.86228L17.0698 9.89095L15.7797 11.1811C15.1582 11.8027 15.1686 12.8209 15.8032 13.4555L17.7816 15.434C18.4162 16.0685 19.1273 16.5977 19.749 15.9759L17.8465 13.9318Z" fill="white"/>
<path d="M33.4073 3.45709C29.9355 1.39985 26.0717 1.5304 23.8211 3.78103L23.7755 3.82648L19.5485 8.0535L19.52 8.08218C19.9798 8.78633 19.9176 9.36389 19.311 9.97058C18.7043 10.5771 18.1269 10.6392 17.4226 10.1795L17.3941 10.208L16.1039 11.4981C15.4824 12.1198 15.4929 13.1381 16.1273 13.7726L18.1059 15.7511C18.7403 16.3856 19.7587 16.3961 20.3803 15.7744L21.6704 14.4843L21.6989 14.4558C21.2392 13.7515 21.1148 12.9876 21.7213 12.3809C22.328 11.7743 23.0921 11.8988 23.7963 12.3585L23.8248 12.3299L28.0518 8.10292V8.10276C26.3223 4.78974 29.9105 3.00306 33.1675 4.25519L34.1032 4.53947L34.524 4.11884L33.4073 3.45709Z" stroke="#3B2F22" stroke-width="0.763061" stroke-miterlimit="10" stroke-linecap="round"/>
<path d="M24.9348 8.90636C24.5229 9.3183 23.746 9.60502 23.3502 9.2091C22.805 8.66402 22.8032 7.78144 23.2151 7.3695C23.627 6.95757 24.2355 7.0056 24.6777 7.34022C25.1218 7.67651 25.3468 8.49443 24.9348 8.90636Z" fill="white"/>
<path d="M24.8268 9.18504C24.4243 9.58768 23.8099 9.62581 23.4544 9.2703C23.099 8.91495 23.1371 8.30048 23.5398 7.898C23.9422 7.49536 24.5567 7.45723 24.9122 7.81274C25.2676 8.16809 25.2295 8.78256 24.8268 9.18504Z" fill="#3B2F22"/>
<path d="M20.7683 22.3812H23.1066C23.4165 22.3812 23.6678 22.13 23.6678 21.8199V19.4816C23.6678 19.1717 23.4165 18.9205 23.1066 18.9205H20.7683C20.4582 18.9205 20.207 19.1717 20.207 19.4816V21.8199C20.207 22.13 20.4582 22.3812 20.7683 22.3812Z" fill="white"/>
<path d="M27.6808 18.9205H25.3425C25.0326 18.9205 24.7812 19.1717 24.7812 19.4816V21.8199C24.7812 22.13 25.0326 22.3812 25.3425 22.3812H27.6808C27.9907 22.3812 28.2421 22.13 28.2421 21.8199V19.4816C28.2421 19.1717 27.9907 18.9205 27.6808 18.9205Z" fill="white"/>
<path d="M20.7683 26.9127H23.1066C23.4165 26.9127 23.6678 26.6614 23.6678 26.3515V24.0132C23.6678 23.7031 23.4165 23.4519 23.1066 23.4519H20.7683C20.4582 23.4519 20.207 23.7031 20.207 24.0132V26.3515C20.207 26.6614 20.4582 26.9127 20.7683 26.9127Z" fill="white"/>
<path d="M27.6808 23.4519H25.3425C25.0326 23.4519 24.7812 23.7031 24.7812 24.0132V26.3515C24.7812 26.6614 25.0326 26.9127 25.3425 26.9127H27.6808C27.9907 26.9127 28.2421 26.6614 28.2421 26.3515V24.0132C28.2421 23.7031 27.9907 23.4519 27.6808 23.4519Z" fill="white"/>
<path d="M10.9648 16.0017H14.4145V18.9641L10.9648 22.1802V16.0017Z" fill="#3B2F22"/>
<path d="M7.3191 34.737H8.45159V36.0447H9.42141V34.737H10.5539V38.3034H9.42141V36.7642H8.45159V38.3034H7.3191V34.737ZM12.9261 38.3847C12.3046 38.3847 11.8374 38.2388 11.5246 37.9468C11.2159 37.6506 11.0616 37.1772 11.0616 36.5265C11.0616 35.8883 11.2326 35.4232 11.5747 35.1312C11.9167 34.8392 12.3693 34.6932 12.9324 34.6932C14.117 34.6932 14.7093 35.2834 14.7093 36.4639C14.7093 37.0604 14.5633 37.5296 14.2714 37.8717C13.9835 38.2137 13.5351 38.3847 12.9261 38.3847ZM12.9011 37.6464C13.0179 37.6464 13.1159 37.6277 13.1952 37.5901C13.2744 37.5484 13.337 37.4775 13.3829 37.3774C13.4705 37.2064 13.5143 36.9269 13.5143 36.539C13.5143 36.1594 13.4705 35.8841 13.3829 35.7131C13.2953 35.5379 13.1347 35.4461 12.9011 35.4378C12.8135 35.4378 12.7217 35.4482 12.6258 35.469C12.534 35.4857 12.4756 35.5108 12.4506 35.5441C12.4006 35.6025 12.3609 35.7277 12.3317 35.9195C12.3067 36.1072 12.2942 36.3137 12.2942 36.539C12.2942 36.8894 12.3276 37.1459 12.3943 37.3086C12.4402 37.4295 12.5048 37.5171 12.5883 37.5714C12.6717 37.6214 12.776 37.6464 12.9011 37.6464ZM19.8061 38.3034H18.7549L18.6736 36.3387C18.661 35.9508 18.6464 35.6568 18.6298 35.4565H18.611C18.5609 35.615 18.5025 35.8611 18.4358 36.1948L18.4045 36.3513L17.9728 38.3034H16.9216L16.5587 36.5452L16.4962 36.2324C16.4086 35.8445 16.3481 35.5858 16.3147 35.4565H16.2959C16.2793 35.6651 16.2647 36.005 16.2521 36.4764C16.248 36.5056 16.2459 36.5515 16.2459 36.6141L16.1896 38.3034H15.1322L15.2823 34.737H17.0718L17.3784 36.2762L17.4535 36.6891C17.4868 36.5598 17.5181 36.4159 17.5473 36.2574L17.8351 34.737H19.6621L19.8061 38.3034ZM20.3269 34.737H22.9235V35.4878H21.4531V36.1385H22.692V36.8143H21.4531V37.5401H22.9172V38.3034H20.3269V34.737Z" fill="#D03C47"/>
<path d="M28.6474 36.4202C28.9311 36.4536 29.1334 36.5495 29.2543 36.708C29.3753 36.8624 29.4358 37.0501 29.4358 37.2711C29.4358 37.4088 29.4149 37.5402 29.3732 37.6653C29.3315 37.7863 29.2814 37.8906 29.223 37.9782C29.1647 38.0616 29.1146 38.1158 29.0729 38.1408C28.906 38.2493 28.3971 38.3035 27.5462 38.3035H26.3324V34.7371H27.8027C28.1364 34.7371 28.4055 34.7559 28.6099 34.7934C28.8184 34.8268 28.9874 34.906 29.1167 35.0312C29.246 35.1522 29.3106 35.3378 29.3106 35.588C29.3106 35.805 29.2564 35.9801 29.148 36.1136C29.0437 36.2471 28.8768 36.3389 28.6474 36.3889V36.4202ZM28.1469 35.4942C28.1052 35.4525 28.0551 35.4275 27.9967 35.4191C27.9425 35.4066 27.8549 35.4003 27.7339 35.4003C27.6129 35.4003 27.5212 35.4024 27.4586 35.4066V36.1699H27.5212C27.542 36.1699 27.6296 36.1699 27.784 36.1699C27.9383 36.1699 28.0405 36.1595 28.0906 36.1387C28.1281 36.122 28.1615 36.0782 28.1907 36.0073C28.224 35.9363 28.2407 35.8592 28.2407 35.7758C28.2407 35.6506 28.2094 35.5568 28.1469 35.4942ZM28.2532 37.584C28.2824 37.559 28.3054 37.5131 28.3221 37.4463C28.3429 37.3754 28.3533 37.3045 28.3533 37.2336C28.3533 37.146 28.3408 37.0647 28.3158 36.9896C28.2949 36.9103 28.2657 36.854 28.2282 36.8206C28.1907 36.7831 28.1364 36.7581 28.0655 36.7456C27.9988 36.7331 27.8841 36.7268 27.7214 36.7268C27.6171 36.7268 27.5295 36.7289 27.4586 36.7331V37.6403C27.6547 37.6445 27.8299 37.6424 27.9842 37.634C28.1385 37.6215 28.2282 37.6048 28.2532 37.584ZM33.2418 34.7371V36.7331C33.2418 37.146 33.1959 37.4693 33.1041 37.7029C33.0165 37.9323 32.8497 38.1012 32.6036 38.2097C32.3575 38.3181 31.9987 38.3724 31.5274 38.3724C31.1812 38.3724 30.8892 38.3369 30.6514 38.266C30.4137 38.1909 30.2239 38.0512 30.082 37.8468C29.9444 37.6424 29.8756 37.3546 29.8756 36.9833V34.7371H31.0018V36.7456C31.0018 36.9666 31.0122 37.1356 31.0331 37.2524C31.0581 37.365 31.1123 37.4526 31.1958 37.5152C31.2792 37.5736 31.4064 37.6028 31.5774 37.6028C31.6817 37.6028 31.7797 37.5923 31.8715 37.5715C31.9633 37.5506 32.0258 37.5193 32.0592 37.4776C32.0968 37.4276 32.1155 37.2461 32.1155 36.9333V34.7371H33.2418ZM33.842 34.7371H34.9682V38.3035H33.842V34.7371ZM35.5891 34.7371H36.7153V37.4776H38.1732V38.3035H35.5891V34.7371ZM39.8286 34.7371C40.3167 34.7371 40.715 34.783 41.0237 34.8748C41.3365 34.9665 41.5785 35.1396 41.7495 35.3941C41.9247 35.6485 42.0123 36.0135 42.0123 36.489C42.0123 36.9979 41.9205 37.3859 41.737 37.6528C41.5534 37.9156 41.3073 38.0908 40.9987 38.1784C40.69 38.2618 40.3 38.3035 39.8286 38.3035H38.5773V34.7371H39.8286ZM40.6671 37.4526C40.7171 37.4025 40.7526 37.2732 40.7734 37.0647C40.7943 36.8561 40.8047 36.6642 40.8047 36.489C40.8047 36.268 40.788 36.0928 40.7547 35.9635C40.7255 35.83 40.6712 35.7236 40.592 35.6444C40.4668 35.5067 40.252 35.4379 39.9475 35.4379C39.8933 35.4379 39.812 35.4421 39.7035 35.4504V37.5277C39.7744 37.536 39.8849 37.5402 40.0351 37.5402C40.1894 37.5402 40.325 37.5339 40.4418 37.5214C40.5628 37.5047 40.6379 37.4818 40.6671 37.4526Z" fill="#3B2F22"/>
<path d="M8.2112 44.3686V43.838L8.27984 44.0198L7.7084 43.0699H8.02752L8.46538 43.799H8.2817L8.72142 43.0699H9.01641L8.44497 44.0198L8.51176 43.838V44.3686H8.2112ZM9.71682 44.3909C9.61416 44.3909 9.51892 44.3742 9.4311 44.3408C9.34452 44.3074 9.26906 44.2604 9.20475 44.1998C9.14166 44.1391 9.09219 44.068 9.05632 43.9864C9.02169 43.9048 9.00437 43.8157 9.00437 43.7192C9.00437 43.6227 9.02169 43.5337 9.05632 43.4521C9.09219 43.3704 9.14228 43.2993 9.2066 43.2387C9.27092 43.1781 9.34637 43.1311 9.43295 43.0977C9.51954 43.0643 9.61354 43.0476 9.71496 43.0476C9.81763 43.0476 9.91163 43.0643 9.99698 43.0977C10.0836 43.1311 10.1584 43.1781 10.2215 43.2387C10.2858 43.2993 10.3359 43.3704 10.3718 43.4521C10.4076 43.5325 10.4256 43.6215 10.4256 43.7192C10.4256 43.8157 10.4076 43.9054 10.3718 43.9882C10.3359 44.0699 10.2858 44.141 10.2215 44.2016C10.1584 44.261 10.0836 44.3074 9.99698 44.3408C9.91163 44.3742 9.81825 44.3909 9.71682 44.3909ZM9.71496 44.1348C9.7731 44.1348 9.82628 44.1249 9.87452 44.1051C9.924 44.0853 9.96729 44.0569 10.0044 44.0198C10.0415 43.9827 10.07 43.9388 10.0897 43.8881C10.1108 43.8373 10.1213 43.7811 10.1213 43.7192C10.1213 43.6574 10.1108 43.6011 10.0897 43.5504C10.07 43.4997 10.0415 43.4558 10.0044 43.4187C9.96853 43.3816 9.92585 43.3531 9.87638 43.3333C9.8269 43.3135 9.7731 43.3036 9.71496 43.3036C9.65683 43.3036 9.60303 43.3135 9.55355 43.3333C9.50531 43.3531 9.46264 43.3816 9.42553 43.4187C9.38842 43.4558 9.35936 43.4997 9.33833 43.5504C9.31854 43.6011 9.30865 43.6574 9.30865 43.7192C9.30865 43.7798 9.31854 43.8361 9.33833 43.8881C9.35936 43.9388 9.38781 43.9827 9.42368 44.0198C9.46078 44.0569 9.50407 44.0853 9.55355 44.1051C9.60303 44.1249 9.65683 44.1348 9.71496 44.1348ZM11.2285 44.3909C11.0442 44.3909 10.9001 44.3395 10.7962 44.2369C10.6923 44.1342 10.6403 43.9876 10.6403 43.7971V43.0699H10.9409V43.786C10.9409 43.9097 10.9662 43.9988 11.0169 44.0532C11.0677 44.1076 11.1388 44.1348 11.2303 44.1348C11.3218 44.1348 11.393 44.1076 11.4437 44.0532C11.4944 43.9988 11.5197 43.9097 11.5197 43.786V43.0699H11.8166V43.7971C11.8166 43.9876 11.7647 44.1342 11.6608 44.2369C11.5569 44.3395 11.4128 44.3909 11.2285 44.3909ZM12.1136 44.3686V43.0699H12.6758C12.7921 43.0699 12.8922 43.089 12.9763 43.1274C13.0605 43.1645 13.1254 43.2183 13.1712 43.2888C13.2169 43.3593 13.2398 43.4434 13.2398 43.5411C13.2398 43.6376 13.2169 43.7211 13.1712 43.7916C13.1254 43.8608 13.0605 43.914 12.9763 43.9511C12.8922 43.9882 12.7921 44.0068 12.6758 44.0068H12.2806L12.4142 43.8751V44.3686H12.1136ZM12.9392 44.3686L12.6146 43.8973H12.9355L13.2639 44.3686H12.9392ZM12.4142 43.9085L12.2806 43.7675H12.6591C12.7519 43.7675 12.8211 43.7477 12.8669 43.7081C12.9126 43.6673 12.9355 43.6116 12.9355 43.5411C12.9355 43.4694 12.9126 43.4137 12.8669 43.3741C12.8211 43.3345 12.7519 43.3148 12.6591 43.3148H12.2806L12.4142 43.1719V43.9085ZM14.0034 44.3686V43.0699H14.6379C14.8012 43.0699 14.9236 43.1008 15.0053 43.1626C15.0881 43.2245 15.1296 43.3061 15.1296 43.4075C15.1296 43.4756 15.1129 43.5349 15.0795 43.5856C15.0461 43.6351 15.0003 43.6735 14.9422 43.7007C14.884 43.7279 14.8173 43.7415 14.7418 43.7415L14.7771 43.6654C14.8587 43.6654 14.931 43.679 14.9941 43.7062C15.0572 43.7322 15.1061 43.7712 15.1407 43.8231C15.1766 43.8751 15.1945 43.9388 15.1945 44.0142C15.1945 44.1255 15.1506 44.2127 15.0628 44.2758C14.975 44.3377 14.8457 44.3686 14.675 44.3686H14.0034ZM14.3021 44.1422H14.6527C14.7307 44.1422 14.7894 44.1299 14.829 44.1051C14.8698 44.0792 14.8902 44.0383 14.8902 43.9827C14.8902 43.9283 14.8698 43.8881 14.829 43.8621C14.7894 43.8349 14.7307 43.8213 14.6527 43.8213H14.2798V43.6023H14.6008C14.6738 43.6023 14.7294 43.59 14.7678 43.5652C14.8074 43.5393 14.8272 43.5003 14.8272 43.4483C14.8272 43.3976 14.8074 43.3599 14.7678 43.3352C14.7294 43.3092 14.6738 43.2962 14.6008 43.2962H14.3021V44.1422ZM15.6985 43.5931H16.3238V43.8268H15.6985V43.5931ZM15.7208 44.1274H16.4277V44.3686H15.4221V43.0699H16.4035V43.311H15.7208V44.1274ZM17.0935 44.3909C16.9896 44.3909 16.8901 44.3772 16.7948 44.35C16.6996 44.3216 16.6229 44.2851 16.5648 44.2406L16.6668 44.0142C16.7225 44.0538 16.788 44.0866 16.8635 44.1126C16.9402 44.1373 17.0175 44.1497 17.0954 44.1497C17.1548 44.1497 17.2024 44.1441 17.2383 44.133C17.2754 44.1206 17.3026 44.1039 17.3199 44.0829C17.3372 44.0618 17.3459 44.0377 17.3459 44.0105C17.3459 43.9759 17.3323 43.9487 17.305 43.9289C17.2778 43.9078 17.242 43.8912 17.1974 43.8788C17.1529 43.8652 17.1034 43.8528 17.049 43.8417C16.9958 43.8293 16.942 43.8145 16.8876 43.7971C16.8344 43.7798 16.7855 43.7576 16.741 43.7304C16.6965 43.7031 16.66 43.6673 16.6316 43.6227C16.6043 43.5782 16.5907 43.5213 16.5907 43.4521C16.5907 43.3778 16.6105 43.3104 16.6501 43.2498C16.6909 43.188 16.7515 43.1391 16.8319 43.1032C16.9136 43.0661 17.0156 43.0476 17.1381 43.0476C17.2197 43.0476 17.3001 43.0575 17.3793 43.0773C17.4584 43.0958 17.5283 43.1243 17.5889 43.1626L17.4961 43.3908C17.4355 43.3562 17.3749 43.3308 17.3143 43.3148C17.2537 43.2974 17.1943 43.2888 17.1362 43.2888C17.0781 43.2888 17.0305 43.2956 16.9933 43.3092C16.9562 43.3228 16.9296 43.3407 16.9136 43.363C16.8975 43.384 16.8894 43.4088 16.8894 43.4372C16.8894 43.4706 16.9031 43.4978 16.9303 43.5188C16.9575 43.5386 16.9933 43.5547 17.0379 43.5671C17.0824 43.5795 17.1313 43.5918 17.1844 43.6042C17.2389 43.6166 17.2927 43.6308 17.3459 43.6469C17.4003 43.6629 17.4498 43.6846 17.4943 43.7118C17.5388 43.739 17.5747 43.7749 17.6019 43.8194C17.6303 43.8639 17.6446 43.9202 17.6446 43.9882C17.6446 44.0612 17.6242 44.128 17.5833 44.1886C17.5425 44.2492 17.4813 44.2981 17.3997 44.3352C17.3193 44.3723 17.2172 44.3909 17.0935 44.3909ZM18.1009 44.3686V43.3148H17.6853V43.0699H18.817V43.3148H18.4014V44.3686H18.1009ZM19.5042 44.3686V43.0699H20.0663C20.1826 43.0699 20.2828 43.089 20.3669 43.1274C20.451 43.1645 20.516 43.2183 20.5617 43.2888C20.6075 43.3593 20.6304 43.4434 20.6304 43.5411C20.6304 43.6376 20.6075 43.7211 20.5617 43.7916C20.516 43.8621 20.451 43.9165 20.3669 43.9549C20.2828 43.992 20.1826 44.0105 20.0663 44.0105H19.6712L19.8047 43.8751V44.3686H19.5042ZM19.8047 43.9085L19.6712 43.7656H20.0496C20.1424 43.7656 20.2117 43.7458 20.2574 43.7062C20.3032 43.6667 20.3261 43.6116 20.3261 43.5411C20.3261 43.4694 20.3032 43.4137 20.2574 43.3741C20.2117 43.3345 20.1424 43.3148 20.0496 43.3148H19.6712L19.8047 43.1719V43.9085ZM20.609 44.3686L21.1879 43.0699H21.4847L22.0655 44.3686H21.7501L21.2751 43.222H21.3938L20.917 44.3686H20.609ZM20.8985 44.0903L20.9782 43.8621H21.6462L21.7278 44.0903H20.8985ZM22.2002 44.3686V43.0699H22.7624C22.8786 43.0699 22.9788 43.089 23.0629 43.1274C23.1471 43.1645 23.212 43.2183 23.2578 43.2888C23.3035 43.3593 23.3264 43.4434 23.3264 43.5411C23.3264 43.6376 23.3035 43.7211 23.2578 43.7916C23.212 43.8608 23.1471 43.914 23.0629 43.9511C22.9788 43.9882 22.8786 44.0068 22.7624 44.0068H22.3672L22.5008 43.8751V44.3686H22.2002ZM23.0258 44.3686L22.7012 43.8973H23.0221L23.3505 44.3686H23.0258ZM22.5008 43.9085L22.3672 43.7675H22.7457C22.8384 43.7675 22.9077 43.7477 22.9535 43.7081C22.9992 43.6673 23.0221 43.6116 23.0221 43.5411C23.0221 43.4694 22.9992 43.4137 22.9535 43.3741C22.9077 43.3345 22.8384 43.3148 22.7457 43.3148H22.3672L22.5008 43.1719V43.9085ZM23.8154 44.3686V43.3148H23.3998V43.0699H24.5316V43.3148H24.116V44.3686H23.8154ZM24.6933 44.3686V43.0699H24.9419L25.7082 44.0049H25.5876V43.0699H25.8845V44.3686H25.6377L24.8696 43.4335H24.9902V44.3686H24.6933ZM26.4682 43.5931H27.0934V43.8268H26.4682V43.5931ZM26.4904 44.1274H27.1973V44.3686H26.1917V43.0699H27.1732V43.311H26.4904V44.1274ZM27.4365 44.3686V43.0699H27.9986C28.1149 43.0699 28.2151 43.089 28.2992 43.1274C28.3833 43.1645 28.4483 43.2183 28.494 43.2888C28.5398 43.3593 28.5627 43.4434 28.5627 43.5411C28.5627 43.6376 28.5398 43.7211 28.494 43.7916C28.4483 43.8608 28.3833 43.914 28.2992 43.9511C28.2151 43.9882 28.1149 44.0068 27.9986 44.0068H27.6035L27.737 43.8751V44.3686H27.4365ZM28.2621 44.3686L27.9374 43.8973H28.2584L28.5868 44.3686H28.2621ZM27.737 43.9085L27.6035 43.7675H27.9819C28.0747 43.7675 28.144 43.7477 28.1897 43.7081C28.2355 43.6673 28.2584 43.6116 28.2584 43.5411C28.2584 43.4694 28.2355 43.4137 28.1897 43.3741C28.144 43.3345 28.0747 43.3148 27.9819 43.3148H27.6035L27.737 43.1719V43.9085Z" fill="#3B2F22"/>
</svg>
