<svg width="426" height="330" viewBox="0 0 426 330" fill="none" xmlns="http://www.w3.org/2000/svg">
<g clip-path="url(#clip0_216_459)">
<mask id="mask0_216_459" style="mask-type:luminance" maskUnits="userSpaceOnUse" x="0" y="0" width="426" height="330">
<path d="M425.26 0H0V329.635H425.26V0Z" fill="white"/>
</mask>
<g mask="url(#mask0_216_459)">
<g opacity="0.2">
<path d="M0 173.15C0 172.857 0.02 172.557 0.06 172.25C0.385159 170.049 0.914099 167.883 1.64 165.78C1.89 164.95 1.87 164.23 2.06 163.41C2.37 162.07 1.84 162.48 3.23 162C4.60857 161.687 5.85396 160.949 6.79 159.89C8.08 158.67 9.54 158.6 11.28 158.52C12.77 158.45 13.92 159.18 15.28 159.13C17.08 159.07 17.51 157.51 18.85 156.99C20.36 156.4 22.03 157.29 23.3 157.76C24.57 158.23 26.57 157.21 27.61 157.9C28.81 158.7 28.27 160.58 28.61 161.77C28.79 162.48 29.2 162.97 29.34 163.77C29.48 164.57 29.1 165.26 29.18 165.92C29.37 167.63 30.79 167.92 32.18 167.13C33.57 166.34 34.06 164.49 34.18 163C34.31 160.86 33.06 159.33 32.8 157.5C32.37 154.5 36.12 154.71 37.71 153.57C39.3 152.43 39.84 149.89 41.71 148.82C43.27 147.93 45.23 147.74 46.18 145.91C47.04 144.24 44.74 139.21 47.58 138.53C48.51 138.31 48.84 139.29 49.7 139.17C50.56 139.05 51.62 137.48 52.16 136.86C52.6358 136.225 53.2557 135.713 53.9686 135.365C54.6815 135.017 55.4669 134.844 56.26 134.86C58.11 134.68 59.84 134.21 60.73 132.41C61.06 131.75 60.89 130.9 61.27 130.26C62.03 129.02 62.2 129.7 63.38 129.36C65.31 128.81 66.88 127.21 68.92 126.56C69.86 126.26 72.7 125.19 73.23 126.08C74.14 127.58 70.54 127.08 70.03 128.32C68.78 131.32 74.24 127.76 74.75 127.55C76.31 126.93 80.15 127.35 79.5 124.49C78.6165 124.448 77.7314 124.529 76.87 124.73C75.43 125.02 75.81 125.25 74.95 124.31C73.84 123.1 73.77 121.95 74.76 120.82C76.07 119.34 76.83 118.82 73.99 118.54C73.1288 118.413 72.2508 118.465 71.41 118.69C71.02 118.83 69.72 119.98 69.41 119.89C67.46 119.4 70.49 117.39 71.12 117.08C72.6672 116.464 74.2929 116.066 75.95 115.9C78.95 115.38 82.86 117.68 85.66 116.09C86.38 115.68 86.71 115.01 87.42 114.57C88.2105 114.219 89.0303 113.938 89.87 113.73C91.27 113.21 93.1 112.55 93.39 110.86C93.92 107.75 89.64 108.92 87.88 108.69C88.04 108.19 88.97 107.64 89.06 107.16C89.26 106.1 88.53 106.11 88.06 105.32C87.12 103.76 87.8 102.32 88.22 100.81C88.64 99.3 88.22 97.32 86.8 96.81C84.8 96.06 84.17 98.21 82.93 99.08C82.13 99.63 80.24 100.13 79.54 99.08C78.95 98.24 79.24 96.01 78.81 95C77.91 92.85 77.11 92.72 74.81 92.5C73.3754 92.3048 71.9247 92.2546 70.48 92.35C68.95 92.5 67.72 93.16 67.48 94.79C67.36 95.47 67.81 96.11 67.48 96.79C67.15 97.47 65.88 97.51 65.19 97.85C63.19 98.85 64.61 99.53 64.87 101.24C65.13 102.95 63.87 104.24 62.41 105.04C61.2333 105.597 60.1477 106.328 59.19 107.21C58.57 107.79 58.01 107.89 57.63 108.75C57.25 109.61 57.42 110.26 56.88 111.04C56.05 112.21 54.88 114.04 53.19 113.64C52.5578 113.449 52.0188 113.031 51.6771 112.465C51.3354 111.9 51.2153 111.229 51.34 110.58C51.5 109.21 52.76 107.99 52.42 106.46C52 104.62 50.11 105.06 48.61 104.62C46.8658 104.039 45.2127 103.215 43.7 102.17C42.26 101.27 40.47 101.58 39.97 99.72C38.97 96.12 42.97 95.21 45.35 94.1C46.94 93.38 49.08 92.95 50.35 91.65C51.62 90.35 50.88 89.72 52.76 89.65C55.14 89.54 58.87 89.16 60.63 87.35C59.89 86.74 58.25 86.77 58.63 85.35C59.8051 85.3609 60.98 85.3108 62.15 85.2C63.4974 84.8427 64.878 84.6248 66.27 84.55C67.76 84.61 70.47 85.02 71.53 83.65C72.1 82.9 72.19 80.94 72.12 79.99C70.99 79.88 69.89 79.13 68.77 79.7C67.65 80.27 67.56 81.59 66.66 82.14C64.85 83.26 63.53 82.06 63.82 80.3C62.46 80.23 60.82 80.55 60.3 79.05C59.8 77.71 61.21 76.05 59.3 75.84C57.81 75.64 55.7 76.97 55.52 78.44C55.31 80.22 56.11 81.31 53.52 81.95C51.9999 82.3475 50.5303 82.9179 49.14 83.65C47.29 84.52 47.14 83.24 45.5 82.87C44.4365 82.7547 43.3618 82.7951 42.31 82.99C41.73 83.04 40.31 83.62 39.84 83.47C39.13 83.24 39.37 82.4 38.31 82.41C37.5516 82.6532 36.8261 82.9891 36.15 83.41C35.15 83.96 33.4 85.93 32.21 85.25C31.02 84.57 31.54 82.89 29.98 82.39C28.61 81.95 26.98 83.01 25.63 82.48C24.63 82.06 25.11 81.55 24.51 81.01C23.63 80.2 22.25 80.52 21.08 80.17C19.7701 79.7283 18.4342 79.3676 17.08 79.09C13.9353 78.6274 10.758 78.4234 7.58 78.48C5.98 78.48 5.42 79.36 4.05 79.9C2.82346 80.295 1.54786 80.5171 0.26 80.56L0 173.15Z" fill="#969696"/>
<path d="M115.17 231.35C114.57 229.67 113.45 230.49 112.09 230.1C109.21 229.29 109.4 225.21 106.29 224.79C105.01 224.61 103.66 224.94 102.39 224.79C100.771 224.63 99.1394 224.63 97.52 224.79C97.78 222.89 95.37 221.79 94 221.16C93.21 220.76 93.58 220.65 92.54 220.8C92.0688 220.931 91.6128 221.112 91.18 221.34C90.2647 221.73 89.3987 222.227 88.6 222.82C88.37 221.65 89.44 220.93 89.17 219.82C85.51 218.28 84.01 221.04 81.54 222.98C80.83 221.32 81.8 220.7 82.93 219.67C83.3614 219.363 83.7214 218.966 83.9855 218.507C84.2495 218.048 84.4114 217.537 84.46 217.01C84.84 214.69 83.57 212.12 82.94 209.9C82.37 207.9 81.56 208.02 79.67 208.02C78.331 208.098 76.9876 208.011 75.67 207.76C70.8 206.55 69.07 201.3 64.6 199.76C62.4498 199.066 60.2406 198.571 58 198.28C56.9479 198.092 55.9116 197.825 54.9 197.48C53.41 197.01 53.01 196.09 51.98 195.21C50.95 194.33 49.98 194.57 48.71 194.98C47.85 195.27 45.14 196.54 46.88 197.38C47.1451 198.155 47.1451 198.995 46.88 199.77C46.32 200.77 45.09 200.52 44.6 201.35C44.037 200.907 43.6379 200.289 43.4658 199.593C43.2937 198.898 43.3586 198.165 43.65 197.51C44.1 196.23 45.73 195.31 45.65 193.86C44.23 193.59 43.26 195.13 42.13 195.64C40.9658 196.041 39.8544 196.582 38.82 197.25C38.3438 197.571 37.9161 197.958 37.55 198.4C37.19 198.91 37.13 199.69 36.67 200.15C36.2057 200.479 35.6656 200.686 35.1 200.75C33.9 200.99 34.56 201.11 33.53 200.42C32.03 199.42 31.87 199.54 30.19 199.96C28.8985 200.26 27.6235 200.628 26.37 201.06C25.49 201.38 26.28 202.06 24.99 201.33C24.4461 200.891 23.9797 200.363 23.61 199.77C23.1333 199.246 22.7735 198.626 22.5546 197.952C22.3356 197.277 22.2625 196.565 22.34 195.86C22.48 194.44 22.91 193.11 23.12 191.7C23.29 190.59 23.98 188.56 23.46 187.54C21.97 184.6 17.7 187.62 15.57 186.77C13.75 186.03 15.03 185.1 16.04 183.94C17.31 182.49 17.19 181.94 17.58 180.23C17.85 179.04 19.58 177.85 19.7 176.68C19.81 175.13 16.94 173.93 15.77 173.58C14.21 173.11 12.2 173.44 11.47 175.03C10.66 176.78 11.86 177.59 9.89 178.9C8.77206 179.673 7.54065 180.266 6.24 180.66C4.13 181.2 2.69 181.44 1.63 179.5C0.603506 177.747 0.0423925 175.761 0 173.73V186.57C1.47 186.25 2.83 186.03 4.4 187.27C5.2 187.91 5.55 188.6 6.24 189.27C7.24 190.16 9.66 192.02 10.96 192.22C12.06 192.39 13.45 191.88 14.51 192.22C16.12 192.71 15.93 193.97 16.38 195.22C16.83 196.47 17.88 197.22 18.38 198.32C18.88 199.42 18.86 200.32 20.06 201.19C21.06 201.94 22.4 202.42 23.44 203.19C24.48 203.96 25.98 205.87 27.44 205.19C28.66 204.62 28.32 202.8 28.38 201.68C29.73 201.61 31.08 201.44 32.17 202.23C33.26 203.02 33.17 204.45 33.86 205.68C35.4 208.46 34.47 211.32 32.62 213.74C30.8762 215.771 29.3355 217.968 28.02 220.3C27.5839 220.943 27.3189 221.686 27.25 222.46C27.17 223.78 27.72 223.35 28.09 224.28C28.56 225.47 27.63 226.71 27.14 227.81C26.55 229.1 25.63 231.81 27.87 232.11C27.87 232.11 29.51 234.21 29.61 234.37C30.128 235.467 30.4366 236.65 30.52 237.86C30.9011 239.632 31.6284 241.31 32.66 242.8C33.53 244.25 33.75 245.8 34.54 247.22C35.23 248.46 36.32 249.61 37.07 250.86C38.13 252.62 38.15 252.94 40.18 253.03C42.44 253.14 43.04 253.92 44.76 255.3C48.29 258.11 50.99 259.98 49.83 264.5C48.836 268.698 49.0194 273.089 50.36 277.19C50.836 279.183 51.0975 281.221 51.14 283.27C51.23 284.21 51.14 285.16 51.25 286.1C51.36 287.04 51.94 287.95 52.06 288.86C52.29 290.48 51.93 292.47 52.06 294.16C52.0917 294.885 52.1955 295.605 52.37 296.31C52.54 296.98 53.23 297.89 53.3 298.44C53.54 300.07 52.3 300.66 53.15 302.39C53.46 303.03 53.88 303.62 54.22 304.29C54.56 304.96 54.54 305.67 54.85 306.39C55.45 307.78 56.71 307.95 56.99 309.46C57.2408 310.717 57.3415 311.999 57.29 313.28C57.06 314.04 55.01 314.98 55.59 316.19C55.85 316.74 57.04 316.55 57.59 317.03C58.0123 317.594 58.2997 318.247 58.43 318.94C59.26 322.16 59.12 326.56 62.68 328.12C65.33 329.29 69.25 331.19 70.38 327.34C70.84 325.76 69.98 324.29 70.22 322.76C70.46 321.23 72.61 319.98 72.68 318.3C72.75 316.62 70.57 315.58 70.37 313.89C70.17 312.2 71.79 311.12 71.6 309.46C71.37 307.46 69.33 306.22 69.32 303.97C70.58 304.09 71.11 305.97 72.53 304.42C73.15 303.75 72.74 302.61 73.16 302.04C73.78 301.21 74.56 301.61 75.49 301.51C78.14 301.21 82.66 298.23 81.1 294.93C80.77 294.22 78.1 292.08 79.9 291.75C80.18 291.69 81.63 292.56 82.08 292.64C82.964 292.854 83.8909 292.809 84.75 292.51C86.57 291.87 87.93 289.91 88.62 288.16C88.9264 286.992 89.6345 285.968 90.62 285.27C93.34 283.02 93.84 279.8 93.62 276.46C93.43 273.38 92.94 270.46 97.09 270.01C97.8189 270.027 98.5456 269.922 99.24 269.7C99.913 269.295 100.64 268.989 101.4 268.79C103.52 268.39 103.75 267.92 104.74 266.03C105.47 264.62 106.31 263.22 106.93 261.71C107.78 259.71 107.6 258.02 107.88 255.86C108.1 254.18 108.6 252.62 108.74 250.93C108.88 249.24 108.46 247.66 109.57 246.31C110.68 244.96 111.92 244.56 112.73 242.94C114.03 240.33 115.23 238.58 115.23 235.6C115.17 234.4 115.57 232.42 115.17 231.35Z" fill="#969696"/>
<path d="M24.5002 171.98C24.1502 172.16 22.4202 173.18 22.8602 173.75C23.4202 174.51 25.0102 173.48 25.5502 173.12C27.4302 171.92 29.0402 172.87 30.8902 173.52C31.7429 173.719 32.557 174.057 33.3002 174.52C33.7102 174.84 34.7402 175.58 34.8802 176.05C35.1202 176.92 33.7102 176.84 34.1002 177.81C34.4902 178.78 36.4702 178.53 37.2402 178.49C37.8415 178.42 38.4489 178.42 39.0502 178.49C39.8302 178.64 40.3602 178.99 41.1602 178.79C41.3202 178.3 41.8802 177.72 41.7902 177.2C41.7002 176.68 40.6502 176.29 40.1602 176.07C38.9531 175.61 37.7714 175.086 36.6202 174.5C35.573 173.713 34.443 173.042 33.2502 172.5C31.5502 171.95 29.8702 171.96 28.1402 171.5C27.1402 171.24 27.0302 171.5 26.1402 171.75C25.5727 171.792 25.0083 171.869 24.4502 171.98" fill="#969696"/>
<path d="M44.9388 177.94C44.0688 177.77 44.5888 178.94 44.6988 179.3C44.8988 179.88 45.1888 180.3 44.2388 180.46C43.5988 180.6 42.6788 180.22 42.0888 180.54C41.4988 180.86 41.5288 181.61 42.2188 181.84C43.2788 182.2 44.7488 181.34 45.8388 181.47C46.2088 181.47 46.2788 181.77 46.4988 181.83C46.8947 181.865 47.2929 181.865 47.6888 181.83C48.4477 181.97 49.2237 181.99 49.9888 181.89C50.4188 181.75 51.2488 180.7 50.4888 180.61C51.6588 180.86 51.1288 179.89 50.6388 179.42C49.8588 178.68 49.2188 178.77 48.1388 178.77C47.0588 178.77 45.6988 178.83 44.9388 178.16" fill="#969696"/>
<path d="M35.7898 180.92C35.369 180.812 34.9289 180.803 34.5039 180.893C34.079 180.983 33.6806 181.17 33.3398 181.44C33.6098 181.53 33.9098 181.5 34.1798 181.61C34.4498 181.72 34.5798 182 34.7898 182.2C35.0324 182.402 35.3193 182.543 35.6269 182.612C35.9345 182.682 36.2542 182.678 36.5598 182.6C37.2398 182.53 37.5598 182.24 36.8098 181.68C36.0598 181.12 35.6098 181.68 35.6398 180.68" fill="#969696"/>
<path d="M56.0795 181C55.0795 180.61 54.5995 181 54.0195 181.76C54.2695 182.34 54.6395 182.01 55.0795 182.14C55.5195 182.27 55.8295 182.59 56.3795 182.59C57.3795 182.59 58.2095 182.34 58.0595 181.16C56.9995 181.08 56.7595 181.79 55.7695 181.16" fill="#969696"/>
<path d="M89.921 115.02C87.921 115.09 87.4611 118.02 86.3411 119.16C85.8611 119.63 84.101 120.21 85.431 120.67C86.521 121.03 87.811 119.95 89.031 120.17C90.031 120.36 90.551 121.03 91.651 120.87C92.461 120.75 93.9711 119.87 93.8411 118.87C93.6711 117.48 92.151 118.22 91.311 117.7C90.9295 117.391 90.6822 116.947 90.621 116.46C90.481 115.65 90.811 115.84 90.961 115.19C91.071 114.73 91.621 114.39 90.531 114.31C89.821 114.31 89.681 114.62 89.351 115.2" fill="#969696"/>
<path d="M77.481 87.5C76.361 87.76 74.3409 86.79 73.3309 87.37C73.2068 87.4187 73.0987 87.5008 73.0185 87.6073C72.9384 87.7138 72.8894 87.8404 72.8769 87.9731C72.8645 88.1058 72.8891 88.2393 72.9481 88.3588C73.007 88.4783 73.098 88.5791 73.2109 88.65C73.7109 88.96 74.921 88.37 75.411 88.3C76.5711 88.0976 77.7654 88.2583 78.8309 88.76C79.7309 89.37 79.9709 90.76 80.8309 91.6C81.3432 92.1113 81.9563 92.5104 82.6312 92.7721C83.306 93.0338 84.0278 93.1523 84.7509 93.12C85.3009 93.12 86.4009 93.23 86.1709 92.31C86.0309 91.75 84.7709 91.93 84.4709 91.49C84.3096 90.9584 84.3307 90.3882 84.5309 89.87C85.2109 89.25 86.0409 90.3 86.5309 90.52C87.3209 90.87 89.2109 90.97 89.5309 89.79C89.7009 89.12 89.231 88.93 88.981 88.42C88.6416 87.8687 88.4809 87.2261 88.5209 86.58C88.5209 83.27 91.8309 85.82 93.5209 86.27C94.8109 86.62 96.5209 85.36 95.5209 84.05C94.8709 83.28 93.1909 83.32 92.4009 82.4C91.8709 81.8607 91.5456 81.1534 91.481 80.4C91.481 79.83 92.1709 79.52 92.1809 79.15C92.1809 78.3 90.4909 77.57 89.7509 77.43C88.5509 77.19 87.8809 77.55 87.1309 76.43C86.3809 75.31 86.4409 74.67 84.7109 74.93C83.5952 75.2599 82.4029 75.2213 81.3109 74.82C80.1909 74.28 79.7509 73.32 78.3109 73.1C76.8709 72.88 76.4209 73.21 75.3109 73.99C74.7409 74.39 72.9309 75.46 72.2009 74.99C71.0509 74.18 73.5709 73.28 73.5909 72.92C73.6509 71.82 71.1909 72.92 70.7209 73.15C69.5109 73.68 68.431 74.55 67.191 75.15C65.781 75.76 65.1909 76.32 66.7009 77.07C67.7952 77.4801 68.9655 77.6472 70.1309 77.56C71.3031 77.6906 72.4681 77.8809 73.621 78.13C74.761 78.32 75.2409 79 76.2409 79.25C77.5609 79.59 78.2409 78.25 79.3509 78.02C80.4609 77.79 81.8709 78.82 82.5709 79.61C83.2709 80.4 83.4309 81.33 84.1809 81.89C84.7009 82.26 85.421 82.38 85.941 82.81C86.771 83.49 87.3209 84.44 86.7209 85.38C86.1209 86.32 85.3309 85.91 84.5409 85.47C83.8815 84.9747 83.0853 84.6953 82.261 84.67C81.807 84.6602 81.3552 84.7383 80.9309 84.9C80.5027 85.1702 80.1212 85.5079 79.801 85.9C79.1971 86.6448 78.3917 87.2002 77.481 87.5Z" fill="#969696"/>
<path d="M25.4096 71.8C25.1196 71.96 24.7796 72.06 24.4996 72.22C24.0096 72.51 23.6296 72.97 23.0996 73.22C22.5696 73.47 21.8896 73.59 21.2996 73.86C20.4296 74.26 19.8096 75.12 18.8496 75.34C19.0595 75.7153 19.3811 76.0158 19.7696 76.2C20.029 76.2248 20.2902 76.2248 20.5496 76.2C20.7496 76.2 20.9596 76.34 21.1396 76.36C21.3196 76.38 21.4696 76.36 21.6596 76.13C21.8496 75.9 21.8896 75.6 22.1096 75.4C22.5088 75.1316 22.9935 75.0211 23.4696 75.09C24.1238 75.1413 24.7792 75.0061 25.3596 74.7C26.0075 74.362 26.6966 74.1099 27.4096 73.95C28.1296 73.74 28.8096 73.44 29.5296 73.2C30.5418 72.9893 31.5782 72.9186 32.6096 72.99C32.9996 72.99 34.3896 72.9 34.3696 72.37C34.3696 71.52 32.0396 71.69 31.5496 71.57C31.0054 71.4445 30.468 71.291 29.9396 71.11C29.4258 70.9496 28.8862 70.8885 28.3496 70.93C27.9841 70.8895 27.6152 70.8895 27.2496 70.93C26.9296 71.01 26.6596 71.21 26.3396 71.3C26.0064 71.4192 25.6929 71.5878 25.4096 71.8Z" fill="#969696"/>
<path d="M28.0711 74.76C27.5411 75.15 27.9511 75.22 28.3711 75.34C28.7911 75.46 29.4311 75.56 29.6711 75.96C30.0611 76.6 29.2011 76.72 28.6711 76.76C28.3811 76.76 27.2611 76.5 27.2111 76.99C27.1611 77.48 29.0411 77.08 29.4411 77.14C29.8411 77.2 30.2511 77.6 30.0111 77.98C29.8911 78.18 28.9411 78.1 28.7611 78.1C28.2456 78.0502 27.7265 78.0502 27.2111 78.1C27.0852 78.1005 26.9608 78.1276 26.8462 78.1797C26.7316 78.2317 26.6293 78.3075 26.5461 78.402C26.4629 78.4965 26.4008 78.6076 26.3637 78.7279C26.3266 78.8483 26.3155 78.9751 26.3311 79.1C26.3311 80.79 28.7011 80 29.7511 80.37C30.5211 80.65 30.9211 81.48 31.7511 81.63C32.7511 81.84 34.5511 81.63 35.0611 80.63C35.2511 80.24 35.1411 79.77 35.5511 79.51C35.9611 79.25 36.8511 79.38 37.3711 79.38C38.1311 79.38 38.8411 79.24 39.6211 79.27C39.7435 79.2612 39.8664 79.2799 39.9806 79.3249C40.0949 79.3699 40.1975 79.44 40.2811 79.53C40.7537 79.8863 41.285 80.157 41.8511 80.33C42.8099 80.5891 43.8304 80.4896 44.7211 80.05C45.2011 79.83 45.7211 79.49 46.1311 79.22C46.4011 79.06 46.9111 78.85 46.9211 78.49C46.9211 77.62 45.1011 77.72 44.6311 77.23C44.1611 76.74 44.6311 75.7 45.0911 75.23C45.3211 74.97 45.6611 74.77 45.8711 74.5C46.0811 74.23 46.3211 73.61 46.1611 73.35C46.0011 73.09 45.1611 73.15 44.8211 73.16C44.5862 73.1497 44.3524 73.1982 44.1411 73.3013C43.9298 73.4043 43.7476 73.5586 43.6111 73.75C43.2011 74.31 43.2811 75.75 42.2111 75.45C41.6011 75.31 41.4011 74.74 41.3511 74.18C41.3511 74.06 41.4111 73.8 41.3511 73.69C41.2911 73.58 40.7211 73.38 40.4811 73.48C40.2411 73.58 39.9611 73.89 39.6611 74.02C39.4261 74.1572 39.1689 74.252 38.9011 74.3C38.2085 74.2421 37.5315 74.0627 36.9011 73.77C36.5611 73.65 36.2711 73.42 35.9011 73.32C35.3548 73.2495 34.8007 73.2698 34.2611 73.38C33.9256 73.4251 33.6044 73.5447 33.3211 73.73C32.6806 73.9586 31.9932 74.0239 31.3211 73.92C30.7293 73.8336 30.1254 73.9424 29.6011 74.23C29.358 74.3505 29.0986 74.4347 28.8311 74.48C28.5672 74.5418 28.3119 74.6358 28.0711 74.76Z" fill="#969696"/>
<path d="M115.63 60.89C113.06 61.47 110.75 63.02 108.08 63.51C106.136 63.7117 104.203 64.0154 102.29 64.42C101.22 64.73 99.5905 65.88 100.58 67.17C101.7 68.63 106.29 67.49 108.11 67.77C110.165 68.3067 112.018 69.433 113.44 71.01C114.57 72.23 114.84 74.67 114.94 76.29C115.12 79.08 112.6 80.94 111.25 82.94C109.11 86.11 112.74 90.32 113.25 93.44C113.51 95.17 115.59 95.73 117.32 95.27C118.766 94.6856 120.079 93.8148 121.18 92.71C122.94 91.2 122.93 88.98 124.92 87.61C126.91 86.24 128.92 85.98 131.23 85.53C136.41 84.53 140.62 80.6 145.96 80.62C148.2 80.62 150.52 80.98 152.88 80.85C154.24 80.77 155.39 80.07 153.59 79.27C152.2 78.65 150.89 78.84 150.91 76.86C150.91 75.21 152.17 75.43 153.38 76.03C154.16 76.42 156.12 78.25 157.14 77.61C158.71 76.61 156.57 75.61 155.9 75.35C154.9 74.89 153.33 74.35 153.71 73.05C154.14 71.47 157.35 71.45 158.71 70.96C160.253 70.4527 161.587 69.4554 162.51 68.12C163.35 66.72 162.82 65.18 163.28 63.76C164.16 61.11 168.34 62.45 170.06 60.9C170.77 60.26 170.87 60.29 169.92 59.97C168.6 59.53 166.76 60.24 165.4 60.33C163.33 60.45 163.5 59.55 161.94 58.6C160.38 57.65 157.28 58.14 155.31 58.14C153.207 58.0473 151.101 58.1915 149.03 58.57C146.03 59.25 143.26 60.9 140.03 60.89C137.34 60.89 134.7 60.21 131.98 60.46C128.497 60.6799 125.003 60.6799 121.52 60.46C119.68 60.38 117.17 60.24 115.52 61.03" fill="#969696"/>
<path d="M171.13 105.35C170.56 105.25 170.36 104.74 169.7 104.79C169.134 104.898 168.589 105.101 168.09 105.39C167.049 105.7 165.941 105.7 164.9 105.39C164.637 105.296 164.355 105.264 164.078 105.297C163.8 105.33 163.534 105.427 163.3 105.58C162.924 105.923 162.46 106.155 161.96 106.25C161.422 106.27 160.912 106.5 160.54 106.89C160.31 107.11 159.35 107.6 159.67 108.02C159.87 108.28 160.1 108.02 160.29 107.97C160.66 107.88 160.66 107.76 161.1 107.91C161.618 108.186 162.101 108.521 162.54 108.91C163.54 109.58 164.79 109.14 165.71 108.64C166.31 108.31 166.62 108.44 167.31 108.34C167.874 108.198 168.418 107.986 168.93 107.71C169.44 107.49 170.23 107.55 170.61 107.12C170.81 106.89 170.79 106.61 171.01 106.38C171.23 106.15 171.62 106.19 171.71 106.06L171.83 105.93C171.62 105.73 171.24 105.36 170.95 105.35" fill="#969696"/>
<path d="M171.929 107.17C171.309 106.86 170.839 107.76 170.489 108.11C170.139 108.46 169.319 108.52 169.339 109C169.339 109.7 170.229 109.39 169.629 110.27C169.224 110.696 168.908 111.2 168.699 111.75C168.599 112.32 168.609 113.07 169.329 113.02C170.049 112.97 170.249 112.02 170.949 111.93C172.059 111.77 173.499 112.71 174.439 111.76C174.738 111.477 174.952 111.117 175.058 110.72C175.164 110.323 175.158 109.904 175.039 109.51C174.709 108.84 173.799 108.59 173.139 108.21C172.669 107.94 172.399 107.13 171.819 107.21" fill="#969696"/>
<path d="M173.721 106.35C173.391 106.35 172.901 106.23 172.721 106.53C173.108 106.976 173.536 107.385 174.001 107.75C174.461 108.06 175.511 108.35 175.321 107.35C174.651 107.35 174.991 106.7 175.531 106.76C175.591 105.84 173.801 106.83 173.711 106.25" fill="#969696"/>
<path d="M176.68 101.88C176.37 102.42 176.77 103.28 177.12 103.72C177.29 103.94 177.44 103.85 177.52 104.18C177.6 104.51 177.3 104.82 177.3 105.18C177.3 106.04 178.1 105.96 178.72 106.1C179.34 106.24 179.41 106.47 179.84 106.91C180.27 107.35 180.37 107.68 180.35 108.5C180.35 109.07 180.35 109.75 179.66 109.99C178.97 110.23 178.66 109.92 178.14 110.51C177.89 110.8 177.93 111.08 177.81 111.43C177.63 111.94 177.3 112.11 176.95 112.43C177.63 112.67 179.95 112.61 179.38 113.81C179.1 114.42 178.38 114.5 177.81 114.6C177.24 114.7 176.24 115.01 176.08 115.46C175.85 116.09 177.42 115.89 177.8 115.81C178.911 115.443 179.994 114.995 181.04 114.47C181.887 114.26 182.772 114.26 183.62 114.47C184.768 114.505 185.899 114.176 186.85 113.53C187.1 113.33 187.46 113.04 187.38 112.68C187.3 112.32 186.99 112.37 186.84 112.16C186.37 111.47 187.43 111.33 187.21 110.64C186.99 109.95 186.35 110.38 185.88 110.34C185.08 110.26 184.79 109.42 184.54 108.75C184.21 107.88 184.23 106.67 183.69 105.93C183.186 105.42 182.542 105.072 181.84 104.93C181.51 104.82 180.72 104.72 180.52 104.43C180.04 103.75 181.14 103.43 181.38 102.99C181.8 102.22 180.88 102.14 180.38 102.09C180.06 102.09 179.74 102.09 179.54 101.82C179.34 101.55 179.39 100.93 179.14 100.82C178.89 100.71 178.45 100.91 178.26 100.97C177.644 101.083 177.086 101.404 176.68 101.88Z" fill="#969696"/>
<path d="M425.199 92.82V79.1C424.749 79.03 424.299 78.95 423.869 78.84C424.519 79.17 424.589 79.62 424.959 79.96C420.609 81.57 413.159 79.63 408.699 78.96C405.429 78.44 402.749 77.54 399.159 77.67C395.569 77.8 393.989 76.57 390.539 75.52C388.029 74.76 385.429 74.92 382.759 74.92C381.489 74.92 377.569 74.19 376.489 74.92C374.919 76.05 376.599 77.34 375.539 78.18C373.239 80.02 367.079 78.1 364.739 77.39C362.109 76.58 359.739 74.56 357.059 73.94C352.239 72.85 346.689 74.94 341.829 73.94C339.459 73.47 338.119 72.38 335.519 72.41C333.199 72.41 330.829 73.41 328.519 73.28C328.679 71.28 331.749 70.99 332.379 68.78C329.619 69.09 326.719 67.98 323.919 68.21C321.119 68.44 318.919 67.52 316.509 67.5C313.769 67.5 312.099 69.67 309.729 69.96C307.359 70.25 304.479 69.26 301.829 69.4C302.659 73.49 298.079 72.73 294.699 73.68C295.439 77.48 290.949 76.59 288.869 77.28C289.739 79.76 291.869 79.28 291.579 82.89C291.349 85.6 289.049 87.89 287.279 85.01C285.629 82.37 286.959 73.19 281.169 74.29C280.789 76.67 286.169 82.8 279.919 82.5C276.099 82.31 272.919 78.4 268.919 78.88C269.568 79.6533 270.295 80.357 271.089 80.98C269.509 81.98 267.699 81.38 265.869 81.58C264.419 81.74 263.199 82.46 261.869 82.52C259.589 82.62 257.199 81.52 254.959 82.36C253.959 82.7 253.599 83.97 252.779 84.24C251.459 84.67 250.169 83.7 248.719 84.39C247.269 85.08 245.949 86.92 244.339 87.77C240.459 89.84 237.099 87.77 234.149 84.96C235.199 83.82 246.069 85.14 244.659 82.32C243.499 80.01 234.659 80.97 232.349 80.32C228.179 79.25 226.569 76.54 221.909 76.94C216.809 77.37 206.969 80.35 204.659 85.67C204.249 86.67 204.659 87.29 203.969 88.22C202.509 90.22 199.729 90.29 197.539 90.75C195.779 91.11 195.489 92.75 193.759 93.28C193.669 95.01 193.539 98.4 194.859 99.69C196.609 101.39 200.089 98.28 202.159 98.77C203.709 99.13 203.379 100.32 203.769 101.41C204.447 102.722 205.536 103.776 206.869 104.41C207.56 104.678 208.319 104.711 209.03 104.503C209.74 104.295 210.362 103.858 210.799 103.26C211.499 102.15 211.089 100.91 212.069 99.98C213.049 99.05 213.619 98.73 213.799 97.4C214.059 95.47 212.909 96.08 211.859 95.02C209.219 92.38 214.789 91.02 216.209 90.3C216.893 89.961 217.504 89.4923 218.009 88.92C218.359 88.48 218.539 87.54 219.009 87.23C220.419 86.29 219.909 88.86 219.569 89.58C218.639 91.58 216.739 93.58 218.869 95.69C220.679 97.47 222.769 95.62 224.739 95.45C225.925 95.2545 227.134 95.2545 228.319 95.45C228.969 95.66 230.209 97.17 229.829 97.87C229.199 98.98 226.929 98.01 226.119 97.87C225.599 97.75 222.879 97.45 222.539 97.87C221.929 98.66 223.189 98.69 223.459 99.11C223.619 99.593 223.664 100.107 223.589 100.61C223.589 101.69 223.019 102.72 221.749 102.3C221.079 102.09 220.229 100.93 219.319 101.66C218.759 102.11 218.679 103.85 218.749 104.51C218.839 105.38 219.409 106.82 218.289 107.51C217.343 107.765 216.346 107.765 215.399 107.51C214.479 107.26 213.789 106.65 212.759 106.82C211.899 106.96 210.759 107.71 209.869 107.96C207.709 108.58 204.719 108.3 202.399 108.18C201.959 107.18 201.149 106.02 201.459 104.87C201.679 104.04 202.909 103.01 202.009 102.12C201.419 101.54 199.749 101.86 199.179 102.49C198.179 103.6 198.989 104.29 199.359 105.35C199.543 105.838 199.616 106.36 199.571 106.88C199.526 107.399 199.365 107.901 199.099 108.35C198.279 109.35 196.849 108.76 195.699 109.01C195.041 109.077 194.426 109.37 193.959 109.84C193.609 110.36 193.959 111.11 193.159 111.54C192.239 112.08 191.029 111.84 190.079 112.62C188.498 114.119 186.828 115.521 185.079 116.82C183.779 117.441 182.382 117.833 180.949 117.98C179.663 118.332 178.348 118.569 177.019 118.69C176.926 119.126 176.925 119.577 177.019 120.013C177.112 120.449 177.296 120.86 177.559 121.22C178.239 122.08 179.049 122.76 179.659 123.69C180.969 125.69 180.999 127.93 178.269 128.69C175.849 129.33 173.159 128.21 170.669 128.33C169.869 128.33 168.159 128.23 167.669 129.13C167.099 130.2 168.669 131.37 169.259 132.01C169.719 132.47 170.539 132.85 170.909 133.37C171.789 134.62 170.729 137.04 170.089 138.19C169.769 138.77 168.549 139.67 168.449 140.25C168.019 142.61 171.039 144.02 172.779 144.39C174.279 144.7 177.069 145.53 178.599 145.08C180.129 144.63 181.889 142.08 182.519 140.44C183.519 137.98 183.099 136.74 185.569 135.26C186.439 134.74 187.569 134.7 188.389 133.85C189.209 133 189.069 131.49 189.899 130.8C191.129 129.8 194.149 130.48 195.709 129.8C198.269 128.61 198.579 127.89 201.239 129.69C203.579 131.26 205.689 133.11 207.869 134.74C209.549 135.98 208.979 135.85 209.479 137.74C209.801 139.153 210.527 140.443 211.569 141.45C212.859 140.22 213.869 138.64 213.439 136.87C214.329 136.82 215.249 136.87 216.139 136.8C217.329 131.89 204.619 132.08 205.379 126.38C206.939 125.95 207.249 126.89 208.379 127.38C209.219 127.74 210.519 127.71 211.309 128.15C212.439 128.79 212.419 129.56 213.309 130.41C213.989 131.03 214.859 131.01 215.649 131.56C218.859 133.78 215.899 140.08 222.779 139.62C220.409 140.9 222.949 143.26 223.499 145.02C223.589 143.25 225.129 142.08 225.099 140.02C225.099 137.77 223.919 137.16 226.499 136.34C228.159 135.82 229.939 135.79 231.559 135.2C234.009 134.31 233.669 134.2 233.009 131.75C232.759 130.82 232.009 130.97 232.459 129.7C232.669 129.07 234.139 128.23 234.569 127.58C235.569 126.12 236.089 123.2 238.439 123.09C240.789 122.98 239.949 125.48 241.439 126.55C242.719 127.55 245.349 127.14 245.859 125.62C241.859 124.45 246.789 123.45 247.979 122.87C248.729 122.51 249.819 120.87 250.699 121.66C251.779 122.66 249.699 124.15 249.629 124.66C249.129 127.12 251.019 127.03 252.629 128.52C254.239 130.01 255.019 132.52 256.239 134.43C253.819 134.58 251.099 134.74 248.889 133.73C246.099 132.45 244.989 131.37 241.729 132.47C240.709 132.839 239.723 133.294 238.779 133.83C238.499 133.97 238.279 134.73 237.779 134.95C237.279 135.17 236.469 134.77 235.939 134.95C233.419 135.89 232.839 136.86 229.939 137.01C230.119 138.14 231.289 137.74 231.719 138.63C232.049 139.31 231.719 140.72 231.719 141.46C231.719 143.94 231.949 143.96 234.539 144.09C237.539 144.24 238.439 144.09 240.989 145.87C243.989 148 243.989 145.59 246.279 144.05C249.019 145.12 246.279 147.71 245.639 149.15C244.999 150.59 245.519 152.31 244.929 153.49C243.739 155.92 238.849 154.64 236.609 154.64C235.079 154.64 233.229 154.92 231.829 154.36C230.219 153.72 229.069 152.36 227.159 151.89C224.719 151.24 219.589 150.29 218.409 153.5C218.859 153.65 219.229 154.23 219.579 154.4C218.579 155.99 215.359 155 214.069 154.12C212.159 152.82 211.809 152.28 209.459 151.61C207.109 150.94 204.859 149.9 203.689 147.75C202.689 145.85 203.289 143.85 201.109 142.9C200.727 142.672 200.29 142.551 199.844 142.551C199.399 142.551 198.962 142.672 198.579 142.9C197.149 143.44 197.439 144.11 195.579 144.3C193.529 144.5 191.409 144.19 189.359 144.3C187.462 144.268 185.583 144.675 183.869 145.49C182.869 146.04 182.629 147.02 181.049 147.29C179.98 147.415 178.899 147.415 177.829 147.29C175.539 147.07 171.709 145.17 169.829 147.81C168.909 149.1 169.639 149.81 168.299 151C167.209 151.95 165.509 152.28 164.709 153.65C163.039 156.49 165.619 158.27 162.379 160.31C159.379 162.2 157.879 162.9 156.109 166.07C154.609 168.76 151.929 170.65 150.609 173.42C149.699 175.32 150.369 177.42 150.379 179.42C150.379 183.79 146.379 185.93 149.279 190.42C150.359 192.12 152.009 193.48 152.969 195.24C153.929 197 154.109 199.34 154.969 201.24C156.489 204.8 162.689 209.73 166.319 211.24C169.219 212.45 170.709 211.57 172.939 210.41C175.169 209.25 177.279 209.57 179.689 209.68C183.469 209.86 185.689 205.35 190.069 207.42C192.189 208.42 191.909 209.96 194.439 210.42C196.719 210.84 198.709 210.42 199.979 212.85C201.599 216.01 199.479 219.38 199.399 222.59C199.319 225.8 202.309 225.83 203.399 228.71C204.229 230.88 204.229 233.27 205.189 235.37C207.119 239.6 207.899 241.89 205.939 246.6C204.449 250.18 203.699 254.49 205.769 258.07C208.139 262.16 208.679 266.07 209.349 270.75C209.659 272.89 209.539 275 210.349 276.88C211.349 279.13 213.599 281.21 214.179 283.54C214.809 286.05 213.729 288.66 214.909 291.12C216.089 293.58 217.779 293.23 220.219 292.89C224.149 292.33 228.679 293.09 232.219 290.89C233.798 289.876 235.116 288.506 236.069 286.89C237.257 285.067 238.861 283.552 240.749 282.47C242.889 281.03 244.139 279.37 244.199 276.79C244.259 273.79 243.449 272.91 246.629 271.28C248.629 270.28 250.379 269.42 250.189 266.7C250.049 264.7 248.589 262.7 249.309 260.52C251.009 255.25 258.769 253.83 260.159 248.57C261.359 244.04 259.229 237.92 258.539 233.45C257.099 224.07 265.329 220.04 271.349 214.45C274.549 211.45 276.439 206.63 278.589 202.87C279.469 201.33 280.689 199.58 279.949 197.82C279.578 197.043 278.985 196.393 278.244 195.953C277.504 195.514 276.649 195.304 275.789 195.35C273.409 195.73 271.969 196.61 269.339 196.5C264.219 196.29 263.649 192.29 259.879 189.61C256.339 187.1 255.559 183.19 252.949 179.8C251.149 177.47 251.829 176.38 251.579 173.57C251.359 171.05 249.769 170.66 247.889 169.21C246.677 168.283 245.791 166.994 245.359 165.53C244.649 163.78 242.879 161.41 242.579 159.63C242.249 157.63 243.909 157.2 245.359 158.43C245.779 158.79 245.359 159.93 246.359 160.21C247.039 160.4 247.499 159.44 248.109 159.15C248.759 161.39 249.109 163.82 250.109 165.95C250.919 167.69 252.289 169.37 253.059 171.28C253.593 172.985 254.641 174.484 256.059 175.57C257.907 177.142 259.438 179.053 260.569 181.2C261.999 183.99 262.689 191.62 266.379 192.6C268.139 193.07 270.379 190.96 272.179 190.6C274.769 190.05 275.749 189.82 277.679 187.85C279.609 185.88 282.289 184.74 284.869 183.49C286.359 182.77 288.209 182.69 289.349 181.19C290.229 180.01 290.069 178.56 290.639 177.29C291.529 175.29 295.249 172.94 293.639 170.35C292.099 167.93 288.729 169.22 287.819 165.81C286.059 165.46 284.769 166.87 283.339 167.62C282.527 168.152 281.586 168.454 280.616 168.495C279.646 168.535 278.683 168.312 277.829 167.85C274.829 166.5 275.409 165.15 274.479 162.57C273.879 160.89 272.039 159.97 272.479 158.01C275.839 157.83 276.549 158.37 278.479 161.01C279.789 162.84 280.729 164.41 283.089 164.63C285.139 164.82 287.159 163.51 289.089 163.94C291.019 164.37 292.279 166.39 294.439 166.94C296.599 167.49 298.969 167 301.089 167.84C301.899 168.16 302.609 168.96 303.429 169.18C304.549 169.49 305.739 168.68 306.609 168.82C308.729 169.17 309.239 171.65 310.529 173.31C312.299 175.6 313.399 175.13 316.059 175.41C319.219 175.73 318.309 177.12 318.599 179.72C318.889 182.32 320.339 183.99 321.359 186.24C322.379 188.49 323.799 190.66 324.639 192.85C325.479 195.04 325.639 197.31 326.489 199.54C327.339 201.77 328.849 204.22 331.279 202.09C332.059 201.4 332.519 199.82 333.279 198.99C334.039 198.16 335.379 197.26 335.929 196.06C336.819 194.12 336.139 191.46 336.329 189.36C336.589 186.36 337.979 185.59 340.719 184.36C341.958 183.95 343.12 183.339 344.159 182.55C345.349 181.37 345.159 180.1 345.819 178.86C346.899 176.94 350.769 175.56 352.929 175.65C356.849 175.82 358.929 178.48 360.539 181.72C361.049 182.72 361.999 186.31 363.199 186.63C364.919 187.09 365.839 184.01 367.279 186.88C367.849 188.02 367.089 189.22 367.359 190.37C367.689 191.75 368.949 192.44 369.359 193.71C370.179 196 368.359 198.02 368.619 200.19C368.829 201.89 370.759 203 371.509 204.55C373.509 208.67 374.509 212.02 378.259 215.09C384.469 220.19 381.169 210.97 379.569 208.09C377.569 204.54 372.309 203.32 372.489 198.34C372.569 196.17 373.749 194.63 373.209 192.41C375.209 192.56 377.649 194.53 378.939 195.99C379.509 196.63 379.989 197.91 380.739 198.35C381.739 198.95 382.589 198.2 383.339 199.2C383.869 199.9 382.709 201.43 384.009 201.97C384.879 202.33 385.959 201.14 386.539 200.63C388.039 199.31 390.539 197.7 391.539 195.99C393.019 193.54 391.999 190.79 390.449 188.66C388.589 186.12 385.569 186.19 383.389 184.11C379.449 180.37 381.449 173.74 387.499 176.02C388.499 176.39 388.149 177.23 389.499 177.41C390.849 177.59 392.249 176.32 393.249 175.69C394.061 175.075 394.952 174.574 395.899 174.2C397.049 173.83 398.309 174.12 399.409 173.75C401.289 173.11 403.409 170.45 404.259 168.75C405.109 167.05 406.389 165.04 407.259 163.24C407.727 162.314 407.984 161.296 408.014 160.259C408.043 159.222 407.844 158.191 407.429 157.24C407.039 156.42 406.159 156.03 405.859 155.17C405.559 154.31 406.129 152.93 405.639 151.94C404.639 149.94 401.549 149.94 400.169 148.01C398.319 145.46 400.399 144.82 401.089 142.6C401.139 142.46 401.609 141.94 401.699 141.75C399.629 140.47 395.089 142.21 394.059 140.31C393.169 138.67 395.289 136.57 396.879 136.31C398.249 136.12 398.169 136.82 399.009 137.17C399.953 137.721 401.038 137.982 402.129 137.92C403.239 137.87 404.659 137.35 405.659 137.41C407.349 137.52 406.659 138.01 407.759 139.24C409.409 141.05 411.759 141.24 412.559 143.88C412.729 144.43 412.489 146.01 412.779 146.41C413.659 147.68 418.139 147.93 419.509 147.32C425.239 144.75 414.209 140.06 412.679 139.01C409.999 137.17 412.079 135.8 412.559 133.33C412.849 131.83 412.299 131.79 413.479 131.04C414.309 130.51 415.789 130.89 416.709 130.04C419.039 128.04 418.429 120.48 418.089 117.48C417.559 112.88 411.649 110.15 407.699 108.74C405.759 108.05 404.029 107.58 403.799 105.09C403.679 103.76 404.269 103.44 404.619 102.33C404.969 101.22 404.779 99.68 405.179 98.88C406.179 96.79 409.619 97.52 411.939 97.52C413.589 97.52 415.079 96.98 416.539 96.88C419.479 96.66 421.709 99.43 422.809 96.33C423.209 95.2 421.489 94.19 422.809 92.92C423.179 92.7403 423.583 92.6387 423.994 92.6215C424.405 92.6043 424.815 92.6719 425.199 92.82Z" fill="#969696"/>
<path d="M366.51 208.83C366.09 208.57 364.92 208.31 365.07 209.21C365.13 209.57 365.75 209.92 365.97 210.21C366.19 210.5 366.58 211 366.9 211.37C367.47 212.04 368.09 212.56 368.66 213.23C369.23 213.9 370.46 214.6 370.8 215.48C370.95 215.88 370.8 216.27 370.91 216.67C371.111 217.147 371.395 217.583 371.75 217.96C372.3 218.68 373.04 219.36 373.51 220.11C373.756 220.568 373.935 221.06 374.04 221.57C374.534 223.388 375.456 225.062 376.73 226.45C377.832 227.485 378.837 228.62 379.73 229.84C380.18 230.49 380.53 231.45 381.51 231.34C382.33 231.25 382.97 230.06 383.51 229.51C383.87 229.13 384.02 229.23 384.21 228.65C384.342 227.992 384.369 227.317 384.29 226.65C384.218 225.948 384.004 225.269 383.66 224.653C383.316 224.038 382.85 223.499 382.29 223.07C381.29 222.23 379.29 221.29 378.69 220.07C378.25 219.22 378.31 218.36 377.69 217.56C377.07 216.76 375.92 216.46 375.09 215.81C374.26 215.16 373.62 214.51 372.96 213.9C371.8 212.82 371.54 211 369.83 210.55C369.01 210.34 366.65 210.14 366.56 208.93" fill="#969696"/>
<path d="M384.56 234.22C384.86 235.44 387.05 235.34 387.98 235.4C389.48 235.605 390.958 235.94 392.4 236.4C394.171 236.86 395.967 237.214 397.78 237.46C398.78 237.55 400.54 238.11 401.44 237.92C403.92 237.37 399.83 236.11 399.05 235.78C397.38 235.07 395.77 233.84 393.87 234.02C393.503 234.095 393.144 234.209 392.8 234.36C391.23 234.85 389.58 233.78 388.11 233.36C387.31 233.12 385.02 232.36 384.55 233.49C384.488 233.73 384.491 233.982 384.56 234.22Z" fill="#969696"/>
<path d="M404.59 207.1C404.413 207.731 404.085 208.309 403.634 208.783C403.182 209.257 402.621 209.613 402 209.82C401.22 210.12 400.06 210.15 399.65 210.92C399.24 211.69 399.65 212.22 399.09 212.98C397.84 214.61 395.63 214.43 394.21 215.59C393.68 216.02 393.49 216.52 392.83 216.74C392.099 216.827 391.358 216.752 390.66 216.52C390.33 217.71 392.12 218.57 392.49 219.61C392.86 220.65 392.42 221.86 392.71 222.94C393.123 224.093 393.889 225.087 394.9 225.78C395.97 226.19 397.28 225.78 398.39 226.17C399.28 226.51 400.12 226.92 401 227.27C401.478 227.537 401.972 227.775 402.48 227.98C403.55 228.1 403.64 226.98 403.78 225.98C403.98 224.53 403.95 223.32 405.05 222.17C405.75 221.42 406.73 221.17 407.15 220.17C407.43 219.51 407.15 218.45 407.67 217.87C408.19 217.29 409.25 217.71 409.43 216.73C409.73 215.11 405.84 214.56 407.43 212.14C408.02 211.23 408.7 211.39 408.76 210.08C408.815 209.697 408.761 209.305 408.604 208.951C408.446 208.597 408.192 208.295 407.87 208.08C407.55 207.81 407.11 207.72 406.82 207.39C406.53 207.06 406.59 206.52 406.31 206.32C406.164 206.213 405.993 206.148 405.814 206.131C405.635 206.114 405.454 206.145 405.291 206.222C405.128 206.299 404.989 206.418 404.889 206.567C404.788 206.717 404.73 206.89 404.72 207.07" fill="#969696"/>
<path d="M425.2 250.47C424.68 249.6 424.73 248.54 423.02 248.77C421.68 248.94 420.83 250 419.96 251.05C419.29 251.85 419.36 252.05 418.38 252.55C417.4 253.05 416.74 252.99 416.73 254.04C416.72 255.09 418.05 255.2 416.73 255.77C415.91 256.11 414.87 255.37 414.3 254.9C414.36 257.9 411.61 260.74 408.71 261.27C406.52 261.68 404.66 261.55 402.62 262.37C401.212 262.834 399.83 263.375 398.48 263.99C397.42 264.57 395.54 265.05 394.66 265.89C393.52 266.98 394.04 268.51 394.29 269.83C394.93 273.001 395.198 276.237 395.09 279.47C394.98 281.8 395.53 284.41 395.21 286.65C394.89 288.89 392.48 290.15 392.16 292.49C394.56 293.95 396.78 292.1 398.84 291.08C401.84 289.57 405.65 290.74 408.84 289.44C411.4 288.44 411.94 285.87 414.95 286.08C418.49 286.32 421.71 285.82 425.26 285.89L425.2 250.47Z" fill="#969696"/>
</g>
<path d="M33.3402 95.42C33.3402 97.5066 32.7215 99.5463 31.5622 101.281C30.403 103.016 28.7553 104.368 26.8275 105.167C24.8998 105.965 22.7785 106.174 20.732 105.767C18.6855 105.36 16.8057 104.355 15.3303 102.88C13.8548 101.405 12.85 99.5247 12.443 97.4782C12.0359 95.4317 12.2448 93.3105 13.0433 91.3827C13.8418 89.4549 15.194 87.8072 16.929 86.648C18.6639 85.4887 20.7036 84.87 22.7902 84.87C25.5883 84.87 28.2717 85.9815 30.2502 87.96C32.2287 89.9385 33.3402 92.622 33.3402 95.42Z" stroke="#333333" stroke-width="0.51" stroke-miterlimit="10" stroke-dasharray="0.92 0.92"/>
<path d="M30.8694 95.42C30.8734 97.0213 30.402 98.5878 29.515 99.921C28.6281 101.254 27.3654 102.294 25.8869 102.909C24.4084 103.524 22.7806 103.687 21.2097 103.376C19.6388 103.066 18.1955 102.296 17.0625 101.164C15.9295 100.032 15.1578 98.59 14.8451 97.0195C14.5325 95.449 14.6929 93.821 15.3062 92.3418C15.9195 90.8625 16.9579 89.5986 18.2901 88.7099C19.6222 87.8213 21.1881 87.348 22.7894 87.35C24.9298 87.3526 26.9819 88.2034 28.4964 89.716C30.0108 91.2285 30.8641 93.2796 30.8694 95.42Z" stroke="#333333" stroke-width="0.51" stroke-miterlimit="10" stroke-dasharray="0.94 0.94"/>
<path d="M28.3401 95.35C28.3421 96.4639 28.0135 97.5534 27.3961 98.4806C26.7787 99.4077 25.9001 100.131 24.8715 100.559C23.8429 100.986 22.7106 101.099 21.6179 100.883C20.5251 100.667 19.521 100.132 18.7326 99.3446C17.9442 98.5576 17.407 97.5544 17.189 96.462C16.9709 95.3697 17.0819 94.2371 17.5077 93.2078C17.9335 92.1785 18.6551 91.2986 19.5812 90.6795C20.5072 90.0604 21.5961 89.73 22.7101 89.73C24.2015 89.73 25.632 90.3218 26.6876 91.3755C27.7431 92.4291 28.3374 93.8586 28.3401 95.35Z" fill="#C0956A"/>
<path d="M59.3598 210.35C59.3598 212.437 58.7408 214.477 57.5811 216.212C56.4214 217.947 54.7731 219.3 52.8448 220.098C50.9164 220.896 48.7947 221.104 46.7479 220.697C44.7011 220.289 42.8213 219.283 41.3463 217.806C39.8712 216.33 38.8672 214.449 38.4613 212.402C38.0553 210.355 38.2657 208.233 39.0657 206.306C39.8658 204.378 41.2195 202.731 42.9558 201.573C44.692 200.415 46.7328 199.798 48.8198 199.8C50.2047 199.8 51.5761 200.073 52.8556 200.603C54.135 201.134 55.2974 201.911 56.2762 202.891C57.2551 203.87 58.0312 205.034 58.5603 206.313C59.0894 207.593 59.3611 208.965 59.3598 210.35Z" stroke="#333333" stroke-width="0.51" stroke-miterlimit="10" stroke-dasharray="0.92 0.92"/>
<path d="M56.9007 210.35C56.9007 211.95 56.426 213.515 55.5366 214.846C54.6472 216.176 53.3832 217.213 51.9043 217.825C50.4255 218.437 48.7983 218.597 47.2288 218.284C45.6592 217.971 44.2177 217.199 43.0867 216.067C41.9557 214.935 41.186 213.492 40.875 211.922C40.5639 210.352 40.7256 208.725 41.3394 207.247C41.9533 205.769 42.9917 204.506 44.3234 203.619C45.6552 202.731 47.2203 202.258 48.8207 202.26C49.8827 202.26 50.9342 202.469 51.9151 202.876C52.8961 203.283 53.7873 203.879 54.5377 204.63C55.2881 205.381 55.8831 206.273 56.2885 207.255C56.694 208.236 56.902 209.288 56.9007 210.35Z" stroke="#333333" stroke-width="0.51" stroke-miterlimit="10" stroke-dasharray="0.94 0.94"/>
<path d="M54.3694 210.27C54.3694 211.383 54.0392 212.472 53.4205 213.398C52.8019 214.324 51.9226 215.045 50.8939 215.471C49.8651 215.898 48.7331 216.009 47.641 215.792C46.5489 215.575 45.5457 215.038 44.7583 214.251C43.971 213.464 43.4348 212.46 43.2175 211.368C43.0003 210.276 43.1118 209.144 43.5379 208.115C43.964 207.087 44.6856 206.207 45.6115 205.589C46.5373 204.97 47.6258 204.64 48.7394 204.64C50.2325 204.64 51.6645 205.233 52.7204 206.289C53.7762 207.345 54.3694 208.777 54.3694 210.27Z" fill="#C0956A"/>
<path d="M176.26 177.92C176.256 180.006 175.634 182.044 174.472 183.777C173.31 185.509 171.66 186.858 169.731 187.654C167.803 188.449 165.681 188.654 163.636 188.244C161.591 187.834 159.713 186.827 158.24 185.349C156.767 183.872 155.765 181.991 155.36 179.945C154.956 177.898 155.167 175.778 155.968 173.851C156.769 171.925 158.122 170.279 159.858 169.122C161.594 167.965 163.634 167.348 165.72 167.35C167.107 167.35 168.48 167.624 169.761 168.155C171.041 168.687 172.205 169.466 173.184 170.448C174.163 171.43 174.939 172.595 175.466 173.877C175.994 175.16 176.264 176.533 176.26 177.92Z" stroke="#333333" stroke-width="0.51" stroke-miterlimit="10" stroke-dasharray="0.92 0.92"/>
<path d="M173.799 177.92C173.801 179.521 173.328 181.086 172.44 182.418C171.552 183.75 170.288 184.789 168.81 185.402C167.331 186.016 165.704 186.177 164.133 185.865C162.563 185.553 161.121 184.782 159.989 183.65C158.857 182.518 158.086 181.076 157.774 179.506C157.462 177.936 157.623 176.308 158.237 174.829C158.85 173.351 159.889 172.087 161.221 171.199C162.553 170.311 164.118 169.838 165.719 169.84C167.861 169.843 169.915 170.695 171.43 172.209C172.944 173.724 173.796 175.778 173.799 177.92Z" stroke="#333333" stroke-width="0.51" stroke-miterlimit="10" stroke-dasharray="0.94 0.94"/>
<path d="M171.27 177.82C171.272 178.934 170.943 180.023 170.326 180.951C169.708 181.878 168.83 182.601 167.801 183.029C166.773 183.456 165.64 183.569 164.548 183.353C163.455 183.137 162.451 182.602 161.662 181.815C160.874 181.028 160.337 180.024 160.119 178.932C159.901 177.84 160.012 176.707 160.437 175.678C160.863 174.648 161.585 173.769 162.511 173.15C163.437 172.53 164.526 172.2 165.64 172.2C167.131 172.2 168.562 172.792 169.617 173.845C170.673 174.899 171.267 176.329 171.27 177.82Z" fill="#C0956A"/>
<path d="M208.489 94.22C208.489 96.3066 207.87 98.3463 206.711 100.081C205.551 101.816 203.904 103.168 201.976 103.967C200.048 104.765 197.927 104.974 195.88 104.567C193.834 104.16 191.954 103.155 190.479 101.68C189.003 100.205 187.998 98.3247 187.591 96.2782C187.184 94.2317 187.393 92.1104 188.192 90.1827C188.99 88.2549 190.342 86.6072 192.077 85.448C193.812 84.2887 195.852 83.67 197.939 83.67C200.737 83.67 203.42 84.7815 205.399 86.76C207.377 88.7385 208.489 91.422 208.489 94.22Z" stroke="#333333" stroke-width="0.51" stroke-miterlimit="10" stroke-dasharray="0.92 0.92"/>
<path d="M206 94.22C206 95.8201 205.526 97.3842 204.637 98.7146C203.748 100.045 202.484 101.082 201.006 101.694C199.528 102.307 197.901 102.467 196.332 102.155C194.763 101.842 193.321 101.072 192.19 99.9405C191.058 98.8091 190.288 97.3676 189.976 95.7983C189.664 94.229 189.824 92.6023 190.436 91.1241C191.048 89.6458 192.085 88.3823 193.416 87.4934C194.746 86.6045 196.31 86.13 197.91 86.13C200.056 86.13 202.114 86.9823 203.631 88.4995C205.148 90.0167 206 92.0744 206 94.22Z" stroke="#333333" stroke-width="0.51" stroke-miterlimit="10" stroke-dasharray="0.94 0.94"/>
<path d="M203.49 94.12C203.49 95.2335 203.16 96.322 202.542 97.2479C201.923 98.1737 201.044 98.8953 200.015 99.3214C198.986 99.7476 197.854 99.8591 196.762 99.6418C195.67 99.4246 194.667 98.8884 193.879 98.101C193.092 97.3136 192.556 96.3105 192.339 95.2184C192.121 94.1262 192.233 92.9942 192.659 91.9655C193.085 90.9367 193.807 90.0575 194.733 89.4388C195.658 88.8202 196.747 88.49 197.86 88.49C199.354 88.49 200.786 89.0832 201.841 90.139C202.897 91.1948 203.49 92.6268 203.49 94.12Z" fill="#C0956A"/>
<path d="M378.84 95.42C378.84 97.5066 378.222 99.5463 377.062 101.281C375.903 103.016 374.255 104.368 372.328 105.167C370.4 105.965 368.279 106.174 366.232 105.767C364.186 105.36 362.306 104.355 360.83 102.88C359.355 101.405 358.35 99.5247 357.943 97.4782C357.536 95.4317 357.745 93.3105 358.543 91.3827C359.342 89.4549 360.694 87.8072 362.429 86.648C364.164 85.4887 366.204 84.87 368.29 84.87C371.088 84.87 373.772 85.9815 375.75 87.96C377.729 89.9385 378.84 92.622 378.84 95.42Z" stroke="#333333" stroke-width="0.51" stroke-miterlimit="10" stroke-dasharray="0.92 0.92"/>
<path d="M376.379 95.42C376.381 97.0205 375.908 98.5856 375.021 99.9173C374.133 101.249 372.87 102.287 371.392 102.901C369.914 103.515 368.287 103.677 366.717 103.366C365.147 103.055 363.705 102.285 362.572 101.154C361.44 100.023 360.668 98.5815 360.355 97.012C360.042 95.4424 360.202 93.8152 360.814 92.3364C361.426 90.8576 362.463 89.5935 363.794 88.7041C365.124 87.8147 366.689 87.34 368.289 87.34C370.433 87.34 372.489 88.191 374.006 89.706C375.523 91.221 376.377 93.2761 376.379 95.42Z" stroke="#333333" stroke-width="0.51" stroke-miterlimit="10" stroke-dasharray="0.94 0.94"/>
<path d="M373.85 95.35C373.852 96.4639 373.523 97.5534 372.906 98.4806C372.288 99.4077 371.41 100.131 370.381 100.559C369.353 100.986 368.22 101.099 367.128 100.883C366.035 100.667 365.031 100.132 364.242 99.3446C363.454 98.5576 362.917 97.5544 362.699 96.462C362.481 95.3697 362.592 94.2371 363.017 93.2078C363.443 92.1785 364.165 91.2986 365.091 90.6795C366.017 90.0604 367.106 89.73 368.22 89.73C369.711 89.73 371.142 90.3218 372.197 91.3755C373.253 92.4291 373.847 93.8586 373.85 95.35Z" fill="#C0956A"/>
<path d="M248.551 227.99C248.551 230.077 247.932 232.116 246.773 233.851C245.614 235.586 243.966 236.938 242.039 237.737C240.111 238.535 237.99 238.744 235.943 238.337C233.897 237.93 232.017 236.925 230.541 235.45C229.066 233.975 228.061 232.095 227.654 230.048C227.247 228.002 227.456 225.88 228.254 223.953C229.053 222.025 230.405 220.377 232.14 219.218C233.875 218.059 235.915 217.44 238.001 217.44C239.387 217.44 240.759 217.713 242.039 218.243C243.318 218.773 244.482 219.55 245.461 220.53C246.441 221.51 247.218 222.673 247.748 223.953C248.278 225.233 248.551 226.605 248.551 227.99Z" stroke="#333333" stroke-width="0.51" stroke-miterlimit="10" stroke-dasharray="0.92 0.92"/>
<path d="M246.09 227.99C246.09 229.59 245.616 231.154 244.727 232.485C243.838 233.815 242.574 234.852 241.096 235.464C239.618 236.077 237.991 236.237 236.422 235.925C234.853 235.612 233.411 234.842 232.28 233.71C231.148 232.579 230.378 231.138 230.066 229.568C229.753 227.999 229.914 226.372 230.526 224.894C231.138 223.416 232.175 222.152 233.506 221.263C234.836 220.374 236.4 219.9 238 219.9C240.146 219.9 242.203 220.752 243.721 222.27C245.238 223.787 246.09 225.844 246.09 227.99Z" stroke="#333333" stroke-width="0.51" stroke-miterlimit="10" stroke-dasharray="0.94 0.94"/>
<path d="M243.551 227.89C243.551 229.004 243.221 230.093 242.602 231.019C241.982 231.945 241.103 232.667 240.073 233.092C239.044 233.518 237.911 233.629 236.819 233.411C235.727 233.193 234.723 232.656 233.937 231.867C233.15 231.079 232.614 230.075 232.398 228.982C232.182 227.889 232.295 226.757 232.722 225.729C233.15 224.7 233.873 223.821 234.8 223.204C235.728 222.587 236.817 222.258 237.931 222.26C238.67 222.26 239.402 222.406 240.084 222.689C240.767 222.972 241.387 223.387 241.909 223.91C242.431 224.433 242.844 225.053 243.126 225.736C243.408 226.419 243.552 227.151 243.551 227.89Z" fill="#C0956A"/>
<path d="M288.899 124.47C288.899 126.557 288.28 128.596 287.121 130.331C285.962 132.066 284.314 133.418 282.386 134.217C280.458 135.015 278.337 135.224 276.291 134.817C274.244 134.41 272.364 133.405 270.889 131.93C269.413 130.455 268.409 128.575 268.002 126.528C267.594 124.482 267.803 122.36 268.602 120.433C269.4 118.505 270.753 116.857 272.488 115.698C274.222 114.539 276.262 113.92 278.349 113.92C279.734 113.92 281.106 114.193 282.386 114.723C283.666 115.253 284.829 116.03 285.809 117.01C286.788 117.99 287.566 119.153 288.096 120.433C288.626 121.713 288.899 123.085 288.899 124.47Z" stroke="#333333" stroke-width="0.51" stroke-miterlimit="10" stroke-dasharray="0.92 0.92"/>
<path d="M286.43 124.47C286.43 126.07 285.955 127.635 285.066 128.966C284.177 130.296 282.912 131.333 281.434 131.945C279.955 132.557 278.328 132.717 276.758 132.404C275.188 132.091 273.747 131.319 272.616 130.187C271.485 129.055 270.715 127.612 270.404 126.042C270.093 124.472 270.255 122.845 270.869 121.367C271.483 119.889 272.521 118.626 273.853 117.739C275.184 116.851 276.75 116.378 278.35 116.38C279.412 116.38 280.463 116.589 281.444 116.996C282.425 117.403 283.317 117.999 284.067 118.75C284.817 119.501 285.412 120.393 285.818 121.375C286.223 122.356 286.431 123.408 286.43 124.47Z" stroke="#333333" stroke-width="0.51" stroke-miterlimit="10" stroke-dasharray="0.94 0.94"/>
<path d="M283.901 124.35C283.901 125.464 283.57 126.552 282.952 127.478C282.333 128.404 281.454 129.125 280.425 129.551C279.396 129.978 278.264 130.089 277.172 129.872C276.08 129.655 275.077 129.118 274.29 128.331C273.502 127.544 272.966 126.54 272.749 125.448C272.532 124.356 272.643 123.224 273.069 122.195C273.495 121.167 274.217 120.287 275.143 119.669C276.069 119.05 277.157 118.72 278.271 118.72C279.764 118.72 281.196 119.313 282.252 120.369C283.307 121.425 283.901 122.857 283.901 124.35Z" fill="#C0956A"/>
<path d="M414.459 272.64C414.459 274.727 413.841 276.766 412.681 278.501C411.522 280.236 409.874 281.588 407.947 282.387C406.019 283.185 403.898 283.394 401.851 282.987C399.805 282.58 397.925 281.575 396.449 280.1C394.974 278.625 393.969 276.745 393.562 274.698C393.155 272.652 393.364 270.53 394.162 268.603C394.961 266.675 396.313 265.027 398.048 263.868C399.783 262.709 401.823 262.09 403.909 262.09C406.707 262.09 409.391 263.202 411.369 265.18C413.348 267.159 414.459 269.842 414.459 272.64Z" stroke="#333333" stroke-width="0.51" stroke-miterlimit="10" stroke-dasharray="0.92 0.92"/>
<path d="M412 272.64C412 274.24 411.526 275.804 410.637 277.135C409.748 278.465 408.484 279.502 407.006 280.114C405.528 280.727 403.901 280.887 402.332 280.575C400.763 280.262 399.321 279.492 398.19 278.361C397.058 277.229 396.288 275.788 395.976 274.218C395.664 272.649 395.824 271.022 396.436 269.544C397.048 268.066 398.085 266.802 399.416 265.913C400.746 265.024 402.31 264.55 403.91 264.55C406.056 264.55 408.114 265.402 409.631 266.92C411.148 268.437 412 270.494 412 272.64Z" stroke="#333333" stroke-width="0.51" stroke-miterlimit="10" stroke-dasharray="0.94 0.94"/>
<path d="M409.459 272.54C409.459 273.654 409.129 274.742 408.51 275.668C407.892 276.594 407.012 277.315 405.984 277.741C404.955 278.168 403.823 278.279 402.731 278.062C401.639 277.845 400.636 277.308 399.848 276.521C399.061 275.734 398.525 274.73 398.307 273.638C398.09 272.546 398.202 271.414 398.628 270.385C399.054 269.357 399.776 268.477 400.701 267.859C401.627 267.24 402.716 266.91 403.829 266.91C405.322 266.91 406.754 267.503 407.81 268.559C408.866 269.615 409.459 271.047 409.459 272.54Z" fill="#C0956A"/>
<path d="M346.061 156.83C346.061 158.917 345.442 160.956 344.283 162.691C343.124 164.426 341.476 165.778 339.548 166.577C337.621 167.375 335.499 167.584 333.453 167.177C331.406 166.77 329.526 165.765 328.051 164.29C326.576 162.815 325.571 160.935 325.164 158.888C324.757 156.842 324.966 154.72 325.764 152.793C326.563 150.865 327.915 149.217 329.65 148.058C331.385 146.899 333.424 146.28 335.511 146.28C336.897 146.279 338.269 146.551 339.55 147.08C340.83 147.61 341.994 148.387 342.974 149.367C343.954 150.347 344.731 151.511 345.261 152.791C345.79 154.072 346.062 155.444 346.061 156.83Z" stroke="#333333" stroke-width="0.51" stroke-miterlimit="10" stroke-dasharray="0.92 0.92"/>
<path d="M343.6 156.83C343.6 158.43 343.125 159.994 342.237 161.325C341.348 162.655 340.084 163.692 338.606 164.304C337.128 164.916 335.501 165.077 333.932 164.765C332.362 164.452 330.921 163.682 329.789 162.55C328.658 161.419 327.888 159.978 327.575 158.408C327.263 156.839 327.423 155.212 328.036 153.734C328.648 152.256 329.685 150.992 331.015 150.103C332.346 149.214 333.91 148.74 335.51 148.74C337.656 148.74 339.713 149.592 341.23 151.109C342.748 152.627 343.6 154.684 343.6 156.83Z" stroke="#333333" stroke-width="0.51" stroke-miterlimit="10" stroke-dasharray="0.94 0.94"/>
<path d="M341.071 156.73C341.071 157.844 340.74 158.932 340.122 159.858C339.503 160.784 338.624 161.505 337.595 161.931C336.566 162.358 335.434 162.469 334.342 162.252C333.25 162.035 332.247 161.498 331.46 160.711C330.672 159.924 330.136 158.92 329.919 157.828C329.702 156.736 329.813 155.604 330.239 154.576C330.665 153.547 331.387 152.667 332.313 152.049C333.239 151.43 334.327 151.1 335.441 151.1C336.934 151.1 338.366 151.693 339.422 152.749C340.477 153.805 341.071 155.237 341.071 156.73Z" fill="#C0956A"/>
<path d="M141.239 63.15C141.239 65.2366 140.62 67.2763 139.461 69.0113C138.301 70.7462 136.654 72.0984 134.726 72.8969C132.798 73.6954 130.677 73.9044 128.63 73.4973C126.584 73.0902 124.704 72.0854 123.229 70.61C121.753 69.1345 120.748 67.2547 120.341 65.2082C119.934 63.1617 120.143 61.0404 120.942 59.1127C121.74 57.1849 123.092 55.5372 124.827 54.378C126.562 53.2187 128.602 52.6 130.689 52.6C132.074 52.5987 133.447 52.8707 134.728 53.4004C136.008 53.9301 137.172 54.7072 138.152 55.6871C139.131 56.667 139.909 57.8305 140.438 59.1111C140.968 60.3917 141.24 61.7642 141.239 63.15Z" stroke="#333333" stroke-width="0.51" stroke-miterlimit="10" stroke-dasharray="0.92 0.92"/>
<path d="M138.78 63.1501C138.78 64.7502 138.305 66.3143 137.416 67.6447C136.527 68.9751 135.264 70.012 133.786 70.6243C132.307 71.2366 130.681 71.3968 129.111 71.0846C127.542 70.7725 126.101 70.002 124.969 68.8706C123.838 67.7392 123.067 66.2977 122.755 64.7284C122.443 63.1591 122.603 61.5324 123.215 60.0542C123.828 58.5759 124.865 57.3124 126.195 56.4235C127.525 55.5346 129.09 55.0601 130.69 55.0601C132.835 55.0601 134.893 55.9124 136.41 57.4296C137.927 58.9468 138.78 61.0045 138.78 63.1501Z" stroke="#333333" stroke-width="0.51" stroke-miterlimit="10" stroke-dasharray="0.94 0.94"/>
<path d="M136.24 63.05C136.24 64.1635 135.91 65.252 135.292 66.1779C134.673 67.1037 133.794 67.8253 132.765 68.2514C131.736 68.6776 130.604 68.7891 129.512 68.5718C128.42 68.3546 127.417 67.8184 126.629 67.031C125.842 66.2436 125.306 65.2405 125.089 64.1484C124.871 63.0562 124.983 61.9242 125.409 60.8955C125.835 59.8667 126.557 58.9875 127.483 58.3688C128.408 57.7502 129.497 57.42 130.61 57.42C132.104 57.42 133.536 58.0132 134.591 59.069C135.647 60.1248 136.24 61.5568 136.24 63.05Z" fill="#C0956A"/>
<path d="M165.641 177.82C136.241 67.53 22.7109 95.35 22.7109 95.35" stroke="#C0956A" stroke-miterlimit="10"/>
<path d="M130.609 63.05C130.609 63.05 151.149 105.89 197.859 94.1201" stroke="#C0956A" stroke-miterlimit="10"/>
<path d="M368.29 93.12C368.29 93.12 283.63 104.24 237.92 227.89" stroke="#C0956A" stroke-miterlimit="10"/>
<path d="M278.27 124.35C278.27 124.35 125.76 94.9799 48.7402 210.25" stroke="#C0956A" stroke-miterlimit="10"/>
<path d="M335.44 156.73C335.44 156.73 247.67 233.21 163.5 178.83" stroke="#C0956A" stroke-miterlimit="10"/>
<path d="M200.221 92.2C200.221 92.2 274.221 31.4 371.221 94.2" stroke="#C0956A" stroke-miterlimit="10"/>
<path d="M368.22 99.75C368.22 99.75 324.45 200.04 403.83 272.54" stroke="#C0956A" stroke-miterlimit="10"/>
<path d="M403.91 274.54C403.91 274.54 302.13 341.09 237.91 231.31" stroke="#C0956A" stroke-miterlimit="10"/>
<path d="M51.1895 210.35C51.1895 210.35 129.139 258.35 168.649 177.54" stroke="#C0956A" stroke-miterlimit="10"/>
<path d="M96.739 37.07C96.739 41.0953 95.5453 45.0301 93.3088 48.3769C91.0722 51.7236 87.8934 54.332 84.1743 55.8719C80.4553 57.4119 76.3631 57.8143 72.4153 57.0282C68.4675 56.2422 64.8415 54.3031 61.9959 51.4561C59.1503 48.6091 57.2129 44.9821 56.4288 41.0339C55.6448 37.0858 56.0492 32.9938 57.591 29.2755C59.1327 25.5572 61.7426 22.3796 65.0905 20.1447C68.4383 17.9098 72.3738 16.718 76.399 16.72C81.7945 16.7226 86.968 18.8678 90.7822 22.6839C94.5964 26.5 96.739 31.6746 96.739 37.07Z" stroke="#333333" stroke-width="1.29" stroke-miterlimit="10" stroke-dasharray="2.37 2.37"/>
<mask id="mask1_216_459" style="mask-type:luminance" maskUnits="userSpaceOnUse" x="62" y="22" width="29" height="29">
<path d="M90.3595 36.82C90.3615 39.6234 89.5319 42.3644 87.9756 44.6962C86.4194 47.028 84.2064 48.8457 81.6168 49.9195C79.0271 50.9932 76.1772 51.2746 73.4276 50.7282C70.6779 50.1818 68.1521 48.832 66.1698 46.8497C64.1875 44.8674 62.8378 42.3416 62.2913 39.592C61.7449 36.8423 62.0263 33.9924 63.1001 31.4028C64.1738 28.8131 65.9916 26.6002 68.3233 25.0439C70.6551 23.4876 73.3961 22.658 76.1995 22.66C79.955 22.66 83.5566 24.1518 86.2122 26.8074C88.8677 29.4629 90.3595 33.0645 90.3595 36.82Z" fill="white"/>
</mask>
<g mask="url(#mask1_216_459)">
<path d="M82 34.9C81.9606 34.7742 81.8741 34.6685 81.7585 34.6051C81.6429 34.5417 81.5072 34.5256 81.38 34.56C81.38 34.12 81.38 33.64 81.38 33.06C81.38 28.88 79.13 27.66 76.18 27.58C73.18 27.66 70.97 28.88 70.98 33.06C70.98 33.66 70.98 34.15 71.03 34.6C70.9598 34.5639 70.8828 34.543 70.804 34.5388C70.7253 34.5345 70.6465 34.547 70.5728 34.5753C70.4992 34.6036 70.4323 34.6472 70.3767 34.7032C70.3211 34.7591 70.2779 34.8262 70.25 34.9C70.25 34.9 70.42 37.45 71.48 37.32C71.61 37.82 71.76 38.39 71.94 39.1C72.44 41.1 75.1 42.1 76.11 42.16H76.25C77.25 42.09 79.92 41.06 80.42 39.1C80.6 38.39 80.75 37.82 80.87 37.31C81.81 37.19 82 34.9 82 34.9Z" stroke="#C0956A" stroke-width="0.18" stroke-miterlimit="10"/>
<path d="M76.6004 43.66H76.2004H76.1904H75.8004L74.6504 45.46L75.6704 46.61H76.1904H76.2004H76.7204L77.7404 45.46L76.6004 43.66Z" fill="#C0956A"/>
<path d="M72.06 44.1199L67.61 45.2799C67.0058 45.3817 66.4397 45.643 65.9703 46.0368C65.5009 46.4306 65.1452 46.9427 64.94 47.52L64 50.99H88.38L87.45 47.52C87.2448 46.9427 86.8891 46.4306 86.4197 46.0368C85.9503 45.643 85.3842 45.3817 84.78 45.2799L80.13 43.95L76.18 50.82L72.06 44.1199Z" fill="#C0956A"/>
<path d="M75.6596 46.61L75.0996 49.07L76.1796 50.82L77.1896 49.07L76.6996 46.61H75.6596Z" fill="#C0956A"/>
<path d="M71.0595 34.79L71.5195 37.57L71.8996 37.82L71.5195 33.92L72.1795 32.35C75.7995 31.24 76.4595 29.62 76.4595 29.62C80.7695 29.71 80.1896 32.7 80.1896 32.7L80.8195 34.05L80.4396 37.95L80.8195 37.7L81.2895 34.93C81.9795 33.4 81.5595 29.85 81.5595 29.85C81.5595 29.85 80.9995 28.42 79.9195 28.25C79.9195 28.25 79.7495 26.05 75.9195 25.88C75.9995 25.88 67.9295 25.93 71.0595 34.79Z" fill="#C0956A" stroke="#C0956A" stroke-width="0.18" stroke-miterlimit="10"/>
<path d="M73.8305 41.35C73.7899 41.924 73.6068 42.4789 73.2977 42.9643C72.9887 43.4497 72.5634 43.8504 72.0605 44.13L69.4805 45.13L73.6105 50.64H78.4205L83.1805 45.13L80.0005 43.95C79.5901 43.6416 79.2483 43.2512 78.9969 42.8036C78.7456 42.356 78.5901 41.8609 78.5405 41.35" stroke="#C0956A" stroke-width="0.18" stroke-miterlimit="10"/>
<path d="M72.0605 44.12L73.6505 45.66L75.8005 43.66L73.5405 42.5C73.2266 43.1801 72.7095 43.7461 72.0605 44.12Z" stroke="#C0956A" stroke-width="0.18" stroke-miterlimit="10"/>
<path d="M80.3709 44.12L78.3709 45.42L76.6309 43.66L78.8609 42.6C79.1534 43.2797 79.6931 43.823 80.3709 44.12Z" stroke="#C0956A" stroke-width="0.18" stroke-miterlimit="10"/>
</g>
<path d="M90.3595 36.82C90.3615 39.6234 89.5319 42.3644 87.9756 44.6962C86.4194 47.028 84.2064 48.8457 81.6168 49.9195C79.0271 50.9932 76.1772 51.2746 73.4276 50.7282C70.6779 50.1818 68.1521 48.832 66.1698 46.8497C64.1875 44.8674 62.8378 42.3416 62.2913 39.592C61.7449 36.8423 62.0263 33.9924 63.1001 31.4028C64.1738 28.8131 65.9916 26.6002 68.3233 25.0439C70.6551 23.4876 73.3961 22.658 76.1995 22.66C79.955 22.66 83.5566 24.1518 86.2122 26.8074C88.8677 29.4629 90.3595 33.0645 90.3595 36.82Z" stroke="#C0956A" stroke-miterlimit="10"/>
<path d="M313.329 93.12C313.329 97.1457 312.135 101.081 309.898 104.428C307.661 107.775 304.482 110.383 300.762 111.923C297.042 113.463 292.95 113.864 289.001 113.078C285.053 112.291 281.427 110.351 278.582 107.503C275.737 104.655 273.8 101.027 273.017 97.0778C272.235 93.129 272.64 89.0366 274.184 85.3185C275.727 81.6004 278.338 78.4235 281.688 76.1899C285.037 73.9562 288.973 72.766 292.999 72.77C298.393 72.7753 303.564 74.9217 307.376 78.7374C311.188 82.5532 313.329 87.7263 313.329 93.12Z" stroke="#333333" stroke-width="1.29" stroke-miterlimit="10" stroke-dasharray="2.37 2.37"/>
<mask id="mask2_216_459" style="mask-type:luminance" maskUnits="userSpaceOnUse" x="278" y="78" width="29" height="30">
<path d="M307 92.87C307.002 95.6734 306.173 98.4144 304.616 100.746C303.06 103.078 300.847 104.896 298.257 105.969C295.668 107.043 292.818 107.325 290.068 106.778C287.319 106.232 284.793 104.882 282.81 102.9C280.828 100.917 279.478 98.3916 278.932 95.642C278.386 92.8923 278.667 90.0424 279.741 87.4528C280.814 84.8631 282.632 82.6502 284.964 81.0939C287.296 79.5377 290.037 78.708 292.84 78.71C296.595 78.7127 300.195 80.2054 302.85 82.8603C305.505 85.5152 306.998 89.1153 307 92.87Z" fill="white"/>
</mask>
<g mask="url(#mask2_216_459)">
<path d="M298.551 90.9499C298.513 90.8222 298.428 90.7142 298.312 90.6488C298.197 90.5834 298.059 90.5659 297.931 90.5999C297.931 90.1699 297.931 89.6899 297.931 89.1099C297.931 84.9199 295.691 83.7099 292.741 83.6299C289.791 83.7099 287.541 84.9199 287.551 89.1099C287.551 89.6999 287.551 90.1999 287.551 90.6399C287.48 90.604 287.402 90.5836 287.323 90.58C287.244 90.5764 287.164 90.5897 287.091 90.6191C287.017 90.6484 286.95 90.693 286.895 90.7501C286.84 90.8071 286.797 90.8752 286.771 90.9499C286.771 90.9499 286.951 93.4999 288.011 93.3599C288.131 93.8699 288.281 94.4399 288.461 95.1499C288.961 97.1499 291.621 98.1499 292.641 98.2099H292.771C293.771 98.1399 296.451 97.1099 296.951 95.1499C297.131 94.4399 297.281 93.8699 297.401 93.3599C298.391 93.2399 298.551 90.9499 298.551 90.9499Z" stroke="#C0956A" stroke-width="0.18" stroke-miterlimit="10"/>
<path d="M293.19 99.7H292.79H292.78H292.38L291.24 101.51L292.26 102.66H292.78H292.79H293.31L294.33 101.51L293.19 99.7Z" fill="#C0956A"/>
<path d="M288.642 100.17L284.202 101.35C283.597 101.45 283.03 101.71 282.56 102.104C282.09 102.498 281.735 103.012 281.532 103.59L280.602 107.06H305.002L304.072 103.59C303.868 103.012 303.513 102.498 303.043 102.104C302.574 101.71 302.007 101.45 301.402 101.35L296.742 100.01L292.802 106.88L288.642 100.17Z" fill="#C0956A"/>
<path d="M292.241 102.66L291.691 105.11L292.771 106.86L293.771 105.11L293.291 102.66H292.241Z" fill="#C0956A"/>
<path d="M287.65 90.8399L288.11 93.6199L288.49 93.8599L288.11 89.9699L288.77 88.4099C292.39 87.2999 293.04 85.6799 293.04 85.6799C297.36 85.7599 296.78 88.7599 296.78 88.7599L297.41 90.1099L297.03 94.0099L297.41 93.7599L297.87 90.9799C298.57 89.4599 298.15 85.9099 298.15 85.9099C298.15 85.9099 297.62 84.4699 296.51 84.2999C296.51 84.2999 296.33 82.0999 292.51 81.9299C292.55 81.9299 284.52 81.9699 287.65 90.8399Z" fill="#C0956A" stroke="#C0956A" stroke-width="0.18" stroke-miterlimit="10"/>
<path d="M290.422 97.35C290.381 97.9265 290.197 98.4837 289.887 98.9709C289.576 99.4581 289.147 99.86 288.642 100.14L286.062 101.14L290.193 106.65H295.003L299.762 101.14L296.562 99.95C296.153 99.6403 295.814 99.2476 295.568 98.7978C295.321 98.348 295.174 97.8512 295.133 97.34" stroke="#C0956A" stroke-width="0.18" stroke-miterlimit="10"/>
<path d="M288.641 100.17L290.241 101.71L292.381 99.7099L290.131 98.5599C289.813 99.2381 289.292 99.8008 288.641 100.17Z" stroke="#C0956A" stroke-width="0.18" stroke-miterlimit="10"/>
<path d="M297.002 100.17L295.002 101.47L293.252 99.7L295.492 98.7C295.795 99.3609 296.333 99.885 297.002 100.17Z" stroke="#C0956A" stroke-width="0.18" stroke-miterlimit="10"/>
</g>
<path d="M307 92.87C307.002 95.6734 306.173 98.4144 304.616 100.746C303.06 103.078 300.847 104.896 298.257 105.969C295.668 107.043 292.818 107.325 290.068 106.778C287.319 106.232 284.793 104.882 282.81 102.9C280.828 100.917 279.478 98.3916 278.932 95.642C278.386 92.8923 278.667 90.0424 279.741 87.4528C280.814 84.8631 282.632 82.6502 284.964 81.0939C287.296 79.5377 290.037 78.708 292.84 78.71C296.595 78.7127 300.195 80.2054 302.85 82.8603C305.505 85.5152 306.998 89.1153 307 92.87Z" stroke="#C0956A" stroke-miterlimit="10"/>
<path d="M134.999 258.27C134.999 262.295 133.805 266.229 131.569 269.576C129.333 272.922 126.155 275.531 122.436 277.071C118.718 278.611 114.626 279.014 110.679 278.229C106.731 277.444 103.105 275.506 100.259 272.66C97.4132 269.814 95.475 266.188 94.6898 262.24C93.9046 258.293 94.3076 254.201 95.8479 250.482C97.3881 246.764 99.9964 243.586 103.343 241.35C106.69 239.114 110.624 237.92 114.649 237.92C120.046 237.92 125.222 240.064 129.038 243.88C132.855 247.697 134.999 252.873 134.999 258.27Z" stroke="#333333" stroke-width="1.29" stroke-miterlimit="10" stroke-dasharray="2.37 2.37"/>
<mask id="mask3_216_459" style="mask-type:luminance" maskUnits="userSpaceOnUse" x="100" y="243" width="29" height="30">
<path d="M128.59 258.02C128.592 260.823 127.762 263.564 126.206 265.896C124.65 268.228 122.437 270.046 119.847 271.119C117.258 272.193 114.408 272.475 111.658 271.928C108.908 271.382 106.383 270.032 104.4 268.05C102.418 266.067 101.068 263.542 100.522 260.792C99.9753 258.042 100.257 255.192 101.331 252.603C102.404 250.013 104.222 247.8 106.554 246.244C108.886 244.688 111.627 243.858 114.43 243.86C118.185 243.863 121.785 245.355 124.44 248.01C127.095 250.665 128.587 254.265 128.59 258.02Z" fill="white"/>
</mask>
<g mask="url(#mask3_216_459)">
<path d="M120.19 256.1C120.153 255.972 120.067 255.864 119.951 255.799C119.835 255.734 119.699 255.716 119.57 255.75C119.57 255.32 119.57 254.83 119.57 254.25C119.57 250.07 117.33 248.86 114.38 248.77C111.38 248.86 109.18 250.07 109.19 254.25C109.19 254.85 109.19 255.35 109.19 255.79C109.12 255.754 109.043 255.734 108.964 255.73C108.886 255.727 108.807 255.74 108.734 255.77C108.661 255.799 108.595 255.844 108.541 255.901C108.487 255.958 108.446 256.026 108.42 256.1C108.42 256.1 108.59 258.64 109.65 258.51C109.77 259.02 109.92 259.59 110.1 260.3C110.6 262.25 113.26 263.3 114.28 263.35H114.41C115.41 263.29 118.09 262.25 118.59 260.3C118.77 259.59 118.92 259.01 119.04 258.51C120 258.35 120.19 256.1 120.19 256.1Z" stroke="#C0956A" stroke-width="0.18" stroke-miterlimit="10"/>
<path d="M114.831 264.85H114.431H114.421H114.021L112.881 266.65L113.901 267.8H114.421H114.431H114.951L115.971 266.65L114.831 264.85Z" fill="#C0956A"/>
<path d="M110.28 265.35L105.84 266.51C105.235 266.61 104.668 266.87 104.198 267.264C103.729 267.658 103.374 268.172 103.17 268.75L102.24 272.22H126.61L125.68 268.75C125.477 268.172 125.122 267.658 124.652 267.264C124.182 266.87 123.615 266.61 123.01 266.51L118.35 265.17L114.41 272.04L110.28 265.35Z" fill="#C0956A"/>
<path d="M113.88 267.8L113.33 270.26L114.41 272.01L115.41 270.26L114.93 267.8H113.88Z" fill="#C0956A"/>
<path d="M109.291 255.99L109.751 258.76L110.131 259.01L109.751 255.11L110.411 253.56C114.031 252.45 114.681 250.82 114.681 250.82C119.001 250.91 118.421 253.91 118.421 253.91L119.051 255.26L118.671 259.16L119.051 258.91L119.511 256.13C120.211 254.6 119.791 251.06 119.791 251.06C119.791 251.06 119.271 249.61 118.151 249.45C118.151 249.45 117.971 247.25 114.151 247.08C114.191 247.08 106.161 247.12 109.291 255.99Z" fill="#C0956A" stroke="#C0956A" stroke-width="0.18" stroke-miterlimit="10"/>
<path d="M112.061 262.53C112.02 263.106 111.836 263.664 111.525 264.151C111.214 264.638 110.787 265.04 110.281 265.32L107.701 266.32L111.831 271.83H116.651L121.401 266.35L118.201 265.16C117.792 264.85 117.454 264.458 117.207 264.008C116.961 263.558 116.812 263.061 116.771 262.55" stroke="#C0956A" stroke-width="0.18" stroke-miterlimit="10"/>
<path d="M110.279 265.35L111.879 266.89L114.019 264.89L111.769 263.74C111.452 264.418 110.931 264.981 110.279 265.35Z" stroke="#C0956A" stroke-width="0.18" stroke-miterlimit="10"/>
<path d="M118.59 265.35L116.59 266.65L114.84 264.88L117.08 263.83C117.372 264.51 117.912 265.053 118.59 265.35Z" stroke="#C0956A" stroke-width="0.18" stroke-miterlimit="10"/>
</g>
<path d="M128.59 258.02C128.592 260.823 127.762 263.564 126.206 265.896C124.65 268.228 122.437 270.046 119.847 271.119C117.258 272.193 114.408 272.475 111.658 271.928C108.908 271.382 106.383 270.032 104.4 268.05C102.418 266.067 101.068 263.542 100.522 260.792C99.9753 258.042 100.257 255.192 101.331 252.603C102.404 250.013 104.222 247.8 106.554 246.244C108.886 244.688 111.627 243.858 114.43 243.86C118.185 243.863 121.785 245.355 124.44 248.01C127.095 250.665 128.587 254.265 128.59 258.02Z" stroke="#C0956A" stroke-miterlimit="10"/>
<path d="M333.669 233.52C333.669 237.545 332.475 241.48 330.238 244.827C328.002 248.174 324.823 250.782 321.104 252.322C317.385 253.862 313.293 254.264 309.345 253.478C305.397 252.692 301.771 250.753 298.926 247.906C296.08 245.059 294.143 241.432 293.359 237.484C292.574 233.536 292.979 229.444 294.521 225.725C296.062 222.007 298.672 218.83 302.02 216.595C305.368 214.36 309.303 213.168 313.329 213.17C316.001 213.17 318.646 213.696 321.115 214.719C323.583 215.742 325.826 217.241 327.715 219.131C329.604 221.021 331.102 223.264 332.123 225.733C333.145 228.202 333.67 230.848 333.669 233.52Z" stroke="#333333" stroke-width="1.29" stroke-miterlimit="10" stroke-dasharray="2.37 2.37"/>
<mask id="mask4_216_459" style="mask-type:luminance" maskUnits="userSpaceOnUse" x="298" y="219" width="30" height="29">
<path d="M327.291 233.27C327.293 236.073 326.464 238.814 324.907 241.146C323.351 243.478 321.138 245.296 318.548 246.369C315.959 247.443 313.109 247.725 310.359 247.178C307.61 246.632 305.084 245.282 303.101 243.3C301.119 241.317 299.769 238.792 299.223 236.042C298.677 233.292 298.958 230.442 300.032 227.853C301.105 225.263 302.923 223.05 305.255 221.494C307.587 219.938 310.328 219.108 313.131 219.11C316.887 219.11 320.488 220.602 323.144 223.257C325.799 225.913 327.291 229.515 327.291 233.27Z" fill="white"/>
</mask>
<g mask="url(#mask4_216_459)">
<path d="M318.901 231.35C318.86 231.223 318.771 231.118 318.654 231.054C318.537 230.991 318.4 230.975 318.271 231.01C318.271 230.57 318.321 230.09 318.321 229.51C318.321 225.32 316.081 224.11 313.121 224.03C310.171 224.11 307.911 225.32 307.921 229.51C307.921 230.1 307.921 230.6 307.971 231.05C307.902 231.012 307.824 230.99 307.745 230.985C307.666 230.98 307.586 230.992 307.512 231.02C307.438 231.049 307.371 231.093 307.316 231.15C307.26 231.207 307.218 231.275 307.191 231.35C307.191 231.35 307.361 233.9 308.431 233.76C308.551 234.27 308.701 234.84 308.881 235.55C309.381 237.55 312.041 238.55 313.051 238.61H313.191C314.191 238.54 316.861 237.51 317.361 235.55C317.541 234.84 317.691 234.27 317.811 233.76C318.741 233.64 318.901 231.35 318.901 231.35Z" stroke="#C0956A" stroke-width="0.18" stroke-miterlimit="10"/>
<path d="M313.532 240.1H313.142H313.122H312.732L311.582 241.91L312.612 243.06H313.122H313.142H313.652L314.672 241.91L313.532 240.1Z" fill="#C0956A"/>
<path d="M309.001 240.57L304.561 241.73C303.956 241.832 303.389 242.093 302.918 242.487C302.447 242.881 302.089 243.392 301.881 243.97L300.951 247.44H325.331L324.391 243.97C324.186 243.393 323.83 242.881 323.361 242.487C322.891 242.093 322.325 241.832 321.721 241.73L317.061 240.35L313.111 247.23L309.001 240.57Z" fill="#C0956A"/>
<path d="M312.591 243.06L312.031 245.51L313.111 247.27L314.121 245.51L313.631 243.06H312.591Z" fill="#C0956A"/>
<path d="M308.002 231.24L308.462 234.02L308.852 234.27L308.462 230.37L309.122 228.81C312.742 227.7 313.402 226.08 313.402 226.08C317.722 226.16 317.132 229.16 317.132 229.16L317.772 230.51L317.382 234.41L317.772 234.16L318.232 231.38C318.932 229.86 318.512 226.31 318.512 226.31C318.512 226.31 317.982 224.87 316.862 224.7C316.862 224.7 316.692 222.5 312.862 222.33C312.892 222.35 304.862 222.35 308.002 231.24Z" fill="#C0956A" stroke="#C0956A" stroke-width="0.18" stroke-miterlimit="10"/>
<path d="M310.772 237.78C310.731 238.356 310.547 238.914 310.236 239.401C309.925 239.888 309.498 240.29 308.992 240.57L306.412 241.57L310.542 247.08H315.352L320.112 241.57L316.902 240.35C316.495 240.039 316.157 239.646 315.911 239.196C315.664 238.747 315.515 238.251 315.472 237.74" stroke="#C0956A" stroke-width="0.18" stroke-miterlimit="10"/>
<path d="M309.002 240.57L310.592 242.11L312.742 240.11L310.482 238.96C310.166 239.636 309.65 240.199 309.002 240.57Z" stroke="#C0956A" stroke-width="0.18" stroke-miterlimit="10"/>
<path d="M317.302 240.57L315.302 241.87L313.562 240.1L315.792 239.05C316.084 239.73 316.624 240.273 317.302 240.57Z" stroke="#C0956A" stroke-width="0.18" stroke-miterlimit="10"/>
</g>
<path d="M327.291 233.27C327.293 236.073 326.464 238.814 324.907 241.146C323.351 243.478 321.138 245.296 318.548 246.369C315.959 247.443 313.109 247.725 310.359 247.178C307.61 246.632 305.084 245.282 303.101 243.3C301.119 241.317 299.769 238.792 299.223 236.042C298.677 233.292 298.958 230.442 300.032 227.853C301.105 225.263 302.923 223.05 305.255 221.494C307.587 219.938 310.328 219.108 313.131 219.11C316.887 219.11 320.488 220.602 323.144 223.257C325.799 225.913 327.291 229.515 327.291 233.27Z" stroke="#C0956A" stroke-miterlimit="10"/>
<path d="M220.561 25.4001C220.561 29.4254 219.368 33.3602 217.131 36.707C214.895 40.0537 211.716 42.6621 207.997 44.202C204.278 45.742 200.185 46.1443 196.238 45.3582C192.29 44.5722 188.664 42.6331 185.818 39.7861C182.973 36.9391 181.035 33.3122 180.251 29.3641C179.467 25.4159 179.872 21.3239 181.413 17.6056C182.955 13.8873 185.565 10.7097 188.913 8.47478C192.261 6.2399 196.196 5.04807 200.221 5.05005C202.893 5.05005 205.539 5.57649 208.007 6.59929C210.476 7.6221 212.719 9.12123 214.607 11.0111C216.496 12.9009 217.994 15.1443 219.016 17.6132C220.038 20.0822 220.563 22.7282 220.561 25.4001Z" stroke="#333333" stroke-width="1.29" stroke-miterlimit="10" stroke-dasharray="2.37 2.37"/>
<mask id="mask5_216_459" style="mask-type:luminance" maskUnits="userSpaceOnUse" x="185" y="10" width="30" height="30">
<path d="M214.18 25.15C214.18 27.9521 213.349 30.6914 211.792 33.0214C210.236 35.3514 208.023 37.1676 205.435 38.2404C202.846 39.3132 199.998 39.5944 197.249 39.0484C194.501 38.5025 191.976 37.1539 189.994 35.1732C188.012 33.1925 186.661 30.6686 186.113 27.9205C185.565 25.1725 185.845 22.3237 186.916 19.7343C187.987 17.1449 189.801 14.9311 192.13 13.3729C194.459 11.8147 197.198 10.982 200 10.98C201.862 10.9774 203.706 11.342 205.427 12.0531C207.148 12.7641 208.712 13.8076 210.029 15.1238C211.346 16.44 212.391 18.0031 213.103 19.7235C213.815 21.4439 214.181 23.2879 214.18 25.15Z" fill="white"/>
</mask>
<g mask="url(#mask5_216_459)">
<path d="M205.78 23.2299C205.743 23.1022 205.657 22.9942 205.541 22.9288C205.425 22.8634 205.289 22.8459 205.16 22.8799C205.16 22.4399 205.16 21.9599 205.21 21.3799C205.21 17.1999 202.96 15.9899 200.01 15.8999C197.01 15.9899 194.8 17.1999 194.81 21.3799C194.81 21.9799 194.81 22.4699 194.86 22.9199C194.79 22.8823 194.712 22.8606 194.632 22.8561C194.552 22.8517 194.472 22.8646 194.398 22.8941C194.324 22.9236 194.257 22.969 194.202 23.0269C194.147 23.0849 194.106 23.1542 194.08 23.2299C194.08 23.2299 194.25 25.7699 195.31 25.6399L195.77 27.4299C196.27 29.4299 198.93 30.4299 199.94 30.4799H200.08C201.08 30.4199 203.75 29.3799 204.25 27.4299C204.43 26.7199 204.58 26.1399 204.7 25.6399C205.63 25.5199 205.78 23.2299 205.78 23.2299Z" stroke="#C0956A" stroke-width="0.18" stroke-miterlimit="10"/>
<path d="M200.421 31.98H200.021H200.011H199.621L198.471 33.78L199.491 34.93H200.011H200.021H200.541L201.561 33.78L200.421 31.98Z" fill="#C0956A"/>
<path d="M195.88 32.45L191.43 33.6C190.825 33.7026 190.258 33.9654 189.788 34.3611C189.319 34.7567 188.964 35.2708 188.76 35.85L187.83 39.35H212.2L211.27 35.89C211.066 35.3108 210.711 34.7967 210.242 34.4011C209.772 34.0054 209.205 33.7426 208.6 33.64L204 32.27L200 39.14L195.88 32.45Z" fill="#C0956A"/>
<path d="M199.48 34.9299L198.92 37.3899L200 39.1399L201 37.3899L200.52 34.9299H199.48Z" fill="#C0956A"/>
<path d="M194.881 23.12L195.341 25.89L195.721 26.14L195.341 22.24L196.001 20.69C199.621 19.57 200.281 17.95 200.281 17.95C204.591 18.04 204.011 21.04 204.011 21.04L204.641 22.39L204.261 26.28L204.641 26.04L205.111 23.26C205.801 21.73 205.381 18.19 205.381 18.19C205.381 18.19 204.861 16.74 203.741 16.58C203.741 16.58 203.571 14.38 199.741 14.21C199.781 14.21 191.751 14.25 194.881 23.12Z" fill="#C0956A" stroke="#C0956A" stroke-width="0.18" stroke-miterlimit="10"/>
<path d="M197.651 29.6599C197.61 30.2352 197.427 30.7913 197.118 31.2783C196.809 31.7653 196.384 32.1679 195.881 32.4499L193.301 33.4499L197.431 38.9599H202.241L207.001 33.4599L203.791 32.2699C203.383 31.9588 203.046 31.5659 202.799 31.1163C202.553 30.6668 202.404 30.1707 202.361 29.6599" stroke="#C0956A" stroke-width="0.18" stroke-miterlimit="10"/>
<path d="M195.881 32.4499L197.471 33.9799L199.621 31.9799L197.361 30.8199C197.049 31.5037 196.531 32.0734 195.881 32.4499Z" stroke="#C0956A" stroke-width="0.18" stroke-miterlimit="10"/>
<path d="M204.179 32.45L202.179 33.75L200.439 31.98L202.669 30.98C202.978 31.6365 203.515 32.1587 204.179 32.45Z" stroke="#C0956A" stroke-width="0.18" stroke-miterlimit="10"/>
</g>
<path d="M214.18 25.15C214.18 27.9521 213.349 30.6914 211.792 33.0214C210.236 35.3514 208.023 37.1676 205.435 38.2404C202.846 39.3132 199.998 39.5944 197.249 39.0484C194.501 38.5025 191.976 37.1539 189.994 35.1732C188.012 33.1925 186.661 30.6686 186.113 27.9205C185.565 25.1725 185.845 22.3237 186.916 19.7343C187.987 17.1449 189.801 14.9311 192.13 13.3729C194.459 11.8147 197.198 10.982 200 10.98C201.862 10.9774 203.706 11.342 205.427 12.0531C207.148 12.7641 208.712 13.8076 210.029 15.1238C211.346 16.44 212.391 18.0031 213.103 19.7235C213.815 21.4439 214.181 23.2879 214.18 25.15Z" stroke="#C0956A" stroke-miterlimit="10"/>
<path d="M53.6804 148.74C53.6725 152.763 52.4723 156.694 50.2314 160.035C47.9905 163.376 44.8095 165.978 41.0904 167.512C37.3712 169.047 33.2808 169.444 29.3359 168.654C25.391 167.864 21.7687 165.923 18.9267 163.076C16.0847 160.228 14.1506 156.602 13.3686 152.655C12.5866 148.709 12.9919 144.619 14.5333 140.903C16.0748 137.187 18.6831 134.011 22.0288 131.777C25.3744 129.543 29.3073 128.35 33.3304 128.35C36.0062 128.35 38.6557 128.878 41.1273 129.903C43.5989 130.928 45.844 132.431 47.7342 134.325C49.6244 136.218 51.1226 138.467 52.1429 140.94C53.1632 143.414 53.6857 146.064 53.6804 148.74Z" stroke="#333333" stroke-width="1.29" stroke-miterlimit="10" stroke-dasharray="2.37 2.37"/>
<mask id="mask6_216_459" style="mask-type:luminance" maskUnits="userSpaceOnUse" x="18" y="134" width="30" height="29">
<path d="M47.3009 148.49C47.3069 151.294 46.4806 154.037 44.9268 156.372C43.3729 158.706 41.1614 160.527 38.5721 161.604C35.9828 162.681 33.1322 162.965 30.3813 162.421C27.6303 161.876 25.1027 160.528 23.1183 158.547C21.134 156.565 19.7823 154.04 19.2342 151.289C18.6862 148.539 18.9664 145.688 20.0396 143.097C21.1127 140.507 22.9305 138.292 25.2627 136.735C27.5949 135.178 30.3367 134.348 33.1409 134.35C36.8921 134.353 40.4892 135.843 43.1436 138.493C45.798 141.144 47.293 144.739 47.3009 148.49Z" fill="white"/>
</mask>
<g mask="url(#mask6_216_459)">
<path d="M38.8999 146.57C38.8628 146.443 38.7766 146.335 38.6603 146.272C38.5441 146.208 38.4072 146.193 38.2799 146.23C38.2799 145.79 38.2799 145.31 38.2799 144.73C38.2799 140.54 36.0399 139.33 33.0899 139.25C30.1399 139.33 27.8899 140.54 27.8999 144.73C27.8999 145.32 27.8999 145.82 27.9499 146.27C27.8801 146.232 27.8029 146.21 27.7236 146.205C27.6444 146.2 27.565 146.212 27.4909 146.24C27.4168 146.269 27.3497 146.313 27.2943 146.37C27.2389 146.427 27.1965 146.495 27.1699 146.57C27.1699 146.57 27.3399 149.12 28.3999 148.98C28.5199 149.49 28.6699 150.06 28.8499 150.77C29.3499 152.77 32.0099 153.77 33.0299 153.83H33.1599C34.1599 153.76 36.8399 152.73 37.3399 150.77C37.5199 150.06 37.6699 149.49 37.7899 148.98C38.7399 148.86 38.8999 146.57 38.8999 146.57Z" stroke="#C0956A" stroke-width="0.18" stroke-miterlimit="10"/>
<path d="M33.5398 155.32H33.1398H33.1298H32.7298L31.5898 157.13L32.6098 158.28H33.1298H33.1398H33.6598L34.6798 157.13L33.5398 155.32Z" fill="#C0956A"/>
<path d="M29 155.79L24.55 156.95C23.945 157.05 23.378 157.31 22.9083 157.704C22.4385 158.098 22.0834 158.612 21.88 159.19L21 162.66H45.32L44.39 159.19C44.1866 158.612 43.8315 158.098 43.3617 157.704C42.892 157.31 42.325 157.05 41.72 156.95L37.07 155.61L33.07 162.48L29 155.79Z" fill="#C0956A"/>
<path d="M32.5891 158.28L32.0391 160.73L33.1191 162.48L34.1191 160.73L33.6391 158.28H32.5891Z" fill="#C0956A"/>
<path d="M27.9997 146.46L28.4597 149.24L28.8397 149.48L28.4597 145.59L29.1197 144.03C32.7397 142.92 33.3897 141.3 33.3897 141.3C37.7097 141.38 37.1297 144.38 37.1297 144.38L37.7597 145.73L37.3797 149.63L37.7597 149.38L38.2197 146.6C38.9197 145.08 38.4997 141.53 38.4997 141.53C38.4997 141.53 37.9797 140.09 36.8597 139.92C36.8597 139.92 36.6897 137.72 32.8597 137.55C32.8997 137.55 24.8697 137.6 27.9997 146.46Z" fill="#C0956A" stroke="#C0956A" stroke-width="0.18" stroke-miterlimit="10"/>
<path d="M30.7702 153C30.7303 153.576 30.5476 154.132 30.2385 154.619C29.9295 155.106 29.5039 155.509 29.0002 155.79L26.4102 156.79L30.5402 162.35H35.3602L40.1102 156.84L36.9102 155.65C36.5014 155.34 36.1627 154.948 35.9162 154.498C35.6698 154.048 35.5212 153.551 35.4802 153.04" stroke="#C0956A" stroke-width="0.18" stroke-miterlimit="10"/>
<path d="M29 155.79L30.59 157.35L32.73 155.35L30.48 154.2C30.1611 154.869 29.6445 155.424 29 155.79Z" stroke="#C0956A" stroke-width="0.18" stroke-miterlimit="10"/>
<path d="M37.3005 155.79L35.3005 157.09L33.5605 155.35L35.8005 154.3C36.0968 154.967 36.6319 155.498 37.3005 155.79Z" stroke="#C0956A" stroke-width="0.18" stroke-miterlimit="10"/>
</g>
<path d="M47.3009 148.49C47.3069 151.294 46.4806 154.037 44.9268 156.372C43.3729 158.706 41.1614 160.527 38.5721 161.604C35.9828 162.681 33.1322 162.965 30.3813 162.421C27.6303 161.876 25.1027 160.528 23.1183 158.547C21.134 156.565 19.7823 154.04 19.2342 151.289C18.6862 148.539 18.9664 145.688 20.0396 143.097C21.1127 140.507 22.9305 138.292 25.2627 136.735C27.5949 135.178 30.3367 134.348 33.1409 134.35C36.8921 134.353 40.4892 135.843 43.1436 138.493C45.798 141.144 47.293 144.739 47.3009 148.49Z" stroke="#C0956A" stroke-miterlimit="10"/>
<path d="M411.001 160.51C411.001 164.535 409.807 168.47 407.571 171.817C405.334 175.164 402.155 177.772 398.436 179.312C394.717 180.852 390.625 181.254 386.677 180.468C382.729 179.682 379.103 177.743 376.258 174.896C373.412 172.049 371.475 168.422 370.691 164.474C369.907 160.526 370.311 156.434 371.853 152.715C373.395 148.997 376.004 145.82 379.352 143.585C382.7 141.35 386.636 140.158 390.661 140.16C393.333 140.16 395.979 140.686 398.447 141.709C400.915 142.732 403.158 144.231 405.047 146.121C406.936 148.011 408.434 150.254 409.455 152.723C410.477 155.192 411.002 157.838 411.001 160.51Z" stroke="#333333" stroke-width="1.29" stroke-miterlimit="10" stroke-dasharray="2.37 2.37"/>
<mask id="mask7_216_459" style="mask-type:luminance" maskUnits="userSpaceOnUse" x="376" y="146" width="29" height="29">
<path d="M404.58 160.26C404.58 163.063 403.749 165.803 402.191 168.133C400.634 170.464 398.42 172.28 395.831 173.352C393.241 174.425 390.391 174.705 387.642 174.157C384.893 173.609 382.368 172.259 380.387 170.276C378.406 168.293 377.057 165.768 376.511 163.018C375.966 160.269 376.248 157.419 377.322 154.83C378.396 152.241 380.214 150.029 382.545 148.473C384.877 146.917 387.617 146.088 390.42 146.09C392.281 146.09 394.123 146.457 395.841 147.169C397.56 147.881 399.121 148.925 400.436 150.241C401.751 151.557 402.794 153.119 403.505 154.838C404.216 156.557 404.582 158.4 404.58 160.26Z" fill="white"/>
</mask>
<g mask="url(#mask7_216_459)">
<path d="M396.18 158.35C396.141 158.224 396.055 158.118 395.939 158.055C395.823 157.992 395.688 157.976 395.56 158.01C395.56 157.57 395.56 157.09 395.61 156.51C395.61 152.33 393.36 151.12 390.41 151.03C387.41 151.12 385.2 152.33 385.21 156.51C385.21 157.11 385.21 157.6 385.26 158.05C385.19 158.014 385.113 157.993 385.035 157.989C384.956 157.985 384.877 157.997 384.803 158.025C384.73 158.054 384.663 158.097 384.607 158.153C384.552 158.209 384.508 158.276 384.48 158.35C384.48 158.35 384.65 160.9 385.71 160.77L386.17 162.55C386.67 164.55 389.33 165.55 390.34 165.61H390.48C391.48 165.55 394.15 164.51 394.65 162.55C394.83 161.85 394.98 161.27 395.1 160.77C396 160.63 396.18 158.35 396.18 158.35Z" stroke="#C0956A" stroke-width="0.18" stroke-miterlimit="10"/>
<path d="M390.821 167.09H390.431H390.411H390.021L388.871 168.89L389.891 170.04H390.411H390.431H390.941L391.961 168.89L390.821 167.09Z" fill="#C0956A"/>
<path d="M386.28 167.56L381.83 168.71C381.226 168.812 380.66 169.073 380.191 169.467C379.721 169.861 379.366 170.373 379.16 170.95L378.23 174.42H402.6L401.67 170.95C401.465 170.373 401.11 169.861 400.64 169.467C400.171 169.073 399.605 168.812 399 168.71L394.35 167.35L390.35 174.22L386.28 167.56Z" fill="#C0956A"/>
<path d="M389.88 170.04L389.32 172.5L390.4 174.25L391.4 172.5L390.92 170.04H389.88Z" fill="#C0956A"/>
<path d="M385.281 158.23L385.741 161L386.121 161.25L385.741 157.35L386.401 155.8C390.021 154.68 390.681 153.06 390.681 153.06C394.991 153.15 394.411 156.15 394.411 156.15L395.041 157.5L394.661 161.39L395.041 161.14L395.511 158.37C396.201 156.84 395.781 153.3 395.781 153.3C395.781 153.3 395.261 151.85 394.141 151.69C394.141 151.69 393.971 149.48 390.141 149.32C390.181 149.35 382.151 149.35 385.281 158.23Z" fill="#C0956A" stroke="#C0956A" stroke-width="0.18" stroke-miterlimit="10"/>
<path d="M388.051 164.77C388.01 165.345 387.827 165.901 387.518 166.388C387.209 166.875 386.784 167.278 386.281 167.56L383.701 168.56L387.831 174.07H392.641L397.401 168.56L394.191 167.35C393.784 167.039 393.446 166.646 393.2 166.196C392.953 165.747 392.804 165.251 392.761 164.74" stroke="#C0956A" stroke-width="0.18" stroke-miterlimit="10"/>
<path d="M386.281 167.56L387.871 169.09L390.021 167.09L387.761 165.93C387.449 166.614 386.932 167.184 386.281 167.56Z" stroke="#C0956A" stroke-width="0.18" stroke-miterlimit="10"/>
<path d="M394.582 167.56L392.582 168.86L390.842 167.09L393.072 166.04C393.371 166.715 393.909 167.256 394.582 167.56Z" stroke="#C0956A" stroke-width="0.18" stroke-miterlimit="10"/>
</g>
<path d="M404.58 160.26C404.58 163.063 403.749 165.803 402.191 168.133C400.634 170.464 398.42 172.28 395.831 173.352C393.241 174.425 390.391 174.705 387.642 174.157C384.893 173.609 382.368 172.259 380.387 170.276C378.406 168.293 377.057 165.768 376.511 163.018C375.966 160.269 376.248 157.419 377.322 154.83C378.396 152.241 380.214 150.029 382.545 148.473C384.877 146.917 387.617 146.088 390.42 146.09C392.281 146.09 394.123 146.457 395.841 147.169C397.56 147.881 399.121 148.925 400.436 150.241C401.751 151.557 402.794 153.119 403.505 154.838C404.216 156.557 404.582 158.4 404.58 160.26Z" stroke="#C0956A" stroke-miterlimit="10"/>
<path d="M361.411 20.35C361.411 24.3748 360.217 28.3093 357.981 31.6559C355.745 35.0024 352.567 37.6107 348.849 39.1509C345.13 40.6912 341.038 41.0942 337.091 40.309C333.143 39.5238 329.517 37.5856 326.671 34.7396C323.825 31.8936 321.887 28.2676 321.102 24.3201C320.317 20.3726 320.72 16.2809 322.26 12.5624C323.8 8.84391 326.409 5.66568 329.755 3.42959C333.102 1.19351 337.036 0 341.061 0C346.458 0 351.634 2.14401 355.451 5.96038C359.267 9.77674 361.411 14.9528 361.411 20.35Z" stroke="#333333" stroke-width="1.29" stroke-miterlimit="10" stroke-dasharray="2.37 2.37"/>
<mask id="mask8_216_459" style="mask-type:luminance" maskUnits="userSpaceOnUse" x="326" y="5" width="29" height="30">
<path d="M355 20.12C355.002 22.9234 354.173 25.6644 352.616 27.9962C351.06 30.328 348.847 32.1457 346.257 33.2194C343.668 34.2932 340.818 34.5746 338.068 34.0282C335.319 33.4818 332.793 32.132 330.81 30.1497C328.828 28.1674 327.478 25.6416 326.932 22.892C326.386 20.1423 326.667 17.2924 327.741 14.7028C328.814 12.1131 330.632 9.90013 332.964 8.34387C335.296 6.78761 338.037 5.95799 340.84 5.95996C344.596 5.95996 348.197 7.45182 350.853 10.1074C353.508 12.7629 355 16.3645 355 20.12Z" fill="white"/>
</mask>
<g mask="url(#mask8_216_459)">
<path d="M346.63 18.1999C346.59 18.0741 346.504 17.9684 346.388 17.905C346.273 17.8416 346.137 17.8254 346.01 17.8599C346.01 17.4199 346.01 16.9399 346.01 16.3599C346.01 12.1799 343.77 10.9599 340.82 10.8799C337.82 10.9599 335.62 12.1799 335.63 16.3599C335.63 16.9599 335.63 17.4499 335.63 17.8999C335.56 17.8621 335.483 17.8399 335.403 17.8348C335.324 17.8297 335.245 17.8418 335.171 17.8703C335.096 17.8989 335.029 17.9431 334.974 18C334.919 18.0568 334.876 18.125 334.85 18.1999C334.85 18.1999 335.02 20.7499 336.08 20.6199C336.21 21.1199 336.35 21.6999 336.54 22.3999C337.04 24.3999 339.7 25.3999 340.71 25.4599H340.84C341.84 25.3899 344.52 24.3599 345.02 22.3999C345.2 21.6999 345.35 21.1199 345.47 20.6099C346.47 20.4899 346.63 18.1999 346.63 18.1999Z" stroke="#C0956A" stroke-width="0.18" stroke-miterlimit="10"/>
<path d="M341.268 26.96H340.868H340.858H340.458L339.318 28.76L340.338 29.91H340.858H340.868H341.388L342.408 28.76L341.268 26.96Z" fill="#C0956A"/>
<path d="M336.73 27.42L332.28 28.58C331.675 28.6817 331.109 28.943 330.64 29.3368C330.171 29.7306 329.815 30.2427 329.61 30.82L328.68 34.29H353.05L352.12 30.82C351.914 30.2427 351.559 29.7306 351.089 29.3368C350.62 28.943 350.054 28.6817 349.45 28.58L344.8 27.25L340.85 34.12L336.73 27.42Z" fill="#C0956A"/>
<path d="M340.32 29.9099L339.77 32.3699L340.85 34.1199L341.85 32.3699L341.37 29.9099H340.32Z" fill="#C0956A"/>
<path d="M335.73 18.0899L336.19 20.8699L336.57 21.1199L336.19 17.2199L336.85 15.6599C340.47 14.5499 341.12 12.9299 341.12 12.9299C345.44 13.0199 344.86 16.0199 344.86 16.0199L345.49 17.3599L345.11 21.2599L345.49 21.0099L345.95 18.2399C346.65 16.7099 346.23 13.1599 346.23 13.1599C346.23 13.1599 345.71 11.7199 344.59 11.5499C344.59 11.5499 344.42 9.34993 340.59 9.17993C340.63 9.17993 332.6 9.22993 335.73 18.0899Z" fill="#C0956A" stroke="#C0956A" stroke-width="0.18" stroke-miterlimit="10"/>
<path d="M338.501 24.6399C338.46 25.2139 338.277 25.7687 337.968 26.2542C337.659 26.7396 337.234 27.1402 336.731 27.4199L334.141 28.4199L338.281 33.9399H343.091L347.841 28.4199L344.641 27.2399C344.235 26.9275 343.898 26.5343 343.652 26.085C343.405 25.6357 343.255 25.1402 343.211 24.6299" stroke="#C0956A" stroke-width="0.18" stroke-miterlimit="10"/>
<path d="M336.729 27.4199L338.319 28.9599L340.459 26.9599L338.209 25.7999C337.896 26.48 337.379 27.046 336.729 27.4199Z" stroke="#C0956A" stroke-width="0.18" stroke-miterlimit="10"/>
<path d="M345 27.4199L343 28.7199L341.25 26.9599L343.49 25.8999C343.783 26.5796 344.322 27.1229 345 27.4199Z" stroke="#C0956A" stroke-width="0.18" stroke-miterlimit="10"/>
</g>
<path d="M355 20.12C355.002 22.9234 354.173 25.6644 352.616 27.9962C351.06 30.328 348.847 32.1457 346.257 33.2194C343.668 34.2932 340.818 34.5746 338.068 34.0282C335.319 33.4818 332.793 32.132 330.81 30.1497C328.828 28.1674 327.478 25.6416 326.932 22.892C326.386 20.1423 326.667 17.2924 327.741 14.7028C328.814 12.1131 330.632 9.90013 332.964 8.34387C335.296 6.78761 338.037 5.95799 340.84 5.95996C344.596 5.95996 348.197 7.45182 350.853 10.1074C353.508 12.7629 355 16.3645 355 20.12Z" stroke="#C0956A" stroke-miterlimit="10"/>
</g>
</g>
<defs>
<clipPath id="clip0_216_459">
<rect width="426" height="330" fill="white"/>
</clipPath>
</defs>
</svg>
