<svg width="18" height="18" viewBox="0 0 18 18" fill="none" xmlns="http://www.w3.org/2000/svg">
<path d="M3.2203 13.7198L7.94006 9L3.2203 4.28024C3.08368 4.13881 3.00808 3.94936 3.00979 3.75271C3.0115 3.55606 3.09039 3.36793 3.22944 3.22888C3.36849 3.08983 3.55661 3.01095 3.75326 3.00924C3.94991 3.00753 4.13936 3.08313 4.2808 3.21975L9.00055 7.93951L13.7203 3.21975C13.7895 3.14811 13.8723 3.09098 13.9637 3.05167C14.0552 3.01237 14.1537 2.99169 14.2532 2.99081C14.3528 2.98996 14.4516 3.00892 14.5438 3.04663C14.6359 3.08434 14.7197 3.14003 14.7901 3.21046C14.8605 3.28088 14.9162 3.3646 14.9539 3.45679C14.9916 3.54897 15.0106 3.64772 15.0097 3.74731C15.0089 3.84689 14.9882 3.94531 14.9489 4.03681C14.9096 4.1283 14.8524 4.21108 14.7808 4.28024L10.061 9L14.7808 13.7198C14.8524 13.7889 14.9096 13.8717 14.9489 13.9632C14.9882 14.0547 15.0089 14.1531 15.0097 14.2527C15.0106 14.3523 14.9916 14.4511 14.9539 14.5432C14.9162 14.6354 14.8605 14.7191 14.7901 14.7895C14.7197 14.86 14.6359 14.9157 14.5438 14.9534C14.4516 14.9911 14.3528 15.0101 14.2532 15.0092C14.1537 15.0083 14.0552 14.9876 13.9637 14.9483C13.8723 14.909 13.7895 14.8519 13.7203 14.7802L9.00055 10.0605L4.2808 14.7802C4.13936 14.9169 3.94991 14.9925 3.75326 14.9908C3.55661 14.989 3.36849 14.9102 3.22944 14.7711C3.09039 14.6321 3.0115 14.4439 3.00979 14.2473C3.00808 14.0507 3.08368 13.8612 3.2203 13.7198Z" fill="black"/>
</svg>
