<svg width="160" height="51" viewBox="0 0 160 51" fill="none" xmlns="http://www.w3.org/2000/svg">
<g clip-path="url(#clip0_187_36)">
<g clip-path="url(#clip1_187_36)">
<g clip-path="url(#clip2_187_36)">
<g clip-path="url(#clip3_187_36)">
<g clip-path="url(#clip4_187_36)">
<path d="M158.224 27.8496H54.3973C53.8122 27.8496 53.3379 28.1589 53.3379 28.5404C53.3379 28.9219 53.8122 29.2312 54.3973 29.2312H158.224C158.809 29.2312 159.283 28.9219 159.283 28.5404C159.283 28.1589 158.809 27.8496 158.224 27.8496Z" fill="white"/>
<g clip-path="url(#clip5_187_36)">
<g clip-path="url(#clip6_187_36)">
<path d="M58.1506 23.9691C58.1506 24.2043 58.1867 24.4013 58.2588 24.56C58.3281 24.7187 58.4293 24.8476 58.5624 24.9468C58.6955 25.0432 58.8576 25.1112 59.049 25.1509C59.243 25.1934 59.4579 25.2146 59.6936 25.2146C59.749 25.2146 59.7768 25.243 59.7768 25.2996V25.8565C59.7768 25.8792 59.7726 25.899 59.7643 25.916C59.7587 25.933 59.7352 25.9415 59.6936 25.9415H53.6923C53.659 25.9415 53.6368 25.9316 53.6258 25.9118C53.6174 25.8891 53.6133 25.8707 53.6133 25.8565V25.2996C53.6133 25.2855 53.6174 25.2671 53.6258 25.2444C53.6368 25.2245 53.659 25.2146 53.6923 25.2146C53.9307 25.2146 54.1456 25.199 54.3369 25.1679C54.531 25.1367 54.696 25.0701 54.8318 24.9681C54.9677 24.8632 55.0717 24.7144 55.1438 24.5217C55.2186 24.3262 55.256 24.0626 55.256 23.7311V13.2781C55.256 13.0428 55.2214 12.8459 55.1521 12.6872C55.08 12.5285 54.9774 12.401 54.8443 12.3046C54.714 12.2082 54.5518 12.1388 54.3577 12.0963C54.1664 12.0566 53.9515 12.0368 53.7131 12.0368C53.6604 12.0368 53.6341 12.0084 53.6341 11.9518V11.3907C53.6341 11.3368 53.6604 11.3099 53.7131 11.3099H59.7144C59.7477 11.3099 59.7698 11.3198 59.7809 11.3396C59.792 11.3595 59.7976 11.3765 59.7976 11.3907V11.9518C59.7976 11.9659 59.792 11.9829 59.7809 12.0028C59.7698 12.0255 59.7477 12.0368 59.7144 12.0368C59.4787 12.0368 59.2638 12.0524 59.0698 12.0836C58.8757 12.1119 58.7121 12.1785 58.579 12.2833C58.4431 12.3882 58.3378 12.537 58.2629 12.7297C58.1881 12.9224 58.1506 13.186 58.1506 13.5204V23.9691ZM60.9704 25.8565V25.4017C60.9704 25.3875 60.9759 25.3705 60.987 25.3507C60.9981 25.3308 61.0203 25.3209 61.0535 25.3209C61.4999 25.3209 61.8465 25.2671 62.0933 25.1594C62.34 25.0517 62.523 24.9029 62.6422 24.713C62.7615 24.5231 62.8349 24.2964 62.8627 24.0329C62.8876 23.7693 62.907 23.4859 62.9209 23.1827C62.9625 22.29 63.0124 21.4228 63.0706 20.5811C63.1261 19.7394 63.1815 18.9134 63.237 18.1028C63.2896 17.2895 63.3368 16.4847 63.3784 15.6883C63.42 14.892 63.4408 14.0928 63.4408 13.2908V12.9082C63.4408 12.7467 63.3895 12.6064 63.2869 12.4874C63.1871 12.3655 63.0665 12.2635 62.925 12.1813C62.7864 12.0963 62.6464 12.034 62.505 11.9943C62.3636 11.9518 62.2527 11.9305 62.1723 11.9305C62.1168 11.9305 62.0891 11.9036 62.0891 11.8497V11.3907C62.0891 11.3765 62.0919 11.3595 62.0974 11.3396C62.1057 11.3198 62.1307 11.3099 62.1723 11.3099H65.7656C65.8404 11.3212 65.9014 11.3467 65.9486 11.3864C65.9957 11.4232 66.0401 11.4728 66.0817 11.5352L70.4984 21.6013C70.5455 21.7204 70.6051 21.7799 70.6772 21.7799C70.7521 21.7799 70.8075 21.7629 70.8436 21.7289C70.8769 21.6949 70.9032 21.6495 70.9226 21.5928L75.2894 11.7222C75.356 11.5919 75.4239 11.4898 75.4932 11.4162C75.5598 11.3453 75.6277 11.3099 75.697 11.3099H79.2695C79.3111 11.3099 79.3347 11.3198 79.3402 11.3396C79.3458 11.3595 79.3485 11.3765 79.3485 11.3907V11.8497C79.3485 11.8611 79.3444 11.8781 79.3361 11.9008C79.325 11.9206 79.3028 11.9305 79.2695 11.9305C79.2556 11.9305 79.1766 11.9447 79.0325 11.973C78.8855 12.0014 78.7261 12.0552 78.5542 12.1346C78.3823 12.2139 78.2242 12.3273 78.0801 12.4746C77.9387 12.6248 77.868 12.8204 77.868 13.0613L78.4585 24.1136C78.4641 24.3149 78.5154 24.4849 78.6124 24.6238C78.7122 24.7626 78.8328 24.8774 78.9742 24.9681C79.1156 25.0559 79.2667 25.1225 79.4275 25.1679C79.5856 25.2132 79.7339 25.2486 79.8726 25.2741C80.0112 25.2968 80.1304 25.3096 80.2302 25.3124C80.3273 25.3181 80.3786 25.3209 80.3841 25.3209C80.4201 25.3209 80.4423 25.3308 80.4506 25.3507C80.4617 25.3705 80.4673 25.3875 80.4673 25.4017V25.8565C80.4673 25.8707 80.4617 25.8891 80.4506 25.9118C80.4423 25.9316 80.4201 25.9415 80.3841 25.9415H73.7049C73.6495 25.9415 73.6217 25.9132 73.6217 25.8565V25.4017C73.6217 25.3478 73.6495 25.3209 73.7049 25.3209C73.8685 25.3209 74.0529 25.311 74.258 25.2911C74.466 25.2741 74.6642 25.2345 74.8528 25.1721C75.0413 25.1098 75.2007 25.0191 75.331 24.9001C75.4586 24.7782 75.5223 24.6167 75.5223 24.4155L75.0565 15.9349C75.0482 15.8669 75.0316 15.8329 75.0066 15.8329C74.9789 15.8329 74.9512 15.864 74.9235 15.9264L70.4776 25.763C70.4416 25.8395 70.3958 25.8891 70.3404 25.9118C70.2821 25.9316 70.1823 25.9415 70.0409 25.9415C69.7969 25.9415 69.6153 25.9344 69.4961 25.9203C69.3769 25.9061 69.2979 25.8508 69.259 25.7545L64.9338 16.0114C64.9116 15.9604 64.8964 15.9235 64.888 15.9009C64.877 15.8754 64.8576 15.8626 64.8298 15.8626C64.7827 15.8626 64.7591 15.908 64.7591 15.9986C64.7591 16.2055 64.7494 16.5102 64.73 16.9126C64.7078 17.315 64.6801 17.767 64.6468 18.2686C64.6136 18.7702 64.5803 19.3002 64.547 19.8585C64.5137 20.4196 64.4791 20.9637 64.443 21.4908C64.4098 22.0151 64.3834 22.504 64.364 22.9574C64.3446 23.4108 64.3349 23.7835 64.3349 24.0754V24.5005C64.3599 24.6308 64.4264 24.7484 64.5345 24.8533C64.6427 24.9553 64.7785 25.0418 64.9421 25.1126C65.1057 25.1806 65.2845 25.2316 65.4786 25.2656C65.6755 25.3025 65.882 25.3209 66.0983 25.3209C66.1343 25.3209 66.1537 25.3308 66.1565 25.3507C66.1593 25.3705 66.1607 25.3875 66.1607 25.4017V25.8565C66.1607 25.9132 66.1399 25.9415 66.0983 25.9415H61.0535C60.9981 25.9415 60.9704 25.9132 60.9704 25.8565ZM82.0601 18.5024C82.0601 17.8024 82.1516 17.1308 82.3346 16.4875C82.5176 15.8442 82.7755 15.2406 83.1082 14.6766C83.4381 14.1127 83.8346 13.6011 84.2976 13.142C84.7634 12.6801 85.2736 12.2833 85.8281 11.9518C86.3826 11.6202 86.9759 11.3637 87.6081 11.1824C88.243 11.0038 88.8946 10.9145 89.5628 10.9145C89.9232 10.9145 90.2892 10.9372 90.6607 10.9826C91.0323 11.0279 91.3955 11.0846 91.7504 11.1526C92.108 11.2206 92.4449 11.2971 92.761 11.3821C93.0798 11.4643 93.3599 11.5394 93.6011 11.6074C93.8395 11.6783 94.035 11.7364 94.1875 11.7817C94.34 11.8271 94.4273 11.8497 94.4495 11.8497H94.5701C94.6228 11.8497 94.6644 11.8441 94.6949 11.8327C94.7254 11.8214 94.7531 11.8087 94.778 11.7945C94.8002 11.7803 94.8252 11.769 94.8529 11.7605C94.8806 11.7491 94.9222 11.7435 94.9777 11.7435H95.3811C95.3949 11.7435 95.4171 11.7491 95.4476 11.7605C95.4781 11.769 95.4934 11.8016 95.4934 11.8583V15.3142C95.4934 15.3908 95.4615 15.4432 95.3977 15.4715C95.3339 15.497 95.2785 15.5098 95.2314 15.5098C95.1704 15.5041 95.1149 15.4701 95.065 15.4078C95.0179 15.3454 94.9749 15.276 94.9361 15.1995C94.8945 15.123 94.8598 15.0507 94.8321 14.9827C94.8071 14.9118 94.7905 14.8594 94.7822 14.8254C94.6131 14.2869 94.3746 13.8321 94.0669 13.4608C93.7591 13.0924 93.3973 12.7906 92.9814 12.5554C92.5655 12.3202 92.108 12.1501 91.609 12.0453C91.1127 11.9404 90.59 11.888 90.0411 11.888C89.1011 11.888 88.3165 12.0651 87.6871 12.4194C87.0577 12.7708 86.5517 13.244 86.1691 13.8392C85.7865 14.4343 85.5148 15.1215 85.354 15.9009C85.1959 16.6802 85.1169 17.4978 85.1169 18.3536C85.1169 18.9431 85.1738 19.5212 85.2874 20.088C85.4039 20.6548 85.5689 21.1933 85.7823 21.7034C85.9958 22.2106 86.2551 22.6768 86.5601 23.1019C86.8623 23.527 87.2019 23.894 87.579 24.2029C87.9533 24.5118 88.3595 24.7527 88.7975 24.9256C89.2328 25.0984 89.6945 25.1849 90.1825 25.1849C90.7314 25.1849 91.2139 25.1239 91.6298 25.0021C92.0456 24.8802 92.3825 24.6436 92.6404 24.2922V21.9967C92.6404 21.6991 92.6043 21.4341 92.5322 21.2018C92.4629 20.9722 92.3326 20.7781 92.1413 20.6194C91.9528 20.4579 91.6963 20.336 91.3719 20.2538C91.0475 20.1716 90.6316 20.1305 90.1242 20.1305C90.0826 20.1305 90.0535 20.0909 90.0369 20.0115C90.0203 19.9322 90.0119 19.8641 90.0119 19.8075C90.0119 19.7735 90.0203 19.7154 90.0369 19.6332C90.0535 19.5482 90.0826 19.5056 90.1242 19.5056H97.1902C97.2429 19.5056 97.2748 19.5453 97.2859 19.6247C97.2969 19.704 97.3025 19.765 97.3025 19.8075C97.3025 19.8415 97.2956 19.8967 97.2817 19.9732C97.2678 20.0498 97.2373 20.1022 97.1902 20.1305C97.0072 20.207 96.8187 20.2722 96.6246 20.3261C96.4333 20.3828 96.2558 20.455 96.0922 20.5429C95.9287 20.6336 95.7956 20.7568 95.693 20.9127C95.5876 21.0686 95.535 21.2811 95.535 21.5503V24.5812C95.535 24.6379 95.5128 24.6833 95.4684 24.7173C95.4241 24.7513 95.3547 24.7895 95.2605 24.832C94.8806 25.0191 94.4509 25.1948 93.9712 25.3592C93.4888 25.5264 92.9939 25.6737 92.4865 25.8013C91.9791 25.9288 91.4759 26.0308 90.9768 26.1073C90.475 26.1838 90.0175 26.2221 89.6044 26.2221C88.5563 26.2221 87.5748 26.0436 86.6599 25.6865C85.7449 25.3294 84.9464 24.8179 84.2643 24.1519C83.5795 23.4831 83.0416 22.6712 82.6507 21.7161C82.257 20.7611 82.0601 19.6899 82.0601 18.5024ZM103.982 12.8955C103.982 12.7509 103.953 12.6702 103.894 12.6532C103.836 12.6362 103.767 12.6206 103.686 12.6064H100.243C99.9933 12.6603 99.7978 12.7623 99.6564 12.9125C99.5122 13.0598 99.4 13.2341 99.3196 13.4353C99.2391 13.6366 99.1782 13.8533 99.1366 14.0857C99.0977 14.3153 99.0548 14.5377 99.0076 14.7531C98.9938 14.8155 98.9799 14.8906 98.966 14.9784C98.9522 15.0634 98.9383 15.113 98.9245 15.1272C98.9106 15.147 98.887 15.157 98.8538 15.157H98.5169C98.4781 15.157 98.4587 15.1442 98.4587 15.1187V14.7744L98.833 11.2249C98.8468 11.1483 98.8773 11.0761 98.9245 11.0081C98.9716 10.9372 99.0465 10.9018 99.149 10.9018C99.1962 10.9018 99.2419 10.916 99.2863 10.9443C99.3306 10.9726 99.3722 11.0052 99.411 11.0421C99.4526 11.0818 99.4915 11.1186 99.5275 11.1526C99.5663 11.1866 99.6051 11.2107 99.6439 11.2249C99.7271 11.2589 99.8034 11.2815 99.8727 11.2929C99.9448 11.3042 100.025 11.3099 100.114 11.3099H110.752C110.841 11.3099 110.921 11.3042 110.994 11.2929C111.063 11.2815 111.139 11.2589 111.222 11.2249C111.261 11.2107 111.3 11.1866 111.339 11.1526C111.375 11.1186 111.414 11.0818 111.455 11.0421C111.494 11.0052 111.536 10.9726 111.58 10.9443C111.624 10.916 111.67 10.9018 111.717 10.9018C111.82 10.9018 111.895 10.9372 111.942 11.0081C111.989 11.0761 112.019 11.1483 112.033 11.2249L112.408 14.7744V15.1187C112.408 15.1442 112.388 15.157 112.349 15.157H112.013C111.979 15.157 111.956 15.147 111.942 15.1272C111.928 15.113 111.914 15.0634 111.9 14.9784C111.886 14.8906 111.872 14.8155 111.859 14.7531C111.811 14.5377 111.769 14.3153 111.73 14.0857C111.688 13.8533 111.627 13.6366 111.547 13.4353C111.464 13.2341 111.351 13.0598 111.21 12.9125C111.068 12.7623 110.872 12.6603 110.619 12.6064H107.167C107.087 12.6206 107.018 12.6362 106.959 12.6532C106.904 12.6702 106.876 12.7509 106.876 12.8955V23.9181C106.876 24.125 106.926 24.3106 107.026 24.475C107.129 24.6365 107.266 24.7796 107.438 24.9043C107.61 25.029 107.813 25.1296 108.049 25.2061C108.282 25.2826 108.53 25.3337 108.794 25.3592C108.868 25.3677 108.963 25.3719 109.076 25.3719C109.193 25.3719 109.291 25.3719 109.372 25.3719C109.405 25.3719 109.427 25.3818 109.438 25.4017C109.449 25.4215 109.455 25.4385 109.455 25.4527V25.8565C109.455 25.8707 109.449 25.8891 109.438 25.9118C109.427 25.9316 109.405 25.9415 109.372 25.9415H101.482C101.449 25.9415 101.427 25.9316 101.416 25.9118C101.407 25.8891 101.403 25.8707 101.403 25.8565V25.4527C101.403 25.4385 101.407 25.4215 101.416 25.4017C101.427 25.3818 101.449 25.3719 101.482 25.3719C101.557 25.3719 101.654 25.3719 101.773 25.3719C101.893 25.3719 101.988 25.3677 102.06 25.3592C102.326 25.3337 102.576 25.2826 102.809 25.2061C103.042 25.1296 103.244 25.029 103.416 24.9043C103.591 24.7796 103.728 24.6365 103.828 24.475C103.93 24.3106 103.982 24.125 103.982 23.9181V12.8955ZM113.127 25.712V25.4102C113.127 25.4045 113.131 25.3903 113.14 25.3677C113.145 25.3422 113.169 25.3294 113.21 25.3294H113.431C113.716 25.3096 114.007 25.2968 114.304 25.2911C114.603 25.2883 114.875 25.2515 115.119 25.1806C115.363 25.1069 115.563 24.978 115.718 24.7938C115.873 24.6124 115.951 24.3276 115.951 23.9394V13.3121C115.951 13.0428 115.897 12.8232 115.789 12.6532C115.681 12.4831 115.538 12.3457 115.36 12.2408C115.186 12.1388 114.986 12.0609 114.762 12.007C114.54 11.956 114.314 11.9135 114.084 11.8795H113.867C113.834 11.8795 113.813 11.8696 113.805 11.8497C113.794 11.8271 113.788 11.8087 113.788 11.7945V11.3907C113.788 11.3765 113.794 11.3595 113.805 11.3396C113.813 11.3198 113.834 11.3099 113.867 11.3099H123.982C124.104 11.3099 124.193 11.3311 124.248 11.3736C124.301 11.419 124.334 11.5182 124.348 11.6712L124.531 14.9912C124.531 15.028 124.502 15.0549 124.443 15.0719C124.385 15.0889 124.333 15.0974 124.285 15.0974C124.233 15.0974 124.179 15.0904 124.123 15.0762C124.071 15.062 124.033 15.0408 124.011 15.0124C123.964 14.9444 123.931 14.8424 123.911 14.7064C123.892 14.5732 123.87 14.423 123.845 14.2558C123.822 14.0886 123.789 13.9157 123.745 13.7372C123.7 13.5558 123.634 13.39 123.545 13.2398C123.456 13.0868 123.336 12.9536 123.183 12.8402C123.034 12.724 122.839 12.6461 122.601 12.6064H118.979C118.89 12.6064 118.846 12.6518 118.846 12.7424V17.6905C118.846 17.7585 118.879 17.7925 118.945 17.7925H121.848C122.017 17.7925 122.185 17.7713 122.352 17.7288C122.518 17.6834 122.663 17.6012 122.788 17.4822C122.913 17.366 123.014 17.2017 123.092 16.9891C123.172 16.7794 123.212 16.5088 123.212 16.1772C123.212 16.1205 123.239 16.0922 123.291 16.0922H123.687C123.742 16.0922 123.77 16.1205 123.77 16.1772V20.9297C123.77 20.9637 123.76 20.9864 123.741 20.9977C123.718 21.0062 123.7 21.0105 123.687 21.0105H123.291C123.258 21.0105 123.236 21.0006 123.225 20.9807C123.217 20.9609 123.212 20.9439 123.212 20.9297C123.212 20.5415 123.172 20.2283 123.092 19.9903C123.014 19.7522 122.912 19.5652 122.784 19.4291C122.657 19.2931 122.51 19.2038 122.343 19.1613C122.177 19.116 122.002 19.0933 121.819 19.0933H118.945C118.879 19.0933 118.846 19.1273 118.846 19.1953V23.7311C118.846 23.9323 118.876 24.0938 118.937 24.2157C118.998 24.3347 119.081 24.4254 119.187 24.4877C119.289 24.5501 119.408 24.5912 119.544 24.611C119.68 24.6337 119.823 24.645 119.973 24.645H122.742C123.136 24.645 123.465 24.5529 123.728 24.3687C123.992 24.1845 124.205 23.962 124.369 23.7013C124.529 23.4377 124.65 23.1643 124.73 22.8809C124.808 22.5975 124.857 22.3552 124.876 22.154C124.89 22.0633 124.934 21.9924 125.009 21.9414C125.084 21.8904 125.168 21.8649 125.263 21.8649C125.296 21.8649 125.336 21.8777 125.383 21.9032C125.43 21.9315 125.454 21.9627 125.454 21.9967L125.121 25.797C125.107 25.831 125.088 25.8636 125.063 25.8948C125.041 25.9259 125.012 25.9415 124.976 25.9415H113.21C113.169 25.9415 113.145 25.9288 113.14 25.9033C113.131 25.8806 113.127 25.865 113.127 25.8565V25.712ZM126.61 25.8565V25.4017C126.61 25.3875 126.616 25.3705 126.627 25.3507C126.638 25.3308 126.66 25.3209 126.693 25.3209C127.14 25.3209 127.486 25.2671 127.733 25.1594C127.98 25.0517 128.163 24.9029 128.282 24.713C128.401 24.5231 128.473 24.2964 128.498 24.0329C128.526 23.7693 128.547 23.4859 128.561 23.1827C128.602 22.29 128.651 21.4228 128.706 20.5811C128.765 19.7394 128.821 18.9134 128.877 18.1028C128.93 17.2895 128.977 16.4847 129.018 15.6883C129.057 14.892 129.076 14.0928 129.076 13.2908V12.9082C129.076 12.7467 129.027 12.6064 128.927 12.4874C128.824 12.3655 128.704 12.2635 128.565 12.1813C128.426 12.0963 128.286 12.034 128.145 11.9943C128.003 11.9518 127.891 11.9305 127.808 11.9305C127.755 11.9305 127.729 11.9036 127.729 11.8497V11.3907C127.729 11.3765 127.732 11.3595 127.737 11.3396C127.746 11.3198 127.769 11.3099 127.808 11.3099H131.405C131.478 11.3212 131.537 11.3467 131.584 11.3864C131.634 11.4232 131.679 11.4728 131.717 11.5352L136.134 21.6013C136.181 21.7204 136.242 21.7799 136.317 21.7799C136.392 21.7799 136.446 21.7629 136.479 21.7289C136.513 21.6949 136.54 21.6495 136.562 21.5928L140.929 11.7222C140.996 11.5919 141.062 11.4898 141.129 11.4162C141.198 11.3453 141.266 11.3099 141.333 11.3099H144.909C144.948 11.3099 144.972 11.3198 144.98 11.3396C144.986 11.3595 144.988 11.3765 144.988 11.3907V11.8497C144.988 11.8611 144.983 11.8781 144.972 11.9008C144.963 11.9206 144.943 11.9305 144.909 11.9305C144.896 11.9305 144.815 11.9447 144.668 11.973C144.524 12.0014 144.365 12.0552 144.19 12.1346C144.018 12.2139 143.861 12.3273 143.72 12.4746C143.579 12.6248 143.508 12.8204 143.508 13.0613L144.094 24.1136C144.103 24.3149 144.155 24.4849 144.252 24.6238C144.352 24.7626 144.473 24.8774 144.614 24.9681C144.755 25.0559 144.905 25.1225 145.063 25.1679C145.224 25.2132 145.374 25.2486 145.512 25.2741C145.651 25.2968 145.769 25.3096 145.866 25.3124C145.966 25.3181 146.018 25.3209 146.024 25.3209C146.057 25.3209 146.079 25.3308 146.09 25.3507C146.102 25.3705 146.107 25.3875 146.107 25.4017V25.8565C146.107 25.8707 146.102 25.8891 146.09 25.9118C146.079 25.9316 146.057 25.9415 146.024 25.9415H139.345C139.289 25.9415 139.262 25.9132 139.262 25.8565V25.4017C139.262 25.3478 139.289 25.3209 139.345 25.3209C139.506 25.3209 139.69 25.311 139.898 25.2911C140.103 25.2741 140.301 25.2345 140.493 25.1721C140.681 25.1098 140.839 25.0191 140.967 24.9001C141.097 24.7782 141.162 24.6167 141.162 24.4155L140.692 15.9349C140.687 15.8669 140.67 15.8329 140.642 15.8329C140.615 15.8329 140.588 15.864 140.563 15.9264L136.113 25.763C136.08 25.8395 136.034 25.8891 135.976 25.9118C135.921 25.9316 135.821 25.9415 135.677 25.9415C135.433 25.9415 135.252 25.9344 135.136 25.9203C135.017 25.9061 134.936 25.8508 134.895 25.7545L130.57 16.0114C130.55 15.9604 130.535 15.9235 130.524 15.9009C130.515 15.8754 130.497 15.8626 130.47 15.8626C130.423 15.8626 130.399 15.908 130.399 15.9986C130.399 16.2055 130.389 16.5102 130.37 16.9126C130.348 17.315 130.32 17.767 130.287 18.2686C130.253 18.7702 130.22 19.3002 130.187 19.8585C130.151 20.4196 130.116 20.9637 130.083 21.4908C130.05 22.0151 130.023 22.504 130.004 22.9574C129.982 23.4108 129.971 23.7835 129.971 24.0754V24.5005C129.998 24.6308 130.066 24.7484 130.174 24.8533C130.283 24.9553 130.418 25.0418 130.582 25.1126C130.743 25.1806 130.922 25.2316 131.118 25.2656C131.315 25.3025 131.522 25.3209 131.738 25.3209C131.771 25.3209 131.791 25.3308 131.796 25.3507C131.799 25.3705 131.801 25.3875 131.801 25.4017V25.8565C131.801 25.9132 131.78 25.9415 131.738 25.9415H126.693C126.638 25.9415 126.61 25.9132 126.61 25.8565ZM154.533 25.9415H147.546C147.493 25.9415 147.467 25.9075 147.467 25.8395V25.4017C147.467 25.396 147.47 25.3804 147.475 25.3549C147.481 25.3322 147.505 25.3209 147.546 25.3209C147.776 25.3209 147.991 25.2855 148.191 25.2146C148.39 25.1466 148.565 25.0531 148.715 24.9341C148.864 24.8179 148.982 24.6762 149.068 24.509C149.157 24.3418 149.201 24.1618 149.201 23.9691V13.4268C149.201 13.0811 149.168 12.809 149.102 12.6107C149.032 12.4123 148.932 12.2635 148.802 12.1643C148.669 12.0651 148.503 12.0028 148.303 11.9773C148.103 11.9546 147.872 11.9433 147.608 11.9433H147.151C147.076 11.9433 147.022 11.8993 146.989 11.8115C146.956 11.7265 146.939 11.6528 146.939 11.5904C146.939 11.5536 146.946 11.5012 146.96 11.4332C146.971 11.3623 147.007 11.3212 147.068 11.3099C147.076 11.3099 147.098 11.3099 147.134 11.3099C147.173 11.3099 147.24 11.307 147.334 11.3014C147.428 11.2985 147.554 11.2957 147.712 11.2929C147.873 11.29 148.083 11.2844 148.34 11.2759C148.712 11.2702 149.108 11.2603 149.53 11.2461C149.954 11.2319 150.382 11.2178 150.815 11.2036C151.25 11.1894 151.679 11.1781 152.1 11.1696C152.524 11.1583 152.922 11.1526 153.294 11.1526H154.724C155.268 11.1526 155.796 11.2461 156.309 11.4332C156.825 11.6202 157.282 11.8951 157.681 12.2578C158.081 12.6206 158.402 13.0726 158.646 13.6139C158.887 14.1523 159.008 14.7744 159.008 15.48C159.008 15.9221 158.944 16.3458 158.817 16.7511C158.689 17.1563 158.515 17.529 158.293 17.869C158.074 18.2063 157.82 18.5124 157.532 18.7872C157.243 19.0593 156.942 19.2889 156.629 19.4759C156.313 19.6629 155.993 19.8046 155.668 19.901C155.386 19.9775 155.118 20.0158 154.866 20.0158C154.827 20.0158 154.791 20.0158 154.758 20.0158L152.329 19.8925C152.323 19.8925 152.296 19.8925 152.246 19.8925C152.199 19.8925 152.165 19.8996 152.146 19.9137C152.126 19.9251 152.113 19.9378 152.104 19.952C152.099 19.9662 152.096 19.9945 152.096 20.037V23.9394C152.096 24.2086 152.168 24.431 152.312 24.6067C152.459 24.7853 152.649 24.9256 152.882 25.0276C153.115 25.1324 153.377 25.2075 153.668 25.2529C153.959 25.2982 154.247 25.3209 154.533 25.3209C154.572 25.3209 154.595 25.3308 154.604 25.3507C154.609 25.3705 154.612 25.3875 154.612 25.4017V25.8565C154.612 25.8707 154.608 25.8891 154.6 25.9118C154.589 25.9316 154.566 25.9415 154.533 25.9415ZM152.096 18.4089L152.117 18.7192C152.122 18.7731 152.138 18.8227 152.162 18.868C152.185 18.9134 152.233 18.9389 152.308 18.9445C152.336 18.9445 152.386 18.9488 152.458 18.9573C152.527 18.9629 152.609 18.97 152.703 18.9785C152.8 18.9842 152.904 18.9913 153.015 18.9998C153.126 19.0055 153.235 19.0083 153.344 19.0083C153.798 19.0083 154.196 18.9148 154.537 18.7277C154.878 18.5407 155.162 18.28 155.39 17.9456C155.617 17.6083 155.786 17.2102 155.897 16.7511C156.008 16.292 156.064 15.7847 156.064 15.2292C156.064 14.09 155.84 13.254 155.394 12.7212C154.948 12.1884 154.292 11.922 153.427 11.922C153.333 11.922 153.244 11.9234 153.161 11.9263C153.08 11.9291 153 11.9319 152.919 11.9348C152.836 11.9404 152.749 11.9447 152.657 11.9475C152.566 11.9504 152.463 11.9546 152.35 11.9603C152.308 11.9603 152.255 11.9702 152.192 11.99C152.128 12.007 152.096 12.0524 152.096 12.1261V18.4089Z" fill="white"/>
</g>
</g>
<g clip-path="url(#clip7_187_36)">
<g clip-path="url(#clip8_187_36)">
<path d="M54.1363 32.4993C53.8585 32.4993 53.656 32.4325 53.5285 32.2989C53.4027 32.1653 53.3398 31.9942 53.3398 31.7855V31.5726C53.3398 31.3638 53.4027 31.1927 53.5285 31.0591C53.656 30.9255 53.8585 30.8587 54.1363 30.8587C54.414 30.8587 54.6141 30.9255 54.7366 31.0591C54.8592 31.1927 54.9204 31.3638 54.9204 31.5726V31.7855C54.9204 31.9942 54.8592 32.1653 54.7366 32.2989C54.6141 32.4325 54.414 32.4993 54.1363 32.4993ZM53.4624 40.1764V33.664H54.7979V40.1764H53.4624ZM58.0449 40.1764H56.7093V33.664H58.0449V34.7411H58.1061C58.245 34.3904 58.4549 34.0982 58.7359 33.8644C59.0185 33.6306 59.4049 33.5137 59.895 33.5137C60.5485 33.5137 61.0566 33.7325 61.4192 34.17C61.7835 34.6091 61.9657 35.2337 61.9657 36.0435V40.1764H60.6302V36.2189C60.6302 35.2003 60.2299 34.691 59.4294 34.691C59.2579 34.691 59.088 34.7135 58.9197 34.7586C58.7531 34.8054 58.6044 34.8746 58.4737 34.9665C58.343 35.0583 58.2384 35.1752 58.16 35.3172C58.0832 35.4591 58.0449 35.6261 58.0449 35.8181V40.1764ZM66.7442 40.1764H65.5802C65.1146 40.1764 64.7634 40.0528 64.5265 39.8057C64.2896 39.5602 64.1712 39.212 64.1712 38.7612V34.7786H63.1787V33.664H63.7178C63.9384 33.664 64.0911 33.6139 64.1761 33.5137C64.2627 33.4135 64.306 33.2507 64.306 33.0253V31.8857H65.5067V33.664H66.8422V34.7786H65.5067V39.0618H66.7442V40.1764ZM70.7361 40.3266C70.2787 40.3266 69.8703 40.2473 69.5109 40.0887C69.1515 39.9301 68.8451 39.7021 68.5919 39.4049C68.3387 39.1093 68.1451 38.7503 68.0111 38.3279C67.8756 37.9071 67.8078 37.4378 67.8078 36.9202C67.8078 36.4025 67.8756 35.9325 68.0111 35.51C68.1451 35.0892 68.3387 34.7302 68.5919 34.433C68.8451 34.1374 69.1515 33.9103 69.5109 33.7517C69.8703 33.5931 70.2787 33.5137 70.7361 33.5137C71.2017 33.5137 71.6126 33.5972 71.9687 33.7642C72.3233 33.9312 72.619 34.1625 72.8558 34.458C73.0927 34.7553 73.2708 35.1001 73.3901 35.4925C73.5077 35.8849 73.5665 36.3065 73.5665 36.7574V37.2709H69.1923V37.4838C69.1923 37.9847 69.3377 38.3955 69.6285 38.7161C69.9177 39.0384 70.3318 39.1995 70.8709 39.1995C71.263 39.1995 71.5938 39.1118 71.8634 38.9365C72.1329 38.7612 72.3617 38.5232 72.5495 38.2227L73.3337 39.0117C73.0968 39.4124 72.7537 39.7314 72.3045 39.9685C71.8552 40.2073 71.3324 40.3266 70.7361 40.3266ZM70.7361 34.5783C70.5074 34.5783 70.2975 34.62 70.1063 34.7035C69.9136 34.787 69.7502 34.9039 69.6162 35.0542C69.4806 35.2044 69.3761 35.3839 69.3026 35.5927C69.2291 35.8014 69.1923 36.031 69.1923 36.2815V36.3691H72.1574V36.2439C72.1574 35.743 72.0308 35.3397 71.7776 35.0341C71.5244 34.7302 71.1772 34.5783 70.7361 34.5783ZM76.3846 40.1764H75.0491V33.664H76.3846V34.9164H76.4459C76.5357 34.5824 76.7236 34.2902 77.0095 34.0397C77.2954 33.7893 77.6915 33.664 78.198 33.664H78.5533V34.979H78.0265C77.4955 34.979 77.0895 35.0667 76.8085 35.242C76.5259 35.4173 76.3846 35.6762 76.3846 36.0185V40.1764ZM81.0774 40.1764H79.7418V33.664H81.0774V34.7411H81.1386C81.2775 34.3904 81.4874 34.0982 81.7684 33.8644C82.051 33.6306 82.4374 33.5137 82.9275 33.5137C83.581 33.5137 84.0891 33.7325 84.4517 34.17C84.816 34.6091 84.9982 35.2337 84.9982 36.0435V40.1764H83.6627V36.2189C83.6627 35.2003 83.2624 34.691 82.4619 34.691C82.2904 34.691 82.1205 34.7135 81.9522 34.7586C81.7856 34.8054 81.6369 34.8746 81.5062 34.9665C81.3755 35.0583 81.2709 35.1752 81.1925 35.3172C81.1157 35.4591 81.0774 35.6261 81.0774 35.8181V40.1764ZM89.3479 40.3266C88.8905 40.3266 88.482 40.2473 88.1226 40.0887C87.7632 39.9301 87.4569 39.7021 87.2037 39.4049C86.9505 39.1093 86.756 38.7503 86.6205 38.3279C86.4865 37.9071 86.4195 37.4378 86.4195 36.9202C86.4195 36.4025 86.4865 35.9325 86.6205 35.51C86.756 35.0892 86.9505 34.7302 87.2037 34.433C87.4569 34.1374 87.7632 33.9103 88.1226 33.7517C88.482 33.5931 88.8905 33.5137 89.3479 33.5137C89.8135 33.5137 90.2235 33.5972 90.5781 33.7642C90.9342 33.9312 91.2307 34.1625 91.4676 34.458C91.7045 34.7553 91.8817 35.1001 91.9994 35.4925C92.1186 35.8849 92.1782 36.3065 92.1782 36.7574V37.2709H87.8041V37.4838C87.8041 37.9847 87.9486 38.3955 88.2378 38.7161C88.5286 39.0384 88.9436 39.1995 89.4827 39.1995C89.8748 39.1995 90.2056 39.1118 90.4751 38.9365C90.7447 38.7612 90.9734 38.5232 91.1613 38.2227L91.9454 39.0117C91.7086 39.4124 91.3655 39.7314 90.9162 39.9685C90.467 40.2073 89.9442 40.3266 89.3479 40.3266ZM89.3479 34.5783C89.1192 34.5783 88.9084 34.62 88.7157 34.7035C88.5245 34.787 88.3611 34.9039 88.2255 35.0542C88.0916 35.2044 87.9878 35.3839 87.9143 35.5927C87.8408 35.8014 87.8041 36.031 87.8041 36.2815V36.3691H90.7692V36.2439C90.7692 35.743 90.6426 35.3397 90.3894 35.0341C90.1361 34.7302 89.789 34.5783 89.3479 34.5783ZM96.5867 40.1764H95.4227C94.9571 40.1764 94.6059 40.0528 94.369 39.8057C94.1321 39.5602 94.0137 39.212 94.0137 38.7612V34.7786H93.0212V33.664H93.5603C93.7809 33.664 93.9345 33.6139 94.021 33.5137C94.106 33.4135 94.1485 33.2507 94.1485 33.0253V31.8857H95.3492V33.664H96.6848V34.7786H95.3492V39.0618H96.5867V40.1764Z" fill="#C0956A"/>
</g>
</g>
</g>
</g>
<g clip-path="url(#clip9_187_36)">
<g clip-path="url(#clip10_187_36)">
<path d="M25.2462 0.518188C11.6862 0.518188 0.693359 11.7542 0.693359 25.6143C0.693359 39.4743 11.6862 50.7103 25.2462 50.7103C38.8062 50.7103 49.799 39.4743 49.799 25.6143C49.799 11.7542 38.8062 0.518188 25.2462 0.518188ZM25.2462 7.62339C34.9686 7.62339 42.8476 15.6762 42.8476 25.6143C42.8476 35.5518 34.9686 43.6051 25.2462 43.6051C15.5238 43.6051 7.64476 35.5518 7.64476 25.6143C7.64476 15.6767 15.5238 7.62339 25.2462 7.62339ZM25.2462 10.6194C17.1413 10.6194 10.5759 17.3301 10.5759 25.6143C10.5759 33.8985 17.1413 40.6092 25.2462 40.6092C33.3511 40.6092 39.9165 33.8985 39.9165 25.6143C39.9165 17.3301 33.3511 10.6194 25.2462 10.6194ZM25.2462 15.4504C30.7352 15.4504 35.1901 20.0038 35.1901 25.6143C35.1901 31.2247 30.7352 35.7782 25.2462 35.7782C19.7572 35.7782 15.3023 31.2247 15.3023 25.6143C15.3023 20.0038 19.7572 15.4504 25.2462 15.4504Z" fill="#C0956A"/>
</g>
</g>
</g>
</g>
</g>
<defs>
<clipPath id="clip0_187_36">
<rect width="158.824" height="50" fill="white" transform="translate(0.576172 0.614258)"/>
</clipPath>
<clipPath id="clip1_187_36">
<rect width="158.589" height="50.1922" fill="white" transform="translate(0.693359 0.518188)"/>
</clipPath>
<clipPath id="clip2_187_36">
<rect width="158.589" height="50.1922" fill="white" transform="translate(0.693359 0.518188)"/>
</clipPath>
<clipPath id="clip3_187_36">
<rect width="105.945" height="29.4249" fill="white" transform="translate(53.3379 10.9018)"/>
</clipPath>
<clipPath id="clip4_187_36">
<rect width="105.945" height="29.4249" fill="white" transform="translate(53.3379 10.9018)"/>
</clipPath>
<clipPath id="clip5_187_36">
<rect width="105.418" height="15.3203" fill="white" transform="translate(53.6016 10.9018)"/>
</clipPath>
<clipPath id="clip6_187_36">
<rect width="105.418" height="15.3203" fill="white" transform="translate(53.6016 10.9018)"/>
</clipPath>
<clipPath id="clip7_187_36">
<rect width="43.3498" height="9.46795" fill="white" transform="translate(53.3379 30.8588)"/>
</clipPath>
<clipPath id="clip8_187_36">
<rect width="43.3498" height="9.46795" fill="white" transform="translate(53.3379 30.8588)"/>
</clipPath>
<clipPath id="clip9_187_36">
<rect width="49.1057" height="50.1922" fill="white" transform="translate(0.693359 0.518188)"/>
</clipPath>
<clipPath id="clip10_187_36">
<rect width="49.1057" height="50.1922" fill="white" transform="translate(0.693359 0.518188)"/>
</clipPath>
</defs>
</svg>
