<svg width="419" height="411" viewBox="0 0 419 411" fill="none" xmlns="http://www.w3.org/2000/svg">
<g clip-path="url(#clip0_197_586)">
<path d="M181.334 0.799991C160.8 4.66666 153.6 6.26666 143.334 9.59999C71.7336 32.9333 18.4003 94 4.53359 168.667C1.06693 187.2 1.06693 223.467 4.53359 242C20.0003 324.933 81.6003 388.133 165.334 407.067C182.934 411.067 229.334 411.333 246.667 407.467C310.934 393.6 361.867 354.933 390.534 298.267C420.4 239.2 420.4 171.467 390.534 112.4C366.134 64.2667 323.067 26.8 272.667 10.2667C250 2.79999 239.867 1.19999 211.334 0.666658C196.667 0.399991 183.2 0.533324 181.334 0.799991ZM229.734 59.3333C282.8 67.3333 327.867 104.533 346.134 155.2C367.2 214.4 348.934 280.4 300.667 319.6C271.6 343.067 236.667 354.667 200 352.8C126.8 349.333 67.8669 293.2 60.0003 219.467C54.2669 166 80.4003 111.6 126.4 81.6C157.467 61.3333 192.8 53.7333 229.734 59.3333Z" fill="#865F37"/>
<path d="M181.334 85.2C153.334 91.3333 128.801 106.533 111.334 128.4C62.4009 189.6 82.4009 280.533 152.668 315.333C168.934 323.467 182.401 326.8 202.001 327.6C228.801 328.8 252.534 322.4 274.268 308C305.868 287.2 325.601 254.4 329.201 216.933C334.934 156.8 297.334 102.933 238.001 86.2667C224.134 82.4 196.268 81.8667 181.334 85.2ZM229.334 124.8C244.134 129.2 253.468 134.8 265.468 146.667C274.268 155.333 278.134 160.267 281.868 168C293.468 191.867 293.468 218.133 281.868 242.4C278.001 250.533 274.534 255.067 265.468 264C253.334 276 244.134 281.467 228.534 286.133C218.934 289.067 198.401 289.333 188.001 286.8C157.601 279.2 133.868 255.733 126.001 225.2C122.668 212.533 123.734 190.4 128.268 177.733C138.534 149.067 163.334 128.133 193.601 122.667C202.801 121.067 220.268 122.133 229.334 124.8Z" fill="#865F37"/>
</g>
<defs>
<clipPath id="clip0_197_586">
<rect width="418.667" height="410.667" fill="white"/>
</clipPath>
</defs>
</svg>
